G04 (created by PCBNEW (2013-jul-07)-stable) date Mon 03 Mar 2014 01:31:54 AM PST*
%MOIN*%
G04 Gerber Fmt 3.4, Leading zero omitted, Abs format*
%FSLAX34Y34*%
G01*
G70*
G90*
G04 APERTURE LIST*
%ADD10C,0.00590551*%
%ADD11C,0.011811*%
%ADD12C,0.012*%
%ADD13C,0.01*%
%ADD14C,0.006*%
%ADD15C,0.008*%
%ADD16C,0.003*%
%ADD17C,0.015*%
%ADD18C,0.005*%
%ADD19C,0.0035*%
%ADD20C,0.01125*%
%ADD21C,0.0075*%
G04 APERTURE END LIST*
G54D10*
G54D11*
X67787Y-62348D02*
X67506Y-62348D01*
X67478Y-62629D01*
X67506Y-62601D01*
X67562Y-62573D01*
X67703Y-62573D01*
X67759Y-62601D01*
X67787Y-62629D01*
X67815Y-62685D01*
X67815Y-62826D01*
X67787Y-62882D01*
X67759Y-62910D01*
X67703Y-62939D01*
X67562Y-62939D01*
X67506Y-62910D01*
X67478Y-62882D01*
X67984Y-62348D02*
X68181Y-62939D01*
X68378Y-62348D01*
X68290Y-57382D02*
X68262Y-57410D01*
X68178Y-57439D01*
X68122Y-57439D01*
X68037Y-57410D01*
X67981Y-57354D01*
X67953Y-57298D01*
X67925Y-57185D01*
X67925Y-57101D01*
X67953Y-56989D01*
X67981Y-56932D01*
X68037Y-56876D01*
X68122Y-56848D01*
X68178Y-56848D01*
X68262Y-56876D01*
X68290Y-56904D01*
X68543Y-57129D02*
X68740Y-57129D01*
X68825Y-57439D02*
X68543Y-57439D01*
X68543Y-56848D01*
X68825Y-56848D01*
X69190Y-56848D02*
X69246Y-56848D01*
X69303Y-56876D01*
X69331Y-56904D01*
X69359Y-56960D01*
X69387Y-57073D01*
X69387Y-57214D01*
X69359Y-57326D01*
X69331Y-57382D01*
X69303Y-57410D01*
X69246Y-57439D01*
X69190Y-57439D01*
X69134Y-57410D01*
X69106Y-57382D01*
X69078Y-57326D01*
X69050Y-57214D01*
X69050Y-57073D01*
X69078Y-56960D01*
X69106Y-56904D01*
X69134Y-56876D01*
X69190Y-56848D01*
X67390Y-58355D02*
X67475Y-58383D01*
X67615Y-58383D01*
X67672Y-58355D01*
X67700Y-58327D01*
X67728Y-58271D01*
X67728Y-58215D01*
X67700Y-58158D01*
X67672Y-58130D01*
X67615Y-58102D01*
X67503Y-58074D01*
X67447Y-58046D01*
X67419Y-58018D01*
X67390Y-57962D01*
X67390Y-57905D01*
X67419Y-57849D01*
X67447Y-57821D01*
X67503Y-57793D01*
X67643Y-57793D01*
X67728Y-57821D01*
X68318Y-58327D02*
X68290Y-58355D01*
X68206Y-58383D01*
X68150Y-58383D01*
X68065Y-58355D01*
X68009Y-58299D01*
X67981Y-58243D01*
X67953Y-58130D01*
X67953Y-58046D01*
X67981Y-57933D01*
X68009Y-57877D01*
X68065Y-57821D01*
X68150Y-57793D01*
X68206Y-57793D01*
X68290Y-57821D01*
X68318Y-57849D01*
X68853Y-58383D02*
X68571Y-58383D01*
X68571Y-57793D01*
X69050Y-58383D02*
X69050Y-57793D01*
X69387Y-58383D02*
X69134Y-58046D01*
X69387Y-57793D02*
X69050Y-58130D01*
X67503Y-59328D02*
X67503Y-58738D01*
X67700Y-59160D01*
X67897Y-58738D01*
X67897Y-59328D01*
X68178Y-59328D02*
X68178Y-58738D01*
X68431Y-59300D02*
X68515Y-59328D01*
X68656Y-59328D01*
X68712Y-59300D01*
X68740Y-59272D01*
X68768Y-59216D01*
X68768Y-59160D01*
X68740Y-59103D01*
X68712Y-59075D01*
X68656Y-59047D01*
X68543Y-59019D01*
X68487Y-58991D01*
X68459Y-58963D01*
X68431Y-58906D01*
X68431Y-58850D01*
X68459Y-58794D01*
X68487Y-58766D01*
X68543Y-58738D01*
X68684Y-58738D01*
X68768Y-58766D01*
X69134Y-58738D02*
X69246Y-58738D01*
X69303Y-58766D01*
X69359Y-58822D01*
X69387Y-58935D01*
X69387Y-59131D01*
X69359Y-59244D01*
X69303Y-59300D01*
X69246Y-59328D01*
X69134Y-59328D01*
X69078Y-59300D01*
X69021Y-59244D01*
X68993Y-59131D01*
X68993Y-58935D01*
X69021Y-58822D01*
X69078Y-58766D01*
X69134Y-58738D01*
X67503Y-60273D02*
X67503Y-59683D01*
X67700Y-60104D01*
X67897Y-59683D01*
X67897Y-60273D01*
X68290Y-59683D02*
X68403Y-59683D01*
X68459Y-59711D01*
X68515Y-59767D01*
X68543Y-59879D01*
X68543Y-60076D01*
X68515Y-60189D01*
X68459Y-60245D01*
X68403Y-60273D01*
X68290Y-60273D01*
X68234Y-60245D01*
X68178Y-60189D01*
X68150Y-60076D01*
X68150Y-59879D01*
X68178Y-59767D01*
X68234Y-59711D01*
X68290Y-59683D01*
X68768Y-60245D02*
X68853Y-60273D01*
X68993Y-60273D01*
X69050Y-60245D01*
X69078Y-60217D01*
X69106Y-60161D01*
X69106Y-60104D01*
X69078Y-60048D01*
X69050Y-60020D01*
X68993Y-59992D01*
X68881Y-59964D01*
X68825Y-59936D01*
X68796Y-59908D01*
X68768Y-59851D01*
X68768Y-59795D01*
X68796Y-59739D01*
X68825Y-59711D01*
X68881Y-59683D01*
X69021Y-59683D01*
X69106Y-59711D01*
X69359Y-60273D02*
X69359Y-59683D01*
X84923Y-77504D02*
X84951Y-77476D01*
X85007Y-77448D01*
X85148Y-77448D01*
X85204Y-77476D01*
X85232Y-77504D01*
X85261Y-77560D01*
X85261Y-77617D01*
X85232Y-77701D01*
X84895Y-78039D01*
X85261Y-78039D01*
X85767Y-77645D02*
X85767Y-78039D01*
X85626Y-77420D02*
X85486Y-77842D01*
X85851Y-77842D01*
X86442Y-77448D02*
X86639Y-78039D01*
X86835Y-77448D01*
X87004Y-77870D02*
X87285Y-77870D01*
X86948Y-78039D02*
X87145Y-77448D01*
X87342Y-78039D01*
X87876Y-77982D02*
X87848Y-78010D01*
X87763Y-78039D01*
X87707Y-78039D01*
X87623Y-78010D01*
X87567Y-77954D01*
X87538Y-77898D01*
X87510Y-77785D01*
X87510Y-77701D01*
X87538Y-77589D01*
X87567Y-77532D01*
X87623Y-77476D01*
X87707Y-77448D01*
X87763Y-77448D01*
X87848Y-77476D01*
X87876Y-77504D01*
X86273Y-60048D02*
X86273Y-60470D01*
X86244Y-60554D01*
X86188Y-60610D01*
X86104Y-60639D01*
X86048Y-60639D01*
X86779Y-60610D02*
X86722Y-60639D01*
X86610Y-60639D01*
X86554Y-60610D01*
X86526Y-60554D01*
X86526Y-60329D01*
X86554Y-60273D01*
X86610Y-60245D01*
X86722Y-60245D01*
X86779Y-60273D01*
X86807Y-60329D01*
X86807Y-60385D01*
X86526Y-60442D01*
X87060Y-60639D02*
X87060Y-60245D01*
X87060Y-60357D02*
X87088Y-60301D01*
X87116Y-60273D01*
X87172Y-60245D01*
X87229Y-60245D01*
X87650Y-60610D02*
X87594Y-60639D01*
X87482Y-60639D01*
X87425Y-60610D01*
X87397Y-60554D01*
X87397Y-60329D01*
X87425Y-60273D01*
X87482Y-60245D01*
X87594Y-60245D01*
X87650Y-60273D01*
X87679Y-60329D01*
X87679Y-60385D01*
X87397Y-60442D01*
X87932Y-60639D02*
X87932Y-60245D01*
X87932Y-60301D02*
X87960Y-60273D01*
X88016Y-60245D01*
X88100Y-60245D01*
X88157Y-60273D01*
X88185Y-60329D01*
X88185Y-60639D01*
X88185Y-60329D02*
X88213Y-60273D01*
X88269Y-60245D01*
X88353Y-60245D01*
X88410Y-60273D01*
X88438Y-60329D01*
X88438Y-60639D01*
X88719Y-60639D02*
X88719Y-60245D01*
X88719Y-60048D02*
X88691Y-60076D01*
X88719Y-60104D01*
X88747Y-60076D01*
X88719Y-60048D01*
X88719Y-60104D01*
X89253Y-60639D02*
X89253Y-60329D01*
X89225Y-60273D01*
X89169Y-60245D01*
X89057Y-60245D01*
X89000Y-60273D01*
X89253Y-60610D02*
X89197Y-60639D01*
X89057Y-60639D01*
X89000Y-60610D01*
X88972Y-60554D01*
X88972Y-60498D01*
X89000Y-60442D01*
X89057Y-60414D01*
X89197Y-60414D01*
X89253Y-60385D01*
X89535Y-60639D02*
X89535Y-60048D01*
X89788Y-60639D02*
X89788Y-60329D01*
X89760Y-60273D01*
X89703Y-60245D01*
X89619Y-60245D01*
X89563Y-60273D01*
X89535Y-60301D01*
X90519Y-60639D02*
X90519Y-60048D01*
X90716Y-60470D01*
X90913Y-60048D01*
X90913Y-60639D01*
X91447Y-60639D02*
X91447Y-60329D01*
X91419Y-60273D01*
X91362Y-60245D01*
X91250Y-60245D01*
X91194Y-60273D01*
X91447Y-60610D02*
X91391Y-60639D01*
X91250Y-60639D01*
X91194Y-60610D01*
X91166Y-60554D01*
X91166Y-60498D01*
X91194Y-60442D01*
X91250Y-60414D01*
X91391Y-60414D01*
X91447Y-60385D01*
X91728Y-60639D02*
X91728Y-60048D01*
X91981Y-60639D02*
X91981Y-60329D01*
X91953Y-60273D01*
X91897Y-60245D01*
X91812Y-60245D01*
X91756Y-60273D01*
X91728Y-60301D01*
X92347Y-60639D02*
X92291Y-60610D01*
X92262Y-60554D01*
X92262Y-60048D01*
X92797Y-60610D02*
X92740Y-60639D01*
X92628Y-60639D01*
X92572Y-60610D01*
X92544Y-60554D01*
X92544Y-60329D01*
X92572Y-60273D01*
X92628Y-60245D01*
X92740Y-60245D01*
X92797Y-60273D01*
X92825Y-60329D01*
X92825Y-60385D01*
X92544Y-60442D01*
X93078Y-60639D02*
X93078Y-60245D01*
X93078Y-60357D02*
X93106Y-60301D01*
X93134Y-60273D01*
X93190Y-60245D01*
X93247Y-60245D01*
X94343Y-60245D02*
X93893Y-60414D01*
X94343Y-60582D01*
X94625Y-60245D02*
X94625Y-60751D01*
X94596Y-60807D01*
X94540Y-60835D01*
X94512Y-60835D01*
X94625Y-60048D02*
X94596Y-60076D01*
X94625Y-60104D01*
X94653Y-60076D01*
X94625Y-60048D01*
X94625Y-60104D01*
X94906Y-60639D02*
X94906Y-60245D01*
X94906Y-60301D02*
X94934Y-60273D01*
X94990Y-60245D01*
X95075Y-60245D01*
X95131Y-60273D01*
X95159Y-60329D01*
X95159Y-60639D01*
X95159Y-60329D02*
X95187Y-60273D01*
X95243Y-60245D01*
X95328Y-60245D01*
X95384Y-60273D01*
X95412Y-60329D01*
X95412Y-60639D01*
X95693Y-60639D02*
X95693Y-60245D01*
X95693Y-60301D02*
X95721Y-60273D01*
X95778Y-60245D01*
X95862Y-60245D01*
X95918Y-60273D01*
X95946Y-60329D01*
X95946Y-60639D01*
X95946Y-60329D02*
X95974Y-60273D01*
X96031Y-60245D01*
X96115Y-60245D01*
X96171Y-60273D01*
X96199Y-60329D01*
X96199Y-60639D01*
X96734Y-60639D02*
X96734Y-60329D01*
X96706Y-60273D01*
X96649Y-60245D01*
X96537Y-60245D01*
X96481Y-60273D01*
X96734Y-60610D02*
X96677Y-60639D01*
X96537Y-60639D01*
X96481Y-60610D01*
X96452Y-60554D01*
X96452Y-60498D01*
X96481Y-60442D01*
X96537Y-60414D01*
X96677Y-60414D01*
X96734Y-60385D01*
X97015Y-60639D02*
X97015Y-60048D01*
X97268Y-60639D02*
X97268Y-60329D01*
X97240Y-60273D01*
X97184Y-60245D01*
X97099Y-60245D01*
X97043Y-60273D01*
X97015Y-60301D01*
X97634Y-60639D02*
X97577Y-60610D01*
X97549Y-60554D01*
X97549Y-60048D01*
X98084Y-60610D02*
X98027Y-60639D01*
X97915Y-60639D01*
X97859Y-60610D01*
X97830Y-60554D01*
X97830Y-60329D01*
X97859Y-60273D01*
X97915Y-60245D01*
X98027Y-60245D01*
X98084Y-60273D01*
X98112Y-60329D01*
X98112Y-60385D01*
X97830Y-60442D01*
X98365Y-60639D02*
X98365Y-60245D01*
X98365Y-60357D02*
X98393Y-60301D01*
X98421Y-60273D01*
X98477Y-60245D01*
X98533Y-60245D01*
X99096Y-60357D02*
X99068Y-60329D01*
X99012Y-60301D01*
X98955Y-60301D01*
X98899Y-60329D01*
X98871Y-60357D01*
X98843Y-60414D01*
X98843Y-60470D01*
X98871Y-60526D01*
X98899Y-60554D01*
X98955Y-60582D01*
X99012Y-60582D01*
X99068Y-60554D01*
X99096Y-60526D01*
X99096Y-60301D02*
X99096Y-60526D01*
X99124Y-60554D01*
X99152Y-60554D01*
X99208Y-60526D01*
X99237Y-60470D01*
X99237Y-60329D01*
X99180Y-60245D01*
X99096Y-60189D01*
X98983Y-60160D01*
X98871Y-60189D01*
X98787Y-60245D01*
X98730Y-60329D01*
X98702Y-60442D01*
X98730Y-60554D01*
X98787Y-60639D01*
X98871Y-60695D01*
X98983Y-60723D01*
X99096Y-60695D01*
X99180Y-60639D01*
X99743Y-60245D02*
X99743Y-60723D01*
X99715Y-60779D01*
X99686Y-60807D01*
X99630Y-60835D01*
X99546Y-60835D01*
X99490Y-60807D01*
X99743Y-60610D02*
X99686Y-60639D01*
X99574Y-60639D01*
X99518Y-60610D01*
X99490Y-60582D01*
X99461Y-60526D01*
X99461Y-60357D01*
X99490Y-60301D01*
X99518Y-60273D01*
X99574Y-60245D01*
X99686Y-60245D01*
X99743Y-60273D01*
X100024Y-60639D02*
X100024Y-60245D01*
X100024Y-60301D02*
X100052Y-60273D01*
X100108Y-60245D01*
X100193Y-60245D01*
X100249Y-60273D01*
X100277Y-60329D01*
X100277Y-60639D01*
X100277Y-60329D02*
X100305Y-60273D01*
X100361Y-60245D01*
X100446Y-60245D01*
X100502Y-60273D01*
X100530Y-60329D01*
X100530Y-60639D01*
X101064Y-60639D02*
X101064Y-60329D01*
X101036Y-60273D01*
X100980Y-60245D01*
X100868Y-60245D01*
X100811Y-60273D01*
X101064Y-60610D02*
X101008Y-60639D01*
X100868Y-60639D01*
X100811Y-60610D01*
X100783Y-60554D01*
X100783Y-60498D01*
X100811Y-60442D01*
X100868Y-60414D01*
X101008Y-60414D01*
X101064Y-60385D01*
X101346Y-60639D02*
X101346Y-60245D01*
X101346Y-60048D02*
X101317Y-60076D01*
X101346Y-60104D01*
X101374Y-60076D01*
X101346Y-60048D01*
X101346Y-60104D01*
X101711Y-60639D02*
X101655Y-60610D01*
X101627Y-60554D01*
X101627Y-60048D01*
X101936Y-60582D02*
X101964Y-60610D01*
X101936Y-60639D01*
X101908Y-60610D01*
X101936Y-60582D01*
X101936Y-60639D01*
X102470Y-60610D02*
X102414Y-60639D01*
X102302Y-60639D01*
X102246Y-60610D01*
X102217Y-60582D01*
X102189Y-60526D01*
X102189Y-60357D01*
X102217Y-60301D01*
X102246Y-60273D01*
X102302Y-60245D01*
X102414Y-60245D01*
X102470Y-60273D01*
X102808Y-60639D02*
X102752Y-60610D01*
X102724Y-60582D01*
X102695Y-60526D01*
X102695Y-60357D01*
X102724Y-60301D01*
X102752Y-60273D01*
X102808Y-60245D01*
X102892Y-60245D01*
X102949Y-60273D01*
X102977Y-60301D01*
X103005Y-60357D01*
X103005Y-60526D01*
X102977Y-60582D01*
X102949Y-60610D01*
X102892Y-60639D01*
X102808Y-60639D01*
X103258Y-60639D02*
X103258Y-60245D01*
X103258Y-60301D02*
X103286Y-60273D01*
X103342Y-60245D01*
X103427Y-60245D01*
X103483Y-60273D01*
X103511Y-60329D01*
X103511Y-60639D01*
X103511Y-60329D02*
X103539Y-60273D01*
X103595Y-60245D01*
X103680Y-60245D01*
X103736Y-60273D01*
X103764Y-60329D01*
X103764Y-60639D01*
X104045Y-60245D02*
X104495Y-60414D01*
X104045Y-60582D01*
X85555Y-61190D02*
X85555Y-61668D01*
X85527Y-61724D01*
X85499Y-61752D01*
X85443Y-61780D01*
X85359Y-61780D01*
X85302Y-61752D01*
X85555Y-61555D02*
X85499Y-61583D01*
X85387Y-61583D01*
X85330Y-61555D01*
X85302Y-61527D01*
X85274Y-61471D01*
X85274Y-61302D01*
X85302Y-61246D01*
X85330Y-61218D01*
X85387Y-61190D01*
X85499Y-61190D01*
X85555Y-61218D01*
X85837Y-61583D02*
X85837Y-61190D01*
X85837Y-60993D02*
X85808Y-61021D01*
X85837Y-61049D01*
X85865Y-61021D01*
X85837Y-60993D01*
X85837Y-61049D01*
X86033Y-61190D02*
X86258Y-61190D01*
X86118Y-60993D02*
X86118Y-61499D01*
X86146Y-61555D01*
X86202Y-61583D01*
X86258Y-61583D01*
X86455Y-61583D02*
X86455Y-60993D01*
X86708Y-61583D02*
X86708Y-61274D01*
X86680Y-61218D01*
X86624Y-61190D01*
X86540Y-61190D01*
X86483Y-61218D01*
X86455Y-61246D01*
X87243Y-61190D02*
X87243Y-61583D01*
X86990Y-61190D02*
X86990Y-61499D01*
X87018Y-61555D01*
X87074Y-61583D01*
X87158Y-61583D01*
X87215Y-61555D01*
X87243Y-61527D01*
X87524Y-61583D02*
X87524Y-60993D01*
X87524Y-61218D02*
X87580Y-61190D01*
X87693Y-61190D01*
X87749Y-61218D01*
X87777Y-61246D01*
X87805Y-61302D01*
X87805Y-61471D01*
X87777Y-61527D01*
X87749Y-61555D01*
X87693Y-61583D01*
X87580Y-61583D01*
X87524Y-61555D01*
X88058Y-61527D02*
X88086Y-61555D01*
X88058Y-61583D01*
X88030Y-61555D01*
X88058Y-61527D01*
X88058Y-61583D01*
X88593Y-61555D02*
X88536Y-61583D01*
X88424Y-61583D01*
X88368Y-61555D01*
X88339Y-61527D01*
X88311Y-61471D01*
X88311Y-61302D01*
X88339Y-61246D01*
X88368Y-61218D01*
X88424Y-61190D01*
X88536Y-61190D01*
X88593Y-61218D01*
X88930Y-61583D02*
X88874Y-61555D01*
X88846Y-61527D01*
X88817Y-61471D01*
X88817Y-61302D01*
X88846Y-61246D01*
X88874Y-61218D01*
X88930Y-61190D01*
X89014Y-61190D01*
X89071Y-61218D01*
X89099Y-61246D01*
X89127Y-61302D01*
X89127Y-61471D01*
X89099Y-61527D01*
X89071Y-61555D01*
X89014Y-61583D01*
X88930Y-61583D01*
X89380Y-61583D02*
X89380Y-61190D01*
X89380Y-61246D02*
X89408Y-61218D01*
X89464Y-61190D01*
X89549Y-61190D01*
X89605Y-61218D01*
X89633Y-61274D01*
X89633Y-61583D01*
X89633Y-61274D02*
X89661Y-61218D01*
X89717Y-61190D01*
X89802Y-61190D01*
X89858Y-61218D01*
X89886Y-61274D01*
X89886Y-61583D01*
X90589Y-60965D02*
X90083Y-61724D01*
X90786Y-61190D02*
X90786Y-61696D01*
X90758Y-61752D01*
X90702Y-61780D01*
X90674Y-61780D01*
X90786Y-60993D02*
X90758Y-61021D01*
X90786Y-61049D01*
X90814Y-61021D01*
X90786Y-60993D01*
X90786Y-61049D01*
X91067Y-61583D02*
X91067Y-61190D01*
X91067Y-61246D02*
X91095Y-61218D01*
X91152Y-61190D01*
X91236Y-61190D01*
X91292Y-61218D01*
X91320Y-61274D01*
X91320Y-61583D01*
X91320Y-61274D02*
X91348Y-61218D01*
X91405Y-61190D01*
X91489Y-61190D01*
X91545Y-61218D01*
X91573Y-61274D01*
X91573Y-61583D01*
X92108Y-61583D02*
X92108Y-61274D01*
X92080Y-61218D01*
X92023Y-61190D01*
X91911Y-61190D01*
X91855Y-61218D01*
X92108Y-61555D02*
X92051Y-61583D01*
X91911Y-61583D01*
X91855Y-61555D01*
X91826Y-61499D01*
X91826Y-61443D01*
X91855Y-61387D01*
X91911Y-61358D01*
X92051Y-61358D01*
X92108Y-61330D01*
X92389Y-61583D02*
X92389Y-60993D01*
X92642Y-61583D02*
X92642Y-61274D01*
X92614Y-61218D01*
X92558Y-61190D01*
X92473Y-61190D01*
X92417Y-61218D01*
X92389Y-61246D01*
X93008Y-61583D02*
X92951Y-61555D01*
X92923Y-61499D01*
X92923Y-60993D01*
X93458Y-61555D02*
X93401Y-61583D01*
X93289Y-61583D01*
X93233Y-61555D01*
X93204Y-61499D01*
X93204Y-61274D01*
X93233Y-61218D01*
X93289Y-61190D01*
X93401Y-61190D01*
X93458Y-61218D01*
X93486Y-61274D01*
X93486Y-61330D01*
X93204Y-61387D01*
X93739Y-61583D02*
X93739Y-61190D01*
X93739Y-61302D02*
X93767Y-61246D01*
X93795Y-61218D01*
X93851Y-61190D01*
X93907Y-61190D01*
X94526Y-60965D02*
X94020Y-61724D01*
X94695Y-61555D02*
X94751Y-61583D01*
X94864Y-61583D01*
X94920Y-61555D01*
X94948Y-61499D01*
X94948Y-61471D01*
X94920Y-61415D01*
X94864Y-61387D01*
X94779Y-61387D01*
X94723Y-61358D01*
X94695Y-61302D01*
X94695Y-61274D01*
X94723Y-61218D01*
X94779Y-61190D01*
X94864Y-61190D01*
X94920Y-61218D01*
X95201Y-61190D02*
X95201Y-61780D01*
X95201Y-61218D02*
X95257Y-61190D01*
X95370Y-61190D01*
X95426Y-61218D01*
X95454Y-61246D01*
X95482Y-61302D01*
X95482Y-61471D01*
X95454Y-61527D01*
X95426Y-61555D01*
X95370Y-61583D01*
X95257Y-61583D01*
X95201Y-61555D01*
X95735Y-61583D02*
X95735Y-61190D01*
X95735Y-61302D02*
X95764Y-61246D01*
X95792Y-61218D01*
X95848Y-61190D01*
X95904Y-61190D01*
X96101Y-61583D02*
X96101Y-61190D01*
X96101Y-60993D02*
X96073Y-61021D01*
X96101Y-61049D01*
X96129Y-61021D01*
X96101Y-60993D01*
X96101Y-61049D01*
X96382Y-61190D02*
X96382Y-61583D01*
X96382Y-61246D02*
X96410Y-61218D01*
X96467Y-61190D01*
X96551Y-61190D01*
X96607Y-61218D01*
X96635Y-61274D01*
X96635Y-61583D01*
X96916Y-61583D02*
X96916Y-60993D01*
X96973Y-61358D02*
X97141Y-61583D01*
X97141Y-61190D02*
X96916Y-61415D01*
X97479Y-61583D02*
X97423Y-61555D01*
X97395Y-61499D01*
X97395Y-60993D01*
X97929Y-61555D02*
X97873Y-61583D01*
X97760Y-61583D01*
X97704Y-61555D01*
X97676Y-61499D01*
X97676Y-61274D01*
X97704Y-61218D01*
X97760Y-61190D01*
X97873Y-61190D01*
X97929Y-61218D01*
X97957Y-61274D01*
X97957Y-61330D01*
X97676Y-61387D01*
X98210Y-61583D02*
X98210Y-61190D01*
X98210Y-61302D02*
X98238Y-61246D01*
X98266Y-61218D01*
X98323Y-61190D01*
X98379Y-61190D01*
X98576Y-61190D02*
X98576Y-61780D01*
X98576Y-61218D02*
X98632Y-61190D01*
X98744Y-61190D01*
X98801Y-61218D01*
X98829Y-61246D01*
X98857Y-61302D01*
X98857Y-61471D01*
X98829Y-61527D01*
X98801Y-61555D01*
X98744Y-61583D01*
X98632Y-61583D01*
X98576Y-61555D01*
X99110Y-61583D02*
X99110Y-61190D01*
X99110Y-60993D02*
X99082Y-61021D01*
X99110Y-61049D01*
X99138Y-61021D01*
X99110Y-60993D01*
X99110Y-61049D01*
X100460Y-61808D02*
X100432Y-61780D01*
X100375Y-61696D01*
X100347Y-61640D01*
X100319Y-61555D01*
X100291Y-61415D01*
X100291Y-61302D01*
X100319Y-61162D01*
X100347Y-61077D01*
X100375Y-61021D01*
X100432Y-60937D01*
X100460Y-60908D01*
X100657Y-61049D02*
X100685Y-61021D01*
X100741Y-60993D01*
X100882Y-60993D01*
X100938Y-61021D01*
X100966Y-61049D01*
X100994Y-61105D01*
X100994Y-61162D01*
X100966Y-61246D01*
X100629Y-61583D01*
X100994Y-61583D01*
X101360Y-60993D02*
X101416Y-60993D01*
X101472Y-61021D01*
X101500Y-61049D01*
X101528Y-61105D01*
X101557Y-61218D01*
X101557Y-61358D01*
X101528Y-61471D01*
X101500Y-61527D01*
X101472Y-61555D01*
X101416Y-61583D01*
X101360Y-61583D01*
X101303Y-61555D01*
X101275Y-61527D01*
X101247Y-61471D01*
X101219Y-61358D01*
X101219Y-61218D01*
X101247Y-61105D01*
X101275Y-61049D01*
X101303Y-61021D01*
X101360Y-60993D01*
X102119Y-61583D02*
X101782Y-61583D01*
X101950Y-61583D02*
X101950Y-60993D01*
X101894Y-61077D01*
X101838Y-61133D01*
X101782Y-61162D01*
X102625Y-61190D02*
X102625Y-61583D01*
X102485Y-60965D02*
X102344Y-61387D01*
X102710Y-61387D01*
X103047Y-60993D02*
X103103Y-60993D01*
X103159Y-61021D01*
X103188Y-61049D01*
X103216Y-61105D01*
X103244Y-61218D01*
X103244Y-61358D01*
X103216Y-61471D01*
X103188Y-61527D01*
X103159Y-61555D01*
X103103Y-61583D01*
X103047Y-61583D01*
X102991Y-61555D01*
X102963Y-61527D01*
X102934Y-61471D01*
X102906Y-61358D01*
X102906Y-61218D01*
X102934Y-61105D01*
X102963Y-61049D01*
X102991Y-61021D01*
X103047Y-60993D01*
X103441Y-60993D02*
X103806Y-60993D01*
X103609Y-61218D01*
X103694Y-61218D01*
X103750Y-61246D01*
X103778Y-61274D01*
X103806Y-61330D01*
X103806Y-61471D01*
X103778Y-61527D01*
X103750Y-61555D01*
X103694Y-61583D01*
X103525Y-61583D01*
X103469Y-61555D01*
X103441Y-61527D01*
X104172Y-60993D02*
X104228Y-60993D01*
X104284Y-61021D01*
X104312Y-61049D01*
X104341Y-61105D01*
X104369Y-61218D01*
X104369Y-61358D01*
X104341Y-61471D01*
X104312Y-61527D01*
X104284Y-61555D01*
X104228Y-61583D01*
X104172Y-61583D01*
X104116Y-61555D01*
X104087Y-61527D01*
X104059Y-61471D01*
X104031Y-61358D01*
X104031Y-61218D01*
X104059Y-61105D01*
X104087Y-61049D01*
X104116Y-61021D01*
X104172Y-60993D01*
X104931Y-61583D02*
X104594Y-61583D01*
X104762Y-61583D02*
X104762Y-60993D01*
X104706Y-61077D01*
X104650Y-61133D01*
X104594Y-61162D01*
X105128Y-61808D02*
X105156Y-61780D01*
X105212Y-61696D01*
X105240Y-61640D01*
X105269Y-61555D01*
X105297Y-61415D01*
X105297Y-61302D01*
X105269Y-61162D01*
X105240Y-61077D01*
X105212Y-61021D01*
X105156Y-60937D01*
X105128Y-60908D01*
X69995Y-56110D02*
X70079Y-56139D01*
X70220Y-56139D01*
X70276Y-56110D01*
X70304Y-56082D01*
X70332Y-56026D01*
X70332Y-55970D01*
X70304Y-55914D01*
X70276Y-55885D01*
X70220Y-55857D01*
X70107Y-55829D01*
X70051Y-55801D01*
X70023Y-55773D01*
X69995Y-55717D01*
X69995Y-55660D01*
X70023Y-55604D01*
X70051Y-55576D01*
X70107Y-55548D01*
X70248Y-55548D01*
X70332Y-55576D01*
X70585Y-56139D02*
X70585Y-55548D01*
X70810Y-55548D01*
X70867Y-55576D01*
X70895Y-55604D01*
X70923Y-55660D01*
X70923Y-55745D01*
X70895Y-55801D01*
X70867Y-55829D01*
X70810Y-55857D01*
X70585Y-55857D01*
X71176Y-56139D02*
X71176Y-55548D01*
X68387Y-64704D02*
X68415Y-64676D01*
X68471Y-64648D01*
X68612Y-64648D01*
X68668Y-64676D01*
X68696Y-64704D01*
X68725Y-64760D01*
X68725Y-64817D01*
X68696Y-64901D01*
X68359Y-65239D01*
X68725Y-65239D01*
X69231Y-64845D02*
X69231Y-65239D01*
X69090Y-64620D02*
X68950Y-65042D01*
X69315Y-65042D01*
X67853Y-65593D02*
X68050Y-66183D01*
X68247Y-65593D01*
X68415Y-66015D02*
X68696Y-66015D01*
X68359Y-66183D02*
X68556Y-65593D01*
X68753Y-66183D01*
X69287Y-66127D02*
X69259Y-66155D01*
X69175Y-66183D01*
X69118Y-66183D01*
X69034Y-66155D01*
X68978Y-66099D01*
X68950Y-66043D01*
X68921Y-65930D01*
X68921Y-65846D01*
X68950Y-65733D01*
X68978Y-65677D01*
X69034Y-65621D01*
X69118Y-65593D01*
X69175Y-65593D01*
X69259Y-65621D01*
X69287Y-65649D01*
X93579Y-82382D02*
X93551Y-82410D01*
X93467Y-82439D01*
X93411Y-82439D01*
X93326Y-82410D01*
X93270Y-82354D01*
X93242Y-82298D01*
X93214Y-82185D01*
X93214Y-82101D01*
X93242Y-81989D01*
X93270Y-81932D01*
X93326Y-81876D01*
X93411Y-81848D01*
X93467Y-81848D01*
X93551Y-81876D01*
X93579Y-81904D01*
X93945Y-81848D02*
X94057Y-81848D01*
X94114Y-81876D01*
X94170Y-81932D01*
X94198Y-82045D01*
X94198Y-82242D01*
X94170Y-82354D01*
X94114Y-82410D01*
X94057Y-82439D01*
X93945Y-82439D01*
X93889Y-82410D01*
X93832Y-82354D01*
X93804Y-82242D01*
X93804Y-82045D01*
X93832Y-81932D01*
X93889Y-81876D01*
X93945Y-81848D01*
X94451Y-82439D02*
X94451Y-81848D01*
X94648Y-82270D01*
X94845Y-81848D01*
X94845Y-82439D01*
X95126Y-82439D02*
X95126Y-81848D01*
X95323Y-82270D01*
X95520Y-81848D01*
X95520Y-82439D01*
X95913Y-81848D02*
X96026Y-81848D01*
X96082Y-81876D01*
X96138Y-81932D01*
X96167Y-82045D01*
X96167Y-82242D01*
X96138Y-82354D01*
X96082Y-82410D01*
X96026Y-82439D01*
X95913Y-82439D01*
X95857Y-82410D01*
X95801Y-82354D01*
X95773Y-82242D01*
X95773Y-82045D01*
X95801Y-81932D01*
X95857Y-81876D01*
X95913Y-81848D01*
X96420Y-82439D02*
X96420Y-81848D01*
X96757Y-82439D01*
X96757Y-81848D01*
X75709Y-77448D02*
X75906Y-78039D01*
X76103Y-77448D01*
X76271Y-77870D02*
X76553Y-77870D01*
X76215Y-78039D02*
X76412Y-77448D01*
X76609Y-78039D01*
X77087Y-78039D02*
X76806Y-78039D01*
X76806Y-77448D01*
X77200Y-77448D02*
X77396Y-78039D01*
X77593Y-77448D01*
X77790Y-77729D02*
X77987Y-77729D01*
X78071Y-78039D02*
X77790Y-78039D01*
X77790Y-77448D01*
X78071Y-77448D01*
X78296Y-78010D02*
X78381Y-78039D01*
X78521Y-78039D01*
X78577Y-78010D01*
X78606Y-77982D01*
X78634Y-77926D01*
X78634Y-77870D01*
X78606Y-77814D01*
X78577Y-77785D01*
X78521Y-77757D01*
X78409Y-77729D01*
X78352Y-77701D01*
X78324Y-77673D01*
X78296Y-77617D01*
X78296Y-77560D01*
X78324Y-77504D01*
X78352Y-77476D01*
X78409Y-77448D01*
X78549Y-77448D01*
X78634Y-77476D01*
X71300Y-82239D02*
X70962Y-82239D01*
X71131Y-82239D02*
X71131Y-81648D01*
X71075Y-81732D01*
X71019Y-81789D01*
X70962Y-81817D01*
X72875Y-81704D02*
X72903Y-81676D01*
X72959Y-81648D01*
X73100Y-81648D01*
X73156Y-81676D01*
X73184Y-81704D01*
X73212Y-81760D01*
X73212Y-81817D01*
X73184Y-81901D01*
X72847Y-82239D01*
X73212Y-82239D01*
X74759Y-81648D02*
X75124Y-81648D01*
X74928Y-81873D01*
X75012Y-81873D01*
X75068Y-81901D01*
X75096Y-81929D01*
X75124Y-81985D01*
X75124Y-82126D01*
X75096Y-82182D01*
X75068Y-82210D01*
X75012Y-82239D01*
X74843Y-82239D01*
X74787Y-82210D01*
X74759Y-82182D01*
X76980Y-81845D02*
X76980Y-82239D01*
X76840Y-81620D02*
X76699Y-82042D01*
X77065Y-82042D01*
X79272Y-81648D02*
X78991Y-81648D01*
X78962Y-81929D01*
X78991Y-81901D01*
X79047Y-81873D01*
X79187Y-81873D01*
X79244Y-81901D01*
X79272Y-81929D01*
X79300Y-81985D01*
X79300Y-82126D01*
X79272Y-82182D01*
X79244Y-82210D01*
X79187Y-82239D01*
X79047Y-82239D01*
X78991Y-82210D01*
X78962Y-82182D01*
X81156Y-81648D02*
X81043Y-81648D01*
X80987Y-81676D01*
X80959Y-81704D01*
X80903Y-81789D01*
X80875Y-81901D01*
X80875Y-82126D01*
X80903Y-82182D01*
X80931Y-82210D01*
X80987Y-82239D01*
X81100Y-82239D01*
X81156Y-82210D01*
X81184Y-82182D01*
X81212Y-82126D01*
X81212Y-81985D01*
X81184Y-81929D01*
X81156Y-81901D01*
X81100Y-81873D01*
X80987Y-81873D01*
X80931Y-81901D01*
X80903Y-81929D01*
X80875Y-81985D01*
X82759Y-81648D02*
X83152Y-81648D01*
X82899Y-82239D01*
X84812Y-81901D02*
X84755Y-81873D01*
X84727Y-81845D01*
X84699Y-81789D01*
X84699Y-81760D01*
X84727Y-81704D01*
X84755Y-81676D01*
X84812Y-81648D01*
X84924Y-81648D01*
X84980Y-81676D01*
X85008Y-81704D01*
X85037Y-81760D01*
X85037Y-81789D01*
X85008Y-81845D01*
X84980Y-81873D01*
X84924Y-81901D01*
X84812Y-81901D01*
X84755Y-81929D01*
X84727Y-81957D01*
X84699Y-82014D01*
X84699Y-82126D01*
X84727Y-82182D01*
X84755Y-82210D01*
X84812Y-82239D01*
X84924Y-82239D01*
X84980Y-82210D01*
X85008Y-82182D01*
X85037Y-82126D01*
X85037Y-82014D01*
X85008Y-81957D01*
X84980Y-81929D01*
X84924Y-81901D01*
X68909Y-62114D02*
X69359Y-62114D01*
X68909Y-63058D02*
X69359Y-63058D01*
X69134Y-63283D02*
X69134Y-62833D01*
G54D12*
X86900Y-64600D02*
X88400Y-63100D01*
X88400Y-63100D02*
X88400Y-62600D01*
X88400Y-62600D02*
X87900Y-62100D01*
X87900Y-62100D02*
X86900Y-62100D01*
X86900Y-62100D02*
X85900Y-63100D01*
X85900Y-63100D02*
X85900Y-64100D01*
X85900Y-64100D02*
X86400Y-64600D01*
X86400Y-64600D02*
X86900Y-64600D01*
X95900Y-64600D02*
X97400Y-63100D01*
X97400Y-63100D02*
X97400Y-62600D01*
X97400Y-62600D02*
X96900Y-62100D01*
X96900Y-62100D02*
X95900Y-62100D01*
X95900Y-62100D02*
X94900Y-63100D01*
X94900Y-63100D02*
X94900Y-64100D01*
X94900Y-64100D02*
X95400Y-64600D01*
X95400Y-64600D02*
X95900Y-64600D01*
X92900Y-64600D02*
X94400Y-63100D01*
X94400Y-63100D02*
X94400Y-62600D01*
X94400Y-62600D02*
X93900Y-62100D01*
X93900Y-62100D02*
X92900Y-62100D01*
X92900Y-62100D02*
X91900Y-63100D01*
X91900Y-63100D02*
X91900Y-64100D01*
X91900Y-64100D02*
X92400Y-64600D01*
X92400Y-64600D02*
X92900Y-64600D01*
X89900Y-64600D02*
X91400Y-63100D01*
X91400Y-63100D02*
X91400Y-62600D01*
X91400Y-62600D02*
X90900Y-62100D01*
X90900Y-62100D02*
X89900Y-62100D01*
X89900Y-62100D02*
X88900Y-63100D01*
X88900Y-63100D02*
X88900Y-64100D01*
X88900Y-64100D02*
X89400Y-64600D01*
X89400Y-64600D02*
X89900Y-64600D01*
X83900Y-64600D02*
X85400Y-63100D01*
X85400Y-63100D02*
X85400Y-62600D01*
X85400Y-62600D02*
X84900Y-62100D01*
X84900Y-62100D02*
X83900Y-62100D01*
X83900Y-62100D02*
X82900Y-63100D01*
X82900Y-63100D02*
X82900Y-64100D01*
X82900Y-64100D02*
X83400Y-64600D01*
X83400Y-64600D02*
X83900Y-64600D01*
X80900Y-64600D02*
X82400Y-63100D01*
X82400Y-63100D02*
X82400Y-62600D01*
X82400Y-62600D02*
X81900Y-62100D01*
X81900Y-62100D02*
X80900Y-62100D01*
X80900Y-62100D02*
X79900Y-63100D01*
X79900Y-63100D02*
X79900Y-64100D01*
X79900Y-64100D02*
X80400Y-64600D01*
X80400Y-64600D02*
X80900Y-64600D01*
X74900Y-64600D02*
X76400Y-63100D01*
X76400Y-63100D02*
X76400Y-62600D01*
X76400Y-62600D02*
X75900Y-62100D01*
X75900Y-62100D02*
X74900Y-62100D01*
X74900Y-62100D02*
X73900Y-63100D01*
X73900Y-63100D02*
X73900Y-64100D01*
X73900Y-64100D02*
X74400Y-64600D01*
X74400Y-64600D02*
X74900Y-64600D01*
X77900Y-64600D02*
X79400Y-63100D01*
X79400Y-63100D02*
X79400Y-62600D01*
X79400Y-62600D02*
X78900Y-62100D01*
X78900Y-62100D02*
X77900Y-62100D01*
X77900Y-62100D02*
X76900Y-63100D01*
X76900Y-63100D02*
X76900Y-64100D01*
X76900Y-64100D02*
X77400Y-64600D01*
X77400Y-64600D02*
X77900Y-64600D01*
X78500Y-76000D02*
X80000Y-74500D01*
X80000Y-74500D02*
X80000Y-74000D01*
X80000Y-74000D02*
X79500Y-73500D01*
X79500Y-73500D02*
X78500Y-73500D01*
X78500Y-73500D02*
X77500Y-74500D01*
X77500Y-74500D02*
X77500Y-75500D01*
X77500Y-75500D02*
X78000Y-76000D01*
X78000Y-76000D02*
X78500Y-76000D01*
X87500Y-76000D02*
X89000Y-74500D01*
X89000Y-74500D02*
X89000Y-74000D01*
X89000Y-74000D02*
X88500Y-73500D01*
X88500Y-73500D02*
X87500Y-73500D01*
X87500Y-73500D02*
X86500Y-74500D01*
X86500Y-74500D02*
X86500Y-75500D01*
X86500Y-75500D02*
X87000Y-76000D01*
X87000Y-76000D02*
X87500Y-76000D01*
X101000Y-76000D02*
X102500Y-74500D01*
X102500Y-74500D02*
X102500Y-74000D01*
X102500Y-74000D02*
X102000Y-73500D01*
X102000Y-73500D02*
X101000Y-73500D01*
X101000Y-73500D02*
X100000Y-74500D01*
X100000Y-74500D02*
X100000Y-75500D01*
X100000Y-75500D02*
X100500Y-76000D01*
X100500Y-76000D02*
X101000Y-76000D01*
X96500Y-76000D02*
X98000Y-74500D01*
X98000Y-74500D02*
X98000Y-74000D01*
X98000Y-74000D02*
X97500Y-73500D01*
X97500Y-73500D02*
X96500Y-73500D01*
X96500Y-73500D02*
X95500Y-74500D01*
X95500Y-74500D02*
X95500Y-75500D01*
X95500Y-75500D02*
X96000Y-76000D01*
X96000Y-76000D02*
X96500Y-76000D01*
X92000Y-76000D02*
X93500Y-74500D01*
X93500Y-74500D02*
X93500Y-74000D01*
X93500Y-74000D02*
X93000Y-73500D01*
X93000Y-73500D02*
X92000Y-73500D01*
X92000Y-73500D02*
X91000Y-74500D01*
X91000Y-74500D02*
X91000Y-75500D01*
X91000Y-75500D02*
X91500Y-76000D01*
X91500Y-76000D02*
X92000Y-76000D01*
X83000Y-76000D02*
X84500Y-74500D01*
X84500Y-74500D02*
X84500Y-74000D01*
X84500Y-74000D02*
X84000Y-73500D01*
X84000Y-73500D02*
X83000Y-73500D01*
X83000Y-73500D02*
X82000Y-74500D01*
X82000Y-74500D02*
X82000Y-75500D01*
X82000Y-75500D02*
X82500Y-76000D01*
X82500Y-76000D02*
X83000Y-76000D01*
X74000Y-76000D02*
X75500Y-74500D01*
X75500Y-74500D02*
X75500Y-74000D01*
X75500Y-74000D02*
X75000Y-73500D01*
X75000Y-73500D02*
X74000Y-73500D01*
X74000Y-73500D02*
X73000Y-74500D01*
X73000Y-74500D02*
X73000Y-75500D01*
X73000Y-75500D02*
X73500Y-76000D01*
X73500Y-76000D02*
X74000Y-76000D01*
X69500Y-76000D02*
X71000Y-74500D01*
X71000Y-74500D02*
X71000Y-74000D01*
X71000Y-74000D02*
X70500Y-73500D01*
X70500Y-73500D02*
X69500Y-73500D01*
X69500Y-73500D02*
X68500Y-74500D01*
X68500Y-74500D02*
X68500Y-75500D01*
X68500Y-75500D02*
X69000Y-76000D01*
X69000Y-76000D02*
X69500Y-76000D01*
X94500Y-76500D02*
X94500Y-76100D01*
X94500Y-76100D02*
X94100Y-76100D01*
X94100Y-76100D02*
X94100Y-72900D01*
X94100Y-72900D02*
X94900Y-72900D01*
X94900Y-72900D02*
X94900Y-76100D01*
X94900Y-76100D02*
X94500Y-76100D01*
X94300Y-76100D02*
X94100Y-75900D01*
X94500Y-72500D02*
X94500Y-72900D01*
X74600Y-67700D02*
X74200Y-67700D01*
X74200Y-67700D02*
X74200Y-68100D01*
X74200Y-68100D02*
X71000Y-68100D01*
X71000Y-68100D02*
X71000Y-67300D01*
X71000Y-67300D02*
X74200Y-67300D01*
X74200Y-67300D02*
X74200Y-67700D01*
X74200Y-67900D02*
X74000Y-68100D01*
X70600Y-67700D02*
X71000Y-67700D01*
X87000Y-69000D02*
X87000Y-69400D01*
X87000Y-69400D02*
X87400Y-69400D01*
X87400Y-69400D02*
X87400Y-72600D01*
X87400Y-72600D02*
X86600Y-72600D01*
X86600Y-72600D02*
X86600Y-69400D01*
X86600Y-69400D02*
X87000Y-69400D01*
X87200Y-69400D02*
X87400Y-69600D01*
X87000Y-73000D02*
X87000Y-72600D01*
X90000Y-76500D02*
X90000Y-76100D01*
X90000Y-76100D02*
X89600Y-76100D01*
X89600Y-76100D02*
X89600Y-72900D01*
X89600Y-72900D02*
X90400Y-72900D01*
X90400Y-72900D02*
X90400Y-76100D01*
X90400Y-76100D02*
X90000Y-76100D01*
X89800Y-76100D02*
X89600Y-75900D01*
X90000Y-72500D02*
X90000Y-72900D01*
X100500Y-69000D02*
X100500Y-69400D01*
X100500Y-69400D02*
X100900Y-69400D01*
X100900Y-69400D02*
X100900Y-72600D01*
X100900Y-72600D02*
X100100Y-72600D01*
X100100Y-72600D02*
X100100Y-69400D01*
X100100Y-69400D02*
X100500Y-69400D01*
X100700Y-69400D02*
X100900Y-69600D01*
X100500Y-73000D02*
X100500Y-72600D01*
X103400Y-76500D02*
X103400Y-76100D01*
X103400Y-76100D02*
X103000Y-76100D01*
X103000Y-76100D02*
X103000Y-72900D01*
X103000Y-72900D02*
X103800Y-72900D01*
X103800Y-72900D02*
X103800Y-76100D01*
X103800Y-76100D02*
X103400Y-76100D01*
X103200Y-76100D02*
X103000Y-75900D01*
X103400Y-72500D02*
X103400Y-72900D01*
X96000Y-69000D02*
X96000Y-69400D01*
X96000Y-69400D02*
X96400Y-69400D01*
X96400Y-69400D02*
X96400Y-72600D01*
X96400Y-72600D02*
X95600Y-72600D01*
X95600Y-72600D02*
X95600Y-69400D01*
X95600Y-69400D02*
X96000Y-69400D01*
X96200Y-69400D02*
X96400Y-69600D01*
X96000Y-73000D02*
X96000Y-72600D01*
X99000Y-76500D02*
X99000Y-76100D01*
X99000Y-76100D02*
X98600Y-76100D01*
X98600Y-76100D02*
X98600Y-72900D01*
X98600Y-72900D02*
X99400Y-72900D01*
X99400Y-72900D02*
X99400Y-76100D01*
X99400Y-76100D02*
X99000Y-76100D01*
X98800Y-76100D02*
X98600Y-75900D01*
X99000Y-72500D02*
X99000Y-72900D01*
X91500Y-69000D02*
X91500Y-69400D01*
X91500Y-69400D02*
X91900Y-69400D01*
X91900Y-69400D02*
X91900Y-72600D01*
X91900Y-72600D02*
X91100Y-72600D01*
X91100Y-72600D02*
X91100Y-69400D01*
X91100Y-69400D02*
X91500Y-69400D01*
X91700Y-69400D02*
X91900Y-69600D01*
X91500Y-73000D02*
X91500Y-72600D01*
X69000Y-69000D02*
X69000Y-69400D01*
X69000Y-69400D02*
X69400Y-69400D01*
X69400Y-69400D02*
X69400Y-72600D01*
X69400Y-72600D02*
X68600Y-72600D01*
X68600Y-72600D02*
X68600Y-69400D01*
X68600Y-69400D02*
X69000Y-69400D01*
X69200Y-69400D02*
X69400Y-69600D01*
X69000Y-73000D02*
X69000Y-72600D01*
X82500Y-69000D02*
X82500Y-69400D01*
X82500Y-69400D02*
X82900Y-69400D01*
X82900Y-69400D02*
X82900Y-72600D01*
X82900Y-72600D02*
X82100Y-72600D01*
X82100Y-72600D02*
X82100Y-69400D01*
X82100Y-69400D02*
X82500Y-69400D01*
X82700Y-69400D02*
X82900Y-69600D01*
X82500Y-73000D02*
X82500Y-72600D01*
X85500Y-76500D02*
X85500Y-76100D01*
X85500Y-76100D02*
X85100Y-76100D01*
X85100Y-76100D02*
X85100Y-72900D01*
X85100Y-72900D02*
X85900Y-72900D01*
X85900Y-72900D02*
X85900Y-76100D01*
X85900Y-76100D02*
X85500Y-76100D01*
X85300Y-76100D02*
X85100Y-75900D01*
X85500Y-72500D02*
X85500Y-72900D01*
X72200Y-65200D02*
X72200Y-64800D01*
X72200Y-64800D02*
X71800Y-64800D01*
X71800Y-64800D02*
X71800Y-61600D01*
X71800Y-61600D02*
X72600Y-61600D01*
X72600Y-61600D02*
X72600Y-64800D01*
X72600Y-64800D02*
X72200Y-64800D01*
X72000Y-64800D02*
X71800Y-64600D01*
X72200Y-61200D02*
X72200Y-61600D01*
X72000Y-76500D02*
X72000Y-76100D01*
X72000Y-76100D02*
X71600Y-76100D01*
X71600Y-76100D02*
X71600Y-72900D01*
X71600Y-72900D02*
X72400Y-72900D01*
X72400Y-72900D02*
X72400Y-76100D01*
X72400Y-76100D02*
X72000Y-76100D01*
X71800Y-76100D02*
X71600Y-75900D01*
X72000Y-72500D02*
X72000Y-72900D01*
X76500Y-76500D02*
X76500Y-76100D01*
X76500Y-76100D02*
X76100Y-76100D01*
X76100Y-76100D02*
X76100Y-72900D01*
X76100Y-72900D02*
X76900Y-72900D01*
X76900Y-72900D02*
X76900Y-76100D01*
X76900Y-76100D02*
X76500Y-76100D01*
X76300Y-76100D02*
X76100Y-75900D01*
X76500Y-72500D02*
X76500Y-72900D01*
X73500Y-69000D02*
X73500Y-69400D01*
X73500Y-69400D02*
X73900Y-69400D01*
X73900Y-69400D02*
X73900Y-72600D01*
X73900Y-72600D02*
X73100Y-72600D01*
X73100Y-72600D02*
X73100Y-69400D01*
X73100Y-69400D02*
X73500Y-69400D01*
X73700Y-69400D02*
X73900Y-69600D01*
X73500Y-73000D02*
X73500Y-72600D01*
X81000Y-76500D02*
X81000Y-76100D01*
X81000Y-76100D02*
X80600Y-76100D01*
X80600Y-76100D02*
X80600Y-72900D01*
X80600Y-72900D02*
X81400Y-72900D01*
X81400Y-72900D02*
X81400Y-76100D01*
X81400Y-76100D02*
X81000Y-76100D01*
X80800Y-76100D02*
X80600Y-75900D01*
X81000Y-72500D02*
X81000Y-72900D01*
X78000Y-69000D02*
X78000Y-69400D01*
X78000Y-69400D02*
X78400Y-69400D01*
X78400Y-69400D02*
X78400Y-72600D01*
X78400Y-72600D02*
X77600Y-72600D01*
X77600Y-72600D02*
X77600Y-69400D01*
X77600Y-69400D02*
X78000Y-69400D01*
X78200Y-69400D02*
X78400Y-69600D01*
X78000Y-73000D02*
X78000Y-72600D01*
G54D13*
X70700Y-56500D02*
X70700Y-60500D01*
X69700Y-56500D02*
X69700Y-60500D01*
X69700Y-60500D02*
X70700Y-60500D01*
X70700Y-56500D02*
X69700Y-56500D01*
G54D14*
X69700Y-64500D02*
X70700Y-64500D01*
X70700Y-64500D02*
X70700Y-66500D01*
X70700Y-66500D02*
X69700Y-66500D01*
X69700Y-66500D02*
X69700Y-64500D01*
X69700Y-61600D02*
X70700Y-61600D01*
X70700Y-61600D02*
X70700Y-63600D01*
X70700Y-63600D02*
X69700Y-63600D01*
X69700Y-63600D02*
X69700Y-61600D01*
G54D15*
X94500Y-69380D02*
X93000Y-69380D01*
G54D16*
X94457Y-70400D02*
G75*
G03X94457Y-70400I-707J0D01*
G74*
G01*
G54D13*
X92999Y-69400D02*
G75*
G03X94500Y-69400I750J-999D01*
G74*
G01*
G54D14*
X93300Y-70400D02*
G75*
G03X93750Y-70850I450J0D01*
G74*
G01*
X94200Y-70400D02*
G75*
G03X93750Y-69950I-450J0D01*
G74*
G01*
X93100Y-70400D02*
G75*
G03X93750Y-71050I650J0D01*
G74*
G01*
X94400Y-70400D02*
G75*
G03X93750Y-69750I-650J0D01*
G74*
G01*
X92900Y-70400D02*
G75*
G03X93750Y-71250I850J0D01*
G74*
G01*
X94600Y-70400D02*
G75*
G03X93750Y-69550I-850J0D01*
G74*
G01*
G54D15*
X76500Y-69380D02*
X75000Y-69380D01*
G54D16*
X76457Y-70400D02*
G75*
G03X76457Y-70400I-707J0D01*
G74*
G01*
G54D13*
X74999Y-69400D02*
G75*
G03X76500Y-69400I750J-999D01*
G74*
G01*
G54D14*
X75300Y-70400D02*
G75*
G03X75750Y-70850I450J0D01*
G74*
G01*
X76200Y-70400D02*
G75*
G03X75750Y-69950I-450J0D01*
G74*
G01*
X75100Y-70400D02*
G75*
G03X75750Y-71050I650J0D01*
G74*
G01*
X76400Y-70400D02*
G75*
G03X75750Y-69750I-650J0D01*
G74*
G01*
X74900Y-70400D02*
G75*
G03X75750Y-71250I850J0D01*
G74*
G01*
X76600Y-70400D02*
G75*
G03X75750Y-69550I-850J0D01*
G74*
G01*
G54D15*
X90000Y-69380D02*
X88500Y-69380D01*
G54D16*
X89957Y-70400D02*
G75*
G03X89957Y-70400I-707J0D01*
G74*
G01*
G54D13*
X88499Y-69400D02*
G75*
G03X90000Y-69400I750J-999D01*
G74*
G01*
G54D14*
X88800Y-70400D02*
G75*
G03X89250Y-70850I450J0D01*
G74*
G01*
X89700Y-70400D02*
G75*
G03X89250Y-69950I-450J0D01*
G74*
G01*
X88600Y-70400D02*
G75*
G03X89250Y-71050I650J0D01*
G74*
G01*
X89900Y-70400D02*
G75*
G03X89250Y-69750I-650J0D01*
G74*
G01*
X88400Y-70400D02*
G75*
G03X89250Y-71250I850J0D01*
G74*
G01*
X90100Y-70400D02*
G75*
G03X89250Y-69550I-850J0D01*
G74*
G01*
G54D15*
X72000Y-69380D02*
X70500Y-69380D01*
G54D16*
X71957Y-70400D02*
G75*
G03X71957Y-70400I-707J0D01*
G74*
G01*
G54D13*
X70499Y-69400D02*
G75*
G03X72000Y-69400I750J-999D01*
G74*
G01*
G54D14*
X70800Y-70400D02*
G75*
G03X71250Y-70850I450J0D01*
G74*
G01*
X71700Y-70400D02*
G75*
G03X71250Y-69950I-450J0D01*
G74*
G01*
X70600Y-70400D02*
G75*
G03X71250Y-71050I650J0D01*
G74*
G01*
X71900Y-70400D02*
G75*
G03X71250Y-69750I-650J0D01*
G74*
G01*
X70400Y-70400D02*
G75*
G03X71250Y-71250I850J0D01*
G74*
G01*
X72100Y-70400D02*
G75*
G03X71250Y-69550I-850J0D01*
G74*
G01*
G54D15*
X103500Y-69380D02*
X102000Y-69380D01*
G54D16*
X103457Y-70400D02*
G75*
G03X103457Y-70400I-707J0D01*
G74*
G01*
G54D13*
X101999Y-69400D02*
G75*
G03X103500Y-69400I750J-999D01*
G74*
G01*
G54D14*
X102300Y-70400D02*
G75*
G03X102750Y-70850I450J0D01*
G74*
G01*
X103200Y-70400D02*
G75*
G03X102750Y-69950I-450J0D01*
G74*
G01*
X102100Y-70400D02*
G75*
G03X102750Y-71050I650J0D01*
G74*
G01*
X103400Y-70400D02*
G75*
G03X102750Y-69750I-650J0D01*
G74*
G01*
X101900Y-70400D02*
G75*
G03X102750Y-71250I850J0D01*
G74*
G01*
X103600Y-70400D02*
G75*
G03X102750Y-69550I-850J0D01*
G74*
G01*
G54D15*
X85500Y-69380D02*
X84000Y-69380D01*
G54D16*
X85457Y-70400D02*
G75*
G03X85457Y-70400I-707J0D01*
G74*
G01*
G54D13*
X83999Y-69400D02*
G75*
G03X85500Y-69400I750J-999D01*
G74*
G01*
G54D14*
X84300Y-70400D02*
G75*
G03X84750Y-70850I450J0D01*
G74*
G01*
X85200Y-70400D02*
G75*
G03X84750Y-69950I-450J0D01*
G74*
G01*
X84100Y-70400D02*
G75*
G03X84750Y-71050I650J0D01*
G74*
G01*
X85400Y-70400D02*
G75*
G03X84750Y-69750I-650J0D01*
G74*
G01*
X83900Y-70400D02*
G75*
G03X84750Y-71250I850J0D01*
G74*
G01*
X85600Y-70400D02*
G75*
G03X84750Y-69550I-850J0D01*
G74*
G01*
G54D15*
X81000Y-69380D02*
X79500Y-69380D01*
G54D16*
X80957Y-70400D02*
G75*
G03X80957Y-70400I-707J0D01*
G74*
G01*
G54D13*
X79499Y-69400D02*
G75*
G03X81000Y-69400I750J-999D01*
G74*
G01*
G54D14*
X79800Y-70400D02*
G75*
G03X80250Y-70850I450J0D01*
G74*
G01*
X80700Y-70400D02*
G75*
G03X80250Y-69950I-450J0D01*
G74*
G01*
X79600Y-70400D02*
G75*
G03X80250Y-71050I650J0D01*
G74*
G01*
X80900Y-70400D02*
G75*
G03X80250Y-69750I-650J0D01*
G74*
G01*
X79400Y-70400D02*
G75*
G03X80250Y-71250I850J0D01*
G74*
G01*
X81100Y-70400D02*
G75*
G03X80250Y-69550I-850J0D01*
G74*
G01*
G54D15*
X99000Y-69380D02*
X97500Y-69380D01*
G54D16*
X98957Y-70400D02*
G75*
G03X98957Y-70400I-707J0D01*
G74*
G01*
G54D13*
X97499Y-69400D02*
G75*
G03X99000Y-69400I750J-999D01*
G74*
G01*
G54D14*
X97800Y-70400D02*
G75*
G03X98250Y-70850I450J0D01*
G74*
G01*
X98700Y-70400D02*
G75*
G03X98250Y-69950I-450J0D01*
G74*
G01*
X97600Y-70400D02*
G75*
G03X98250Y-71050I650J0D01*
G74*
G01*
X98900Y-70400D02*
G75*
G03X98250Y-69750I-650J0D01*
G74*
G01*
X97400Y-70400D02*
G75*
G03X98250Y-71250I850J0D01*
G74*
G01*
X99100Y-70400D02*
G75*
G03X98250Y-69550I-850J0D01*
G74*
G01*
G54D17*
X73000Y-57000D02*
X73000Y-57000D01*
X73000Y-57000D02*
X73500Y-57000D01*
X73500Y-57000D02*
X73500Y-58000D01*
X73500Y-58000D02*
X73000Y-58000D01*
X73000Y-56500D02*
X82000Y-56500D01*
X82000Y-56500D02*
X82000Y-58500D01*
X82000Y-58500D02*
X73000Y-58500D01*
X73000Y-58500D02*
X73000Y-56500D01*
X92250Y-57000D02*
X92250Y-57000D01*
X92250Y-57000D02*
X92750Y-57000D01*
X92750Y-57000D02*
X92750Y-58000D01*
X92750Y-58000D02*
X92250Y-58000D01*
X92250Y-56500D02*
X101250Y-56500D01*
X101250Y-56500D02*
X101250Y-58500D01*
X101250Y-58500D02*
X92250Y-58500D01*
X92250Y-58500D02*
X92250Y-56500D01*
G54D18*
X74901Y-61300D02*
G75*
G03X74901Y-61300I-1001J0D01*
G74*
G01*
G54D12*
X70000Y-78400D02*
X70000Y-81400D01*
X78000Y-81400D02*
X78000Y-78400D01*
X78000Y-80900D02*
X70000Y-80900D01*
X70000Y-78400D02*
X78000Y-78400D01*
X70000Y-81400D02*
X78000Y-81400D01*
X78000Y-78400D02*
X78000Y-81400D01*
X86000Y-81400D02*
X86000Y-78400D01*
X86000Y-80900D02*
X78000Y-80900D01*
X78000Y-78400D02*
X86000Y-78400D01*
X78000Y-81400D02*
X86000Y-81400D01*
X87000Y-78400D02*
X87000Y-81400D01*
X95000Y-81400D02*
X95000Y-78400D01*
X95000Y-80900D02*
X87000Y-80900D01*
X87000Y-78400D02*
X95000Y-78400D01*
X87000Y-81400D02*
X95000Y-81400D01*
X95000Y-78400D02*
X95000Y-81400D01*
X103000Y-81400D02*
X103000Y-78400D01*
X103000Y-80900D02*
X95000Y-80900D01*
X95000Y-78400D02*
X103000Y-78400D01*
X95000Y-81400D02*
X103000Y-81400D01*
X75900Y-65000D02*
X75900Y-65300D01*
X75900Y-65300D02*
X75500Y-65300D01*
X75500Y-65300D02*
X75500Y-67700D01*
X75500Y-67700D02*
X75900Y-67700D01*
X75900Y-67700D02*
X75900Y-68000D01*
X75900Y-67700D02*
X76300Y-67700D01*
X76300Y-67700D02*
X76300Y-65300D01*
X76300Y-65300D02*
X75900Y-65300D01*
X75500Y-65500D02*
X76300Y-65500D01*
X76300Y-65600D02*
X75500Y-65600D01*
X78900Y-65000D02*
X78900Y-65300D01*
X78900Y-65300D02*
X78500Y-65300D01*
X78500Y-65300D02*
X78500Y-67700D01*
X78500Y-67700D02*
X78900Y-67700D01*
X78900Y-67700D02*
X78900Y-68000D01*
X78900Y-67700D02*
X79300Y-67700D01*
X79300Y-67700D02*
X79300Y-65300D01*
X79300Y-65300D02*
X78900Y-65300D01*
X78500Y-65500D02*
X79300Y-65500D01*
X79300Y-65600D02*
X78500Y-65600D01*
X81900Y-65000D02*
X81900Y-65300D01*
X81900Y-65300D02*
X81500Y-65300D01*
X81500Y-65300D02*
X81500Y-67700D01*
X81500Y-67700D02*
X81900Y-67700D01*
X81900Y-67700D02*
X81900Y-68000D01*
X81900Y-67700D02*
X82300Y-67700D01*
X82300Y-67700D02*
X82300Y-65300D01*
X82300Y-65300D02*
X81900Y-65300D01*
X81500Y-65500D02*
X82300Y-65500D01*
X82300Y-65600D02*
X81500Y-65600D01*
X84900Y-65000D02*
X84900Y-65300D01*
X84900Y-65300D02*
X84500Y-65300D01*
X84500Y-65300D02*
X84500Y-67700D01*
X84500Y-67700D02*
X84900Y-67700D01*
X84900Y-67700D02*
X84900Y-68000D01*
X84900Y-67700D02*
X85300Y-67700D01*
X85300Y-67700D02*
X85300Y-65300D01*
X85300Y-65300D02*
X84900Y-65300D01*
X84500Y-65500D02*
X85300Y-65500D01*
X85300Y-65600D02*
X84500Y-65600D01*
X90900Y-65000D02*
X90900Y-65300D01*
X90900Y-65300D02*
X90500Y-65300D01*
X90500Y-65300D02*
X90500Y-67700D01*
X90500Y-67700D02*
X90900Y-67700D01*
X90900Y-67700D02*
X90900Y-68000D01*
X90900Y-67700D02*
X91300Y-67700D01*
X91300Y-67700D02*
X91300Y-65300D01*
X91300Y-65300D02*
X90900Y-65300D01*
X90500Y-65500D02*
X91300Y-65500D01*
X91300Y-65600D02*
X90500Y-65600D01*
X93900Y-65000D02*
X93900Y-65300D01*
X93900Y-65300D02*
X93500Y-65300D01*
X93500Y-65300D02*
X93500Y-67700D01*
X93500Y-67700D02*
X93900Y-67700D01*
X93900Y-67700D02*
X93900Y-68000D01*
X93900Y-67700D02*
X94300Y-67700D01*
X94300Y-67700D02*
X94300Y-65300D01*
X94300Y-65300D02*
X93900Y-65300D01*
X93500Y-65500D02*
X94300Y-65500D01*
X94300Y-65600D02*
X93500Y-65600D01*
X96900Y-64900D02*
X96900Y-65200D01*
X96900Y-65200D02*
X96500Y-65200D01*
X96500Y-65200D02*
X96500Y-67600D01*
X96500Y-67600D02*
X96900Y-67600D01*
X96900Y-67600D02*
X96900Y-67900D01*
X96900Y-67600D02*
X97300Y-67600D01*
X97300Y-67600D02*
X97300Y-65200D01*
X97300Y-65200D02*
X96900Y-65200D01*
X96500Y-65400D02*
X97300Y-65400D01*
X97300Y-65500D02*
X96500Y-65500D01*
X87900Y-65000D02*
X87900Y-65300D01*
X87900Y-65300D02*
X87500Y-65300D01*
X87500Y-65300D02*
X87500Y-67700D01*
X87500Y-67700D02*
X87900Y-67700D01*
X87900Y-67700D02*
X87900Y-68000D01*
X87900Y-67700D02*
X88300Y-67700D01*
X88300Y-67700D02*
X88300Y-65300D01*
X88300Y-65300D02*
X87900Y-65300D01*
X87500Y-65500D02*
X88300Y-65500D01*
X88300Y-65600D02*
X87500Y-65600D01*
G54D17*
X69650Y-55250D02*
G75*
G03X69650Y-55250I-900J0D01*
G74*
G01*
X105150Y-55250D02*
G75*
G03X105150Y-55250I-900J0D01*
G74*
G01*
X105150Y-81250D02*
G75*
G03X105150Y-81250I-900J0D01*
G74*
G01*
X69650Y-81250D02*
G75*
G03X69650Y-81250I-900J0D01*
G74*
G01*
G54D15*
X86861Y-65300D02*
X86823Y-65280D01*
X86785Y-65242D01*
X86728Y-65185D01*
X86690Y-65166D01*
X86652Y-65166D01*
X86671Y-65261D02*
X86633Y-65242D01*
X86595Y-65204D01*
X86576Y-65128D01*
X86576Y-64995D01*
X86595Y-64919D01*
X86633Y-64880D01*
X86671Y-64861D01*
X86747Y-64861D01*
X86785Y-64880D01*
X86823Y-64919D01*
X86842Y-64995D01*
X86842Y-65128D01*
X86823Y-65204D01*
X86785Y-65242D01*
X86747Y-65261D01*
X86671Y-65261D01*
X87071Y-65033D02*
X87033Y-65014D01*
X87014Y-64995D01*
X86995Y-64957D01*
X86995Y-64938D01*
X87014Y-64900D01*
X87033Y-64880D01*
X87071Y-64861D01*
X87147Y-64861D01*
X87185Y-64880D01*
X87204Y-64900D01*
X87223Y-64938D01*
X87223Y-64957D01*
X87204Y-64995D01*
X87185Y-65014D01*
X87147Y-65033D01*
X87071Y-65033D01*
X87033Y-65052D01*
X87014Y-65071D01*
X86995Y-65109D01*
X86995Y-65185D01*
X87014Y-65223D01*
X87033Y-65242D01*
X87071Y-65261D01*
X87147Y-65261D01*
X87185Y-65242D01*
X87204Y-65223D01*
X87223Y-65185D01*
X87223Y-65109D01*
X87204Y-65071D01*
X87185Y-65052D01*
X87147Y-65033D01*
X95861Y-65300D02*
X95823Y-65280D01*
X95785Y-65242D01*
X95728Y-65185D01*
X95690Y-65166D01*
X95652Y-65166D01*
X95671Y-65261D02*
X95633Y-65242D01*
X95595Y-65204D01*
X95576Y-65128D01*
X95576Y-64995D01*
X95595Y-64919D01*
X95633Y-64880D01*
X95671Y-64861D01*
X95747Y-64861D01*
X95785Y-64880D01*
X95823Y-64919D01*
X95842Y-64995D01*
X95842Y-65128D01*
X95823Y-65204D01*
X95785Y-65242D01*
X95747Y-65261D01*
X95671Y-65261D01*
X95976Y-64861D02*
X96242Y-64861D01*
X96071Y-65261D01*
X92861Y-65300D02*
X92823Y-65280D01*
X92785Y-65242D01*
X92728Y-65185D01*
X92690Y-65166D01*
X92652Y-65166D01*
X92671Y-65261D02*
X92633Y-65242D01*
X92595Y-65204D01*
X92576Y-65128D01*
X92576Y-64995D01*
X92595Y-64919D01*
X92633Y-64880D01*
X92671Y-64861D01*
X92747Y-64861D01*
X92785Y-64880D01*
X92823Y-64919D01*
X92842Y-64995D01*
X92842Y-65128D01*
X92823Y-65204D01*
X92785Y-65242D01*
X92747Y-65261D01*
X92671Y-65261D01*
X93185Y-64861D02*
X93109Y-64861D01*
X93071Y-64880D01*
X93052Y-64900D01*
X93014Y-64957D01*
X92995Y-65033D01*
X92995Y-65185D01*
X93014Y-65223D01*
X93033Y-65242D01*
X93071Y-65261D01*
X93147Y-65261D01*
X93185Y-65242D01*
X93204Y-65223D01*
X93223Y-65185D01*
X93223Y-65090D01*
X93204Y-65052D01*
X93185Y-65033D01*
X93147Y-65014D01*
X93071Y-65014D01*
X93033Y-65033D01*
X93014Y-65052D01*
X92995Y-65090D01*
X89861Y-65300D02*
X89823Y-65280D01*
X89785Y-65242D01*
X89728Y-65185D01*
X89690Y-65166D01*
X89652Y-65166D01*
X89671Y-65261D02*
X89633Y-65242D01*
X89595Y-65204D01*
X89576Y-65128D01*
X89576Y-64995D01*
X89595Y-64919D01*
X89633Y-64880D01*
X89671Y-64861D01*
X89747Y-64861D01*
X89785Y-64880D01*
X89823Y-64919D01*
X89842Y-64995D01*
X89842Y-65128D01*
X89823Y-65204D01*
X89785Y-65242D01*
X89747Y-65261D01*
X89671Y-65261D01*
X90204Y-64861D02*
X90014Y-64861D01*
X89995Y-65052D01*
X90014Y-65033D01*
X90052Y-65014D01*
X90147Y-65014D01*
X90185Y-65033D01*
X90204Y-65052D01*
X90223Y-65090D01*
X90223Y-65185D01*
X90204Y-65223D01*
X90185Y-65242D01*
X90147Y-65261D01*
X90052Y-65261D01*
X90014Y-65242D01*
X89995Y-65223D01*
X83861Y-65300D02*
X83823Y-65280D01*
X83785Y-65242D01*
X83728Y-65185D01*
X83690Y-65166D01*
X83652Y-65166D01*
X83671Y-65261D02*
X83633Y-65242D01*
X83595Y-65204D01*
X83576Y-65128D01*
X83576Y-64995D01*
X83595Y-64919D01*
X83633Y-64880D01*
X83671Y-64861D01*
X83747Y-64861D01*
X83785Y-64880D01*
X83823Y-64919D01*
X83842Y-64995D01*
X83842Y-65128D01*
X83823Y-65204D01*
X83785Y-65242D01*
X83747Y-65261D01*
X83671Y-65261D01*
X84185Y-64995D02*
X84185Y-65261D01*
X84090Y-64842D02*
X83995Y-65128D01*
X84242Y-65128D01*
X80861Y-65300D02*
X80823Y-65280D01*
X80785Y-65242D01*
X80728Y-65185D01*
X80690Y-65166D01*
X80652Y-65166D01*
X80671Y-65261D02*
X80633Y-65242D01*
X80595Y-65204D01*
X80576Y-65128D01*
X80576Y-64995D01*
X80595Y-64919D01*
X80633Y-64880D01*
X80671Y-64861D01*
X80747Y-64861D01*
X80785Y-64880D01*
X80823Y-64919D01*
X80842Y-64995D01*
X80842Y-65128D01*
X80823Y-65204D01*
X80785Y-65242D01*
X80747Y-65261D01*
X80671Y-65261D01*
X80976Y-64861D02*
X81223Y-64861D01*
X81090Y-65014D01*
X81147Y-65014D01*
X81185Y-65033D01*
X81204Y-65052D01*
X81223Y-65090D01*
X81223Y-65185D01*
X81204Y-65223D01*
X81185Y-65242D01*
X81147Y-65261D01*
X81033Y-65261D01*
X80995Y-65242D01*
X80976Y-65223D01*
X74861Y-65300D02*
X74823Y-65280D01*
X74785Y-65242D01*
X74728Y-65185D01*
X74690Y-65166D01*
X74652Y-65166D01*
X74671Y-65261D02*
X74633Y-65242D01*
X74595Y-65204D01*
X74576Y-65128D01*
X74576Y-64995D01*
X74595Y-64919D01*
X74633Y-64880D01*
X74671Y-64861D01*
X74747Y-64861D01*
X74785Y-64880D01*
X74823Y-64919D01*
X74842Y-64995D01*
X74842Y-65128D01*
X74823Y-65204D01*
X74785Y-65242D01*
X74747Y-65261D01*
X74671Y-65261D01*
X75223Y-65261D02*
X74995Y-65261D01*
X75109Y-65261D02*
X75109Y-64861D01*
X75071Y-64919D01*
X75033Y-64957D01*
X74995Y-64976D01*
X77861Y-65300D02*
X77823Y-65280D01*
X77785Y-65242D01*
X77728Y-65185D01*
X77690Y-65166D01*
X77652Y-65166D01*
X77671Y-65261D02*
X77633Y-65242D01*
X77595Y-65204D01*
X77576Y-65128D01*
X77576Y-64995D01*
X77595Y-64919D01*
X77633Y-64880D01*
X77671Y-64861D01*
X77747Y-64861D01*
X77785Y-64880D01*
X77823Y-64919D01*
X77842Y-64995D01*
X77842Y-65128D01*
X77823Y-65204D01*
X77785Y-65242D01*
X77747Y-65261D01*
X77671Y-65261D01*
X77995Y-64900D02*
X78014Y-64880D01*
X78052Y-64861D01*
X78147Y-64861D01*
X78185Y-64880D01*
X78204Y-64900D01*
X78223Y-64938D01*
X78223Y-64976D01*
X78204Y-65033D01*
X77976Y-65261D01*
X78223Y-65261D01*
X78195Y-76261D02*
X78195Y-76585D01*
X78214Y-76623D01*
X78233Y-76642D01*
X78271Y-76661D01*
X78347Y-76661D01*
X78385Y-76642D01*
X78404Y-76623D01*
X78423Y-76585D01*
X78423Y-76261D01*
X78804Y-76261D02*
X78614Y-76261D01*
X78595Y-76452D01*
X78614Y-76433D01*
X78652Y-76414D01*
X78747Y-76414D01*
X78785Y-76433D01*
X78804Y-76452D01*
X78823Y-76490D01*
X78823Y-76585D01*
X78804Y-76623D01*
X78785Y-76642D01*
X78747Y-76661D01*
X78652Y-76661D01*
X78614Y-76642D01*
X78595Y-76623D01*
X78719Y-72761D02*
X78947Y-72761D01*
X78833Y-73161D02*
X78833Y-72761D01*
X79309Y-73161D02*
X79176Y-72971D01*
X79080Y-73161D02*
X79080Y-72761D01*
X79233Y-72761D01*
X79271Y-72780D01*
X79290Y-72800D01*
X79309Y-72838D01*
X79309Y-72895D01*
X79290Y-72933D01*
X79271Y-72952D01*
X79233Y-72971D01*
X79080Y-72971D01*
X79480Y-73161D02*
X79480Y-72761D01*
X79652Y-73047D02*
X79842Y-73047D01*
X79614Y-73161D02*
X79747Y-72761D01*
X79880Y-73161D01*
X80242Y-73123D02*
X80223Y-73142D01*
X80166Y-73161D01*
X80128Y-73161D01*
X80071Y-73142D01*
X80033Y-73104D01*
X80014Y-73066D01*
X79995Y-72990D01*
X79995Y-72933D01*
X80014Y-72857D01*
X80033Y-72819D01*
X80071Y-72780D01*
X80128Y-72761D01*
X80166Y-72761D01*
X80223Y-72780D01*
X80242Y-72800D01*
X87004Y-76261D02*
X87004Y-76585D01*
X87023Y-76623D01*
X87042Y-76642D01*
X87080Y-76661D01*
X87157Y-76661D01*
X87195Y-76642D01*
X87214Y-76623D01*
X87233Y-76585D01*
X87233Y-76261D01*
X87633Y-76661D02*
X87404Y-76661D01*
X87519Y-76661D02*
X87519Y-76261D01*
X87480Y-76319D01*
X87442Y-76357D01*
X87404Y-76376D01*
X87880Y-76261D02*
X87919Y-76261D01*
X87957Y-76280D01*
X87976Y-76300D01*
X87995Y-76338D01*
X88014Y-76414D01*
X88014Y-76509D01*
X87995Y-76585D01*
X87976Y-76623D01*
X87957Y-76642D01*
X87919Y-76661D01*
X87880Y-76661D01*
X87842Y-76642D01*
X87823Y-76623D01*
X87804Y-76585D01*
X87785Y-76509D01*
X87785Y-76414D01*
X87804Y-76338D01*
X87823Y-76300D01*
X87842Y-76280D01*
X87880Y-76261D01*
X87719Y-72761D02*
X87947Y-72761D01*
X87833Y-73161D02*
X87833Y-72761D01*
X88309Y-73161D02*
X88176Y-72971D01*
X88080Y-73161D02*
X88080Y-72761D01*
X88233Y-72761D01*
X88271Y-72780D01*
X88290Y-72800D01*
X88309Y-72838D01*
X88309Y-72895D01*
X88290Y-72933D01*
X88271Y-72952D01*
X88233Y-72971D01*
X88080Y-72971D01*
X88480Y-73161D02*
X88480Y-72761D01*
X88652Y-73047D02*
X88842Y-73047D01*
X88614Y-73161D02*
X88747Y-72761D01*
X88880Y-73161D01*
X89242Y-73123D02*
X89223Y-73142D01*
X89166Y-73161D01*
X89128Y-73161D01*
X89071Y-73142D01*
X89033Y-73104D01*
X89014Y-73066D01*
X88995Y-72990D01*
X88995Y-72933D01*
X89014Y-72857D01*
X89033Y-72819D01*
X89071Y-72780D01*
X89128Y-72761D01*
X89166Y-72761D01*
X89223Y-72780D01*
X89242Y-72800D01*
X100695Y-76261D02*
X100695Y-76585D01*
X100714Y-76623D01*
X100733Y-76642D01*
X100771Y-76661D01*
X100847Y-76661D01*
X100885Y-76642D01*
X100904Y-76623D01*
X100923Y-76585D01*
X100923Y-76261D01*
X101133Y-76661D02*
X101209Y-76661D01*
X101247Y-76642D01*
X101266Y-76623D01*
X101304Y-76566D01*
X101323Y-76490D01*
X101323Y-76338D01*
X101304Y-76300D01*
X101285Y-76280D01*
X101247Y-76261D01*
X101171Y-76261D01*
X101133Y-76280D01*
X101114Y-76300D01*
X101095Y-76338D01*
X101095Y-76433D01*
X101114Y-76471D01*
X101133Y-76490D01*
X101171Y-76509D01*
X101247Y-76509D01*
X101285Y-76490D01*
X101304Y-76471D01*
X101323Y-76433D01*
X101119Y-72761D02*
X101347Y-72761D01*
X101233Y-73161D02*
X101233Y-72761D01*
X101709Y-73161D02*
X101576Y-72971D01*
X101480Y-73161D02*
X101480Y-72761D01*
X101633Y-72761D01*
X101671Y-72780D01*
X101690Y-72800D01*
X101709Y-72838D01*
X101709Y-72895D01*
X101690Y-72933D01*
X101671Y-72952D01*
X101633Y-72971D01*
X101480Y-72971D01*
X101880Y-73161D02*
X101880Y-72761D01*
X102052Y-73047D02*
X102242Y-73047D01*
X102014Y-73161D02*
X102147Y-72761D01*
X102280Y-73161D01*
X102642Y-73123D02*
X102623Y-73142D01*
X102566Y-73161D01*
X102528Y-73161D01*
X102471Y-73142D01*
X102433Y-73104D01*
X102414Y-73066D01*
X102395Y-72990D01*
X102395Y-72933D01*
X102414Y-72857D01*
X102433Y-72819D01*
X102471Y-72780D01*
X102528Y-72761D01*
X102566Y-72761D01*
X102623Y-72780D01*
X102642Y-72800D01*
X96195Y-76261D02*
X96195Y-76585D01*
X96214Y-76623D01*
X96233Y-76642D01*
X96271Y-76661D01*
X96347Y-76661D01*
X96385Y-76642D01*
X96404Y-76623D01*
X96423Y-76585D01*
X96423Y-76261D01*
X96671Y-76433D02*
X96633Y-76414D01*
X96614Y-76395D01*
X96595Y-76357D01*
X96595Y-76338D01*
X96614Y-76300D01*
X96633Y-76280D01*
X96671Y-76261D01*
X96747Y-76261D01*
X96785Y-76280D01*
X96804Y-76300D01*
X96823Y-76338D01*
X96823Y-76357D01*
X96804Y-76395D01*
X96785Y-76414D01*
X96747Y-76433D01*
X96671Y-76433D01*
X96633Y-76452D01*
X96614Y-76471D01*
X96595Y-76509D01*
X96595Y-76585D01*
X96614Y-76623D01*
X96633Y-76642D01*
X96671Y-76661D01*
X96747Y-76661D01*
X96785Y-76642D01*
X96804Y-76623D01*
X96823Y-76585D01*
X96823Y-76509D01*
X96804Y-76471D01*
X96785Y-76452D01*
X96747Y-76433D01*
X96619Y-72761D02*
X96847Y-72761D01*
X96733Y-73161D02*
X96733Y-72761D01*
X97209Y-73161D02*
X97076Y-72971D01*
X96980Y-73161D02*
X96980Y-72761D01*
X97133Y-72761D01*
X97171Y-72780D01*
X97190Y-72800D01*
X97209Y-72838D01*
X97209Y-72895D01*
X97190Y-72933D01*
X97171Y-72952D01*
X97133Y-72971D01*
X96980Y-72971D01*
X97380Y-73161D02*
X97380Y-72761D01*
X97552Y-73047D02*
X97742Y-73047D01*
X97514Y-73161D02*
X97647Y-72761D01*
X97780Y-73161D01*
X98142Y-73123D02*
X98123Y-73142D01*
X98066Y-73161D01*
X98028Y-73161D01*
X97971Y-73142D01*
X97933Y-73104D01*
X97914Y-73066D01*
X97895Y-72990D01*
X97895Y-72933D01*
X97914Y-72857D01*
X97933Y-72819D01*
X97971Y-72780D01*
X98028Y-72761D01*
X98066Y-72761D01*
X98123Y-72780D01*
X98142Y-72800D01*
X91695Y-76261D02*
X91695Y-76585D01*
X91714Y-76623D01*
X91733Y-76642D01*
X91771Y-76661D01*
X91847Y-76661D01*
X91885Y-76642D01*
X91904Y-76623D01*
X91923Y-76585D01*
X91923Y-76261D01*
X92076Y-76261D02*
X92342Y-76261D01*
X92171Y-76661D01*
X92219Y-72761D02*
X92447Y-72761D01*
X92333Y-73161D02*
X92333Y-72761D01*
X92809Y-73161D02*
X92676Y-72971D01*
X92580Y-73161D02*
X92580Y-72761D01*
X92733Y-72761D01*
X92771Y-72780D01*
X92790Y-72800D01*
X92809Y-72838D01*
X92809Y-72895D01*
X92790Y-72933D01*
X92771Y-72952D01*
X92733Y-72971D01*
X92580Y-72971D01*
X92980Y-73161D02*
X92980Y-72761D01*
X93152Y-73047D02*
X93342Y-73047D01*
X93114Y-73161D02*
X93247Y-72761D01*
X93380Y-73161D01*
X93742Y-73123D02*
X93723Y-73142D01*
X93666Y-73161D01*
X93628Y-73161D01*
X93571Y-73142D01*
X93533Y-73104D01*
X93514Y-73066D01*
X93495Y-72990D01*
X93495Y-72933D01*
X93514Y-72857D01*
X93533Y-72819D01*
X93571Y-72780D01*
X93628Y-72761D01*
X93666Y-72761D01*
X93723Y-72780D01*
X93742Y-72800D01*
X82695Y-76261D02*
X82695Y-76585D01*
X82714Y-76623D01*
X82733Y-76642D01*
X82771Y-76661D01*
X82847Y-76661D01*
X82885Y-76642D01*
X82904Y-76623D01*
X82923Y-76585D01*
X82923Y-76261D01*
X83285Y-76261D02*
X83209Y-76261D01*
X83171Y-76280D01*
X83152Y-76300D01*
X83114Y-76357D01*
X83095Y-76433D01*
X83095Y-76585D01*
X83114Y-76623D01*
X83133Y-76642D01*
X83171Y-76661D01*
X83247Y-76661D01*
X83285Y-76642D01*
X83304Y-76623D01*
X83323Y-76585D01*
X83323Y-76490D01*
X83304Y-76452D01*
X83285Y-76433D01*
X83247Y-76414D01*
X83171Y-76414D01*
X83133Y-76433D01*
X83114Y-76452D01*
X83095Y-76490D01*
X83219Y-72761D02*
X83447Y-72761D01*
X83333Y-73161D02*
X83333Y-72761D01*
X83809Y-73161D02*
X83676Y-72971D01*
X83580Y-73161D02*
X83580Y-72761D01*
X83733Y-72761D01*
X83771Y-72780D01*
X83790Y-72800D01*
X83809Y-72838D01*
X83809Y-72895D01*
X83790Y-72933D01*
X83771Y-72952D01*
X83733Y-72971D01*
X83580Y-72971D01*
X83980Y-73161D02*
X83980Y-72761D01*
X84152Y-73047D02*
X84342Y-73047D01*
X84114Y-73161D02*
X84247Y-72761D01*
X84380Y-73161D01*
X84742Y-73123D02*
X84723Y-73142D01*
X84666Y-73161D01*
X84628Y-73161D01*
X84571Y-73142D01*
X84533Y-73104D01*
X84514Y-73066D01*
X84495Y-72990D01*
X84495Y-72933D01*
X84514Y-72857D01*
X84533Y-72819D01*
X84571Y-72780D01*
X84628Y-72761D01*
X84666Y-72761D01*
X84723Y-72780D01*
X84742Y-72800D01*
X73695Y-76261D02*
X73695Y-76585D01*
X73714Y-76623D01*
X73733Y-76642D01*
X73771Y-76661D01*
X73847Y-76661D01*
X73885Y-76642D01*
X73904Y-76623D01*
X73923Y-76585D01*
X73923Y-76261D01*
X74285Y-76395D02*
X74285Y-76661D01*
X74190Y-76242D02*
X74095Y-76528D01*
X74342Y-76528D01*
X74219Y-72761D02*
X74447Y-72761D01*
X74333Y-73161D02*
X74333Y-72761D01*
X74809Y-73161D02*
X74676Y-72971D01*
X74580Y-73161D02*
X74580Y-72761D01*
X74733Y-72761D01*
X74771Y-72780D01*
X74790Y-72800D01*
X74809Y-72838D01*
X74809Y-72895D01*
X74790Y-72933D01*
X74771Y-72952D01*
X74733Y-72971D01*
X74580Y-72971D01*
X74980Y-73161D02*
X74980Y-72761D01*
X75152Y-73047D02*
X75342Y-73047D01*
X75114Y-73161D02*
X75247Y-72761D01*
X75380Y-73161D01*
X75742Y-73123D02*
X75723Y-73142D01*
X75666Y-73161D01*
X75628Y-73161D01*
X75571Y-73142D01*
X75533Y-73104D01*
X75514Y-73066D01*
X75495Y-72990D01*
X75495Y-72933D01*
X75514Y-72857D01*
X75533Y-72819D01*
X75571Y-72780D01*
X75628Y-72761D01*
X75666Y-72761D01*
X75723Y-72780D01*
X75742Y-72800D01*
X69195Y-76261D02*
X69195Y-76585D01*
X69214Y-76623D01*
X69233Y-76642D01*
X69271Y-76661D01*
X69347Y-76661D01*
X69385Y-76642D01*
X69404Y-76623D01*
X69423Y-76585D01*
X69423Y-76261D01*
X69576Y-76261D02*
X69823Y-76261D01*
X69690Y-76414D01*
X69747Y-76414D01*
X69785Y-76433D01*
X69804Y-76452D01*
X69823Y-76490D01*
X69823Y-76585D01*
X69804Y-76623D01*
X69785Y-76642D01*
X69747Y-76661D01*
X69633Y-76661D01*
X69595Y-76642D01*
X69576Y-76623D01*
X69719Y-72761D02*
X69947Y-72761D01*
X69833Y-73161D02*
X69833Y-72761D01*
X70309Y-73161D02*
X70176Y-72971D01*
X70080Y-73161D02*
X70080Y-72761D01*
X70233Y-72761D01*
X70271Y-72780D01*
X70290Y-72800D01*
X70309Y-72838D01*
X70309Y-72895D01*
X70290Y-72933D01*
X70271Y-72952D01*
X70233Y-72971D01*
X70080Y-72971D01*
X70480Y-73161D02*
X70480Y-72761D01*
X70652Y-73047D02*
X70842Y-73047D01*
X70614Y-73161D02*
X70747Y-72761D01*
X70880Y-73161D01*
X71242Y-73123D02*
X71223Y-73142D01*
X71166Y-73161D01*
X71128Y-73161D01*
X71071Y-73142D01*
X71033Y-73104D01*
X71014Y-73066D01*
X70995Y-72990D01*
X70995Y-72933D01*
X71014Y-72857D01*
X71033Y-72819D01*
X71071Y-72780D01*
X71128Y-72761D01*
X71166Y-72761D01*
X71223Y-72780D01*
X71242Y-72800D01*
X94722Y-74821D02*
X94460Y-74988D01*
X94722Y-75107D02*
X94172Y-75107D01*
X94172Y-74916D01*
X94198Y-74869D01*
X94225Y-74845D01*
X94277Y-74821D01*
X94355Y-74821D01*
X94408Y-74845D01*
X94434Y-74869D01*
X94460Y-74916D01*
X94460Y-75107D01*
X94722Y-74345D02*
X94722Y-74630D01*
X94722Y-74488D02*
X94172Y-74488D01*
X94251Y-74535D01*
X94303Y-74583D01*
X94329Y-74630D01*
X94722Y-73869D02*
X94722Y-74154D01*
X94722Y-74011D02*
X94172Y-74011D01*
X94251Y-74059D01*
X94303Y-74107D01*
X94329Y-74154D01*
X72516Y-67922D02*
X72350Y-67660D01*
X72230Y-67922D02*
X72230Y-67372D01*
X72421Y-67372D01*
X72469Y-67398D01*
X72492Y-67425D01*
X72516Y-67477D01*
X72516Y-67555D01*
X72492Y-67608D01*
X72469Y-67634D01*
X72421Y-67660D01*
X72230Y-67660D01*
X72992Y-67922D02*
X72707Y-67922D01*
X72850Y-67922D02*
X72850Y-67372D01*
X72802Y-67451D01*
X72754Y-67503D01*
X72707Y-67529D01*
X87222Y-71321D02*
X86960Y-71488D01*
X87222Y-71607D02*
X86672Y-71607D01*
X86672Y-71416D01*
X86698Y-71369D01*
X86725Y-71345D01*
X86777Y-71321D01*
X86855Y-71321D01*
X86908Y-71345D01*
X86934Y-71369D01*
X86960Y-71416D01*
X86960Y-71607D01*
X87222Y-70845D02*
X87222Y-71130D01*
X87222Y-70988D02*
X86672Y-70988D01*
X86751Y-71035D01*
X86803Y-71083D01*
X86829Y-71130D01*
X86908Y-70559D02*
X86882Y-70607D01*
X86855Y-70630D01*
X86803Y-70654D01*
X86777Y-70654D01*
X86725Y-70630D01*
X86698Y-70607D01*
X86672Y-70559D01*
X86672Y-70464D01*
X86698Y-70416D01*
X86725Y-70392D01*
X86777Y-70369D01*
X86803Y-70369D01*
X86855Y-70392D01*
X86882Y-70416D01*
X86908Y-70464D01*
X86908Y-70559D01*
X86934Y-70607D01*
X86960Y-70630D01*
X87013Y-70654D01*
X87117Y-70654D01*
X87170Y-70630D01*
X87196Y-70607D01*
X87222Y-70559D01*
X87222Y-70464D01*
X87196Y-70416D01*
X87170Y-70392D01*
X87117Y-70369D01*
X87013Y-70369D01*
X86960Y-70392D01*
X86934Y-70416D01*
X86908Y-70464D01*
X90222Y-74821D02*
X89960Y-74988D01*
X90222Y-75107D02*
X89672Y-75107D01*
X89672Y-74916D01*
X89698Y-74869D01*
X89725Y-74845D01*
X89777Y-74821D01*
X89855Y-74821D01*
X89908Y-74845D01*
X89934Y-74869D01*
X89960Y-74916D01*
X89960Y-75107D01*
X90222Y-74345D02*
X90222Y-74630D01*
X90222Y-74488D02*
X89672Y-74488D01*
X89751Y-74535D01*
X89803Y-74583D01*
X89829Y-74630D01*
X89672Y-74178D02*
X89672Y-73845D01*
X90222Y-74059D01*
X100722Y-71321D02*
X100460Y-71488D01*
X100722Y-71607D02*
X100172Y-71607D01*
X100172Y-71416D01*
X100198Y-71369D01*
X100225Y-71345D01*
X100277Y-71321D01*
X100355Y-71321D01*
X100408Y-71345D01*
X100434Y-71369D01*
X100460Y-71416D01*
X100460Y-71607D01*
X100722Y-70845D02*
X100722Y-71130D01*
X100722Y-70988D02*
X100172Y-70988D01*
X100251Y-71035D01*
X100303Y-71083D01*
X100329Y-71130D01*
X100172Y-70416D02*
X100172Y-70511D01*
X100198Y-70559D01*
X100225Y-70583D01*
X100303Y-70630D01*
X100408Y-70654D01*
X100617Y-70654D01*
X100670Y-70630D01*
X100696Y-70607D01*
X100722Y-70559D01*
X100722Y-70464D01*
X100696Y-70416D01*
X100670Y-70392D01*
X100617Y-70369D01*
X100486Y-70369D01*
X100434Y-70392D01*
X100408Y-70416D01*
X100382Y-70464D01*
X100382Y-70559D01*
X100408Y-70607D01*
X100434Y-70630D01*
X100486Y-70654D01*
X103622Y-74821D02*
X103360Y-74988D01*
X103622Y-75107D02*
X103072Y-75107D01*
X103072Y-74916D01*
X103098Y-74869D01*
X103125Y-74845D01*
X103177Y-74821D01*
X103255Y-74821D01*
X103308Y-74845D01*
X103334Y-74869D01*
X103360Y-74916D01*
X103360Y-75107D01*
X103622Y-74345D02*
X103622Y-74630D01*
X103622Y-74488D02*
X103072Y-74488D01*
X103151Y-74535D01*
X103203Y-74583D01*
X103229Y-74630D01*
X103072Y-73892D02*
X103072Y-74130D01*
X103334Y-74154D01*
X103308Y-74130D01*
X103282Y-74083D01*
X103282Y-73964D01*
X103308Y-73916D01*
X103334Y-73892D01*
X103386Y-73869D01*
X103517Y-73869D01*
X103570Y-73892D01*
X103596Y-73916D01*
X103622Y-73964D01*
X103622Y-74083D01*
X103596Y-74130D01*
X103570Y-74154D01*
X96222Y-71321D02*
X95960Y-71488D01*
X96222Y-71607D02*
X95672Y-71607D01*
X95672Y-71416D01*
X95698Y-71369D01*
X95725Y-71345D01*
X95777Y-71321D01*
X95855Y-71321D01*
X95908Y-71345D01*
X95934Y-71369D01*
X95960Y-71416D01*
X95960Y-71607D01*
X96222Y-70845D02*
X96222Y-71130D01*
X96222Y-70988D02*
X95672Y-70988D01*
X95751Y-71035D01*
X95803Y-71083D01*
X95829Y-71130D01*
X95855Y-70416D02*
X96222Y-70416D01*
X95646Y-70535D02*
X96039Y-70654D01*
X96039Y-70345D01*
X99222Y-74821D02*
X98960Y-74988D01*
X99222Y-75107D02*
X98672Y-75107D01*
X98672Y-74916D01*
X98698Y-74869D01*
X98725Y-74845D01*
X98777Y-74821D01*
X98855Y-74821D01*
X98908Y-74845D01*
X98934Y-74869D01*
X98960Y-74916D01*
X98960Y-75107D01*
X99222Y-74345D02*
X99222Y-74630D01*
X99222Y-74488D02*
X98672Y-74488D01*
X98751Y-74535D01*
X98803Y-74583D01*
X98829Y-74630D01*
X98672Y-74178D02*
X98672Y-73869D01*
X98882Y-74035D01*
X98882Y-73964D01*
X98908Y-73916D01*
X98934Y-73892D01*
X98986Y-73869D01*
X99117Y-73869D01*
X99170Y-73892D01*
X99196Y-73916D01*
X99222Y-73964D01*
X99222Y-74107D01*
X99196Y-74154D01*
X99170Y-74178D01*
X91722Y-71321D02*
X91460Y-71488D01*
X91722Y-71607D02*
X91172Y-71607D01*
X91172Y-71416D01*
X91198Y-71369D01*
X91225Y-71345D01*
X91277Y-71321D01*
X91355Y-71321D01*
X91408Y-71345D01*
X91434Y-71369D01*
X91460Y-71416D01*
X91460Y-71607D01*
X91722Y-70845D02*
X91722Y-71130D01*
X91722Y-70988D02*
X91172Y-70988D01*
X91251Y-71035D01*
X91303Y-71083D01*
X91329Y-71130D01*
X91225Y-70654D02*
X91198Y-70630D01*
X91172Y-70583D01*
X91172Y-70464D01*
X91198Y-70416D01*
X91225Y-70392D01*
X91277Y-70369D01*
X91329Y-70369D01*
X91408Y-70392D01*
X91722Y-70678D01*
X91722Y-70369D01*
X69222Y-71083D02*
X68960Y-71250D01*
X69222Y-71369D02*
X68672Y-71369D01*
X68672Y-71178D01*
X68698Y-71130D01*
X68725Y-71107D01*
X68777Y-71083D01*
X68855Y-71083D01*
X68908Y-71107D01*
X68934Y-71130D01*
X68960Y-71178D01*
X68960Y-71369D01*
X68855Y-70654D02*
X69222Y-70654D01*
X68646Y-70773D02*
X69039Y-70892D01*
X69039Y-70583D01*
X82722Y-71321D02*
X82460Y-71488D01*
X82722Y-71607D02*
X82172Y-71607D01*
X82172Y-71416D01*
X82198Y-71369D01*
X82225Y-71345D01*
X82277Y-71321D01*
X82355Y-71321D01*
X82408Y-71345D01*
X82434Y-71369D01*
X82460Y-71416D01*
X82460Y-71607D01*
X82722Y-70845D02*
X82722Y-71130D01*
X82722Y-70988D02*
X82172Y-70988D01*
X82251Y-71035D01*
X82303Y-71083D01*
X82329Y-71130D01*
X82172Y-70535D02*
X82172Y-70488D01*
X82198Y-70440D01*
X82225Y-70416D01*
X82277Y-70392D01*
X82382Y-70369D01*
X82513Y-70369D01*
X82617Y-70392D01*
X82670Y-70416D01*
X82696Y-70440D01*
X82722Y-70488D01*
X82722Y-70535D01*
X82696Y-70583D01*
X82670Y-70607D01*
X82617Y-70630D01*
X82513Y-70654D01*
X82382Y-70654D01*
X82277Y-70630D01*
X82225Y-70607D01*
X82198Y-70583D01*
X82172Y-70535D01*
X85722Y-74583D02*
X85460Y-74750D01*
X85722Y-74869D02*
X85172Y-74869D01*
X85172Y-74678D01*
X85198Y-74630D01*
X85225Y-74607D01*
X85277Y-74583D01*
X85355Y-74583D01*
X85408Y-74607D01*
X85434Y-74630D01*
X85460Y-74678D01*
X85460Y-74869D01*
X85722Y-74345D02*
X85722Y-74250D01*
X85696Y-74202D01*
X85670Y-74178D01*
X85591Y-74130D01*
X85486Y-74107D01*
X85277Y-74107D01*
X85225Y-74130D01*
X85198Y-74154D01*
X85172Y-74202D01*
X85172Y-74297D01*
X85198Y-74345D01*
X85225Y-74369D01*
X85277Y-74392D01*
X85408Y-74392D01*
X85460Y-74369D01*
X85486Y-74345D01*
X85513Y-74297D01*
X85513Y-74202D01*
X85486Y-74154D01*
X85460Y-74130D01*
X85408Y-74107D01*
X72422Y-63283D02*
X72160Y-63450D01*
X72422Y-63569D02*
X71872Y-63569D01*
X71872Y-63378D01*
X71898Y-63330D01*
X71925Y-63307D01*
X71977Y-63283D01*
X72055Y-63283D01*
X72108Y-63307D01*
X72134Y-63330D01*
X72160Y-63378D01*
X72160Y-63569D01*
X71925Y-63092D02*
X71898Y-63069D01*
X71872Y-63021D01*
X71872Y-62902D01*
X71898Y-62854D01*
X71925Y-62830D01*
X71977Y-62807D01*
X72029Y-62807D01*
X72108Y-62830D01*
X72422Y-63116D01*
X72422Y-62807D01*
X72222Y-74583D02*
X71960Y-74750D01*
X72222Y-74869D02*
X71672Y-74869D01*
X71672Y-74678D01*
X71698Y-74630D01*
X71725Y-74607D01*
X71777Y-74583D01*
X71855Y-74583D01*
X71908Y-74607D01*
X71934Y-74630D01*
X71960Y-74678D01*
X71960Y-74869D01*
X71672Y-74416D02*
X71672Y-74107D01*
X71882Y-74273D01*
X71882Y-74202D01*
X71908Y-74154D01*
X71934Y-74130D01*
X71986Y-74107D01*
X72117Y-74107D01*
X72170Y-74130D01*
X72196Y-74154D01*
X72222Y-74202D01*
X72222Y-74345D01*
X72196Y-74392D01*
X72170Y-74416D01*
X76722Y-74583D02*
X76460Y-74750D01*
X76722Y-74869D02*
X76172Y-74869D01*
X76172Y-74678D01*
X76198Y-74630D01*
X76225Y-74607D01*
X76277Y-74583D01*
X76355Y-74583D01*
X76408Y-74607D01*
X76434Y-74630D01*
X76460Y-74678D01*
X76460Y-74869D01*
X76172Y-74130D02*
X76172Y-74369D01*
X76434Y-74392D01*
X76408Y-74369D01*
X76382Y-74321D01*
X76382Y-74202D01*
X76408Y-74154D01*
X76434Y-74130D01*
X76486Y-74107D01*
X76617Y-74107D01*
X76670Y-74130D01*
X76696Y-74154D01*
X76722Y-74202D01*
X76722Y-74321D01*
X76696Y-74369D01*
X76670Y-74392D01*
X73722Y-71083D02*
X73460Y-71250D01*
X73722Y-71369D02*
X73172Y-71369D01*
X73172Y-71178D01*
X73198Y-71130D01*
X73225Y-71107D01*
X73277Y-71083D01*
X73355Y-71083D01*
X73408Y-71107D01*
X73434Y-71130D01*
X73460Y-71178D01*
X73460Y-71369D01*
X73172Y-70654D02*
X73172Y-70750D01*
X73198Y-70797D01*
X73225Y-70821D01*
X73303Y-70869D01*
X73408Y-70892D01*
X73617Y-70892D01*
X73670Y-70869D01*
X73696Y-70845D01*
X73722Y-70797D01*
X73722Y-70702D01*
X73696Y-70654D01*
X73670Y-70630D01*
X73617Y-70607D01*
X73486Y-70607D01*
X73434Y-70630D01*
X73408Y-70654D01*
X73382Y-70702D01*
X73382Y-70797D01*
X73408Y-70845D01*
X73434Y-70869D01*
X73486Y-70892D01*
X81222Y-74583D02*
X80960Y-74750D01*
X81222Y-74869D02*
X80672Y-74869D01*
X80672Y-74678D01*
X80698Y-74630D01*
X80725Y-74607D01*
X80777Y-74583D01*
X80855Y-74583D01*
X80908Y-74607D01*
X80934Y-74630D01*
X80960Y-74678D01*
X80960Y-74869D01*
X80672Y-74416D02*
X80672Y-74083D01*
X81222Y-74297D01*
X78222Y-71083D02*
X77960Y-71250D01*
X78222Y-71369D02*
X77672Y-71369D01*
X77672Y-71178D01*
X77698Y-71130D01*
X77725Y-71107D01*
X77777Y-71083D01*
X77855Y-71083D01*
X77908Y-71107D01*
X77934Y-71130D01*
X77960Y-71178D01*
X77960Y-71369D01*
X77908Y-70797D02*
X77882Y-70845D01*
X77855Y-70869D01*
X77803Y-70892D01*
X77777Y-70892D01*
X77725Y-70869D01*
X77698Y-70845D01*
X77672Y-70797D01*
X77672Y-70702D01*
X77698Y-70654D01*
X77725Y-70630D01*
X77777Y-70607D01*
X77803Y-70607D01*
X77855Y-70630D01*
X77882Y-70654D01*
X77908Y-70702D01*
X77908Y-70797D01*
X77934Y-70845D01*
X77960Y-70869D01*
X78013Y-70892D01*
X78117Y-70892D01*
X78170Y-70869D01*
X78196Y-70845D01*
X78222Y-70797D01*
X78222Y-70702D01*
X78196Y-70654D01*
X78170Y-70630D01*
X78117Y-70607D01*
X78013Y-70607D01*
X77960Y-70630D01*
X77934Y-70654D01*
X77908Y-70702D01*
X71004Y-56961D02*
X71004Y-56561D01*
X71157Y-56561D01*
X71195Y-56580D01*
X71214Y-56600D01*
X71233Y-56638D01*
X71233Y-56695D01*
X71214Y-56733D01*
X71195Y-56752D01*
X71157Y-56771D01*
X71004Y-56771D01*
X71385Y-56600D02*
X71404Y-56580D01*
X71442Y-56561D01*
X71538Y-56561D01*
X71576Y-56580D01*
X71595Y-56600D01*
X71614Y-56638D01*
X71614Y-56676D01*
X71595Y-56733D01*
X71366Y-56961D01*
X71614Y-56961D01*
G54D14*
X70878Y-61621D02*
X70878Y-61321D01*
X70992Y-61321D01*
X71021Y-61335D01*
X71035Y-61350D01*
X71050Y-61378D01*
X71050Y-61421D01*
X71035Y-61450D01*
X71021Y-61464D01*
X70992Y-61478D01*
X70878Y-61478D01*
X71150Y-61321D02*
X71335Y-61321D01*
X71235Y-61435D01*
X71278Y-61435D01*
X71307Y-61450D01*
X71321Y-61464D01*
X71335Y-61492D01*
X71335Y-61564D01*
X71321Y-61592D01*
X71307Y-61607D01*
X71278Y-61621D01*
X71192Y-61621D01*
X71164Y-61607D01*
X71150Y-61592D01*
G54D19*
X92371Y-70721D02*
X92071Y-70721D01*
X92071Y-70650D01*
X92085Y-70607D01*
X92114Y-70578D01*
X92142Y-70564D01*
X92200Y-70550D01*
X92242Y-70550D01*
X92300Y-70564D01*
X92328Y-70578D01*
X92357Y-70607D01*
X92371Y-70650D01*
X92371Y-70721D01*
X92071Y-70278D02*
X92071Y-70421D01*
X92214Y-70435D01*
X92200Y-70421D01*
X92185Y-70392D01*
X92185Y-70321D01*
X92200Y-70292D01*
X92214Y-70278D01*
X92242Y-70264D01*
X92314Y-70264D01*
X92342Y-70278D01*
X92357Y-70292D01*
X92371Y-70321D01*
X92371Y-70392D01*
X92357Y-70421D01*
X92342Y-70435D01*
X95371Y-70692D02*
X95371Y-70835D01*
X95071Y-70835D01*
X95214Y-70592D02*
X95214Y-70492D01*
X95371Y-70450D02*
X95371Y-70592D01*
X95071Y-70592D01*
X95071Y-70450D01*
X95371Y-70321D02*
X95071Y-70321D01*
X95071Y-70250D01*
X95085Y-70207D01*
X95114Y-70178D01*
X95142Y-70164D01*
X95200Y-70150D01*
X95242Y-70150D01*
X95300Y-70164D01*
X95328Y-70178D01*
X95357Y-70207D01*
X95371Y-70250D01*
X95371Y-70321D01*
X74371Y-70721D02*
X74071Y-70721D01*
X74071Y-70650D01*
X74085Y-70607D01*
X74114Y-70578D01*
X74142Y-70564D01*
X74200Y-70550D01*
X74242Y-70550D01*
X74300Y-70564D01*
X74328Y-70578D01*
X74357Y-70607D01*
X74371Y-70650D01*
X74371Y-70721D01*
X74100Y-70435D02*
X74085Y-70421D01*
X74071Y-70392D01*
X74071Y-70321D01*
X74085Y-70292D01*
X74100Y-70278D01*
X74128Y-70264D01*
X74157Y-70264D01*
X74200Y-70278D01*
X74371Y-70450D01*
X74371Y-70264D01*
X77371Y-70692D02*
X77371Y-70835D01*
X77071Y-70835D01*
X77214Y-70592D02*
X77214Y-70492D01*
X77371Y-70450D02*
X77371Y-70592D01*
X77071Y-70592D01*
X77071Y-70450D01*
X77371Y-70321D02*
X77071Y-70321D01*
X77071Y-70250D01*
X77085Y-70207D01*
X77114Y-70178D01*
X77142Y-70164D01*
X77200Y-70150D01*
X77242Y-70150D01*
X77300Y-70164D01*
X77328Y-70178D01*
X77357Y-70207D01*
X77371Y-70250D01*
X77371Y-70321D01*
X87871Y-70721D02*
X87571Y-70721D01*
X87571Y-70650D01*
X87585Y-70607D01*
X87614Y-70578D01*
X87642Y-70564D01*
X87700Y-70550D01*
X87742Y-70550D01*
X87800Y-70564D01*
X87828Y-70578D01*
X87857Y-70607D01*
X87871Y-70650D01*
X87871Y-70721D01*
X87700Y-70378D02*
X87685Y-70407D01*
X87671Y-70421D01*
X87642Y-70435D01*
X87628Y-70435D01*
X87600Y-70421D01*
X87585Y-70407D01*
X87571Y-70378D01*
X87571Y-70321D01*
X87585Y-70292D01*
X87600Y-70278D01*
X87628Y-70264D01*
X87642Y-70264D01*
X87671Y-70278D01*
X87685Y-70292D01*
X87700Y-70321D01*
X87700Y-70378D01*
X87714Y-70407D01*
X87728Y-70421D01*
X87757Y-70435D01*
X87814Y-70435D01*
X87842Y-70421D01*
X87857Y-70407D01*
X87871Y-70378D01*
X87871Y-70321D01*
X87857Y-70292D01*
X87842Y-70278D01*
X87814Y-70264D01*
X87757Y-70264D01*
X87728Y-70278D01*
X87714Y-70292D01*
X87700Y-70321D01*
X90871Y-70692D02*
X90871Y-70835D01*
X90571Y-70835D01*
X90714Y-70592D02*
X90714Y-70492D01*
X90871Y-70450D02*
X90871Y-70592D01*
X90571Y-70592D01*
X90571Y-70450D01*
X90871Y-70321D02*
X90571Y-70321D01*
X90571Y-70250D01*
X90585Y-70207D01*
X90614Y-70178D01*
X90642Y-70164D01*
X90700Y-70150D01*
X90742Y-70150D01*
X90800Y-70164D01*
X90828Y-70178D01*
X90857Y-70207D01*
X90871Y-70250D01*
X90871Y-70321D01*
X69871Y-70721D02*
X69571Y-70721D01*
X69571Y-70650D01*
X69585Y-70607D01*
X69614Y-70578D01*
X69642Y-70564D01*
X69700Y-70550D01*
X69742Y-70550D01*
X69800Y-70564D01*
X69828Y-70578D01*
X69857Y-70607D01*
X69871Y-70650D01*
X69871Y-70721D01*
X69871Y-70264D02*
X69871Y-70435D01*
X69871Y-70350D02*
X69571Y-70350D01*
X69614Y-70378D01*
X69642Y-70407D01*
X69657Y-70435D01*
X72871Y-70692D02*
X72871Y-70835D01*
X72571Y-70835D01*
X72714Y-70592D02*
X72714Y-70492D01*
X72871Y-70450D02*
X72871Y-70592D01*
X72571Y-70592D01*
X72571Y-70450D01*
X72871Y-70321D02*
X72571Y-70321D01*
X72571Y-70250D01*
X72585Y-70207D01*
X72614Y-70178D01*
X72642Y-70164D01*
X72700Y-70150D01*
X72742Y-70150D01*
X72800Y-70164D01*
X72828Y-70178D01*
X72857Y-70207D01*
X72871Y-70250D01*
X72871Y-70321D01*
X101371Y-70721D02*
X101071Y-70721D01*
X101071Y-70650D01*
X101085Y-70607D01*
X101114Y-70578D01*
X101142Y-70564D01*
X101200Y-70550D01*
X101242Y-70550D01*
X101300Y-70564D01*
X101328Y-70578D01*
X101357Y-70607D01*
X101371Y-70650D01*
X101371Y-70721D01*
X101071Y-70450D02*
X101071Y-70250D01*
X101371Y-70378D01*
X104371Y-70692D02*
X104371Y-70835D01*
X104071Y-70835D01*
X104214Y-70592D02*
X104214Y-70492D01*
X104371Y-70450D02*
X104371Y-70592D01*
X104071Y-70592D01*
X104071Y-70450D01*
X104371Y-70321D02*
X104071Y-70321D01*
X104071Y-70250D01*
X104085Y-70207D01*
X104114Y-70178D01*
X104142Y-70164D01*
X104200Y-70150D01*
X104242Y-70150D01*
X104300Y-70164D01*
X104328Y-70178D01*
X104357Y-70207D01*
X104371Y-70250D01*
X104371Y-70321D01*
X83371Y-70721D02*
X83071Y-70721D01*
X83071Y-70650D01*
X83085Y-70607D01*
X83114Y-70578D01*
X83142Y-70564D01*
X83200Y-70550D01*
X83242Y-70550D01*
X83300Y-70564D01*
X83328Y-70578D01*
X83357Y-70607D01*
X83371Y-70650D01*
X83371Y-70721D01*
X83171Y-70292D02*
X83371Y-70292D01*
X83057Y-70364D02*
X83271Y-70435D01*
X83271Y-70250D01*
X86371Y-70692D02*
X86371Y-70835D01*
X86071Y-70835D01*
X86214Y-70592D02*
X86214Y-70492D01*
X86371Y-70450D02*
X86371Y-70592D01*
X86071Y-70592D01*
X86071Y-70450D01*
X86371Y-70321D02*
X86071Y-70321D01*
X86071Y-70250D01*
X86085Y-70207D01*
X86114Y-70178D01*
X86142Y-70164D01*
X86200Y-70150D01*
X86242Y-70150D01*
X86300Y-70164D01*
X86328Y-70178D01*
X86357Y-70207D01*
X86371Y-70250D01*
X86371Y-70321D01*
X78871Y-70721D02*
X78571Y-70721D01*
X78571Y-70650D01*
X78585Y-70607D01*
X78614Y-70578D01*
X78642Y-70564D01*
X78700Y-70550D01*
X78742Y-70550D01*
X78800Y-70564D01*
X78828Y-70578D01*
X78857Y-70607D01*
X78871Y-70650D01*
X78871Y-70721D01*
X78571Y-70450D02*
X78571Y-70264D01*
X78685Y-70364D01*
X78685Y-70321D01*
X78700Y-70292D01*
X78714Y-70278D01*
X78742Y-70264D01*
X78814Y-70264D01*
X78842Y-70278D01*
X78857Y-70292D01*
X78871Y-70321D01*
X78871Y-70407D01*
X78857Y-70435D01*
X78842Y-70450D01*
X81871Y-70692D02*
X81871Y-70835D01*
X81571Y-70835D01*
X81714Y-70592D02*
X81714Y-70492D01*
X81871Y-70450D02*
X81871Y-70592D01*
X81571Y-70592D01*
X81571Y-70450D01*
X81871Y-70321D02*
X81571Y-70321D01*
X81571Y-70250D01*
X81585Y-70207D01*
X81614Y-70178D01*
X81642Y-70164D01*
X81700Y-70150D01*
X81742Y-70150D01*
X81800Y-70164D01*
X81828Y-70178D01*
X81857Y-70207D01*
X81871Y-70250D01*
X81871Y-70321D01*
X96871Y-70721D02*
X96571Y-70721D01*
X96571Y-70650D01*
X96585Y-70607D01*
X96614Y-70578D01*
X96642Y-70564D01*
X96700Y-70550D01*
X96742Y-70550D01*
X96800Y-70564D01*
X96828Y-70578D01*
X96857Y-70607D01*
X96871Y-70650D01*
X96871Y-70721D01*
X96571Y-70292D02*
X96571Y-70350D01*
X96585Y-70378D01*
X96600Y-70392D01*
X96642Y-70421D01*
X96700Y-70435D01*
X96814Y-70435D01*
X96842Y-70421D01*
X96857Y-70407D01*
X96871Y-70378D01*
X96871Y-70321D01*
X96857Y-70292D01*
X96842Y-70278D01*
X96814Y-70264D01*
X96742Y-70264D01*
X96714Y-70278D01*
X96700Y-70292D01*
X96685Y-70321D01*
X96685Y-70378D01*
X96700Y-70407D01*
X96714Y-70421D01*
X96742Y-70435D01*
X99871Y-70692D02*
X99871Y-70835D01*
X99571Y-70835D01*
X99714Y-70592D02*
X99714Y-70492D01*
X99871Y-70450D02*
X99871Y-70592D01*
X99571Y-70592D01*
X99571Y-70450D01*
X99871Y-70321D02*
X99571Y-70321D01*
X99571Y-70250D01*
X99585Y-70207D01*
X99614Y-70178D01*
X99642Y-70164D01*
X99700Y-70150D01*
X99742Y-70150D01*
X99800Y-70164D01*
X99828Y-70178D01*
X99857Y-70207D01*
X99871Y-70250D01*
X99871Y-70321D01*
G54D20*
X73957Y-56842D02*
X73957Y-57328D01*
X73978Y-57385D01*
X74000Y-57414D01*
X74042Y-57442D01*
X74128Y-57442D01*
X74171Y-57414D01*
X74192Y-57385D01*
X74214Y-57328D01*
X74214Y-56842D01*
X74664Y-57442D02*
X74407Y-57442D01*
X74535Y-57442D02*
X74535Y-56842D01*
X74492Y-56928D01*
X74450Y-56985D01*
X74407Y-57014D01*
G54D12*
G54D20*
X75932Y-57242D02*
X76232Y-57242D01*
X76039Y-57842D01*
X76596Y-57442D02*
X76596Y-57842D01*
X76489Y-57214D02*
X76382Y-57642D01*
X76660Y-57642D01*
X76832Y-57842D02*
X76832Y-57242D01*
X76832Y-57528D02*
X77089Y-57528D01*
X77089Y-57842D02*
X77089Y-57242D01*
X77560Y-57785D02*
X77539Y-57814D01*
X77475Y-57842D01*
X77432Y-57842D01*
X77367Y-57814D01*
X77325Y-57757D01*
X77303Y-57700D01*
X77282Y-57585D01*
X77282Y-57500D01*
X77303Y-57385D01*
X77325Y-57328D01*
X77367Y-57271D01*
X77432Y-57242D01*
X77475Y-57242D01*
X77539Y-57271D01*
X77560Y-57300D01*
X77989Y-57842D02*
X77732Y-57842D01*
X77860Y-57842D02*
X77860Y-57242D01*
X77817Y-57328D01*
X77775Y-57385D01*
X77732Y-57414D01*
X78203Y-57842D02*
X78289Y-57842D01*
X78332Y-57814D01*
X78353Y-57785D01*
X78396Y-57700D01*
X78417Y-57585D01*
X78417Y-57357D01*
X78396Y-57300D01*
X78375Y-57271D01*
X78332Y-57242D01*
X78246Y-57242D01*
X78203Y-57271D01*
X78182Y-57300D01*
X78160Y-57357D01*
X78160Y-57500D01*
X78182Y-57557D01*
X78203Y-57585D01*
X78246Y-57614D01*
X78332Y-57614D01*
X78375Y-57585D01*
X78396Y-57557D01*
X78417Y-57500D01*
X78803Y-57442D02*
X78803Y-57842D01*
X78696Y-57214D02*
X78589Y-57642D01*
X78867Y-57642D01*
G54D12*
G54D20*
X93907Y-56642D02*
X93907Y-57128D01*
X93928Y-57185D01*
X93950Y-57214D01*
X93992Y-57242D01*
X94078Y-57242D01*
X94121Y-57214D01*
X94142Y-57185D01*
X94164Y-57128D01*
X94164Y-56642D01*
X94357Y-56700D02*
X94378Y-56671D01*
X94421Y-56642D01*
X94528Y-56642D01*
X94571Y-56671D01*
X94592Y-56700D01*
X94614Y-56757D01*
X94614Y-56814D01*
X94592Y-56900D01*
X94335Y-57242D01*
X94614Y-57242D01*
G54D12*
G54D20*
X95332Y-57142D02*
X95632Y-57142D01*
X95439Y-57742D01*
X95996Y-57342D02*
X95996Y-57742D01*
X95889Y-57114D02*
X95782Y-57542D01*
X96060Y-57542D01*
X96232Y-57742D02*
X96232Y-57142D01*
X96232Y-57428D02*
X96489Y-57428D01*
X96489Y-57742D02*
X96489Y-57142D01*
X96960Y-57685D02*
X96939Y-57714D01*
X96875Y-57742D01*
X96832Y-57742D01*
X96767Y-57714D01*
X96725Y-57657D01*
X96703Y-57600D01*
X96682Y-57485D01*
X96682Y-57400D01*
X96703Y-57285D01*
X96725Y-57228D01*
X96767Y-57171D01*
X96832Y-57142D01*
X96875Y-57142D01*
X96939Y-57171D01*
X96960Y-57200D01*
X97132Y-57200D02*
X97153Y-57171D01*
X97196Y-57142D01*
X97303Y-57142D01*
X97346Y-57171D01*
X97367Y-57200D01*
X97389Y-57257D01*
X97389Y-57314D01*
X97367Y-57400D01*
X97110Y-57742D01*
X97389Y-57742D01*
X97539Y-57142D02*
X97817Y-57142D01*
X97667Y-57371D01*
X97732Y-57371D01*
X97775Y-57400D01*
X97796Y-57428D01*
X97817Y-57485D01*
X97817Y-57628D01*
X97796Y-57685D01*
X97775Y-57714D01*
X97732Y-57742D01*
X97603Y-57742D01*
X97560Y-57714D01*
X97539Y-57685D01*
X98075Y-57400D02*
X98032Y-57371D01*
X98010Y-57342D01*
X97989Y-57285D01*
X97989Y-57257D01*
X98010Y-57200D01*
X98032Y-57171D01*
X98075Y-57142D01*
X98160Y-57142D01*
X98203Y-57171D01*
X98225Y-57200D01*
X98246Y-57257D01*
X98246Y-57285D01*
X98225Y-57342D01*
X98203Y-57371D01*
X98160Y-57400D01*
X98075Y-57400D01*
X98032Y-57428D01*
X98010Y-57457D01*
X97989Y-57514D01*
X97989Y-57628D01*
X98010Y-57685D01*
X98032Y-57714D01*
X98075Y-57742D01*
X98160Y-57742D01*
X98203Y-57714D01*
X98225Y-57685D01*
X98246Y-57628D01*
X98246Y-57514D01*
X98225Y-57457D01*
X98203Y-57428D01*
X98160Y-57400D01*
G54D12*
G54D18*
X74491Y-61350D02*
X74506Y-61364D01*
X74520Y-61407D01*
X74520Y-61435D01*
X74506Y-61478D01*
X74477Y-61507D01*
X74449Y-61521D01*
X74391Y-61535D01*
X74349Y-61535D01*
X74291Y-61521D01*
X74263Y-61507D01*
X74234Y-61478D01*
X74220Y-61435D01*
X74220Y-61407D01*
X74234Y-61364D01*
X74249Y-61350D01*
X74520Y-61064D02*
X74520Y-61235D01*
X74520Y-61150D02*
X74220Y-61150D01*
X74263Y-61178D01*
X74291Y-61207D01*
X74306Y-61235D01*
X73221Y-61722D02*
X73221Y-61567D01*
X73335Y-61651D01*
X73335Y-61615D01*
X73350Y-61591D01*
X73364Y-61579D01*
X73392Y-61567D01*
X73464Y-61567D01*
X73492Y-61579D01*
X73507Y-61591D01*
X73521Y-61615D01*
X73521Y-61686D01*
X73507Y-61710D01*
X73492Y-61722D01*
X73221Y-61484D02*
X73221Y-61329D01*
X73335Y-61413D01*
X73335Y-61377D01*
X73350Y-61353D01*
X73364Y-61341D01*
X73392Y-61329D01*
X73464Y-61329D01*
X73492Y-61341D01*
X73507Y-61353D01*
X73521Y-61377D01*
X73521Y-61448D01*
X73507Y-61472D01*
X73492Y-61484D01*
X73321Y-61115D02*
X73521Y-61115D01*
X73321Y-61222D02*
X73478Y-61222D01*
X73507Y-61210D01*
X73521Y-61186D01*
X73521Y-61151D01*
X73507Y-61127D01*
X73492Y-61115D01*
X73364Y-60913D02*
X73364Y-60996D01*
X73521Y-60996D02*
X73221Y-60996D01*
X73221Y-60877D01*
G54D21*
X73907Y-60514D02*
X73907Y-60285D01*
X74021Y-60400D02*
X73792Y-60400D01*
G54D15*
X76061Y-66795D02*
X75661Y-66795D01*
X75661Y-66699D01*
X75680Y-66642D01*
X75719Y-66604D01*
X75757Y-66585D01*
X75833Y-66566D01*
X75890Y-66566D01*
X75966Y-66585D01*
X76004Y-66604D01*
X76042Y-66642D01*
X76061Y-66699D01*
X76061Y-66795D01*
X76061Y-66376D02*
X76061Y-66299D01*
X76042Y-66261D01*
X76023Y-66242D01*
X75966Y-66204D01*
X75890Y-66185D01*
X75738Y-66185D01*
X75700Y-66204D01*
X75680Y-66223D01*
X75661Y-66261D01*
X75661Y-66338D01*
X75680Y-66376D01*
X75700Y-66395D01*
X75738Y-66414D01*
X75833Y-66414D01*
X75871Y-66395D01*
X75890Y-66376D01*
X75909Y-66338D01*
X75909Y-66261D01*
X75890Y-66223D01*
X75871Y-66204D01*
X75833Y-66185D01*
X79061Y-66985D02*
X78661Y-66985D01*
X78661Y-66890D01*
X78680Y-66833D01*
X78719Y-66795D01*
X78757Y-66776D01*
X78833Y-66757D01*
X78890Y-66757D01*
X78966Y-66776D01*
X79004Y-66795D01*
X79042Y-66833D01*
X79061Y-66890D01*
X79061Y-66985D01*
X79061Y-66376D02*
X79061Y-66604D01*
X79061Y-66490D02*
X78661Y-66490D01*
X78719Y-66528D01*
X78757Y-66566D01*
X78776Y-66604D01*
X78661Y-66128D02*
X78661Y-66090D01*
X78680Y-66052D01*
X78700Y-66033D01*
X78738Y-66014D01*
X78814Y-65995D01*
X78909Y-65995D01*
X78985Y-66014D01*
X79023Y-66033D01*
X79042Y-66052D01*
X79061Y-66090D01*
X79061Y-66128D01*
X79042Y-66166D01*
X79023Y-66185D01*
X78985Y-66204D01*
X78909Y-66223D01*
X78814Y-66223D01*
X78738Y-66204D01*
X78700Y-66185D01*
X78680Y-66166D01*
X78661Y-66128D01*
X82061Y-66985D02*
X81661Y-66985D01*
X81661Y-66890D01*
X81680Y-66833D01*
X81719Y-66795D01*
X81757Y-66776D01*
X81833Y-66757D01*
X81890Y-66757D01*
X81966Y-66776D01*
X82004Y-66795D01*
X82042Y-66833D01*
X82061Y-66890D01*
X82061Y-66985D01*
X82061Y-66376D02*
X82061Y-66604D01*
X82061Y-66490D02*
X81661Y-66490D01*
X81719Y-66528D01*
X81757Y-66566D01*
X81776Y-66604D01*
X82061Y-65995D02*
X82061Y-66223D01*
X82061Y-66109D02*
X81661Y-66109D01*
X81719Y-66147D01*
X81757Y-66185D01*
X81776Y-66223D01*
X85061Y-66985D02*
X84661Y-66985D01*
X84661Y-66890D01*
X84680Y-66833D01*
X84719Y-66795D01*
X84757Y-66776D01*
X84833Y-66757D01*
X84890Y-66757D01*
X84966Y-66776D01*
X85004Y-66795D01*
X85042Y-66833D01*
X85061Y-66890D01*
X85061Y-66985D01*
X85061Y-66376D02*
X85061Y-66604D01*
X85061Y-66490D02*
X84661Y-66490D01*
X84719Y-66528D01*
X84757Y-66566D01*
X84776Y-66604D01*
X84700Y-66223D02*
X84680Y-66204D01*
X84661Y-66166D01*
X84661Y-66071D01*
X84680Y-66033D01*
X84700Y-66014D01*
X84738Y-65995D01*
X84776Y-65995D01*
X84833Y-66014D01*
X85061Y-66242D01*
X85061Y-65995D01*
X91061Y-66985D02*
X90661Y-66985D01*
X90661Y-66890D01*
X90680Y-66833D01*
X90719Y-66795D01*
X90757Y-66776D01*
X90833Y-66757D01*
X90890Y-66757D01*
X90966Y-66776D01*
X91004Y-66795D01*
X91042Y-66833D01*
X91061Y-66890D01*
X91061Y-66985D01*
X91061Y-66376D02*
X91061Y-66604D01*
X91061Y-66490D02*
X90661Y-66490D01*
X90719Y-66528D01*
X90757Y-66566D01*
X90776Y-66604D01*
X90661Y-66242D02*
X90661Y-65995D01*
X90814Y-66128D01*
X90814Y-66071D01*
X90833Y-66033D01*
X90852Y-66014D01*
X90890Y-65995D01*
X90985Y-65995D01*
X91023Y-66014D01*
X91042Y-66033D01*
X91061Y-66071D01*
X91061Y-66185D01*
X91042Y-66223D01*
X91023Y-66242D01*
X94061Y-66985D02*
X93661Y-66985D01*
X93661Y-66890D01*
X93680Y-66833D01*
X93719Y-66795D01*
X93757Y-66776D01*
X93833Y-66757D01*
X93890Y-66757D01*
X93966Y-66776D01*
X94004Y-66795D01*
X94042Y-66833D01*
X94061Y-66890D01*
X94061Y-66985D01*
X94061Y-66376D02*
X94061Y-66604D01*
X94061Y-66490D02*
X93661Y-66490D01*
X93719Y-66528D01*
X93757Y-66566D01*
X93776Y-66604D01*
X93795Y-66033D02*
X94061Y-66033D01*
X93642Y-66128D02*
X93928Y-66223D01*
X93928Y-65976D01*
X97061Y-66885D02*
X96661Y-66885D01*
X96661Y-66790D01*
X96680Y-66733D01*
X96719Y-66695D01*
X96757Y-66676D01*
X96833Y-66657D01*
X96890Y-66657D01*
X96966Y-66676D01*
X97004Y-66695D01*
X97042Y-66733D01*
X97061Y-66790D01*
X97061Y-66885D01*
X97061Y-66276D02*
X97061Y-66504D01*
X97061Y-66390D02*
X96661Y-66390D01*
X96719Y-66428D01*
X96757Y-66466D01*
X96776Y-66504D01*
X96661Y-65914D02*
X96661Y-66104D01*
X96852Y-66123D01*
X96833Y-66104D01*
X96814Y-66066D01*
X96814Y-65971D01*
X96833Y-65933D01*
X96852Y-65914D01*
X96890Y-65895D01*
X96985Y-65895D01*
X97023Y-65914D01*
X97042Y-65933D01*
X97061Y-65971D01*
X97061Y-66066D01*
X97042Y-66104D01*
X97023Y-66123D01*
X88061Y-66985D02*
X87661Y-66985D01*
X87661Y-66890D01*
X87680Y-66833D01*
X87719Y-66795D01*
X87757Y-66776D01*
X87833Y-66757D01*
X87890Y-66757D01*
X87966Y-66776D01*
X88004Y-66795D01*
X88042Y-66833D01*
X88061Y-66890D01*
X88061Y-66985D01*
X88061Y-66376D02*
X88061Y-66604D01*
X88061Y-66490D02*
X87661Y-66490D01*
X87719Y-66528D01*
X87757Y-66566D01*
X87776Y-66604D01*
X87661Y-66033D02*
X87661Y-66109D01*
X87680Y-66147D01*
X87700Y-66166D01*
X87757Y-66204D01*
X87833Y-66223D01*
X87985Y-66223D01*
X88023Y-66204D01*
X88042Y-66185D01*
X88061Y-66147D01*
X88061Y-66071D01*
X88042Y-66033D01*
X88023Y-66014D01*
X87985Y-65995D01*
X87890Y-65995D01*
X87852Y-66014D01*
X87833Y-66033D01*
X87814Y-66071D01*
X87814Y-66147D01*
X87833Y-66185D01*
X87852Y-66204D01*
X87890Y-66223D01*
M02*
