M48
;DRILL file {Pcbnew (2013-jul-07)-stable} date Mon 03 Mar 2014 01:32:04 AM PST
;FORMAT={2:4/ absolute / inch / suppress leading zeros}
FMAT,2
INCH,TZ
T1C0.025
T2C0.032
T3C0.040
T4C0.060
T5C0.120
%
G90
G05
M72
T1
X69300Y-77600
X75200Y-55100
T2
X69000Y-69000
X69000Y-73000
X69500Y-74500
X69500Y-75500
X70500Y-74500
X70600Y-67700
X71250Y-70000
X71250Y-71000
X72000Y-72500
X72000Y-76500
X72200Y-61200
X72200Y-65200
X73500Y-69000
X73500Y-73000
X73900Y-60800
X73900Y-61800
X74000Y-56000
X74000Y-59000
X74000Y-74500
X74000Y-75500
X74600Y-67700
X74900Y-63100
X74900Y-64100
X75000Y-56000
X75000Y-59000
X75000Y-74500
X75750Y-70000
X75750Y-71000
X75900Y-63100
X75900Y-65000
X75900Y-68000
X76000Y-56000
X76000Y-59000
X76500Y-72500
X76500Y-76500
X77000Y-56000
X77000Y-59000
X77900Y-63100
X77900Y-64100
X78000Y-56000
X78000Y-59000
X78000Y-69000
X78000Y-73000
X78500Y-74500
X78500Y-75500
X78900Y-63100
X78900Y-65000
X78900Y-68000
X79000Y-56000
X79000Y-59000
X79500Y-74500
X80000Y-56000
X80000Y-59000
X80250Y-70000
X80250Y-71000
X80900Y-63100
X80900Y-64100
X81000Y-56000
X81000Y-59000
X81000Y-72500
X81000Y-76500
X81900Y-63100
X81900Y-65000
X81900Y-68000
X82500Y-69000
X82500Y-73000
X83000Y-74500
X83000Y-75500
X83900Y-63100
X83900Y-64100
X84000Y-74500
X84750Y-70000
X84750Y-71000
X84900Y-63100
X84900Y-65000
X84900Y-68000
X85500Y-72500
X85500Y-76500
X86900Y-63100
X86900Y-64100
X87000Y-69000
X87000Y-73000
X87500Y-74500
X87500Y-75500
X87900Y-63100
X87900Y-65000
X87900Y-68000
X88500Y-74500
X89250Y-70000
X89250Y-71000
X89900Y-63100
X89900Y-64100
X90000Y-72500
X90000Y-76500
X90900Y-63100
X90900Y-65000
X90900Y-68000
X91500Y-69000
X91500Y-73000
X92000Y-74500
X92000Y-75500
X92900Y-63100
X92900Y-64100
X93000Y-74500
X93250Y-56000
X93250Y-59000
X93750Y-70000
X93750Y-71000
X93900Y-63100
X93900Y-65000
X93900Y-68000
X94250Y-56000
X94250Y-59000
X94500Y-72500
X94500Y-76500
X95250Y-56000
X95250Y-59000
X95900Y-63100
X95900Y-64100
X96000Y-69000
X96000Y-73000
X96250Y-56000
X96250Y-59000
X96500Y-74500
X96500Y-75500
X96900Y-63100
X96900Y-64900
X96900Y-67900
X97250Y-56000
X97250Y-59000
X97500Y-74500
X98250Y-56000
X98250Y-59000
X98250Y-70000
X98250Y-71000
X99000Y-72500
X99000Y-76500
X99250Y-56000
X99250Y-59000
X100250Y-56000
X100250Y-59000
X100500Y-69000
X100500Y-73000
X101000Y-74500
X101000Y-75500
X102000Y-74500
X102750Y-70000
X102750Y-71000
X103400Y-72500
X103400Y-76500
T3
X70200Y-57000
X70200Y-58000
X70200Y-59000
X70200Y-60000
X70200Y-62100
X70200Y-63100
X70200Y-65000
X70200Y-66000
T4
X71000Y-79900
X73000Y-79900
X75000Y-79900
X77000Y-79900
X79000Y-79900
X81000Y-79900
X83000Y-79900
X85000Y-79900
X88000Y-79900
X90000Y-79900
X92000Y-79900
X94000Y-79900
X96000Y-79900
X98000Y-79900
X100000Y-79900
X102000Y-79900
T5
X68750Y-55250
X68750Y-81250
X104250Y-55250
X104250Y-81250
T0
M30
