G04 (created by PCBNEW (2013-jul-07)-stable) date Mon 03 Mar 2014 01:31:54 AM PST*
%MOIN*%
G04 Gerber Fmt 3.4, Leading zero omitted, Abs format*
%FSLAX34Y34*%
G01*
G70*
G90*
G04 APERTURE LIST*
%ADD10C,0.00590551*%
%ADD11R,0.055X0.055*%
%ADD12C,0.055*%
%ADD13C,0.06*%
%ADD14R,0.06X0.06*%
%ADD15C,0.066*%
%ADD16R,0.062X0.09*%
%ADD17O,0.062X0.09*%
%ADD18C,0.15*%
%ADD19R,0.15X0.15*%
%ADD20C,0.16*%
%ADD21C,0.035*%
%ADD22C,0.015*%
G04 APERTURE END LIST*
G54D10*
G54D11*
X87900Y-63100D03*
G54D12*
X86900Y-63100D03*
X86900Y-64100D03*
G54D11*
X96900Y-63100D03*
G54D12*
X95900Y-63100D03*
X95900Y-64100D03*
G54D11*
X93900Y-63100D03*
G54D12*
X92900Y-63100D03*
X92900Y-64100D03*
G54D11*
X90900Y-63100D03*
G54D12*
X89900Y-63100D03*
X89900Y-64100D03*
G54D11*
X84900Y-63100D03*
G54D12*
X83900Y-63100D03*
X83900Y-64100D03*
G54D11*
X81900Y-63100D03*
G54D12*
X80900Y-63100D03*
X80900Y-64100D03*
G54D11*
X75900Y-63100D03*
G54D12*
X74900Y-63100D03*
X74900Y-64100D03*
G54D11*
X78900Y-63100D03*
G54D12*
X77900Y-63100D03*
X77900Y-64100D03*
G54D11*
X79500Y-74500D03*
G54D12*
X78500Y-74500D03*
X78500Y-75500D03*
G54D11*
X88500Y-74500D03*
G54D12*
X87500Y-74500D03*
X87500Y-75500D03*
G54D11*
X102000Y-74500D03*
G54D12*
X101000Y-74500D03*
X101000Y-75500D03*
G54D11*
X97500Y-74500D03*
G54D12*
X96500Y-74500D03*
X96500Y-75500D03*
G54D11*
X93000Y-74500D03*
G54D12*
X92000Y-74500D03*
X92000Y-75500D03*
G54D11*
X84000Y-74500D03*
G54D12*
X83000Y-74500D03*
X83000Y-75500D03*
G54D11*
X75000Y-74500D03*
G54D12*
X74000Y-74500D03*
X74000Y-75500D03*
G54D11*
X70500Y-74500D03*
G54D12*
X69500Y-74500D03*
X69500Y-75500D03*
G54D13*
X94500Y-76500D03*
X94500Y-72500D03*
X74600Y-67700D03*
X70600Y-67700D03*
X87000Y-69000D03*
X87000Y-73000D03*
X90000Y-76500D03*
X90000Y-72500D03*
X100500Y-69000D03*
X100500Y-73000D03*
X103400Y-76500D03*
X103400Y-72500D03*
X96000Y-69000D03*
X96000Y-73000D03*
X99000Y-76500D03*
X99000Y-72500D03*
X91500Y-69000D03*
X91500Y-73000D03*
X69000Y-69000D03*
X69000Y-73000D03*
X82500Y-69000D03*
X82500Y-73000D03*
X85500Y-76500D03*
X85500Y-72500D03*
X72200Y-65200D03*
X72200Y-61200D03*
X72000Y-76500D03*
X72000Y-72500D03*
X76500Y-76500D03*
X76500Y-72500D03*
X73500Y-69000D03*
X73500Y-73000D03*
X81000Y-76500D03*
X81000Y-72500D03*
X78000Y-69000D03*
X78000Y-73000D03*
G54D14*
X70200Y-60000D03*
G54D13*
X70200Y-59000D03*
X70200Y-58000D03*
X70200Y-57000D03*
G54D14*
X70200Y-65000D03*
G54D13*
X70200Y-66000D03*
G54D14*
X70200Y-62100D03*
G54D13*
X70200Y-63100D03*
G54D15*
X93750Y-71000D03*
X93750Y-70000D03*
X75750Y-71000D03*
X75750Y-70000D03*
X89250Y-71000D03*
X89250Y-70000D03*
X71250Y-71000D03*
X71250Y-70000D03*
X102750Y-71000D03*
X102750Y-70000D03*
X84750Y-71000D03*
X84750Y-70000D03*
X80250Y-71000D03*
X80250Y-70000D03*
X98250Y-71000D03*
X98250Y-70000D03*
G54D16*
X74000Y-59000D03*
G54D17*
X75000Y-59000D03*
X76000Y-59000D03*
X77000Y-59000D03*
X78000Y-59000D03*
X79000Y-59000D03*
X80000Y-59000D03*
X81000Y-59000D03*
X81000Y-56000D03*
X80000Y-56000D03*
X79000Y-56000D03*
X78000Y-56000D03*
X77000Y-56000D03*
X76000Y-56000D03*
X75000Y-56000D03*
X74000Y-56000D03*
G54D16*
X93250Y-59000D03*
G54D17*
X94250Y-59000D03*
X95250Y-59000D03*
X96250Y-59000D03*
X97250Y-59000D03*
X98250Y-59000D03*
X99250Y-59000D03*
X100250Y-59000D03*
X100250Y-56000D03*
X99250Y-56000D03*
X98250Y-56000D03*
X97250Y-56000D03*
X96250Y-56000D03*
X95250Y-56000D03*
X94250Y-56000D03*
X93250Y-56000D03*
G54D11*
X73900Y-60800D03*
G54D12*
X73900Y-61800D03*
G54D18*
X73000Y-79900D03*
X75000Y-79900D03*
G54D19*
X71000Y-79900D03*
G54D18*
X77000Y-79900D03*
X81000Y-79900D03*
X83000Y-79900D03*
G54D19*
X79000Y-79900D03*
G54D18*
X85000Y-79900D03*
X90000Y-79900D03*
X92000Y-79900D03*
G54D19*
X88000Y-79900D03*
G54D18*
X94000Y-79900D03*
X98000Y-79900D03*
X100000Y-79900D03*
G54D19*
X96000Y-79900D03*
G54D18*
X102000Y-79900D03*
G54D11*
X75900Y-65000D03*
G54D12*
X75900Y-68000D03*
G54D11*
X78900Y-65000D03*
G54D12*
X78900Y-68000D03*
G54D11*
X81900Y-65000D03*
G54D12*
X81900Y-68000D03*
G54D11*
X84900Y-65000D03*
G54D12*
X84900Y-68000D03*
G54D11*
X90900Y-65000D03*
G54D12*
X90900Y-68000D03*
G54D11*
X93900Y-65000D03*
G54D12*
X93900Y-68000D03*
G54D11*
X96900Y-64900D03*
G54D12*
X96900Y-67900D03*
G54D11*
X87900Y-65000D03*
G54D12*
X87900Y-68000D03*
G54D20*
X68750Y-55250D03*
X104250Y-55250D03*
X104250Y-81250D03*
X68750Y-81250D03*
G54D21*
X75200Y-55100D03*
X69300Y-77600D03*
G54D22*
X72000Y-76500D02*
X69300Y-76500D01*
X67900Y-65400D02*
X70200Y-63100D01*
X67900Y-75100D02*
X67900Y-65400D01*
X69300Y-76500D02*
X67900Y-75100D01*
X72200Y-65200D02*
X72200Y-65100D01*
X72200Y-65100D02*
X70200Y-63100D01*
X81000Y-56000D02*
X81000Y-55600D01*
X74000Y-55600D02*
X74000Y-56000D01*
X75000Y-54600D02*
X74000Y-55600D01*
X80000Y-54600D02*
X75000Y-54600D01*
X81000Y-55600D02*
X80000Y-54600D01*
X81000Y-56000D02*
X93250Y-56000D01*
X99000Y-76500D02*
X103400Y-76500D01*
X94500Y-76500D02*
X98750Y-76500D01*
X90000Y-76500D02*
X94500Y-76500D01*
X85500Y-76500D02*
X90000Y-76500D01*
X81000Y-76500D02*
X85500Y-76500D01*
X76500Y-76500D02*
X81000Y-76500D01*
X72000Y-76500D02*
X76500Y-76500D01*
X70200Y-59000D02*
X72600Y-59000D01*
X75800Y-58200D02*
X78000Y-56000D01*
X73400Y-58200D02*
X75800Y-58200D01*
X72600Y-59000D02*
X73400Y-58200D01*
X70200Y-60000D02*
X74500Y-60000D01*
X75000Y-59500D02*
X75000Y-59000D01*
X74500Y-60000D02*
X75000Y-59500D01*
X79000Y-55700D02*
X79000Y-56000D01*
X78400Y-55100D02*
X79000Y-55700D01*
X78100Y-55100D02*
X78400Y-55100D01*
X75200Y-55100D02*
X78100Y-55100D01*
X94250Y-56000D02*
X94250Y-56250D01*
X77500Y-60500D02*
X74900Y-63100D01*
X84250Y-60500D02*
X77500Y-60500D01*
X88000Y-56750D02*
X84250Y-60500D01*
X93750Y-56750D02*
X88000Y-56750D01*
X94250Y-56250D02*
X93750Y-56750D01*
X69500Y-75500D02*
X68200Y-74200D01*
X69300Y-67700D02*
X70600Y-67700D01*
X68200Y-68800D02*
X69300Y-67700D01*
X68200Y-74200D02*
X68200Y-68800D01*
X96500Y-75500D02*
X101000Y-75500D01*
X92000Y-75500D02*
X96500Y-75500D01*
X87500Y-75500D02*
X92000Y-75500D01*
X83000Y-75500D02*
X87500Y-75500D01*
X78500Y-75500D02*
X83000Y-75500D01*
X74000Y-75500D02*
X78500Y-75500D01*
X69500Y-75500D02*
X74000Y-75500D01*
X95250Y-56000D02*
X95250Y-56250D01*
X80000Y-61000D02*
X77900Y-63100D01*
X84500Y-61000D02*
X80000Y-61000D01*
X88250Y-57250D02*
X84500Y-61000D01*
X94250Y-57250D02*
X88250Y-57250D01*
X95250Y-56250D02*
X94250Y-57250D01*
X96250Y-56000D02*
X94500Y-57750D01*
X82500Y-61500D02*
X80900Y-63100D01*
X84750Y-61500D02*
X82500Y-61500D01*
X88500Y-57750D02*
X84750Y-61500D01*
X94500Y-57750D02*
X88500Y-57750D01*
X97250Y-56000D02*
X97250Y-56250D01*
X88750Y-58250D02*
X83900Y-63100D01*
X95250Y-58250D02*
X88750Y-58250D01*
X97250Y-56250D02*
X95250Y-58250D01*
X98250Y-56000D02*
X98250Y-57650D01*
X86900Y-62250D02*
X86900Y-63100D01*
X89300Y-59850D02*
X86900Y-62250D01*
X100700Y-59850D02*
X89300Y-59850D01*
X101000Y-59550D02*
X100700Y-59850D01*
X101000Y-58500D02*
X101000Y-59550D01*
X100550Y-58050D02*
X101000Y-58500D01*
X98650Y-58050D02*
X100550Y-58050D01*
X98250Y-57650D02*
X98650Y-58050D01*
X99250Y-56000D02*
X99250Y-57150D01*
X89900Y-62000D02*
X89900Y-63100D01*
X91700Y-60200D02*
X89900Y-62000D01*
X100800Y-60200D02*
X91700Y-60200D01*
X101400Y-59600D02*
X100800Y-60200D01*
X101400Y-58400D02*
X101400Y-59600D01*
X100600Y-57600D02*
X101400Y-58400D01*
X99700Y-57600D02*
X100600Y-57600D01*
X99250Y-57150D02*
X99700Y-57600D01*
X100250Y-56000D02*
X100250Y-57000D01*
X92900Y-62350D02*
X92900Y-63100D01*
X94750Y-60500D02*
X92900Y-62350D01*
X101000Y-60500D02*
X94750Y-60500D01*
X101750Y-59750D02*
X101000Y-60500D01*
X101750Y-58250D02*
X101750Y-59750D01*
X100750Y-57250D02*
X101750Y-58250D01*
X100500Y-57250D02*
X100750Y-57250D01*
X100250Y-57000D02*
X100500Y-57250D01*
X74900Y-64100D02*
X74400Y-64100D01*
X73900Y-63600D02*
X73900Y-61800D01*
X74400Y-64100D02*
X73900Y-63600D01*
X70200Y-62100D02*
X73600Y-62100D01*
X73600Y-62100D02*
X73900Y-61800D01*
X81000Y-59000D02*
X81000Y-58100D01*
X80000Y-57100D02*
X80000Y-56000D01*
X81000Y-58100D02*
X80000Y-57100D01*
X70200Y-65000D02*
X70600Y-65000D01*
X73000Y-66100D02*
X74600Y-67700D01*
X71700Y-66100D02*
X73000Y-66100D01*
X70600Y-65000D02*
X71700Y-66100D01*
X88000Y-79900D02*
X88000Y-79700D01*
X85900Y-77600D02*
X69300Y-77600D01*
X88000Y-79700D02*
X85900Y-77600D01*
X100000Y-79900D02*
X102000Y-79900D01*
X98000Y-79900D02*
X100000Y-79900D01*
X96000Y-79900D02*
X98000Y-79900D01*
X94000Y-79900D02*
X96000Y-79900D01*
X92000Y-79900D02*
X94000Y-79900D01*
X90000Y-79900D02*
X92000Y-79900D01*
X88000Y-79900D02*
X90000Y-79900D01*
X72200Y-61200D02*
X72700Y-61200D01*
X73100Y-60800D02*
X73900Y-60800D01*
X72700Y-61200D02*
X73100Y-60800D01*
X97250Y-59000D02*
X96250Y-59000D01*
X90900Y-65000D02*
X90900Y-63100D01*
X93750Y-71000D02*
X93750Y-71750D01*
X93750Y-71750D02*
X94500Y-72500D01*
X90900Y-68000D02*
X90900Y-68400D01*
X90900Y-68400D02*
X91500Y-69000D01*
X91500Y-73000D02*
X91500Y-74000D01*
X91500Y-74000D02*
X92000Y-74500D01*
X73500Y-73000D02*
X73500Y-74000D01*
X73500Y-74000D02*
X74000Y-74500D01*
X73500Y-69000D02*
X76400Y-69000D01*
X77400Y-68000D02*
X78900Y-68000D01*
X76400Y-69000D02*
X77400Y-68000D01*
X75750Y-71000D02*
X75750Y-71750D01*
X75750Y-71750D02*
X76500Y-72500D01*
X78900Y-65000D02*
X78900Y-63100D01*
X81900Y-65000D02*
X81900Y-63100D01*
X78000Y-73000D02*
X78000Y-74000D01*
X78000Y-74000D02*
X78500Y-74500D01*
X81900Y-68000D02*
X80500Y-68000D01*
X79500Y-69000D02*
X78000Y-69000D01*
X80500Y-68000D02*
X79500Y-69000D01*
X80250Y-71000D02*
X80250Y-71750D01*
X80250Y-71750D02*
X81000Y-72500D01*
X84900Y-68000D02*
X83500Y-68000D01*
X83500Y-68000D02*
X82500Y-69000D01*
X82500Y-73000D02*
X82500Y-74000D01*
X82500Y-74000D02*
X83000Y-74500D01*
X84900Y-65000D02*
X84900Y-63100D01*
X84750Y-71000D02*
X84750Y-71750D01*
X84750Y-71750D02*
X85500Y-72500D01*
X71250Y-71000D02*
X71250Y-71750D01*
X71250Y-71750D02*
X72000Y-72500D01*
X75900Y-65000D02*
X75900Y-63100D01*
X75900Y-68000D02*
X75800Y-68000D01*
X69600Y-68400D02*
X69000Y-69000D01*
X75400Y-68400D02*
X69600Y-68400D01*
X75800Y-68000D02*
X75400Y-68400D01*
X69000Y-73000D02*
X69000Y-74000D01*
X69000Y-74000D02*
X69500Y-74500D01*
X89250Y-71000D02*
X89250Y-71750D01*
X89250Y-71750D02*
X90000Y-72500D01*
X87900Y-65000D02*
X87900Y-63100D01*
X87900Y-68000D02*
X87900Y-68100D01*
X87900Y-68100D02*
X87000Y-69000D01*
X87000Y-73000D02*
X87000Y-74000D01*
X87000Y-74000D02*
X87500Y-74500D01*
X100500Y-73000D02*
X100500Y-74000D01*
X100500Y-74000D02*
X101000Y-74500D01*
X96900Y-67900D02*
X99400Y-67900D01*
X99400Y-67900D02*
X100500Y-69000D01*
X96900Y-64900D02*
X96900Y-63100D01*
X102750Y-71000D02*
X102750Y-71850D01*
X102750Y-71850D02*
X103400Y-72500D01*
X98250Y-71000D02*
X98250Y-71750D01*
X98250Y-71750D02*
X99000Y-72500D01*
X93900Y-65000D02*
X93900Y-63100D01*
X93900Y-68000D02*
X95000Y-68000D01*
X95000Y-68000D02*
X96000Y-69000D01*
X96000Y-73000D02*
X96000Y-74000D01*
X96000Y-74000D02*
X96500Y-74500D01*
M02*
