G04 (created by PCBNEW (2013-jul-07)-stable) date Mon 03 Mar 2014 07:36:54 PM PST*
%MOIN*%
G04 Gerber Fmt 3.4, Leading zero omitted, Abs format*
%FSLAX34Y34*%
G01*
G70*
G90*
G04 APERTURE LIST*
%ADD10C,0.00590551*%
%ADD11R,0.055X0.055*%
%ADD12C,0.055*%
%ADD13C,0.06*%
%ADD14R,0.06X0.06*%
%ADD15C,0.066*%
%ADD16R,0.062X0.09*%
%ADD17O,0.062X0.09*%
%ADD18C,0.15*%
%ADD19R,0.15X0.15*%
%ADD20C,0.16*%
%ADD21C,0.035*%
%ADD22C,0.015*%
G04 APERTURE END LIST*
G54D10*
G54D11*
X93800Y-63500D03*
G54D12*
X92800Y-63500D03*
X92800Y-64500D03*
G54D11*
X102800Y-63500D03*
G54D12*
X101800Y-63500D03*
X101800Y-64500D03*
G54D11*
X99800Y-63500D03*
G54D12*
X98800Y-63500D03*
X98800Y-64500D03*
G54D11*
X96800Y-63500D03*
G54D12*
X95800Y-63500D03*
X95800Y-64500D03*
G54D11*
X90800Y-63500D03*
G54D12*
X89800Y-63500D03*
X89800Y-64500D03*
G54D11*
X87800Y-63500D03*
G54D12*
X86800Y-63500D03*
X86800Y-64500D03*
G54D11*
X81700Y-63500D03*
G54D12*
X80700Y-63500D03*
X80700Y-64500D03*
G54D11*
X84800Y-63500D03*
G54D12*
X83800Y-63500D03*
X83800Y-64500D03*
G54D11*
X79500Y-74500D03*
G54D12*
X78500Y-74500D03*
X78500Y-75500D03*
G54D11*
X88500Y-74500D03*
G54D12*
X87500Y-74500D03*
X87500Y-75500D03*
G54D11*
X102000Y-74500D03*
G54D12*
X101000Y-74500D03*
X101000Y-75500D03*
G54D11*
X97500Y-74500D03*
G54D12*
X96500Y-74500D03*
X96500Y-75500D03*
G54D11*
X93000Y-74500D03*
G54D12*
X92000Y-74500D03*
X92000Y-75500D03*
G54D11*
X84000Y-74500D03*
G54D12*
X83000Y-74500D03*
X83000Y-75500D03*
G54D11*
X75000Y-74500D03*
G54D12*
X74000Y-74500D03*
X74000Y-75500D03*
G54D11*
X70500Y-74500D03*
G54D12*
X69500Y-74500D03*
X69500Y-75500D03*
G54D13*
X94500Y-76500D03*
X94500Y-72500D03*
X72600Y-63500D03*
X72600Y-67500D03*
X87000Y-69000D03*
X87000Y-73000D03*
X90000Y-76500D03*
X90000Y-72500D03*
X100500Y-69000D03*
X100500Y-73000D03*
X103400Y-76500D03*
X103400Y-72500D03*
X96000Y-69000D03*
X96000Y-73000D03*
X99000Y-76500D03*
X99000Y-72500D03*
X91500Y-69000D03*
X91500Y-73000D03*
X69000Y-69000D03*
X69000Y-73000D03*
X82500Y-69000D03*
X82500Y-73000D03*
X85500Y-76500D03*
X85500Y-72500D03*
X71500Y-66500D03*
X71500Y-62500D03*
X72000Y-76500D03*
X72000Y-72500D03*
X76500Y-76500D03*
X76500Y-72500D03*
X73500Y-69000D03*
X73500Y-73000D03*
X81000Y-76500D03*
X81000Y-72500D03*
X78000Y-69000D03*
X78000Y-73000D03*
G54D14*
X70100Y-61400D03*
G54D13*
X70100Y-60400D03*
X70100Y-59400D03*
X70100Y-58400D03*
G54D14*
X70100Y-66400D03*
G54D13*
X70100Y-67400D03*
G54D14*
X70100Y-63500D03*
G54D13*
X70100Y-64500D03*
G54D15*
X93750Y-71000D03*
X93750Y-70000D03*
X75750Y-71000D03*
X75750Y-70000D03*
X89250Y-71000D03*
X89250Y-70000D03*
X71250Y-71000D03*
X71250Y-70000D03*
X102750Y-71000D03*
X102750Y-70000D03*
X84750Y-71000D03*
X84750Y-70000D03*
X80250Y-71000D03*
X80250Y-70000D03*
X98250Y-71000D03*
X98250Y-70000D03*
G54D16*
X83300Y-60800D03*
G54D17*
X84300Y-60800D03*
X85300Y-60800D03*
X86300Y-60800D03*
X87300Y-60800D03*
X88300Y-60800D03*
X89300Y-60800D03*
X90300Y-60800D03*
X90300Y-57800D03*
X89300Y-57800D03*
X88300Y-57800D03*
X87300Y-57800D03*
X86300Y-57800D03*
X85300Y-57800D03*
X84300Y-57800D03*
X83300Y-57800D03*
G54D16*
X94600Y-60800D03*
G54D17*
X95600Y-60800D03*
X96600Y-60800D03*
X97600Y-60800D03*
X98600Y-60800D03*
X99600Y-60800D03*
X100600Y-60800D03*
X101600Y-60800D03*
X101600Y-57800D03*
X100600Y-57800D03*
X99600Y-57800D03*
X98600Y-57800D03*
X97600Y-57800D03*
X96600Y-57800D03*
X95600Y-57800D03*
X94600Y-57800D03*
G54D11*
X74300Y-66400D03*
G54D12*
X74300Y-67400D03*
G54D18*
X73000Y-79900D03*
X75000Y-79900D03*
G54D19*
X71000Y-79900D03*
G54D18*
X77000Y-79900D03*
X81000Y-79900D03*
X83000Y-79900D03*
G54D19*
X79000Y-79900D03*
G54D18*
X85000Y-79900D03*
X90000Y-79900D03*
X92000Y-79900D03*
G54D19*
X88000Y-79900D03*
G54D18*
X94000Y-79900D03*
X98000Y-79900D03*
X100000Y-79900D03*
G54D19*
X96000Y-79900D03*
G54D18*
X102000Y-79900D03*
G54D11*
X81700Y-65200D03*
G54D12*
X81700Y-68200D03*
G54D11*
X84800Y-65200D03*
G54D12*
X84800Y-68200D03*
G54D11*
X87800Y-65200D03*
G54D12*
X87800Y-68200D03*
G54D11*
X90800Y-65200D03*
G54D12*
X90800Y-68200D03*
G54D11*
X96800Y-65200D03*
G54D12*
X96800Y-68200D03*
G54D11*
X99800Y-65200D03*
G54D12*
X99800Y-68200D03*
G54D11*
X102800Y-65200D03*
G54D12*
X102800Y-68200D03*
G54D11*
X93800Y-65200D03*
G54D12*
X93800Y-68200D03*
G54D20*
X68600Y-56400D03*
X104400Y-56400D03*
X104400Y-81000D03*
X68600Y-81000D03*
G54D21*
X70200Y-69200D03*
X72600Y-69100D03*
X87800Y-58700D03*
X77200Y-69900D03*
G54D22*
X94600Y-57800D02*
X94600Y-57200D01*
X104100Y-75800D02*
X103400Y-76500D01*
X104100Y-58300D02*
X104100Y-75800D01*
X102700Y-56900D02*
X104100Y-58300D01*
X94900Y-56900D02*
X102700Y-56900D01*
X94600Y-57200D02*
X94900Y-56900D01*
X71500Y-67900D02*
X71500Y-66500D01*
X70200Y-69200D02*
X71500Y-67900D01*
X94600Y-57800D02*
X90300Y-57800D01*
X99000Y-76500D02*
X103400Y-76500D01*
X94500Y-76500D02*
X98750Y-76500D01*
X90000Y-76500D02*
X94500Y-76500D01*
X85500Y-76500D02*
X90000Y-76500D01*
X81000Y-76500D02*
X85500Y-76500D01*
X76500Y-76500D02*
X81000Y-76500D01*
X72000Y-76500D02*
X76500Y-76500D01*
X70100Y-60400D02*
X72000Y-60400D01*
X87300Y-57200D02*
X87300Y-57800D01*
X87000Y-56900D02*
X87300Y-57200D01*
X82900Y-56900D02*
X87000Y-56900D01*
X80700Y-59100D02*
X82900Y-56900D01*
X73300Y-59100D02*
X80700Y-59100D01*
X72000Y-60400D02*
X73300Y-59100D01*
X96600Y-60800D02*
X96600Y-60500D01*
X87300Y-58900D02*
X87300Y-57800D01*
X87600Y-59200D02*
X87300Y-58900D01*
X95300Y-59200D02*
X87600Y-59200D01*
X96600Y-60500D02*
X95300Y-59200D01*
X70100Y-61400D02*
X71800Y-61400D01*
X84300Y-60200D02*
X84300Y-60800D01*
X84000Y-59900D02*
X84300Y-60200D01*
X73300Y-59900D02*
X84000Y-59900D01*
X71800Y-61400D02*
X73300Y-59900D01*
X72600Y-67500D02*
X72600Y-69100D01*
X96500Y-75500D02*
X101000Y-75500D01*
X92000Y-75500D02*
X96500Y-75500D01*
X87500Y-75500D02*
X92000Y-75500D01*
X83000Y-75500D02*
X87500Y-75500D01*
X78500Y-75500D02*
X83000Y-75500D01*
X74000Y-75500D02*
X78500Y-75500D01*
X69500Y-75500D02*
X74000Y-75500D01*
X98600Y-57800D02*
X98600Y-59300D01*
X89800Y-62700D02*
X89800Y-63500D01*
X90900Y-61600D02*
X89800Y-62700D01*
X101900Y-61600D02*
X90900Y-61600D01*
X102300Y-61200D02*
X101900Y-61600D01*
X102300Y-60300D02*
X102300Y-61200D01*
X102000Y-60000D02*
X102300Y-60300D01*
X99300Y-60000D02*
X102000Y-60000D01*
X98600Y-59300D02*
X99300Y-60000D01*
X99600Y-57800D02*
X99600Y-59000D01*
X92800Y-62800D02*
X92800Y-63500D01*
X93600Y-62000D02*
X92800Y-62800D01*
X102000Y-62000D02*
X93600Y-62000D01*
X102700Y-61300D02*
X102000Y-62000D01*
X102700Y-60100D02*
X102700Y-61300D01*
X102200Y-59600D02*
X102700Y-60100D01*
X100200Y-59600D02*
X102200Y-59600D01*
X99600Y-59000D02*
X100200Y-59600D01*
X100600Y-57800D02*
X100600Y-58600D01*
X95800Y-62900D02*
X95800Y-63500D01*
X96400Y-62300D02*
X95800Y-62900D01*
X102200Y-62300D02*
X96400Y-62300D01*
X103100Y-61400D02*
X102200Y-62300D01*
X103100Y-60000D02*
X103100Y-61400D01*
X102300Y-59200D02*
X103100Y-60000D01*
X101200Y-59200D02*
X102300Y-59200D01*
X100600Y-58600D02*
X101200Y-59200D01*
X101600Y-57800D02*
X101600Y-58400D01*
X98800Y-63100D02*
X98800Y-63500D01*
X99200Y-62700D02*
X98800Y-63100D01*
X102400Y-62700D02*
X99200Y-62700D01*
X103500Y-61600D02*
X102400Y-62700D01*
X103500Y-59800D02*
X103500Y-61600D01*
X102500Y-58800D02*
X103500Y-59800D01*
X102000Y-58800D02*
X102500Y-58800D01*
X101600Y-58400D02*
X102000Y-58800D01*
X80700Y-64500D02*
X79900Y-64500D01*
X77000Y-67400D02*
X74300Y-67400D01*
X79900Y-64500D02*
X77000Y-67400D01*
X90300Y-60800D02*
X90300Y-61500D01*
X89000Y-63700D02*
X89800Y-64500D01*
X89000Y-62800D02*
X89000Y-63700D01*
X90300Y-61500D02*
X89000Y-62800D01*
X70100Y-66400D02*
X70100Y-66000D01*
X70100Y-66000D02*
X72600Y-63500D01*
X88000Y-79900D02*
X86100Y-78000D01*
X69100Y-67400D02*
X70100Y-67400D01*
X68200Y-68300D02*
X69100Y-67400D01*
X68200Y-75700D02*
X68200Y-68300D01*
X70500Y-78000D02*
X68200Y-75700D01*
X86100Y-78000D02*
X70500Y-78000D01*
X100000Y-79900D02*
X102000Y-79900D01*
X98000Y-79900D02*
X100000Y-79900D01*
X96000Y-79900D02*
X98000Y-79900D01*
X94000Y-79900D02*
X96000Y-79900D01*
X92000Y-79900D02*
X94000Y-79900D01*
X90000Y-79900D02*
X92000Y-79900D01*
X88000Y-79900D02*
X90000Y-79900D01*
X83300Y-60800D02*
X73200Y-60800D01*
X73200Y-60800D02*
X71500Y-62500D01*
X95600Y-60800D02*
X95600Y-60200D01*
X86300Y-59200D02*
X86300Y-57800D01*
X86700Y-59600D02*
X86300Y-59200D01*
X95000Y-59600D02*
X86700Y-59600D01*
X95600Y-60200D02*
X95000Y-59600D01*
X94600Y-60800D02*
X91600Y-60800D01*
X85300Y-59600D02*
X85300Y-57800D01*
X85700Y-60000D02*
X85300Y-59600D01*
X90800Y-60000D02*
X85700Y-60000D01*
X91600Y-60800D02*
X90800Y-60000D01*
X97600Y-60800D02*
X97500Y-60800D01*
X95400Y-58700D02*
X87800Y-58700D01*
X97500Y-60800D02*
X95400Y-58700D01*
X98600Y-60800D02*
X97600Y-60800D01*
X96800Y-65200D02*
X96800Y-63500D01*
X93750Y-71000D02*
X93750Y-71750D01*
X93750Y-71750D02*
X94500Y-72500D01*
X96800Y-68200D02*
X95300Y-68200D01*
X94500Y-69000D02*
X91500Y-69000D01*
X95300Y-68200D02*
X94500Y-69000D01*
X91500Y-73000D02*
X91500Y-74000D01*
X91500Y-74000D02*
X92000Y-74500D01*
X73500Y-73000D02*
X73500Y-74000D01*
X73500Y-74000D02*
X74000Y-74500D01*
X84800Y-68200D02*
X83000Y-68200D01*
X78400Y-69900D02*
X77200Y-69900D01*
X80700Y-67600D02*
X78400Y-69900D01*
X82400Y-67600D02*
X80700Y-67600D01*
X83000Y-68200D02*
X82400Y-67600D01*
X75750Y-71000D02*
X75750Y-71750D01*
X75750Y-71750D02*
X76500Y-72500D01*
X75750Y-70000D02*
X75750Y-69950D01*
X83900Y-66100D02*
X84800Y-65200D01*
X79600Y-66100D02*
X83900Y-66100D01*
X75750Y-69950D02*
X79600Y-66100D01*
X84800Y-65200D02*
X84800Y-63500D01*
X87800Y-65200D02*
X87800Y-66200D01*
X83300Y-70000D02*
X80250Y-70000D01*
X84000Y-69300D02*
X83300Y-70000D01*
X84700Y-69300D02*
X84000Y-69300D01*
X87800Y-66200D02*
X84700Y-69300D01*
X87800Y-65200D02*
X87800Y-63500D01*
X78000Y-73000D02*
X78000Y-74000D01*
X78000Y-74000D02*
X78500Y-74500D01*
X80250Y-71000D02*
X80250Y-71750D01*
X80250Y-71750D02*
X81000Y-72500D01*
X82500Y-73000D02*
X82500Y-74000D01*
X82500Y-74000D02*
X83000Y-74500D01*
X90800Y-65200D02*
X90800Y-65800D01*
X87250Y-67500D02*
X84750Y-70000D01*
X89100Y-67500D02*
X87250Y-67500D01*
X90800Y-65800D02*
X89100Y-67500D01*
X90800Y-65200D02*
X90800Y-63500D01*
X84750Y-71000D02*
X84750Y-71750D01*
X84750Y-71750D02*
X85500Y-72500D01*
X71250Y-71000D02*
X71250Y-71750D01*
X71250Y-71750D02*
X72000Y-72500D01*
X81700Y-65200D02*
X81200Y-65700D01*
X74100Y-70000D02*
X71250Y-70000D01*
X75000Y-69100D02*
X74100Y-70000D01*
X75900Y-69100D02*
X75000Y-69100D01*
X79300Y-65700D02*
X75900Y-69100D01*
X81200Y-65700D02*
X79300Y-65700D01*
X81700Y-65200D02*
X81700Y-63500D01*
X69000Y-73000D02*
X69000Y-74000D01*
X69000Y-74000D02*
X69500Y-74500D01*
X89250Y-71000D02*
X89250Y-71750D01*
X89250Y-71750D02*
X90000Y-72500D01*
X93800Y-65200D02*
X91600Y-67400D01*
X89250Y-68350D02*
X89250Y-70000D01*
X90200Y-67400D02*
X89250Y-68350D01*
X91600Y-67400D02*
X90200Y-67400D01*
X93800Y-65200D02*
X93800Y-63500D01*
X87000Y-73000D02*
X87000Y-74000D01*
X87000Y-74000D02*
X87500Y-74500D01*
X100500Y-73000D02*
X100500Y-74000D01*
X100500Y-74000D02*
X101000Y-74500D01*
X102800Y-68200D02*
X102000Y-69000D01*
X102000Y-69000D02*
X100500Y-69000D01*
X102750Y-70000D02*
X102750Y-69950D01*
X103600Y-66000D02*
X102800Y-65200D01*
X103600Y-69100D02*
X103600Y-66000D01*
X102750Y-69950D02*
X103600Y-69100D01*
X102800Y-63500D02*
X102800Y-65200D01*
X102750Y-71000D02*
X102750Y-71850D01*
X102750Y-71850D02*
X103400Y-72500D01*
X98250Y-71000D02*
X98250Y-71750D01*
X98250Y-71750D02*
X99000Y-72500D01*
X99800Y-63500D02*
X99800Y-65200D01*
X99800Y-68200D02*
X99800Y-68300D01*
X99100Y-69000D02*
X96000Y-69000D01*
X99800Y-68300D02*
X99100Y-69000D01*
X96000Y-73000D02*
X96000Y-74000D01*
X96000Y-74000D02*
X96500Y-74500D01*
M02*
