G04 (created by PCBNEW (2013-jul-07)-stable) date Sun 02 Mar 2014 11:00:21 AM PST*
%MOIN*%
G04 Gerber Fmt 3.4, Leading zero omitted, Abs format*
%FSLAX34Y34*%
G01*
G70*
G90*
G04 APERTURE LIST*
%ADD10C,0.00590551*%
%ADD11R,0.055X0.055*%
%ADD12C,0.055*%
%ADD13C,0.06*%
%ADD14R,0.06X0.06*%
%ADD15C,0.066*%
%ADD16R,0.062X0.09*%
%ADD17O,0.062X0.09*%
%ADD18C,0.15*%
%ADD19R,0.15X0.15*%
%ADD20C,0.16*%
%ADD21C,0.035*%
%ADD22C,0.015*%
G04 APERTURE END LIST*
G54D10*
G54D11*
X87900Y-63100D03*
G54D12*
X86900Y-63100D03*
X86900Y-64100D03*
G54D11*
X96900Y-63100D03*
G54D12*
X95900Y-63100D03*
X95900Y-64100D03*
G54D11*
X93900Y-63100D03*
G54D12*
X92900Y-63100D03*
X92900Y-64100D03*
G54D11*
X90900Y-63100D03*
G54D12*
X89900Y-63100D03*
X89900Y-64100D03*
G54D11*
X84900Y-63100D03*
G54D12*
X83900Y-63100D03*
X83900Y-64100D03*
G54D11*
X81900Y-63100D03*
G54D12*
X80900Y-63100D03*
X80900Y-64100D03*
G54D11*
X75900Y-63100D03*
G54D12*
X74900Y-63100D03*
X74900Y-64100D03*
G54D11*
X78900Y-63100D03*
G54D12*
X77900Y-63100D03*
X77900Y-64100D03*
G54D11*
X79500Y-74500D03*
G54D12*
X78500Y-74500D03*
X78500Y-75500D03*
G54D11*
X88500Y-74500D03*
G54D12*
X87500Y-74500D03*
X87500Y-75500D03*
G54D11*
X102000Y-74500D03*
G54D12*
X101000Y-74500D03*
X101000Y-75500D03*
G54D11*
X97500Y-74500D03*
G54D12*
X96500Y-74500D03*
X96500Y-75500D03*
G54D11*
X93000Y-74500D03*
G54D12*
X92000Y-74500D03*
X92000Y-75500D03*
G54D11*
X84000Y-74500D03*
G54D12*
X83000Y-74500D03*
X83000Y-75500D03*
G54D11*
X75000Y-74500D03*
G54D12*
X74000Y-74500D03*
X74000Y-75500D03*
G54D11*
X70500Y-74500D03*
G54D12*
X69500Y-74500D03*
X69500Y-75500D03*
G54D13*
X94500Y-76500D03*
X94500Y-72500D03*
X102200Y-64000D03*
X102200Y-68000D03*
X87000Y-69000D03*
X87000Y-73000D03*
X90000Y-76500D03*
X90000Y-72500D03*
X100500Y-69000D03*
X100500Y-73000D03*
X103400Y-76500D03*
X103400Y-72500D03*
X96000Y-69000D03*
X96000Y-73000D03*
X99000Y-76500D03*
X99000Y-72500D03*
X91500Y-69000D03*
X91500Y-73000D03*
X69000Y-69000D03*
X69000Y-73000D03*
X82500Y-69000D03*
X82500Y-73000D03*
X85500Y-76500D03*
X85500Y-72500D03*
X72000Y-67500D03*
X72000Y-63500D03*
X72000Y-76500D03*
X72000Y-72500D03*
X76500Y-76500D03*
X76500Y-72500D03*
X73500Y-69000D03*
X73500Y-73000D03*
X81000Y-76500D03*
X81000Y-72500D03*
X78000Y-69000D03*
X78000Y-73000D03*
G54D14*
X71600Y-59800D03*
G54D13*
X71600Y-58800D03*
X71600Y-57800D03*
X71600Y-56800D03*
G54D14*
X103750Y-65250D03*
G54D13*
X103750Y-66250D03*
G54D14*
X70250Y-64750D03*
G54D13*
X70250Y-65750D03*
G54D15*
X93750Y-71000D03*
X93750Y-70000D03*
X75750Y-71000D03*
X75750Y-70000D03*
X89250Y-71000D03*
X89250Y-70000D03*
X71250Y-71000D03*
X71250Y-70000D03*
X102750Y-71000D03*
X102750Y-70000D03*
X84750Y-71000D03*
X84750Y-70000D03*
X80250Y-71000D03*
X80250Y-70000D03*
X98250Y-71000D03*
X98250Y-70000D03*
G54D16*
X74000Y-59000D03*
G54D17*
X75000Y-59000D03*
X76000Y-59000D03*
X77000Y-59000D03*
X78000Y-59000D03*
X79000Y-59000D03*
X80000Y-59000D03*
X81000Y-59000D03*
X81000Y-56000D03*
X80000Y-56000D03*
X79000Y-56000D03*
X78000Y-56000D03*
X77000Y-56000D03*
X76000Y-56000D03*
X75000Y-56000D03*
X74000Y-56000D03*
G54D16*
X93250Y-59000D03*
G54D17*
X94250Y-59000D03*
X95250Y-59000D03*
X96250Y-59000D03*
X97250Y-59000D03*
X98250Y-59000D03*
X99250Y-59000D03*
X100250Y-59000D03*
X100250Y-56000D03*
X99250Y-56000D03*
X98250Y-56000D03*
X97250Y-56000D03*
X96250Y-56000D03*
X95250Y-56000D03*
X94250Y-56000D03*
X93250Y-56000D03*
G54D11*
X71250Y-62000D03*
G54D12*
X70250Y-62000D03*
G54D18*
X73000Y-79900D03*
X75000Y-79900D03*
G54D19*
X71000Y-79900D03*
G54D18*
X77000Y-79900D03*
X81000Y-79900D03*
X83000Y-79900D03*
G54D19*
X79000Y-79900D03*
G54D18*
X85000Y-79900D03*
X90000Y-79900D03*
X92000Y-79900D03*
G54D19*
X88000Y-79900D03*
G54D18*
X94000Y-79900D03*
X98000Y-79900D03*
X100000Y-79900D03*
G54D19*
X96000Y-79900D03*
G54D18*
X102000Y-79900D03*
G54D11*
X75900Y-65000D03*
G54D12*
X75900Y-68000D03*
G54D11*
X78900Y-65000D03*
G54D12*
X78900Y-68000D03*
G54D11*
X81900Y-65000D03*
G54D12*
X81900Y-68000D03*
G54D11*
X84900Y-65000D03*
G54D12*
X84900Y-68000D03*
G54D11*
X90900Y-65000D03*
G54D12*
X90900Y-68000D03*
G54D11*
X93900Y-65000D03*
G54D12*
X93900Y-68000D03*
G54D11*
X96900Y-64900D03*
G54D12*
X96900Y-67900D03*
G54D11*
X87900Y-65000D03*
G54D12*
X87900Y-68000D03*
G54D20*
X68750Y-55250D03*
X104250Y-55250D03*
X104250Y-81250D03*
X68750Y-81250D03*
G54D21*
X73600Y-57500D03*
X75200Y-55100D03*
G54D22*
X69400Y-66600D02*
X68800Y-66000D01*
X73200Y-55200D02*
X74000Y-56000D01*
X71200Y-55200D02*
X73200Y-55200D01*
X68800Y-57600D02*
X71200Y-55200D01*
X68800Y-66000D02*
X68800Y-57600D01*
X72000Y-76500D02*
X69100Y-76500D01*
X68200Y-67800D02*
X69400Y-66600D01*
X69400Y-66600D02*
X70250Y-65750D01*
X68200Y-75600D02*
X68200Y-67800D01*
X69100Y-76500D02*
X68200Y-75600D01*
X81000Y-56000D02*
X81000Y-55600D01*
X74000Y-55600D02*
X74000Y-56000D01*
X75000Y-54600D02*
X74000Y-55600D01*
X80000Y-54600D02*
X75000Y-54600D01*
X81000Y-55600D02*
X80000Y-54600D01*
X70250Y-65750D02*
X72000Y-67500D01*
X81000Y-56000D02*
X93250Y-56000D01*
X99000Y-76500D02*
X103400Y-76500D01*
X94500Y-76500D02*
X98750Y-76500D01*
X90000Y-76500D02*
X94500Y-76500D01*
X85500Y-76500D02*
X90000Y-76500D01*
X81000Y-76500D02*
X85500Y-76500D01*
X76500Y-76500D02*
X81000Y-76500D01*
X72000Y-76500D02*
X76500Y-76500D01*
X71600Y-56800D02*
X72900Y-56800D01*
X72900Y-56800D02*
X73600Y-57500D01*
X78000Y-56000D02*
X78000Y-57000D01*
X72800Y-58800D02*
X71600Y-58800D01*
X73500Y-58100D02*
X72800Y-58800D01*
X76900Y-58100D02*
X73500Y-58100D01*
X78000Y-57000D02*
X76900Y-58100D01*
X75000Y-59000D02*
X75000Y-59400D01*
X74600Y-59800D02*
X71600Y-59800D01*
X75000Y-59400D02*
X74600Y-59800D01*
X79000Y-56000D02*
X79000Y-55600D01*
X78500Y-55100D02*
X75200Y-55100D01*
X79000Y-55600D02*
X78500Y-55100D01*
X94250Y-56000D02*
X94250Y-56250D01*
X77500Y-60500D02*
X74900Y-63100D01*
X84250Y-60500D02*
X77500Y-60500D01*
X88000Y-56750D02*
X84250Y-60500D01*
X93750Y-56750D02*
X88000Y-56750D01*
X94250Y-56250D02*
X93750Y-56750D01*
X101000Y-75500D02*
X102700Y-75500D01*
X103300Y-68000D02*
X102200Y-68000D01*
X104300Y-69000D02*
X103300Y-68000D01*
X104300Y-73900D02*
X104300Y-69000D01*
X102700Y-75500D02*
X104300Y-73900D01*
X96500Y-75500D02*
X101000Y-75500D01*
X92000Y-75500D02*
X96500Y-75500D01*
X87500Y-75500D02*
X92000Y-75500D01*
X83000Y-75500D02*
X87500Y-75500D01*
X78500Y-75500D02*
X83000Y-75500D01*
X74000Y-75500D02*
X78500Y-75500D01*
X69500Y-75500D02*
X74000Y-75500D01*
X95250Y-56000D02*
X95250Y-56250D01*
X80000Y-61000D02*
X77900Y-63100D01*
X84500Y-61000D02*
X80000Y-61000D01*
X88250Y-57250D02*
X84500Y-61000D01*
X94250Y-57250D02*
X88250Y-57250D01*
X95250Y-56250D02*
X94250Y-57250D01*
X96250Y-56000D02*
X94500Y-57750D01*
X82500Y-61500D02*
X80900Y-63100D01*
X84750Y-61500D02*
X82500Y-61500D01*
X88500Y-57750D02*
X84750Y-61500D01*
X94500Y-57750D02*
X88500Y-57750D01*
X97250Y-56000D02*
X97250Y-56250D01*
X88750Y-58250D02*
X83900Y-63100D01*
X95250Y-58250D02*
X88750Y-58250D01*
X97250Y-56250D02*
X95250Y-58250D01*
X98250Y-56000D02*
X98250Y-57650D01*
X86900Y-62250D02*
X86900Y-63100D01*
X89300Y-59850D02*
X86900Y-62250D01*
X100700Y-59850D02*
X89300Y-59850D01*
X101000Y-59550D02*
X100700Y-59850D01*
X101000Y-58500D02*
X101000Y-59550D01*
X100550Y-58050D02*
X101000Y-58500D01*
X98650Y-58050D02*
X100550Y-58050D01*
X98250Y-57650D02*
X98650Y-58050D01*
X99250Y-56000D02*
X99250Y-57150D01*
X89900Y-62000D02*
X89900Y-63100D01*
X91700Y-60200D02*
X89900Y-62000D01*
X100800Y-60200D02*
X91700Y-60200D01*
X101400Y-59600D02*
X100800Y-60200D01*
X101400Y-58400D02*
X101400Y-59600D01*
X100600Y-57600D02*
X101400Y-58400D01*
X99700Y-57600D02*
X100600Y-57600D01*
X99250Y-57150D02*
X99700Y-57600D01*
X100250Y-56000D02*
X100250Y-57000D01*
X92900Y-62350D02*
X92900Y-63100D01*
X94750Y-60500D02*
X92900Y-62350D01*
X101000Y-60500D02*
X94750Y-60500D01*
X101750Y-59750D02*
X101000Y-60500D01*
X101750Y-58250D02*
X101750Y-59750D01*
X100750Y-57250D02*
X101750Y-58250D01*
X100500Y-57250D02*
X100750Y-57250D01*
X100250Y-57000D02*
X100500Y-57250D01*
X70250Y-64750D02*
X70250Y-62000D01*
X70250Y-64750D02*
X74250Y-64750D01*
X74250Y-64750D02*
X74900Y-64100D01*
X81000Y-59000D02*
X81000Y-58100D01*
X80000Y-57100D02*
X80000Y-56000D01*
X81000Y-58100D02*
X80000Y-57100D01*
X100000Y-79900D02*
X102000Y-79900D01*
X98000Y-79900D02*
X100000Y-79900D01*
X96000Y-79900D02*
X98000Y-79900D01*
X94000Y-79900D02*
X96000Y-79900D01*
X92000Y-79900D02*
X94000Y-79900D01*
X90000Y-79900D02*
X92000Y-79900D01*
X88000Y-79900D02*
X90000Y-79900D01*
X71250Y-62000D02*
X71250Y-62750D01*
X71250Y-62750D02*
X72000Y-63500D01*
X97250Y-59000D02*
X96250Y-59000D01*
X90900Y-65000D02*
X90900Y-63100D01*
X93750Y-71000D02*
X93750Y-71750D01*
X93750Y-71750D02*
X94500Y-72500D01*
X90900Y-68000D02*
X90900Y-68400D01*
X90900Y-68400D02*
X91500Y-69000D01*
X91500Y-73000D02*
X91500Y-74000D01*
X91500Y-74000D02*
X92000Y-74500D01*
X73500Y-73000D02*
X73500Y-74000D01*
X73500Y-74000D02*
X74000Y-74500D01*
X73500Y-69000D02*
X76400Y-69000D01*
X77400Y-68000D02*
X78900Y-68000D01*
X76400Y-69000D02*
X77400Y-68000D01*
X75750Y-71000D02*
X75750Y-71750D01*
X75750Y-71750D02*
X76500Y-72500D01*
X78900Y-65000D02*
X78900Y-63100D01*
X81900Y-65000D02*
X81900Y-63100D01*
X78000Y-73000D02*
X78000Y-74000D01*
X78000Y-74000D02*
X78500Y-74500D01*
X81900Y-68000D02*
X80500Y-68000D01*
X79500Y-69000D02*
X78000Y-69000D01*
X80500Y-68000D02*
X79500Y-69000D01*
X80250Y-71000D02*
X80250Y-71750D01*
X80250Y-71750D02*
X81000Y-72500D01*
X84900Y-68000D02*
X83500Y-68000D01*
X83500Y-68000D02*
X82500Y-69000D01*
X82500Y-73000D02*
X82500Y-74000D01*
X82500Y-74000D02*
X83000Y-74500D01*
X84900Y-65000D02*
X84900Y-63100D01*
X84750Y-71000D02*
X84750Y-71750D01*
X84750Y-71750D02*
X85500Y-72500D01*
X71250Y-71000D02*
X71250Y-71750D01*
X71250Y-71750D02*
X72000Y-72500D01*
X75900Y-65000D02*
X75900Y-63100D01*
X69000Y-69000D02*
X72000Y-69000D01*
X73000Y-68000D02*
X75900Y-68000D01*
X72000Y-69000D02*
X73000Y-68000D01*
X69000Y-73000D02*
X69000Y-74000D01*
X69000Y-74000D02*
X69500Y-74500D01*
X89250Y-71000D02*
X89250Y-71750D01*
X89250Y-71750D02*
X90000Y-72500D01*
X87900Y-65000D02*
X87900Y-63100D01*
X87900Y-68000D02*
X87900Y-68100D01*
X87900Y-68100D02*
X87000Y-69000D01*
X87000Y-73000D02*
X87000Y-74000D01*
X87000Y-74000D02*
X87500Y-74500D01*
X100500Y-73000D02*
X100500Y-74000D01*
X100500Y-74000D02*
X101000Y-74500D01*
X96900Y-67900D02*
X99400Y-67900D01*
X99400Y-67900D02*
X100500Y-69000D01*
X96900Y-64900D02*
X96900Y-63100D01*
X102750Y-71000D02*
X102750Y-71850D01*
X102750Y-71850D02*
X103400Y-72500D01*
X98250Y-71000D02*
X98250Y-71750D01*
X98250Y-71750D02*
X99000Y-72500D01*
X93900Y-65000D02*
X93900Y-63100D01*
X93900Y-68000D02*
X95000Y-68000D01*
X95000Y-68000D02*
X96000Y-69000D01*
X96000Y-73000D02*
X96000Y-74000D01*
X96000Y-74000D02*
X96500Y-74500D01*
M02*
