M48
;DRILL file {Pcbnew (2013-jul-07)-stable} date Tue 04 Mar 2014 11:13:20 PM PST
;FORMAT={2:4/ absolute / inch / suppress leading zeros}
FMAT,2
INCH,TZ
T1C0.025
T2C0.032
T3C0.040
T4C0.060
T5C0.120
%
G90
G05
M72
T1
X70200Y-69200
X72600Y-69100
X77200Y-69900
X87800Y-58700
T2
X69000Y-69000
X69000Y-73000
X69500Y-74500
X69500Y-75500
X70500Y-74500
X71250Y-70000
X71250Y-71000
X71500Y-62500
X71500Y-66500
X72000Y-72500
X72000Y-76500
X72600Y-63500
X72600Y-67500
X73500Y-69000
X73500Y-73000
X74000Y-74500
X74000Y-75500
X74300Y-66400
X74300Y-67400
X75000Y-74500
X75750Y-70000
X75750Y-71000
X76500Y-72500
X76500Y-76500
X78000Y-69000
X78000Y-73000
X78500Y-74500
X78500Y-75500
X79500Y-74500
X80250Y-70000
X80250Y-71000
X80700Y-63500
X80700Y-64500
X81000Y-72500
X81000Y-76500
X81700Y-63500
X81700Y-65200
X81700Y-68200
X82500Y-69000
X82500Y-73000
X83000Y-74500
X83000Y-75500
X83300Y-57800
X83300Y-60800
X83800Y-63500
X83800Y-64500
X84000Y-74500
X84300Y-57800
X84300Y-60800
X84750Y-70000
X84750Y-71000
X84800Y-63500
X84800Y-65200
X84800Y-68200
X85300Y-57800
X85300Y-60800
X85500Y-72500
X85500Y-76500
X86300Y-57800
X86300Y-60800
X86800Y-63500
X86800Y-64500
X87000Y-69000
X87000Y-73000
X87300Y-57800
X87300Y-60800
X87500Y-74500
X87500Y-75500
X87800Y-63500
X87800Y-65200
X87800Y-68200
X88300Y-57800
X88300Y-60800
X88500Y-74500
X89250Y-70000
X89250Y-71000
X89300Y-57800
X89300Y-60800
X89800Y-63500
X89800Y-64500
X90000Y-72500
X90000Y-76500
X90300Y-57800
X90300Y-60800
X90800Y-63500
X90800Y-65200
X90800Y-68200
X91500Y-69000
X91500Y-73000
X92000Y-74500
X92000Y-75500
X92800Y-63500
X92800Y-64500
X93000Y-74500
X93750Y-70000
X93750Y-71000
X93800Y-63500
X93800Y-65200
X93800Y-68200
X94500Y-72500
X94500Y-76500
X94600Y-57800
X94600Y-60800
X95600Y-57800
X95600Y-60800
X95800Y-63500
X95800Y-64500
X96000Y-69000
X96000Y-73000
X96500Y-74500
X96500Y-75500
X96600Y-57800
X96600Y-60800
X96800Y-63500
X96800Y-65200
X96800Y-68200
X97500Y-74500
X97600Y-57800
X97600Y-60800
X98250Y-70000
X98250Y-71000
X98600Y-57800
X98600Y-60800
X98800Y-63500
X98800Y-64500
X99000Y-72500
X99000Y-76500
X99600Y-57800
X99600Y-60800
X99800Y-63500
X99800Y-65200
X99800Y-68200
X100500Y-69000
X100500Y-73000
X100600Y-57800
X100600Y-60800
X101000Y-74500
X101000Y-75500
X101600Y-57800
X101600Y-60800
X101800Y-63500
X101800Y-64500
X102000Y-74500
X102750Y-70000
X102750Y-71000
X102800Y-63500
X102800Y-65200
X102800Y-68200
X103400Y-72500
X103400Y-76500
T3
X70100Y-58400
X70100Y-59400
X70100Y-60400
X70100Y-61400
X70100Y-63500
X70100Y-64500
X70100Y-66400
X70100Y-67400
T4
X71000Y-79900
X73000Y-79900
X75000Y-79900
X77000Y-79900
X79000Y-79900
X81000Y-79900
X83000Y-79900
X85000Y-79900
X88000Y-79900
X90000Y-79900
X92000Y-79900
X94000Y-79900
X96000Y-79900
X98000Y-79900
X100000Y-79900
X102000Y-79900
T5
X68600Y-56400
X68600Y-81000
X104400Y-56400
X104400Y-81000
T0
M30
