G04 (created by PCBNEW (2013-jul-07)-stable) date Tue 04 Mar 2014 11:13:18 PM PST*
%MOIN*%
G04 Gerber Fmt 3.4, Leading zero omitted, Abs format*
%FSLAX34Y34*%
G01*
G70*
G90*
G04 APERTURE LIST*
%ADD10C,0.00590551*%
%ADD11R,0.055X0.055*%
%ADD12C,0.055*%
%ADD13C,0.06*%
%ADD14R,0.06X0.06*%
%ADD15C,0.066*%
%ADD16R,0.062X0.09*%
%ADD17O,0.062X0.09*%
%ADD18C,0.15*%
%ADD19R,0.15X0.15*%
%ADD20C,0.16*%
G04 APERTURE END LIST*
G54D10*
G54D11*
X93800Y-63500D03*
G54D12*
X92800Y-63500D03*
X92800Y-64500D03*
G54D11*
X102800Y-63500D03*
G54D12*
X101800Y-63500D03*
X101800Y-64500D03*
G54D11*
X99800Y-63500D03*
G54D12*
X98800Y-63500D03*
X98800Y-64500D03*
G54D11*
X96800Y-63500D03*
G54D12*
X95800Y-63500D03*
X95800Y-64500D03*
G54D11*
X90800Y-63500D03*
G54D12*
X89800Y-63500D03*
X89800Y-64500D03*
G54D11*
X87800Y-63500D03*
G54D12*
X86800Y-63500D03*
X86800Y-64500D03*
G54D11*
X81700Y-63500D03*
G54D12*
X80700Y-63500D03*
X80700Y-64500D03*
G54D11*
X84800Y-63500D03*
G54D12*
X83800Y-63500D03*
X83800Y-64500D03*
G54D11*
X79500Y-74500D03*
G54D12*
X78500Y-74500D03*
X78500Y-75500D03*
G54D11*
X88500Y-74500D03*
G54D12*
X87500Y-74500D03*
X87500Y-75500D03*
G54D11*
X102000Y-74500D03*
G54D12*
X101000Y-74500D03*
X101000Y-75500D03*
G54D11*
X97500Y-74500D03*
G54D12*
X96500Y-74500D03*
X96500Y-75500D03*
G54D11*
X93000Y-74500D03*
G54D12*
X92000Y-74500D03*
X92000Y-75500D03*
G54D11*
X84000Y-74500D03*
G54D12*
X83000Y-74500D03*
X83000Y-75500D03*
G54D11*
X75000Y-74500D03*
G54D12*
X74000Y-74500D03*
X74000Y-75500D03*
G54D11*
X70500Y-74500D03*
G54D12*
X69500Y-74500D03*
X69500Y-75500D03*
G54D13*
X94500Y-76500D03*
X94500Y-72500D03*
X72600Y-63500D03*
X72600Y-67500D03*
X87000Y-69000D03*
X87000Y-73000D03*
X90000Y-76500D03*
X90000Y-72500D03*
X100500Y-69000D03*
X100500Y-73000D03*
X103400Y-76500D03*
X103400Y-72500D03*
X96000Y-69000D03*
X96000Y-73000D03*
X99000Y-76500D03*
X99000Y-72500D03*
X91500Y-69000D03*
X91500Y-73000D03*
X69000Y-69000D03*
X69000Y-73000D03*
X82500Y-69000D03*
X82500Y-73000D03*
X85500Y-76500D03*
X85500Y-72500D03*
X71500Y-66500D03*
X71500Y-62500D03*
X72000Y-76500D03*
X72000Y-72500D03*
X76500Y-76500D03*
X76500Y-72500D03*
X73500Y-69000D03*
X73500Y-73000D03*
X81000Y-76500D03*
X81000Y-72500D03*
X78000Y-69000D03*
X78000Y-73000D03*
G54D14*
X70100Y-61400D03*
G54D13*
X70100Y-60400D03*
X70100Y-59400D03*
X70100Y-58400D03*
G54D14*
X70100Y-66400D03*
G54D13*
X70100Y-67400D03*
G54D14*
X70100Y-63500D03*
G54D13*
X70100Y-64500D03*
G54D15*
X93750Y-71000D03*
X93750Y-70000D03*
X75750Y-71000D03*
X75750Y-70000D03*
X89250Y-71000D03*
X89250Y-70000D03*
X71250Y-71000D03*
X71250Y-70000D03*
X102750Y-71000D03*
X102750Y-70000D03*
X84750Y-71000D03*
X84750Y-70000D03*
X80250Y-71000D03*
X80250Y-70000D03*
X98250Y-71000D03*
X98250Y-70000D03*
G54D16*
X83300Y-60800D03*
G54D17*
X84300Y-60800D03*
X85300Y-60800D03*
X86300Y-60800D03*
X87300Y-60800D03*
X88300Y-60800D03*
X89300Y-60800D03*
X90300Y-60800D03*
X90300Y-57800D03*
X89300Y-57800D03*
X88300Y-57800D03*
X87300Y-57800D03*
X86300Y-57800D03*
X85300Y-57800D03*
X84300Y-57800D03*
X83300Y-57800D03*
G54D16*
X94600Y-60800D03*
G54D17*
X95600Y-60800D03*
X96600Y-60800D03*
X97600Y-60800D03*
X98600Y-60800D03*
X99600Y-60800D03*
X100600Y-60800D03*
X101600Y-60800D03*
X101600Y-57800D03*
X100600Y-57800D03*
X99600Y-57800D03*
X98600Y-57800D03*
X97600Y-57800D03*
X96600Y-57800D03*
X95600Y-57800D03*
X94600Y-57800D03*
G54D11*
X74300Y-66400D03*
G54D12*
X74300Y-67400D03*
G54D18*
X73000Y-79900D03*
X75000Y-79900D03*
G54D19*
X71000Y-79900D03*
G54D18*
X77000Y-79900D03*
X81000Y-79900D03*
X83000Y-79900D03*
G54D19*
X79000Y-79900D03*
G54D18*
X85000Y-79900D03*
X90000Y-79900D03*
X92000Y-79900D03*
G54D19*
X88000Y-79900D03*
G54D18*
X94000Y-79900D03*
X98000Y-79900D03*
X100000Y-79900D03*
G54D19*
X96000Y-79900D03*
G54D18*
X102000Y-79900D03*
G54D11*
X81700Y-65200D03*
G54D12*
X81700Y-68200D03*
G54D11*
X84800Y-65200D03*
G54D12*
X84800Y-68200D03*
G54D11*
X87800Y-65200D03*
G54D12*
X87800Y-68200D03*
G54D11*
X90800Y-65200D03*
G54D12*
X90800Y-68200D03*
G54D11*
X96800Y-65200D03*
G54D12*
X96800Y-68200D03*
G54D11*
X99800Y-65200D03*
G54D12*
X99800Y-68200D03*
G54D11*
X102800Y-65200D03*
G54D12*
X102800Y-68200D03*
G54D11*
X93800Y-65200D03*
G54D12*
X93800Y-68200D03*
G54D20*
X68600Y-56400D03*
X104400Y-56400D03*
X104400Y-81000D03*
X68600Y-81000D03*
M02*
