G04 (created by PCBNEW (2013-jul-07)-stable) date Tue 04 Mar 2014 11:13:18 PM PST*
%MOIN*%
G04 Gerber Fmt 3.4, Leading zero omitted, Abs format*
%FSLAX34Y34*%
G01*
G70*
G90*
G04 APERTURE LIST*
%ADD10C,0.00590551*%
%ADD11C,0.011811*%
%ADD12C,0.012*%
%ADD13C,0.01*%
%ADD14C,0.006*%
%ADD15C,0.008*%
%ADD16C,0.003*%
%ADD17C,0.015*%
%ADD18C,0.005*%
%ADD19C,0.0035*%
%ADD20C,0.01125*%
%ADD21C,0.0075*%
G04 APERTURE END LIST*
G54D10*
G54D11*
X82655Y-55645D02*
X82655Y-56123D01*
X82627Y-56179D01*
X82599Y-56207D01*
X82543Y-56235D01*
X82459Y-56235D01*
X82402Y-56207D01*
X82655Y-56010D02*
X82599Y-56039D01*
X82487Y-56039D01*
X82430Y-56010D01*
X82402Y-55982D01*
X82374Y-55926D01*
X82374Y-55757D01*
X82402Y-55701D01*
X82430Y-55673D01*
X82487Y-55645D01*
X82599Y-55645D01*
X82655Y-55673D01*
X82937Y-56039D02*
X82937Y-55645D01*
X82937Y-55448D02*
X82908Y-55476D01*
X82937Y-55504D01*
X82965Y-55476D01*
X82937Y-55448D01*
X82937Y-55504D01*
X83133Y-55645D02*
X83358Y-55645D01*
X83218Y-55448D02*
X83218Y-55954D01*
X83246Y-56010D01*
X83302Y-56039D01*
X83358Y-56039D01*
X83555Y-56039D02*
X83555Y-55448D01*
X83808Y-56039D02*
X83808Y-55729D01*
X83780Y-55673D01*
X83724Y-55645D01*
X83640Y-55645D01*
X83583Y-55673D01*
X83555Y-55701D01*
X84343Y-55645D02*
X84343Y-56039D01*
X84090Y-55645D02*
X84090Y-55954D01*
X84118Y-56010D01*
X84174Y-56039D01*
X84258Y-56039D01*
X84315Y-56010D01*
X84343Y-55982D01*
X84624Y-56039D02*
X84624Y-55448D01*
X84624Y-55673D02*
X84680Y-55645D01*
X84793Y-55645D01*
X84849Y-55673D01*
X84877Y-55701D01*
X84905Y-55757D01*
X84905Y-55926D01*
X84877Y-55982D01*
X84849Y-56010D01*
X84793Y-56039D01*
X84680Y-56039D01*
X84624Y-56010D01*
X85158Y-55982D02*
X85186Y-56010D01*
X85158Y-56039D01*
X85130Y-56010D01*
X85158Y-55982D01*
X85158Y-56039D01*
X85693Y-56010D02*
X85636Y-56039D01*
X85524Y-56039D01*
X85468Y-56010D01*
X85439Y-55982D01*
X85411Y-55926D01*
X85411Y-55757D01*
X85439Y-55701D01*
X85468Y-55673D01*
X85524Y-55645D01*
X85636Y-55645D01*
X85693Y-55673D01*
X86030Y-56039D02*
X85974Y-56010D01*
X85946Y-55982D01*
X85917Y-55926D01*
X85917Y-55757D01*
X85946Y-55701D01*
X85974Y-55673D01*
X86030Y-55645D01*
X86114Y-55645D01*
X86171Y-55673D01*
X86199Y-55701D01*
X86227Y-55757D01*
X86227Y-55926D01*
X86199Y-55982D01*
X86171Y-56010D01*
X86114Y-56039D01*
X86030Y-56039D01*
X86480Y-56039D02*
X86480Y-55645D01*
X86480Y-55701D02*
X86508Y-55673D01*
X86564Y-55645D01*
X86649Y-55645D01*
X86705Y-55673D01*
X86733Y-55729D01*
X86733Y-56039D01*
X86733Y-55729D02*
X86761Y-55673D01*
X86817Y-55645D01*
X86902Y-55645D01*
X86958Y-55673D01*
X86986Y-55729D01*
X86986Y-56039D01*
X87689Y-55420D02*
X87183Y-56179D01*
X87886Y-55645D02*
X87886Y-56151D01*
X87858Y-56207D01*
X87802Y-56235D01*
X87774Y-56235D01*
X87886Y-55448D02*
X87858Y-55476D01*
X87886Y-55504D01*
X87914Y-55476D01*
X87886Y-55448D01*
X87886Y-55504D01*
X88167Y-56039D02*
X88167Y-55645D01*
X88167Y-55701D02*
X88195Y-55673D01*
X88252Y-55645D01*
X88336Y-55645D01*
X88392Y-55673D01*
X88420Y-55729D01*
X88420Y-56039D01*
X88420Y-55729D02*
X88448Y-55673D01*
X88505Y-55645D01*
X88589Y-55645D01*
X88645Y-55673D01*
X88673Y-55729D01*
X88673Y-56039D01*
X89208Y-56039D02*
X89208Y-55729D01*
X89180Y-55673D01*
X89123Y-55645D01*
X89011Y-55645D01*
X88955Y-55673D01*
X89208Y-56010D02*
X89151Y-56039D01*
X89011Y-56039D01*
X88955Y-56010D01*
X88926Y-55954D01*
X88926Y-55898D01*
X88955Y-55842D01*
X89011Y-55814D01*
X89151Y-55814D01*
X89208Y-55785D01*
X89489Y-56039D02*
X89489Y-55448D01*
X89742Y-56039D02*
X89742Y-55729D01*
X89714Y-55673D01*
X89658Y-55645D01*
X89573Y-55645D01*
X89517Y-55673D01*
X89489Y-55701D01*
X90108Y-56039D02*
X90051Y-56010D01*
X90023Y-55954D01*
X90023Y-55448D01*
X90558Y-56010D02*
X90501Y-56039D01*
X90389Y-56039D01*
X90333Y-56010D01*
X90304Y-55954D01*
X90304Y-55729D01*
X90333Y-55673D01*
X90389Y-55645D01*
X90501Y-55645D01*
X90558Y-55673D01*
X90586Y-55729D01*
X90586Y-55785D01*
X90304Y-55842D01*
X90839Y-56039D02*
X90839Y-55645D01*
X90839Y-55757D02*
X90867Y-55701D01*
X90895Y-55673D01*
X90951Y-55645D01*
X91007Y-55645D01*
X91626Y-55420D02*
X91120Y-56179D01*
X91795Y-56010D02*
X91851Y-56039D01*
X91964Y-56039D01*
X92020Y-56010D01*
X92048Y-55954D01*
X92048Y-55926D01*
X92020Y-55870D01*
X91964Y-55842D01*
X91879Y-55842D01*
X91823Y-55814D01*
X91795Y-55757D01*
X91795Y-55729D01*
X91823Y-55673D01*
X91879Y-55645D01*
X91964Y-55645D01*
X92020Y-55673D01*
X92301Y-55645D02*
X92301Y-56235D01*
X92301Y-55673D02*
X92357Y-55645D01*
X92470Y-55645D01*
X92526Y-55673D01*
X92554Y-55701D01*
X92582Y-55757D01*
X92582Y-55926D01*
X92554Y-55982D01*
X92526Y-56010D01*
X92470Y-56039D01*
X92357Y-56039D01*
X92301Y-56010D01*
X92835Y-56039D02*
X92835Y-55645D01*
X92835Y-55757D02*
X92864Y-55701D01*
X92892Y-55673D01*
X92948Y-55645D01*
X93004Y-55645D01*
X93201Y-56039D02*
X93201Y-55645D01*
X93201Y-55448D02*
X93173Y-55476D01*
X93201Y-55504D01*
X93229Y-55476D01*
X93201Y-55448D01*
X93201Y-55504D01*
X93482Y-55645D02*
X93482Y-56039D01*
X93482Y-55701D02*
X93510Y-55673D01*
X93567Y-55645D01*
X93651Y-55645D01*
X93707Y-55673D01*
X93735Y-55729D01*
X93735Y-56039D01*
X94016Y-56039D02*
X94016Y-55448D01*
X94073Y-55814D02*
X94241Y-56039D01*
X94241Y-55645D02*
X94016Y-55870D01*
X94579Y-56039D02*
X94523Y-56010D01*
X94495Y-55954D01*
X94495Y-55448D01*
X95029Y-56010D02*
X94973Y-56039D01*
X94860Y-56039D01*
X94804Y-56010D01*
X94776Y-55954D01*
X94776Y-55729D01*
X94804Y-55673D01*
X94860Y-55645D01*
X94973Y-55645D01*
X95029Y-55673D01*
X95057Y-55729D01*
X95057Y-55785D01*
X94776Y-55842D01*
X95310Y-56039D02*
X95310Y-55645D01*
X95310Y-55757D02*
X95338Y-55701D01*
X95366Y-55673D01*
X95423Y-55645D01*
X95479Y-55645D01*
X95676Y-55645D02*
X95676Y-56235D01*
X95676Y-55673D02*
X95732Y-55645D01*
X95844Y-55645D01*
X95901Y-55673D01*
X95929Y-55701D01*
X95957Y-55757D01*
X95957Y-55926D01*
X95929Y-55982D01*
X95901Y-56010D01*
X95844Y-56039D01*
X95732Y-56039D01*
X95676Y-56010D01*
X96210Y-56039D02*
X96210Y-55645D01*
X96210Y-55448D02*
X96182Y-55476D01*
X96210Y-55504D01*
X96238Y-55476D01*
X96210Y-55448D01*
X96210Y-55504D01*
X97560Y-56264D02*
X97532Y-56235D01*
X97475Y-56151D01*
X97447Y-56095D01*
X97419Y-56010D01*
X97391Y-55870D01*
X97391Y-55757D01*
X97419Y-55617D01*
X97447Y-55532D01*
X97475Y-55476D01*
X97532Y-55392D01*
X97560Y-55364D01*
X97757Y-55504D02*
X97785Y-55476D01*
X97841Y-55448D01*
X97982Y-55448D01*
X98038Y-55476D01*
X98066Y-55504D01*
X98094Y-55560D01*
X98094Y-55617D01*
X98066Y-55701D01*
X97729Y-56039D01*
X98094Y-56039D01*
X98460Y-55448D02*
X98516Y-55448D01*
X98572Y-55476D01*
X98600Y-55504D01*
X98628Y-55560D01*
X98657Y-55673D01*
X98657Y-55814D01*
X98628Y-55926D01*
X98600Y-55982D01*
X98572Y-56010D01*
X98516Y-56039D01*
X98460Y-56039D01*
X98403Y-56010D01*
X98375Y-55982D01*
X98347Y-55926D01*
X98319Y-55814D01*
X98319Y-55673D01*
X98347Y-55560D01*
X98375Y-55504D01*
X98403Y-55476D01*
X98460Y-55448D01*
X99219Y-56039D02*
X98882Y-56039D01*
X99050Y-56039D02*
X99050Y-55448D01*
X98994Y-55532D01*
X98938Y-55589D01*
X98882Y-55617D01*
X99725Y-55645D02*
X99725Y-56039D01*
X99585Y-55420D02*
X99444Y-55842D01*
X99810Y-55842D01*
X100147Y-55448D02*
X100203Y-55448D01*
X100259Y-55476D01*
X100288Y-55504D01*
X100316Y-55560D01*
X100344Y-55673D01*
X100344Y-55814D01*
X100316Y-55926D01*
X100288Y-55982D01*
X100259Y-56010D01*
X100203Y-56039D01*
X100147Y-56039D01*
X100091Y-56010D01*
X100063Y-55982D01*
X100034Y-55926D01*
X100006Y-55814D01*
X100006Y-55673D01*
X100034Y-55560D01*
X100063Y-55504D01*
X100091Y-55476D01*
X100147Y-55448D01*
X100541Y-55448D02*
X100906Y-55448D01*
X100709Y-55673D01*
X100794Y-55673D01*
X100850Y-55701D01*
X100878Y-55729D01*
X100906Y-55785D01*
X100906Y-55926D01*
X100878Y-55982D01*
X100850Y-56010D01*
X100794Y-56039D01*
X100625Y-56039D01*
X100569Y-56010D01*
X100541Y-55982D01*
X101272Y-55448D02*
X101328Y-55448D01*
X101384Y-55476D01*
X101412Y-55504D01*
X101441Y-55560D01*
X101469Y-55673D01*
X101469Y-55814D01*
X101441Y-55926D01*
X101412Y-55982D01*
X101384Y-56010D01*
X101328Y-56039D01*
X101272Y-56039D01*
X101216Y-56010D01*
X101187Y-55982D01*
X101159Y-55926D01*
X101131Y-55814D01*
X101131Y-55673D01*
X101159Y-55560D01*
X101187Y-55504D01*
X101216Y-55476D01*
X101272Y-55448D01*
X101975Y-55645D02*
X101975Y-56039D01*
X101834Y-55420D02*
X101694Y-55842D01*
X102059Y-55842D01*
X102228Y-56264D02*
X102256Y-56235D01*
X102312Y-56151D01*
X102340Y-56095D01*
X102369Y-56010D01*
X102397Y-55870D01*
X102397Y-55757D01*
X102369Y-55617D01*
X102340Y-55532D01*
X102312Y-55476D01*
X102256Y-55392D01*
X102228Y-55364D01*
X67887Y-63748D02*
X67606Y-63748D01*
X67578Y-64029D01*
X67606Y-64001D01*
X67662Y-63973D01*
X67803Y-63973D01*
X67859Y-64001D01*
X67887Y-64029D01*
X67915Y-64085D01*
X67915Y-64226D01*
X67887Y-64282D01*
X67859Y-64310D01*
X67803Y-64339D01*
X67662Y-64339D01*
X67606Y-64310D01*
X67578Y-64282D01*
X68084Y-63748D02*
X68281Y-64339D01*
X68478Y-63748D01*
X68190Y-58782D02*
X68162Y-58810D01*
X68078Y-58839D01*
X68022Y-58839D01*
X67937Y-58810D01*
X67881Y-58754D01*
X67853Y-58698D01*
X67825Y-58585D01*
X67825Y-58501D01*
X67853Y-58389D01*
X67881Y-58332D01*
X67937Y-58276D01*
X68022Y-58248D01*
X68078Y-58248D01*
X68162Y-58276D01*
X68190Y-58304D01*
X68443Y-58529D02*
X68640Y-58529D01*
X68725Y-58839D02*
X68443Y-58839D01*
X68443Y-58248D01*
X68725Y-58248D01*
X69090Y-58248D02*
X69146Y-58248D01*
X69203Y-58276D01*
X69231Y-58304D01*
X69259Y-58360D01*
X69287Y-58473D01*
X69287Y-58614D01*
X69259Y-58726D01*
X69231Y-58782D01*
X69203Y-58810D01*
X69146Y-58839D01*
X69090Y-58839D01*
X69034Y-58810D01*
X69006Y-58782D01*
X68978Y-58726D01*
X68950Y-58614D01*
X68950Y-58473D01*
X68978Y-58360D01*
X69006Y-58304D01*
X69034Y-58276D01*
X69090Y-58248D01*
X67290Y-59755D02*
X67375Y-59783D01*
X67515Y-59783D01*
X67572Y-59755D01*
X67600Y-59727D01*
X67628Y-59671D01*
X67628Y-59615D01*
X67600Y-59558D01*
X67572Y-59530D01*
X67515Y-59502D01*
X67403Y-59474D01*
X67347Y-59446D01*
X67319Y-59418D01*
X67290Y-59362D01*
X67290Y-59305D01*
X67319Y-59249D01*
X67347Y-59221D01*
X67403Y-59193D01*
X67543Y-59193D01*
X67628Y-59221D01*
X68218Y-59727D02*
X68190Y-59755D01*
X68106Y-59783D01*
X68050Y-59783D01*
X67965Y-59755D01*
X67909Y-59699D01*
X67881Y-59643D01*
X67853Y-59530D01*
X67853Y-59446D01*
X67881Y-59333D01*
X67909Y-59277D01*
X67965Y-59221D01*
X68050Y-59193D01*
X68106Y-59193D01*
X68190Y-59221D01*
X68218Y-59249D01*
X68753Y-59783D02*
X68471Y-59783D01*
X68471Y-59193D01*
X68950Y-59783D02*
X68950Y-59193D01*
X69287Y-59783D02*
X69034Y-59446D01*
X69287Y-59193D02*
X68950Y-59530D01*
X67403Y-60728D02*
X67403Y-60138D01*
X67600Y-60560D01*
X67797Y-60138D01*
X67797Y-60728D01*
X68078Y-60728D02*
X68078Y-60138D01*
X68331Y-60700D02*
X68415Y-60728D01*
X68556Y-60728D01*
X68612Y-60700D01*
X68640Y-60672D01*
X68668Y-60616D01*
X68668Y-60560D01*
X68640Y-60503D01*
X68612Y-60475D01*
X68556Y-60447D01*
X68443Y-60419D01*
X68387Y-60391D01*
X68359Y-60363D01*
X68331Y-60306D01*
X68331Y-60250D01*
X68359Y-60194D01*
X68387Y-60166D01*
X68443Y-60138D01*
X68584Y-60138D01*
X68668Y-60166D01*
X69034Y-60138D02*
X69146Y-60138D01*
X69203Y-60166D01*
X69259Y-60222D01*
X69287Y-60335D01*
X69287Y-60531D01*
X69259Y-60644D01*
X69203Y-60700D01*
X69146Y-60728D01*
X69034Y-60728D01*
X68978Y-60700D01*
X68921Y-60644D01*
X68893Y-60531D01*
X68893Y-60335D01*
X68921Y-60222D01*
X68978Y-60166D01*
X69034Y-60138D01*
X67403Y-61673D02*
X67403Y-61083D01*
X67600Y-61504D01*
X67797Y-61083D01*
X67797Y-61673D01*
X68190Y-61083D02*
X68303Y-61083D01*
X68359Y-61111D01*
X68415Y-61167D01*
X68443Y-61279D01*
X68443Y-61476D01*
X68415Y-61589D01*
X68359Y-61645D01*
X68303Y-61673D01*
X68190Y-61673D01*
X68134Y-61645D01*
X68078Y-61589D01*
X68050Y-61476D01*
X68050Y-61279D01*
X68078Y-61167D01*
X68134Y-61111D01*
X68190Y-61083D01*
X68668Y-61645D02*
X68753Y-61673D01*
X68893Y-61673D01*
X68950Y-61645D01*
X68978Y-61617D01*
X69006Y-61561D01*
X69006Y-61504D01*
X68978Y-61448D01*
X68950Y-61420D01*
X68893Y-61392D01*
X68781Y-61364D01*
X68725Y-61336D01*
X68696Y-61308D01*
X68668Y-61251D01*
X68668Y-61195D01*
X68696Y-61139D01*
X68725Y-61111D01*
X68781Y-61083D01*
X68921Y-61083D01*
X69006Y-61111D01*
X69259Y-61673D02*
X69259Y-61083D01*
X84923Y-77504D02*
X84951Y-77476D01*
X85007Y-77448D01*
X85148Y-77448D01*
X85204Y-77476D01*
X85232Y-77504D01*
X85261Y-77560D01*
X85261Y-77617D01*
X85232Y-77701D01*
X84895Y-78039D01*
X85261Y-78039D01*
X85767Y-77645D02*
X85767Y-78039D01*
X85626Y-77420D02*
X85486Y-77842D01*
X85851Y-77842D01*
X86442Y-77448D02*
X86639Y-78039D01*
X86835Y-77448D01*
X87004Y-77870D02*
X87285Y-77870D01*
X86948Y-78039D02*
X87145Y-77448D01*
X87342Y-78039D01*
X87876Y-77982D02*
X87848Y-78010D01*
X87763Y-78039D01*
X87707Y-78039D01*
X87623Y-78010D01*
X87567Y-77954D01*
X87538Y-77898D01*
X87510Y-77785D01*
X87510Y-77701D01*
X87538Y-77589D01*
X87567Y-77532D01*
X87623Y-77476D01*
X87707Y-77448D01*
X87763Y-77448D01*
X87848Y-77476D01*
X87876Y-77504D01*
X104548Y-77626D02*
X104970Y-77626D01*
X105054Y-77655D01*
X105110Y-77711D01*
X105139Y-77795D01*
X105139Y-77851D01*
X105110Y-77120D02*
X105139Y-77177D01*
X105139Y-77289D01*
X105110Y-77345D01*
X105054Y-77373D01*
X104829Y-77373D01*
X104773Y-77345D01*
X104745Y-77289D01*
X104745Y-77177D01*
X104773Y-77120D01*
X104829Y-77092D01*
X104885Y-77092D01*
X104942Y-77373D01*
X105139Y-76839D02*
X104745Y-76839D01*
X104857Y-76839D02*
X104801Y-76811D01*
X104773Y-76783D01*
X104745Y-76727D01*
X104745Y-76670D01*
X105110Y-76249D02*
X105139Y-76305D01*
X105139Y-76417D01*
X105110Y-76474D01*
X105054Y-76502D01*
X104829Y-76502D01*
X104773Y-76474D01*
X104745Y-76417D01*
X104745Y-76305D01*
X104773Y-76249D01*
X104829Y-76220D01*
X104885Y-76220D01*
X104942Y-76502D01*
X105139Y-75967D02*
X104745Y-75967D01*
X104801Y-75967D02*
X104773Y-75939D01*
X104745Y-75883D01*
X104745Y-75799D01*
X104773Y-75742D01*
X104829Y-75714D01*
X105139Y-75714D01*
X104829Y-75714D02*
X104773Y-75686D01*
X104745Y-75630D01*
X104745Y-75546D01*
X104773Y-75489D01*
X104829Y-75461D01*
X105139Y-75461D01*
X105139Y-75180D02*
X104745Y-75180D01*
X104548Y-75180D02*
X104576Y-75208D01*
X104604Y-75180D01*
X104576Y-75152D01*
X104548Y-75180D01*
X104604Y-75180D01*
X105139Y-74646D02*
X104829Y-74646D01*
X104773Y-74674D01*
X104745Y-74730D01*
X104745Y-74842D01*
X104773Y-74899D01*
X105110Y-74646D02*
X105139Y-74702D01*
X105139Y-74842D01*
X105110Y-74899D01*
X105054Y-74927D01*
X104998Y-74927D01*
X104942Y-74899D01*
X104914Y-74842D01*
X104914Y-74702D01*
X104885Y-74646D01*
X105139Y-74364D02*
X104548Y-74364D01*
X105139Y-74111D02*
X104829Y-74111D01*
X104773Y-74139D01*
X104745Y-74196D01*
X104745Y-74280D01*
X104773Y-74336D01*
X104801Y-74364D01*
X105139Y-73380D02*
X104548Y-73380D01*
X104970Y-73183D01*
X104548Y-72986D01*
X105139Y-72986D01*
X105139Y-72452D02*
X104829Y-72452D01*
X104773Y-72480D01*
X104745Y-72537D01*
X104745Y-72649D01*
X104773Y-72705D01*
X105110Y-72452D02*
X105139Y-72508D01*
X105139Y-72649D01*
X105110Y-72705D01*
X105054Y-72733D01*
X104998Y-72733D01*
X104942Y-72705D01*
X104914Y-72649D01*
X104914Y-72508D01*
X104885Y-72452D01*
X105139Y-72171D02*
X104548Y-72171D01*
X105139Y-71918D02*
X104829Y-71918D01*
X104773Y-71946D01*
X104745Y-72002D01*
X104745Y-72087D01*
X104773Y-72143D01*
X104801Y-72171D01*
X105139Y-71552D02*
X105110Y-71608D01*
X105054Y-71637D01*
X104548Y-71637D01*
X105110Y-71102D02*
X105139Y-71159D01*
X105139Y-71271D01*
X105110Y-71327D01*
X105054Y-71355D01*
X104829Y-71355D01*
X104773Y-71327D01*
X104745Y-71271D01*
X104745Y-71159D01*
X104773Y-71102D01*
X104829Y-71074D01*
X104885Y-71074D01*
X104942Y-71355D01*
X105139Y-70821D02*
X104745Y-70821D01*
X104857Y-70821D02*
X104801Y-70793D01*
X104773Y-70765D01*
X104745Y-70709D01*
X104745Y-70652D01*
X104745Y-69556D02*
X104914Y-70006D01*
X105082Y-69556D01*
X104745Y-69274D02*
X105251Y-69274D01*
X105307Y-69303D01*
X105335Y-69359D01*
X105335Y-69387D01*
X104548Y-69274D02*
X104576Y-69303D01*
X104604Y-69274D01*
X104576Y-69246D01*
X104548Y-69274D01*
X104604Y-69274D01*
X105139Y-68993D02*
X104745Y-68993D01*
X104801Y-68993D02*
X104773Y-68965D01*
X104745Y-68909D01*
X104745Y-68824D01*
X104773Y-68768D01*
X104829Y-68740D01*
X105139Y-68740D01*
X104829Y-68740D02*
X104773Y-68712D01*
X104745Y-68656D01*
X104745Y-68571D01*
X104773Y-68515D01*
X104829Y-68487D01*
X105139Y-68487D01*
X105139Y-68206D02*
X104745Y-68206D01*
X104801Y-68206D02*
X104773Y-68178D01*
X104745Y-68121D01*
X104745Y-68037D01*
X104773Y-67981D01*
X104829Y-67953D01*
X105139Y-67953D01*
X104829Y-67953D02*
X104773Y-67925D01*
X104745Y-67868D01*
X104745Y-67784D01*
X104773Y-67728D01*
X104829Y-67700D01*
X105139Y-67700D01*
X105139Y-67165D02*
X104829Y-67165D01*
X104773Y-67193D01*
X104745Y-67250D01*
X104745Y-67362D01*
X104773Y-67418D01*
X105110Y-67165D02*
X105139Y-67222D01*
X105139Y-67362D01*
X105110Y-67418D01*
X105054Y-67447D01*
X104998Y-67447D01*
X104942Y-67418D01*
X104914Y-67362D01*
X104914Y-67222D01*
X104885Y-67165D01*
X105139Y-66884D02*
X104548Y-66884D01*
X105139Y-66631D02*
X104829Y-66631D01*
X104773Y-66659D01*
X104745Y-66715D01*
X104745Y-66800D01*
X104773Y-66856D01*
X104801Y-66884D01*
X105139Y-66265D02*
X105110Y-66322D01*
X105054Y-66350D01*
X104548Y-66350D01*
X105110Y-65815D02*
X105139Y-65872D01*
X105139Y-65984D01*
X105110Y-66040D01*
X105054Y-66069D01*
X104829Y-66069D01*
X104773Y-66040D01*
X104745Y-65984D01*
X104745Y-65872D01*
X104773Y-65815D01*
X104829Y-65787D01*
X104885Y-65787D01*
X104942Y-66069D01*
X105139Y-65534D02*
X104745Y-65534D01*
X104857Y-65534D02*
X104801Y-65506D01*
X104773Y-65478D01*
X104745Y-65422D01*
X104745Y-65366D01*
X104857Y-64803D02*
X104829Y-64831D01*
X104801Y-64887D01*
X104801Y-64944D01*
X104829Y-65000D01*
X104857Y-65028D01*
X104914Y-65056D01*
X104970Y-65056D01*
X105026Y-65028D01*
X105054Y-65000D01*
X105082Y-64944D01*
X105082Y-64887D01*
X105054Y-64831D01*
X105026Y-64803D01*
X104801Y-64803D02*
X105026Y-64803D01*
X105054Y-64775D01*
X105054Y-64747D01*
X105026Y-64691D01*
X104970Y-64662D01*
X104829Y-64662D01*
X104745Y-64719D01*
X104689Y-64803D01*
X104660Y-64916D01*
X104689Y-65028D01*
X104745Y-65112D01*
X104829Y-65169D01*
X104942Y-65197D01*
X105054Y-65169D01*
X105139Y-65112D01*
X105195Y-65028D01*
X105223Y-64916D01*
X105195Y-64803D01*
X105139Y-64719D01*
X104745Y-64156D02*
X105223Y-64156D01*
X105279Y-64184D01*
X105307Y-64213D01*
X105335Y-64269D01*
X105335Y-64353D01*
X105307Y-64409D01*
X105110Y-64156D02*
X105139Y-64213D01*
X105139Y-64325D01*
X105110Y-64381D01*
X105082Y-64409D01*
X105026Y-64438D01*
X104857Y-64438D01*
X104801Y-64409D01*
X104773Y-64381D01*
X104745Y-64325D01*
X104745Y-64213D01*
X104773Y-64156D01*
X105139Y-63875D02*
X104745Y-63875D01*
X104801Y-63875D02*
X104773Y-63847D01*
X104745Y-63791D01*
X104745Y-63706D01*
X104773Y-63650D01*
X104829Y-63622D01*
X105139Y-63622D01*
X104829Y-63622D02*
X104773Y-63594D01*
X104745Y-63538D01*
X104745Y-63453D01*
X104773Y-63397D01*
X104829Y-63369D01*
X105139Y-63369D01*
X105139Y-62835D02*
X104829Y-62835D01*
X104773Y-62863D01*
X104745Y-62919D01*
X104745Y-63031D01*
X104773Y-63088D01*
X105110Y-62835D02*
X105139Y-62891D01*
X105139Y-63031D01*
X105110Y-63088D01*
X105054Y-63116D01*
X104998Y-63116D01*
X104942Y-63088D01*
X104914Y-63031D01*
X104914Y-62891D01*
X104885Y-62835D01*
X105139Y-62553D02*
X104745Y-62553D01*
X104548Y-62553D02*
X104576Y-62582D01*
X104604Y-62553D01*
X104576Y-62525D01*
X104548Y-62553D01*
X104604Y-62553D01*
X105139Y-62188D02*
X105110Y-62244D01*
X105054Y-62272D01*
X104548Y-62272D01*
X105082Y-61963D02*
X105110Y-61935D01*
X105139Y-61963D01*
X105110Y-61991D01*
X105082Y-61963D01*
X105139Y-61963D01*
X105110Y-61429D02*
X105139Y-61485D01*
X105139Y-61597D01*
X105110Y-61653D01*
X105082Y-61682D01*
X105026Y-61710D01*
X104857Y-61710D01*
X104801Y-61682D01*
X104773Y-61653D01*
X104745Y-61597D01*
X104745Y-61485D01*
X104773Y-61429D01*
X105139Y-61091D02*
X105110Y-61147D01*
X105082Y-61175D01*
X105026Y-61204D01*
X104857Y-61204D01*
X104801Y-61175D01*
X104773Y-61147D01*
X104745Y-61091D01*
X104745Y-61007D01*
X104773Y-60950D01*
X104801Y-60922D01*
X104857Y-60894D01*
X105026Y-60894D01*
X105082Y-60922D01*
X105110Y-60950D01*
X105139Y-61007D01*
X105139Y-61091D01*
X105139Y-60641D02*
X104745Y-60641D01*
X104801Y-60641D02*
X104773Y-60613D01*
X104745Y-60557D01*
X104745Y-60472D01*
X104773Y-60416D01*
X104829Y-60388D01*
X105139Y-60388D01*
X104829Y-60388D02*
X104773Y-60360D01*
X104745Y-60304D01*
X104745Y-60219D01*
X104773Y-60163D01*
X104829Y-60135D01*
X105139Y-60135D01*
X104745Y-59854D02*
X104914Y-59404D01*
X105082Y-59854D01*
X69895Y-57510D02*
X69979Y-57539D01*
X70120Y-57539D01*
X70176Y-57510D01*
X70204Y-57482D01*
X70232Y-57426D01*
X70232Y-57370D01*
X70204Y-57314D01*
X70176Y-57285D01*
X70120Y-57257D01*
X70007Y-57229D01*
X69951Y-57201D01*
X69923Y-57173D01*
X69895Y-57117D01*
X69895Y-57060D01*
X69923Y-57004D01*
X69951Y-56976D01*
X70007Y-56948D01*
X70148Y-56948D01*
X70232Y-56976D01*
X70485Y-57539D02*
X70485Y-56948D01*
X70710Y-56948D01*
X70767Y-56976D01*
X70795Y-57004D01*
X70823Y-57060D01*
X70823Y-57145D01*
X70795Y-57201D01*
X70767Y-57229D01*
X70710Y-57257D01*
X70485Y-57257D01*
X71076Y-57539D02*
X71076Y-56948D01*
X68287Y-66104D02*
X68315Y-66076D01*
X68371Y-66048D01*
X68512Y-66048D01*
X68568Y-66076D01*
X68596Y-66104D01*
X68625Y-66160D01*
X68625Y-66217D01*
X68596Y-66301D01*
X68259Y-66639D01*
X68625Y-66639D01*
X69131Y-66245D02*
X69131Y-66639D01*
X68990Y-66020D02*
X68850Y-66442D01*
X69215Y-66442D01*
X67753Y-66993D02*
X67950Y-67583D01*
X68147Y-66993D01*
X68315Y-67415D02*
X68596Y-67415D01*
X68259Y-67583D02*
X68456Y-66993D01*
X68653Y-67583D01*
X69187Y-67527D02*
X69159Y-67555D01*
X69075Y-67583D01*
X69018Y-67583D01*
X68934Y-67555D01*
X68878Y-67499D01*
X68850Y-67443D01*
X68821Y-67330D01*
X68821Y-67246D01*
X68850Y-67133D01*
X68878Y-67077D01*
X68934Y-67021D01*
X69018Y-66993D01*
X69075Y-66993D01*
X69159Y-67021D01*
X69187Y-67049D01*
X93579Y-82182D02*
X93551Y-82210D01*
X93467Y-82239D01*
X93411Y-82239D01*
X93326Y-82210D01*
X93270Y-82154D01*
X93242Y-82098D01*
X93214Y-81985D01*
X93214Y-81901D01*
X93242Y-81789D01*
X93270Y-81732D01*
X93326Y-81676D01*
X93411Y-81648D01*
X93467Y-81648D01*
X93551Y-81676D01*
X93579Y-81704D01*
X93945Y-81648D02*
X94057Y-81648D01*
X94114Y-81676D01*
X94170Y-81732D01*
X94198Y-81845D01*
X94198Y-82042D01*
X94170Y-82154D01*
X94114Y-82210D01*
X94057Y-82239D01*
X93945Y-82239D01*
X93889Y-82210D01*
X93832Y-82154D01*
X93804Y-82042D01*
X93804Y-81845D01*
X93832Y-81732D01*
X93889Y-81676D01*
X93945Y-81648D01*
X94451Y-82239D02*
X94451Y-81648D01*
X94648Y-82070D01*
X94845Y-81648D01*
X94845Y-82239D01*
X95126Y-82239D02*
X95126Y-81648D01*
X95323Y-82070D01*
X95520Y-81648D01*
X95520Y-82239D01*
X95913Y-81648D02*
X96026Y-81648D01*
X96082Y-81676D01*
X96138Y-81732D01*
X96167Y-81845D01*
X96167Y-82042D01*
X96138Y-82154D01*
X96082Y-82210D01*
X96026Y-82239D01*
X95913Y-82239D01*
X95857Y-82210D01*
X95801Y-82154D01*
X95773Y-82042D01*
X95773Y-81845D01*
X95801Y-81732D01*
X95857Y-81676D01*
X95913Y-81648D01*
X96420Y-82239D02*
X96420Y-81648D01*
X96757Y-82239D01*
X96757Y-81648D01*
X75709Y-77448D02*
X75906Y-78039D01*
X76103Y-77448D01*
X76271Y-77870D02*
X76553Y-77870D01*
X76215Y-78039D02*
X76412Y-77448D01*
X76609Y-78039D01*
X77087Y-78039D02*
X76806Y-78039D01*
X76806Y-77448D01*
X77200Y-77448D02*
X77396Y-78039D01*
X77593Y-77448D01*
X77790Y-77729D02*
X77987Y-77729D01*
X78071Y-78039D02*
X77790Y-78039D01*
X77790Y-77448D01*
X78071Y-77448D01*
X78296Y-78010D02*
X78381Y-78039D01*
X78521Y-78039D01*
X78577Y-78010D01*
X78606Y-77982D01*
X78634Y-77926D01*
X78634Y-77870D01*
X78606Y-77814D01*
X78577Y-77785D01*
X78521Y-77757D01*
X78409Y-77729D01*
X78352Y-77701D01*
X78324Y-77673D01*
X78296Y-77617D01*
X78296Y-77560D01*
X78324Y-77504D01*
X78352Y-77476D01*
X78409Y-77448D01*
X78549Y-77448D01*
X78634Y-77476D01*
X71300Y-82239D02*
X70962Y-82239D01*
X71131Y-82239D02*
X71131Y-81648D01*
X71075Y-81732D01*
X71019Y-81789D01*
X70962Y-81817D01*
X72875Y-81704D02*
X72903Y-81676D01*
X72959Y-81648D01*
X73100Y-81648D01*
X73156Y-81676D01*
X73184Y-81704D01*
X73212Y-81760D01*
X73212Y-81817D01*
X73184Y-81901D01*
X72847Y-82239D01*
X73212Y-82239D01*
X74759Y-81648D02*
X75124Y-81648D01*
X74928Y-81873D01*
X75012Y-81873D01*
X75068Y-81901D01*
X75096Y-81929D01*
X75124Y-81985D01*
X75124Y-82126D01*
X75096Y-82182D01*
X75068Y-82210D01*
X75012Y-82239D01*
X74843Y-82239D01*
X74787Y-82210D01*
X74759Y-82182D01*
X76980Y-81845D02*
X76980Y-82239D01*
X76840Y-81620D02*
X76699Y-82042D01*
X77065Y-82042D01*
X79272Y-81648D02*
X78991Y-81648D01*
X78962Y-81929D01*
X78991Y-81901D01*
X79047Y-81873D01*
X79187Y-81873D01*
X79244Y-81901D01*
X79272Y-81929D01*
X79300Y-81985D01*
X79300Y-82126D01*
X79272Y-82182D01*
X79244Y-82210D01*
X79187Y-82239D01*
X79047Y-82239D01*
X78991Y-82210D01*
X78962Y-82182D01*
X81156Y-81648D02*
X81043Y-81648D01*
X80987Y-81676D01*
X80959Y-81704D01*
X80903Y-81789D01*
X80875Y-81901D01*
X80875Y-82126D01*
X80903Y-82182D01*
X80931Y-82210D01*
X80987Y-82239D01*
X81100Y-82239D01*
X81156Y-82210D01*
X81184Y-82182D01*
X81212Y-82126D01*
X81212Y-81985D01*
X81184Y-81929D01*
X81156Y-81901D01*
X81100Y-81873D01*
X80987Y-81873D01*
X80931Y-81901D01*
X80903Y-81929D01*
X80875Y-81985D01*
X82759Y-81648D02*
X83152Y-81648D01*
X82899Y-82239D01*
X84812Y-81901D02*
X84755Y-81873D01*
X84727Y-81845D01*
X84699Y-81789D01*
X84699Y-81760D01*
X84727Y-81704D01*
X84755Y-81676D01*
X84812Y-81648D01*
X84924Y-81648D01*
X84980Y-81676D01*
X85008Y-81704D01*
X85037Y-81760D01*
X85037Y-81789D01*
X85008Y-81845D01*
X84980Y-81873D01*
X84924Y-81901D01*
X84812Y-81901D01*
X84755Y-81929D01*
X84727Y-81957D01*
X84699Y-82014D01*
X84699Y-82126D01*
X84727Y-82182D01*
X84755Y-82210D01*
X84812Y-82239D01*
X84924Y-82239D01*
X84980Y-82210D01*
X85008Y-82182D01*
X85037Y-82126D01*
X85037Y-82014D01*
X85008Y-81957D01*
X84980Y-81929D01*
X84924Y-81901D01*
X68809Y-63514D02*
X69259Y-63514D01*
X68809Y-64458D02*
X69259Y-64458D01*
X69034Y-64683D02*
X69034Y-64233D01*
G54D12*
X92800Y-65000D02*
X94300Y-63500D01*
X94300Y-63500D02*
X94300Y-63000D01*
X94300Y-63000D02*
X93800Y-62500D01*
X93800Y-62500D02*
X92800Y-62500D01*
X92800Y-62500D02*
X91800Y-63500D01*
X91800Y-63500D02*
X91800Y-64500D01*
X91800Y-64500D02*
X92300Y-65000D01*
X92300Y-65000D02*
X92800Y-65000D01*
X101800Y-65000D02*
X103300Y-63500D01*
X103300Y-63500D02*
X103300Y-63000D01*
X103300Y-63000D02*
X102800Y-62500D01*
X102800Y-62500D02*
X101800Y-62500D01*
X101800Y-62500D02*
X100800Y-63500D01*
X100800Y-63500D02*
X100800Y-64500D01*
X100800Y-64500D02*
X101300Y-65000D01*
X101300Y-65000D02*
X101800Y-65000D01*
X98800Y-65000D02*
X100300Y-63500D01*
X100300Y-63500D02*
X100300Y-63000D01*
X100300Y-63000D02*
X99800Y-62500D01*
X99800Y-62500D02*
X98800Y-62500D01*
X98800Y-62500D02*
X97800Y-63500D01*
X97800Y-63500D02*
X97800Y-64500D01*
X97800Y-64500D02*
X98300Y-65000D01*
X98300Y-65000D02*
X98800Y-65000D01*
X95800Y-65000D02*
X97300Y-63500D01*
X97300Y-63500D02*
X97300Y-63000D01*
X97300Y-63000D02*
X96800Y-62500D01*
X96800Y-62500D02*
X95800Y-62500D01*
X95800Y-62500D02*
X94800Y-63500D01*
X94800Y-63500D02*
X94800Y-64500D01*
X94800Y-64500D02*
X95300Y-65000D01*
X95300Y-65000D02*
X95800Y-65000D01*
X89800Y-65000D02*
X91300Y-63500D01*
X91300Y-63500D02*
X91300Y-63000D01*
X91300Y-63000D02*
X90800Y-62500D01*
X90800Y-62500D02*
X89800Y-62500D01*
X89800Y-62500D02*
X88800Y-63500D01*
X88800Y-63500D02*
X88800Y-64500D01*
X88800Y-64500D02*
X89300Y-65000D01*
X89300Y-65000D02*
X89800Y-65000D01*
X86800Y-65000D02*
X88300Y-63500D01*
X88300Y-63500D02*
X88300Y-63000D01*
X88300Y-63000D02*
X87800Y-62500D01*
X87800Y-62500D02*
X86800Y-62500D01*
X86800Y-62500D02*
X85800Y-63500D01*
X85800Y-63500D02*
X85800Y-64500D01*
X85800Y-64500D02*
X86300Y-65000D01*
X86300Y-65000D02*
X86800Y-65000D01*
X80700Y-65000D02*
X82200Y-63500D01*
X82200Y-63500D02*
X82200Y-63000D01*
X82200Y-63000D02*
X81700Y-62500D01*
X81700Y-62500D02*
X80700Y-62500D01*
X80700Y-62500D02*
X79700Y-63500D01*
X79700Y-63500D02*
X79700Y-64500D01*
X79700Y-64500D02*
X80200Y-65000D01*
X80200Y-65000D02*
X80700Y-65000D01*
X83800Y-65000D02*
X85300Y-63500D01*
X85300Y-63500D02*
X85300Y-63000D01*
X85300Y-63000D02*
X84800Y-62500D01*
X84800Y-62500D02*
X83800Y-62500D01*
X83800Y-62500D02*
X82800Y-63500D01*
X82800Y-63500D02*
X82800Y-64500D01*
X82800Y-64500D02*
X83300Y-65000D01*
X83300Y-65000D02*
X83800Y-65000D01*
X78500Y-76000D02*
X80000Y-74500D01*
X80000Y-74500D02*
X80000Y-74000D01*
X80000Y-74000D02*
X79500Y-73500D01*
X79500Y-73500D02*
X78500Y-73500D01*
X78500Y-73500D02*
X77500Y-74500D01*
X77500Y-74500D02*
X77500Y-75500D01*
X77500Y-75500D02*
X78000Y-76000D01*
X78000Y-76000D02*
X78500Y-76000D01*
X87500Y-76000D02*
X89000Y-74500D01*
X89000Y-74500D02*
X89000Y-74000D01*
X89000Y-74000D02*
X88500Y-73500D01*
X88500Y-73500D02*
X87500Y-73500D01*
X87500Y-73500D02*
X86500Y-74500D01*
X86500Y-74500D02*
X86500Y-75500D01*
X86500Y-75500D02*
X87000Y-76000D01*
X87000Y-76000D02*
X87500Y-76000D01*
X101000Y-76000D02*
X102500Y-74500D01*
X102500Y-74500D02*
X102500Y-74000D01*
X102500Y-74000D02*
X102000Y-73500D01*
X102000Y-73500D02*
X101000Y-73500D01*
X101000Y-73500D02*
X100000Y-74500D01*
X100000Y-74500D02*
X100000Y-75500D01*
X100000Y-75500D02*
X100500Y-76000D01*
X100500Y-76000D02*
X101000Y-76000D01*
X96500Y-76000D02*
X98000Y-74500D01*
X98000Y-74500D02*
X98000Y-74000D01*
X98000Y-74000D02*
X97500Y-73500D01*
X97500Y-73500D02*
X96500Y-73500D01*
X96500Y-73500D02*
X95500Y-74500D01*
X95500Y-74500D02*
X95500Y-75500D01*
X95500Y-75500D02*
X96000Y-76000D01*
X96000Y-76000D02*
X96500Y-76000D01*
X92000Y-76000D02*
X93500Y-74500D01*
X93500Y-74500D02*
X93500Y-74000D01*
X93500Y-74000D02*
X93000Y-73500D01*
X93000Y-73500D02*
X92000Y-73500D01*
X92000Y-73500D02*
X91000Y-74500D01*
X91000Y-74500D02*
X91000Y-75500D01*
X91000Y-75500D02*
X91500Y-76000D01*
X91500Y-76000D02*
X92000Y-76000D01*
X83000Y-76000D02*
X84500Y-74500D01*
X84500Y-74500D02*
X84500Y-74000D01*
X84500Y-74000D02*
X84000Y-73500D01*
X84000Y-73500D02*
X83000Y-73500D01*
X83000Y-73500D02*
X82000Y-74500D01*
X82000Y-74500D02*
X82000Y-75500D01*
X82000Y-75500D02*
X82500Y-76000D01*
X82500Y-76000D02*
X83000Y-76000D01*
X74000Y-76000D02*
X75500Y-74500D01*
X75500Y-74500D02*
X75500Y-74000D01*
X75500Y-74000D02*
X75000Y-73500D01*
X75000Y-73500D02*
X74000Y-73500D01*
X74000Y-73500D02*
X73000Y-74500D01*
X73000Y-74500D02*
X73000Y-75500D01*
X73000Y-75500D02*
X73500Y-76000D01*
X73500Y-76000D02*
X74000Y-76000D01*
X69500Y-76000D02*
X71000Y-74500D01*
X71000Y-74500D02*
X71000Y-74000D01*
X71000Y-74000D02*
X70500Y-73500D01*
X70500Y-73500D02*
X69500Y-73500D01*
X69500Y-73500D02*
X68500Y-74500D01*
X68500Y-74500D02*
X68500Y-75500D01*
X68500Y-75500D02*
X69000Y-76000D01*
X69000Y-76000D02*
X69500Y-76000D01*
X94500Y-76500D02*
X94500Y-76100D01*
X94500Y-76100D02*
X94100Y-76100D01*
X94100Y-76100D02*
X94100Y-72900D01*
X94100Y-72900D02*
X94900Y-72900D01*
X94900Y-72900D02*
X94900Y-76100D01*
X94900Y-76100D02*
X94500Y-76100D01*
X94300Y-76100D02*
X94100Y-75900D01*
X94500Y-72500D02*
X94500Y-72900D01*
X72600Y-63500D02*
X72600Y-63900D01*
X72600Y-63900D02*
X73000Y-63900D01*
X73000Y-63900D02*
X73000Y-67100D01*
X73000Y-67100D02*
X72200Y-67100D01*
X72200Y-67100D02*
X72200Y-63900D01*
X72200Y-63900D02*
X72600Y-63900D01*
X72800Y-63900D02*
X73000Y-64100D01*
X72600Y-67500D02*
X72600Y-67100D01*
X87000Y-69000D02*
X87000Y-69400D01*
X87000Y-69400D02*
X87400Y-69400D01*
X87400Y-69400D02*
X87400Y-72600D01*
X87400Y-72600D02*
X86600Y-72600D01*
X86600Y-72600D02*
X86600Y-69400D01*
X86600Y-69400D02*
X87000Y-69400D01*
X87200Y-69400D02*
X87400Y-69600D01*
X87000Y-73000D02*
X87000Y-72600D01*
X90000Y-76500D02*
X90000Y-76100D01*
X90000Y-76100D02*
X89600Y-76100D01*
X89600Y-76100D02*
X89600Y-72900D01*
X89600Y-72900D02*
X90400Y-72900D01*
X90400Y-72900D02*
X90400Y-76100D01*
X90400Y-76100D02*
X90000Y-76100D01*
X89800Y-76100D02*
X89600Y-75900D01*
X90000Y-72500D02*
X90000Y-72900D01*
X100500Y-69000D02*
X100500Y-69400D01*
X100500Y-69400D02*
X100900Y-69400D01*
X100900Y-69400D02*
X100900Y-72600D01*
X100900Y-72600D02*
X100100Y-72600D01*
X100100Y-72600D02*
X100100Y-69400D01*
X100100Y-69400D02*
X100500Y-69400D01*
X100700Y-69400D02*
X100900Y-69600D01*
X100500Y-73000D02*
X100500Y-72600D01*
X103400Y-76500D02*
X103400Y-76100D01*
X103400Y-76100D02*
X103000Y-76100D01*
X103000Y-76100D02*
X103000Y-72900D01*
X103000Y-72900D02*
X103800Y-72900D01*
X103800Y-72900D02*
X103800Y-76100D01*
X103800Y-76100D02*
X103400Y-76100D01*
X103200Y-76100D02*
X103000Y-75900D01*
X103400Y-72500D02*
X103400Y-72900D01*
X96000Y-69000D02*
X96000Y-69400D01*
X96000Y-69400D02*
X96400Y-69400D01*
X96400Y-69400D02*
X96400Y-72600D01*
X96400Y-72600D02*
X95600Y-72600D01*
X95600Y-72600D02*
X95600Y-69400D01*
X95600Y-69400D02*
X96000Y-69400D01*
X96200Y-69400D02*
X96400Y-69600D01*
X96000Y-73000D02*
X96000Y-72600D01*
X99000Y-76500D02*
X99000Y-76100D01*
X99000Y-76100D02*
X98600Y-76100D01*
X98600Y-76100D02*
X98600Y-72900D01*
X98600Y-72900D02*
X99400Y-72900D01*
X99400Y-72900D02*
X99400Y-76100D01*
X99400Y-76100D02*
X99000Y-76100D01*
X98800Y-76100D02*
X98600Y-75900D01*
X99000Y-72500D02*
X99000Y-72900D01*
X91500Y-69000D02*
X91500Y-69400D01*
X91500Y-69400D02*
X91900Y-69400D01*
X91900Y-69400D02*
X91900Y-72600D01*
X91900Y-72600D02*
X91100Y-72600D01*
X91100Y-72600D02*
X91100Y-69400D01*
X91100Y-69400D02*
X91500Y-69400D01*
X91700Y-69400D02*
X91900Y-69600D01*
X91500Y-73000D02*
X91500Y-72600D01*
X69000Y-69000D02*
X69000Y-69400D01*
X69000Y-69400D02*
X69400Y-69400D01*
X69400Y-69400D02*
X69400Y-72600D01*
X69400Y-72600D02*
X68600Y-72600D01*
X68600Y-72600D02*
X68600Y-69400D01*
X68600Y-69400D02*
X69000Y-69400D01*
X69200Y-69400D02*
X69400Y-69600D01*
X69000Y-73000D02*
X69000Y-72600D01*
X82500Y-69000D02*
X82500Y-69400D01*
X82500Y-69400D02*
X82900Y-69400D01*
X82900Y-69400D02*
X82900Y-72600D01*
X82900Y-72600D02*
X82100Y-72600D01*
X82100Y-72600D02*
X82100Y-69400D01*
X82100Y-69400D02*
X82500Y-69400D01*
X82700Y-69400D02*
X82900Y-69600D01*
X82500Y-73000D02*
X82500Y-72600D01*
X85500Y-76500D02*
X85500Y-76100D01*
X85500Y-76100D02*
X85100Y-76100D01*
X85100Y-76100D02*
X85100Y-72900D01*
X85100Y-72900D02*
X85900Y-72900D01*
X85900Y-72900D02*
X85900Y-76100D01*
X85900Y-76100D02*
X85500Y-76100D01*
X85300Y-76100D02*
X85100Y-75900D01*
X85500Y-72500D02*
X85500Y-72900D01*
X71500Y-66500D02*
X71500Y-66100D01*
X71500Y-66100D02*
X71100Y-66100D01*
X71100Y-66100D02*
X71100Y-62900D01*
X71100Y-62900D02*
X71900Y-62900D01*
X71900Y-62900D02*
X71900Y-66100D01*
X71900Y-66100D02*
X71500Y-66100D01*
X71300Y-66100D02*
X71100Y-65900D01*
X71500Y-62500D02*
X71500Y-62900D01*
X72000Y-76500D02*
X72000Y-76100D01*
X72000Y-76100D02*
X71600Y-76100D01*
X71600Y-76100D02*
X71600Y-72900D01*
X71600Y-72900D02*
X72400Y-72900D01*
X72400Y-72900D02*
X72400Y-76100D01*
X72400Y-76100D02*
X72000Y-76100D01*
X71800Y-76100D02*
X71600Y-75900D01*
X72000Y-72500D02*
X72000Y-72900D01*
X76500Y-76500D02*
X76500Y-76100D01*
X76500Y-76100D02*
X76100Y-76100D01*
X76100Y-76100D02*
X76100Y-72900D01*
X76100Y-72900D02*
X76900Y-72900D01*
X76900Y-72900D02*
X76900Y-76100D01*
X76900Y-76100D02*
X76500Y-76100D01*
X76300Y-76100D02*
X76100Y-75900D01*
X76500Y-72500D02*
X76500Y-72900D01*
X73500Y-69000D02*
X73500Y-69400D01*
X73500Y-69400D02*
X73900Y-69400D01*
X73900Y-69400D02*
X73900Y-72600D01*
X73900Y-72600D02*
X73100Y-72600D01*
X73100Y-72600D02*
X73100Y-69400D01*
X73100Y-69400D02*
X73500Y-69400D01*
X73700Y-69400D02*
X73900Y-69600D01*
X73500Y-73000D02*
X73500Y-72600D01*
X81000Y-76500D02*
X81000Y-76100D01*
X81000Y-76100D02*
X80600Y-76100D01*
X80600Y-76100D02*
X80600Y-72900D01*
X80600Y-72900D02*
X81400Y-72900D01*
X81400Y-72900D02*
X81400Y-76100D01*
X81400Y-76100D02*
X81000Y-76100D01*
X80800Y-76100D02*
X80600Y-75900D01*
X81000Y-72500D02*
X81000Y-72900D01*
X78000Y-69000D02*
X78000Y-69400D01*
X78000Y-69400D02*
X78400Y-69400D01*
X78400Y-69400D02*
X78400Y-72600D01*
X78400Y-72600D02*
X77600Y-72600D01*
X77600Y-72600D02*
X77600Y-69400D01*
X77600Y-69400D02*
X78000Y-69400D01*
X78200Y-69400D02*
X78400Y-69600D01*
X78000Y-73000D02*
X78000Y-72600D01*
G54D13*
X70600Y-57900D02*
X70600Y-61900D01*
X69600Y-57900D02*
X69600Y-61900D01*
X69600Y-61900D02*
X70600Y-61900D01*
X70600Y-57900D02*
X69600Y-57900D01*
G54D14*
X69600Y-65900D02*
X70600Y-65900D01*
X70600Y-65900D02*
X70600Y-67900D01*
X70600Y-67900D02*
X69600Y-67900D01*
X69600Y-67900D02*
X69600Y-65900D01*
X69600Y-63000D02*
X70600Y-63000D01*
X70600Y-63000D02*
X70600Y-65000D01*
X70600Y-65000D02*
X69600Y-65000D01*
X69600Y-65000D02*
X69600Y-63000D01*
G54D15*
X94500Y-69380D02*
X93000Y-69380D01*
G54D16*
X94457Y-70400D02*
G75*
G03X94457Y-70400I-707J0D01*
G74*
G01*
G54D13*
X92999Y-69400D02*
G75*
G03X94500Y-69400I750J-999D01*
G74*
G01*
G54D14*
X93300Y-70400D02*
G75*
G03X93750Y-70850I450J0D01*
G74*
G01*
X94200Y-70400D02*
G75*
G03X93750Y-69950I-450J0D01*
G74*
G01*
X93100Y-70400D02*
G75*
G03X93750Y-71050I650J0D01*
G74*
G01*
X94400Y-70400D02*
G75*
G03X93750Y-69750I-650J0D01*
G74*
G01*
X92900Y-70400D02*
G75*
G03X93750Y-71250I850J0D01*
G74*
G01*
X94600Y-70400D02*
G75*
G03X93750Y-69550I-850J0D01*
G74*
G01*
G54D15*
X76500Y-69380D02*
X75000Y-69380D01*
G54D16*
X76457Y-70400D02*
G75*
G03X76457Y-70400I-707J0D01*
G74*
G01*
G54D13*
X74999Y-69400D02*
G75*
G03X76500Y-69400I750J-999D01*
G74*
G01*
G54D14*
X75300Y-70400D02*
G75*
G03X75750Y-70850I450J0D01*
G74*
G01*
X76200Y-70400D02*
G75*
G03X75750Y-69950I-450J0D01*
G74*
G01*
X75100Y-70400D02*
G75*
G03X75750Y-71050I650J0D01*
G74*
G01*
X76400Y-70400D02*
G75*
G03X75750Y-69750I-650J0D01*
G74*
G01*
X74900Y-70400D02*
G75*
G03X75750Y-71250I850J0D01*
G74*
G01*
X76600Y-70400D02*
G75*
G03X75750Y-69550I-850J0D01*
G74*
G01*
G54D15*
X90000Y-69380D02*
X88500Y-69380D01*
G54D16*
X89957Y-70400D02*
G75*
G03X89957Y-70400I-707J0D01*
G74*
G01*
G54D13*
X88499Y-69400D02*
G75*
G03X90000Y-69400I750J-999D01*
G74*
G01*
G54D14*
X88800Y-70400D02*
G75*
G03X89250Y-70850I450J0D01*
G74*
G01*
X89700Y-70400D02*
G75*
G03X89250Y-69950I-450J0D01*
G74*
G01*
X88600Y-70400D02*
G75*
G03X89250Y-71050I650J0D01*
G74*
G01*
X89900Y-70400D02*
G75*
G03X89250Y-69750I-650J0D01*
G74*
G01*
X88400Y-70400D02*
G75*
G03X89250Y-71250I850J0D01*
G74*
G01*
X90100Y-70400D02*
G75*
G03X89250Y-69550I-850J0D01*
G74*
G01*
G54D15*
X72000Y-69380D02*
X70500Y-69380D01*
G54D16*
X71957Y-70400D02*
G75*
G03X71957Y-70400I-707J0D01*
G74*
G01*
G54D13*
X70499Y-69400D02*
G75*
G03X72000Y-69400I750J-999D01*
G74*
G01*
G54D14*
X70800Y-70400D02*
G75*
G03X71250Y-70850I450J0D01*
G74*
G01*
X71700Y-70400D02*
G75*
G03X71250Y-69950I-450J0D01*
G74*
G01*
X70600Y-70400D02*
G75*
G03X71250Y-71050I650J0D01*
G74*
G01*
X71900Y-70400D02*
G75*
G03X71250Y-69750I-650J0D01*
G74*
G01*
X70400Y-70400D02*
G75*
G03X71250Y-71250I850J0D01*
G74*
G01*
X72100Y-70400D02*
G75*
G03X71250Y-69550I-850J0D01*
G74*
G01*
G54D15*
X103500Y-69380D02*
X102000Y-69380D01*
G54D16*
X103457Y-70400D02*
G75*
G03X103457Y-70400I-707J0D01*
G74*
G01*
G54D13*
X101999Y-69400D02*
G75*
G03X103500Y-69400I750J-999D01*
G74*
G01*
G54D14*
X102300Y-70400D02*
G75*
G03X102750Y-70850I450J0D01*
G74*
G01*
X103200Y-70400D02*
G75*
G03X102750Y-69950I-450J0D01*
G74*
G01*
X102100Y-70400D02*
G75*
G03X102750Y-71050I650J0D01*
G74*
G01*
X103400Y-70400D02*
G75*
G03X102750Y-69750I-650J0D01*
G74*
G01*
X101900Y-70400D02*
G75*
G03X102750Y-71250I850J0D01*
G74*
G01*
X103600Y-70400D02*
G75*
G03X102750Y-69550I-850J0D01*
G74*
G01*
G54D15*
X85500Y-69380D02*
X84000Y-69380D01*
G54D16*
X85457Y-70400D02*
G75*
G03X85457Y-70400I-707J0D01*
G74*
G01*
G54D13*
X83999Y-69400D02*
G75*
G03X85500Y-69400I750J-999D01*
G74*
G01*
G54D14*
X84300Y-70400D02*
G75*
G03X84750Y-70850I450J0D01*
G74*
G01*
X85200Y-70400D02*
G75*
G03X84750Y-69950I-450J0D01*
G74*
G01*
X84100Y-70400D02*
G75*
G03X84750Y-71050I650J0D01*
G74*
G01*
X85400Y-70400D02*
G75*
G03X84750Y-69750I-650J0D01*
G74*
G01*
X83900Y-70400D02*
G75*
G03X84750Y-71250I850J0D01*
G74*
G01*
X85600Y-70400D02*
G75*
G03X84750Y-69550I-850J0D01*
G74*
G01*
G54D15*
X81000Y-69380D02*
X79500Y-69380D01*
G54D16*
X80957Y-70400D02*
G75*
G03X80957Y-70400I-707J0D01*
G74*
G01*
G54D13*
X79499Y-69400D02*
G75*
G03X81000Y-69400I750J-999D01*
G74*
G01*
G54D14*
X79800Y-70400D02*
G75*
G03X80250Y-70850I450J0D01*
G74*
G01*
X80700Y-70400D02*
G75*
G03X80250Y-69950I-450J0D01*
G74*
G01*
X79600Y-70400D02*
G75*
G03X80250Y-71050I650J0D01*
G74*
G01*
X80900Y-70400D02*
G75*
G03X80250Y-69750I-650J0D01*
G74*
G01*
X79400Y-70400D02*
G75*
G03X80250Y-71250I850J0D01*
G74*
G01*
X81100Y-70400D02*
G75*
G03X80250Y-69550I-850J0D01*
G74*
G01*
G54D15*
X99000Y-69380D02*
X97500Y-69380D01*
G54D16*
X98957Y-70400D02*
G75*
G03X98957Y-70400I-707J0D01*
G74*
G01*
G54D13*
X97499Y-69400D02*
G75*
G03X99000Y-69400I750J-999D01*
G74*
G01*
G54D14*
X97800Y-70400D02*
G75*
G03X98250Y-70850I450J0D01*
G74*
G01*
X98700Y-70400D02*
G75*
G03X98250Y-69950I-450J0D01*
G74*
G01*
X97600Y-70400D02*
G75*
G03X98250Y-71050I650J0D01*
G74*
G01*
X98900Y-70400D02*
G75*
G03X98250Y-69750I-650J0D01*
G74*
G01*
X97400Y-70400D02*
G75*
G03X98250Y-71250I850J0D01*
G74*
G01*
X99100Y-70400D02*
G75*
G03X98250Y-69550I-850J0D01*
G74*
G01*
G54D17*
X82300Y-58800D02*
X82300Y-58800D01*
X82300Y-58800D02*
X82800Y-58800D01*
X82800Y-58800D02*
X82800Y-59800D01*
X82800Y-59800D02*
X82300Y-59800D01*
X82300Y-58300D02*
X91300Y-58300D01*
X91300Y-58300D02*
X91300Y-60300D01*
X91300Y-60300D02*
X82300Y-60300D01*
X82300Y-60300D02*
X82300Y-58300D01*
X93600Y-58800D02*
X93600Y-58800D01*
X93600Y-58800D02*
X94100Y-58800D01*
X94100Y-58800D02*
X94100Y-59800D01*
X94100Y-59800D02*
X93600Y-59800D01*
X93600Y-58300D02*
X102600Y-58300D01*
X102600Y-58300D02*
X102600Y-60300D01*
X102600Y-60300D02*
X93600Y-60300D01*
X93600Y-60300D02*
X93600Y-58300D01*
G54D18*
X75301Y-66900D02*
G75*
G03X75301Y-66900I-1001J0D01*
G74*
G01*
G54D12*
X70000Y-78400D02*
X70000Y-81400D01*
X78000Y-81400D02*
X78000Y-78400D01*
X78000Y-80900D02*
X70000Y-80900D01*
X70000Y-78400D02*
X78000Y-78400D01*
X70000Y-81400D02*
X78000Y-81400D01*
X78000Y-78400D02*
X78000Y-81400D01*
X86000Y-81400D02*
X86000Y-78400D01*
X86000Y-80900D02*
X78000Y-80900D01*
X78000Y-78400D02*
X86000Y-78400D01*
X78000Y-81400D02*
X86000Y-81400D01*
X87000Y-78400D02*
X87000Y-81400D01*
X95000Y-81400D02*
X95000Y-78400D01*
X95000Y-80900D02*
X87000Y-80900D01*
X87000Y-78400D02*
X95000Y-78400D01*
X87000Y-81400D02*
X95000Y-81400D01*
X95000Y-78400D02*
X95000Y-81400D01*
X103000Y-81400D02*
X103000Y-78400D01*
X103000Y-80900D02*
X95000Y-80900D01*
X95000Y-78400D02*
X103000Y-78400D01*
X95000Y-81400D02*
X103000Y-81400D01*
X81700Y-65200D02*
X81700Y-65500D01*
X81700Y-65500D02*
X81300Y-65500D01*
X81300Y-65500D02*
X81300Y-67900D01*
X81300Y-67900D02*
X81700Y-67900D01*
X81700Y-67900D02*
X81700Y-68200D01*
X81700Y-67900D02*
X82100Y-67900D01*
X82100Y-67900D02*
X82100Y-65500D01*
X82100Y-65500D02*
X81700Y-65500D01*
X81300Y-65700D02*
X82100Y-65700D01*
X82100Y-65800D02*
X81300Y-65800D01*
X84800Y-65200D02*
X84800Y-65500D01*
X84800Y-65500D02*
X84400Y-65500D01*
X84400Y-65500D02*
X84400Y-67900D01*
X84400Y-67900D02*
X84800Y-67900D01*
X84800Y-67900D02*
X84800Y-68200D01*
X84800Y-67900D02*
X85200Y-67900D01*
X85200Y-67900D02*
X85200Y-65500D01*
X85200Y-65500D02*
X84800Y-65500D01*
X84400Y-65700D02*
X85200Y-65700D01*
X85200Y-65800D02*
X84400Y-65800D01*
X87800Y-65200D02*
X87800Y-65500D01*
X87800Y-65500D02*
X87400Y-65500D01*
X87400Y-65500D02*
X87400Y-67900D01*
X87400Y-67900D02*
X87800Y-67900D01*
X87800Y-67900D02*
X87800Y-68200D01*
X87800Y-67900D02*
X88200Y-67900D01*
X88200Y-67900D02*
X88200Y-65500D01*
X88200Y-65500D02*
X87800Y-65500D01*
X87400Y-65700D02*
X88200Y-65700D01*
X88200Y-65800D02*
X87400Y-65800D01*
X90800Y-65200D02*
X90800Y-65500D01*
X90800Y-65500D02*
X90400Y-65500D01*
X90400Y-65500D02*
X90400Y-67900D01*
X90400Y-67900D02*
X90800Y-67900D01*
X90800Y-67900D02*
X90800Y-68200D01*
X90800Y-67900D02*
X91200Y-67900D01*
X91200Y-67900D02*
X91200Y-65500D01*
X91200Y-65500D02*
X90800Y-65500D01*
X90400Y-65700D02*
X91200Y-65700D01*
X91200Y-65800D02*
X90400Y-65800D01*
X96800Y-65200D02*
X96800Y-65500D01*
X96800Y-65500D02*
X96400Y-65500D01*
X96400Y-65500D02*
X96400Y-67900D01*
X96400Y-67900D02*
X96800Y-67900D01*
X96800Y-67900D02*
X96800Y-68200D01*
X96800Y-67900D02*
X97200Y-67900D01*
X97200Y-67900D02*
X97200Y-65500D01*
X97200Y-65500D02*
X96800Y-65500D01*
X96400Y-65700D02*
X97200Y-65700D01*
X97200Y-65800D02*
X96400Y-65800D01*
X99800Y-65200D02*
X99800Y-65500D01*
X99800Y-65500D02*
X99400Y-65500D01*
X99400Y-65500D02*
X99400Y-67900D01*
X99400Y-67900D02*
X99800Y-67900D01*
X99800Y-67900D02*
X99800Y-68200D01*
X99800Y-67900D02*
X100200Y-67900D01*
X100200Y-67900D02*
X100200Y-65500D01*
X100200Y-65500D02*
X99800Y-65500D01*
X99400Y-65700D02*
X100200Y-65700D01*
X100200Y-65800D02*
X99400Y-65800D01*
X102800Y-65200D02*
X102800Y-65500D01*
X102800Y-65500D02*
X102400Y-65500D01*
X102400Y-65500D02*
X102400Y-67900D01*
X102400Y-67900D02*
X102800Y-67900D01*
X102800Y-67900D02*
X102800Y-68200D01*
X102800Y-67900D02*
X103200Y-67900D01*
X103200Y-67900D02*
X103200Y-65500D01*
X103200Y-65500D02*
X102800Y-65500D01*
X102400Y-65700D02*
X103200Y-65700D01*
X103200Y-65800D02*
X102400Y-65800D01*
X93800Y-65200D02*
X93800Y-65500D01*
X93800Y-65500D02*
X93400Y-65500D01*
X93400Y-65500D02*
X93400Y-67900D01*
X93400Y-67900D02*
X93800Y-67900D01*
X93800Y-67900D02*
X93800Y-68200D01*
X93800Y-67900D02*
X94200Y-67900D01*
X94200Y-67900D02*
X94200Y-65500D01*
X94200Y-65500D02*
X93800Y-65500D01*
X93400Y-65700D02*
X94200Y-65700D01*
X94200Y-65800D02*
X93400Y-65800D01*
G54D17*
X69500Y-56400D02*
G75*
G03X69500Y-56400I-900J0D01*
G74*
G01*
X105300Y-56400D02*
G75*
G03X105300Y-56400I-900J0D01*
G74*
G01*
X105300Y-81000D02*
G75*
G03X105300Y-81000I-900J0D01*
G74*
G01*
X69500Y-81000D02*
G75*
G03X69500Y-81000I-900J0D01*
G74*
G01*
G54D15*
X92761Y-65700D02*
X92723Y-65680D01*
X92685Y-65642D01*
X92628Y-65585D01*
X92590Y-65566D01*
X92552Y-65566D01*
X92571Y-65661D02*
X92533Y-65642D01*
X92495Y-65604D01*
X92476Y-65528D01*
X92476Y-65395D01*
X92495Y-65319D01*
X92533Y-65280D01*
X92571Y-65261D01*
X92647Y-65261D01*
X92685Y-65280D01*
X92723Y-65319D01*
X92742Y-65395D01*
X92742Y-65528D01*
X92723Y-65604D01*
X92685Y-65642D01*
X92647Y-65661D01*
X92571Y-65661D01*
X92971Y-65433D02*
X92933Y-65414D01*
X92914Y-65395D01*
X92895Y-65357D01*
X92895Y-65338D01*
X92914Y-65300D01*
X92933Y-65280D01*
X92971Y-65261D01*
X93047Y-65261D01*
X93085Y-65280D01*
X93104Y-65300D01*
X93123Y-65338D01*
X93123Y-65357D01*
X93104Y-65395D01*
X93085Y-65414D01*
X93047Y-65433D01*
X92971Y-65433D01*
X92933Y-65452D01*
X92914Y-65471D01*
X92895Y-65509D01*
X92895Y-65585D01*
X92914Y-65623D01*
X92933Y-65642D01*
X92971Y-65661D01*
X93047Y-65661D01*
X93085Y-65642D01*
X93104Y-65623D01*
X93123Y-65585D01*
X93123Y-65509D01*
X93104Y-65471D01*
X93085Y-65452D01*
X93047Y-65433D01*
X101761Y-65700D02*
X101723Y-65680D01*
X101685Y-65642D01*
X101628Y-65585D01*
X101590Y-65566D01*
X101552Y-65566D01*
X101571Y-65661D02*
X101533Y-65642D01*
X101495Y-65604D01*
X101476Y-65528D01*
X101476Y-65395D01*
X101495Y-65319D01*
X101533Y-65280D01*
X101571Y-65261D01*
X101647Y-65261D01*
X101685Y-65280D01*
X101723Y-65319D01*
X101742Y-65395D01*
X101742Y-65528D01*
X101723Y-65604D01*
X101685Y-65642D01*
X101647Y-65661D01*
X101571Y-65661D01*
X101876Y-65261D02*
X102142Y-65261D01*
X101971Y-65661D01*
X98761Y-65700D02*
X98723Y-65680D01*
X98685Y-65642D01*
X98628Y-65585D01*
X98590Y-65566D01*
X98552Y-65566D01*
X98571Y-65661D02*
X98533Y-65642D01*
X98495Y-65604D01*
X98476Y-65528D01*
X98476Y-65395D01*
X98495Y-65319D01*
X98533Y-65280D01*
X98571Y-65261D01*
X98647Y-65261D01*
X98685Y-65280D01*
X98723Y-65319D01*
X98742Y-65395D01*
X98742Y-65528D01*
X98723Y-65604D01*
X98685Y-65642D01*
X98647Y-65661D01*
X98571Y-65661D01*
X99085Y-65261D02*
X99009Y-65261D01*
X98971Y-65280D01*
X98952Y-65300D01*
X98914Y-65357D01*
X98895Y-65433D01*
X98895Y-65585D01*
X98914Y-65623D01*
X98933Y-65642D01*
X98971Y-65661D01*
X99047Y-65661D01*
X99085Y-65642D01*
X99104Y-65623D01*
X99123Y-65585D01*
X99123Y-65490D01*
X99104Y-65452D01*
X99085Y-65433D01*
X99047Y-65414D01*
X98971Y-65414D01*
X98933Y-65433D01*
X98914Y-65452D01*
X98895Y-65490D01*
X95761Y-65700D02*
X95723Y-65680D01*
X95685Y-65642D01*
X95628Y-65585D01*
X95590Y-65566D01*
X95552Y-65566D01*
X95571Y-65661D02*
X95533Y-65642D01*
X95495Y-65604D01*
X95476Y-65528D01*
X95476Y-65395D01*
X95495Y-65319D01*
X95533Y-65280D01*
X95571Y-65261D01*
X95647Y-65261D01*
X95685Y-65280D01*
X95723Y-65319D01*
X95742Y-65395D01*
X95742Y-65528D01*
X95723Y-65604D01*
X95685Y-65642D01*
X95647Y-65661D01*
X95571Y-65661D01*
X96104Y-65261D02*
X95914Y-65261D01*
X95895Y-65452D01*
X95914Y-65433D01*
X95952Y-65414D01*
X96047Y-65414D01*
X96085Y-65433D01*
X96104Y-65452D01*
X96123Y-65490D01*
X96123Y-65585D01*
X96104Y-65623D01*
X96085Y-65642D01*
X96047Y-65661D01*
X95952Y-65661D01*
X95914Y-65642D01*
X95895Y-65623D01*
X89761Y-65700D02*
X89723Y-65680D01*
X89685Y-65642D01*
X89628Y-65585D01*
X89590Y-65566D01*
X89552Y-65566D01*
X89571Y-65661D02*
X89533Y-65642D01*
X89495Y-65604D01*
X89476Y-65528D01*
X89476Y-65395D01*
X89495Y-65319D01*
X89533Y-65280D01*
X89571Y-65261D01*
X89647Y-65261D01*
X89685Y-65280D01*
X89723Y-65319D01*
X89742Y-65395D01*
X89742Y-65528D01*
X89723Y-65604D01*
X89685Y-65642D01*
X89647Y-65661D01*
X89571Y-65661D01*
X90085Y-65395D02*
X90085Y-65661D01*
X89990Y-65242D02*
X89895Y-65528D01*
X90142Y-65528D01*
X86761Y-65700D02*
X86723Y-65680D01*
X86685Y-65642D01*
X86628Y-65585D01*
X86590Y-65566D01*
X86552Y-65566D01*
X86571Y-65661D02*
X86533Y-65642D01*
X86495Y-65604D01*
X86476Y-65528D01*
X86476Y-65395D01*
X86495Y-65319D01*
X86533Y-65280D01*
X86571Y-65261D01*
X86647Y-65261D01*
X86685Y-65280D01*
X86723Y-65319D01*
X86742Y-65395D01*
X86742Y-65528D01*
X86723Y-65604D01*
X86685Y-65642D01*
X86647Y-65661D01*
X86571Y-65661D01*
X86876Y-65261D02*
X87123Y-65261D01*
X86990Y-65414D01*
X87047Y-65414D01*
X87085Y-65433D01*
X87104Y-65452D01*
X87123Y-65490D01*
X87123Y-65585D01*
X87104Y-65623D01*
X87085Y-65642D01*
X87047Y-65661D01*
X86933Y-65661D01*
X86895Y-65642D01*
X86876Y-65623D01*
X80661Y-65700D02*
X80623Y-65680D01*
X80585Y-65642D01*
X80528Y-65585D01*
X80490Y-65566D01*
X80452Y-65566D01*
X80471Y-65661D02*
X80433Y-65642D01*
X80395Y-65604D01*
X80376Y-65528D01*
X80376Y-65395D01*
X80395Y-65319D01*
X80433Y-65280D01*
X80471Y-65261D01*
X80547Y-65261D01*
X80585Y-65280D01*
X80623Y-65319D01*
X80642Y-65395D01*
X80642Y-65528D01*
X80623Y-65604D01*
X80585Y-65642D01*
X80547Y-65661D01*
X80471Y-65661D01*
X81023Y-65661D02*
X80795Y-65661D01*
X80909Y-65661D02*
X80909Y-65261D01*
X80871Y-65319D01*
X80833Y-65357D01*
X80795Y-65376D01*
X83761Y-65700D02*
X83723Y-65680D01*
X83685Y-65642D01*
X83628Y-65585D01*
X83590Y-65566D01*
X83552Y-65566D01*
X83571Y-65661D02*
X83533Y-65642D01*
X83495Y-65604D01*
X83476Y-65528D01*
X83476Y-65395D01*
X83495Y-65319D01*
X83533Y-65280D01*
X83571Y-65261D01*
X83647Y-65261D01*
X83685Y-65280D01*
X83723Y-65319D01*
X83742Y-65395D01*
X83742Y-65528D01*
X83723Y-65604D01*
X83685Y-65642D01*
X83647Y-65661D01*
X83571Y-65661D01*
X83895Y-65300D02*
X83914Y-65280D01*
X83952Y-65261D01*
X84047Y-65261D01*
X84085Y-65280D01*
X84104Y-65300D01*
X84123Y-65338D01*
X84123Y-65376D01*
X84104Y-65433D01*
X83876Y-65661D01*
X84123Y-65661D01*
X78195Y-76261D02*
X78195Y-76585D01*
X78214Y-76623D01*
X78233Y-76642D01*
X78271Y-76661D01*
X78347Y-76661D01*
X78385Y-76642D01*
X78404Y-76623D01*
X78423Y-76585D01*
X78423Y-76261D01*
X78804Y-76261D02*
X78614Y-76261D01*
X78595Y-76452D01*
X78614Y-76433D01*
X78652Y-76414D01*
X78747Y-76414D01*
X78785Y-76433D01*
X78804Y-76452D01*
X78823Y-76490D01*
X78823Y-76585D01*
X78804Y-76623D01*
X78785Y-76642D01*
X78747Y-76661D01*
X78652Y-76661D01*
X78614Y-76642D01*
X78595Y-76623D01*
X78719Y-72761D02*
X78947Y-72761D01*
X78833Y-73161D02*
X78833Y-72761D01*
X79309Y-73161D02*
X79176Y-72971D01*
X79080Y-73161D02*
X79080Y-72761D01*
X79233Y-72761D01*
X79271Y-72780D01*
X79290Y-72800D01*
X79309Y-72838D01*
X79309Y-72895D01*
X79290Y-72933D01*
X79271Y-72952D01*
X79233Y-72971D01*
X79080Y-72971D01*
X79480Y-73161D02*
X79480Y-72761D01*
X79652Y-73047D02*
X79842Y-73047D01*
X79614Y-73161D02*
X79747Y-72761D01*
X79880Y-73161D01*
X80242Y-73123D02*
X80223Y-73142D01*
X80166Y-73161D01*
X80128Y-73161D01*
X80071Y-73142D01*
X80033Y-73104D01*
X80014Y-73066D01*
X79995Y-72990D01*
X79995Y-72933D01*
X80014Y-72857D01*
X80033Y-72819D01*
X80071Y-72780D01*
X80128Y-72761D01*
X80166Y-72761D01*
X80223Y-72780D01*
X80242Y-72800D01*
X87004Y-76261D02*
X87004Y-76585D01*
X87023Y-76623D01*
X87042Y-76642D01*
X87080Y-76661D01*
X87157Y-76661D01*
X87195Y-76642D01*
X87214Y-76623D01*
X87233Y-76585D01*
X87233Y-76261D01*
X87633Y-76661D02*
X87404Y-76661D01*
X87519Y-76661D02*
X87519Y-76261D01*
X87480Y-76319D01*
X87442Y-76357D01*
X87404Y-76376D01*
X87880Y-76261D02*
X87919Y-76261D01*
X87957Y-76280D01*
X87976Y-76300D01*
X87995Y-76338D01*
X88014Y-76414D01*
X88014Y-76509D01*
X87995Y-76585D01*
X87976Y-76623D01*
X87957Y-76642D01*
X87919Y-76661D01*
X87880Y-76661D01*
X87842Y-76642D01*
X87823Y-76623D01*
X87804Y-76585D01*
X87785Y-76509D01*
X87785Y-76414D01*
X87804Y-76338D01*
X87823Y-76300D01*
X87842Y-76280D01*
X87880Y-76261D01*
X87719Y-72761D02*
X87947Y-72761D01*
X87833Y-73161D02*
X87833Y-72761D01*
X88309Y-73161D02*
X88176Y-72971D01*
X88080Y-73161D02*
X88080Y-72761D01*
X88233Y-72761D01*
X88271Y-72780D01*
X88290Y-72800D01*
X88309Y-72838D01*
X88309Y-72895D01*
X88290Y-72933D01*
X88271Y-72952D01*
X88233Y-72971D01*
X88080Y-72971D01*
X88480Y-73161D02*
X88480Y-72761D01*
X88652Y-73047D02*
X88842Y-73047D01*
X88614Y-73161D02*
X88747Y-72761D01*
X88880Y-73161D01*
X89242Y-73123D02*
X89223Y-73142D01*
X89166Y-73161D01*
X89128Y-73161D01*
X89071Y-73142D01*
X89033Y-73104D01*
X89014Y-73066D01*
X88995Y-72990D01*
X88995Y-72933D01*
X89014Y-72857D01*
X89033Y-72819D01*
X89071Y-72780D01*
X89128Y-72761D01*
X89166Y-72761D01*
X89223Y-72780D01*
X89242Y-72800D01*
X100695Y-76261D02*
X100695Y-76585D01*
X100714Y-76623D01*
X100733Y-76642D01*
X100771Y-76661D01*
X100847Y-76661D01*
X100885Y-76642D01*
X100904Y-76623D01*
X100923Y-76585D01*
X100923Y-76261D01*
X101133Y-76661D02*
X101209Y-76661D01*
X101247Y-76642D01*
X101266Y-76623D01*
X101304Y-76566D01*
X101323Y-76490D01*
X101323Y-76338D01*
X101304Y-76300D01*
X101285Y-76280D01*
X101247Y-76261D01*
X101171Y-76261D01*
X101133Y-76280D01*
X101114Y-76300D01*
X101095Y-76338D01*
X101095Y-76433D01*
X101114Y-76471D01*
X101133Y-76490D01*
X101171Y-76509D01*
X101247Y-76509D01*
X101285Y-76490D01*
X101304Y-76471D01*
X101323Y-76433D01*
X101119Y-72761D02*
X101347Y-72761D01*
X101233Y-73161D02*
X101233Y-72761D01*
X101709Y-73161D02*
X101576Y-72971D01*
X101480Y-73161D02*
X101480Y-72761D01*
X101633Y-72761D01*
X101671Y-72780D01*
X101690Y-72800D01*
X101709Y-72838D01*
X101709Y-72895D01*
X101690Y-72933D01*
X101671Y-72952D01*
X101633Y-72971D01*
X101480Y-72971D01*
X101880Y-73161D02*
X101880Y-72761D01*
X102052Y-73047D02*
X102242Y-73047D01*
X102014Y-73161D02*
X102147Y-72761D01*
X102280Y-73161D01*
X102642Y-73123D02*
X102623Y-73142D01*
X102566Y-73161D01*
X102528Y-73161D01*
X102471Y-73142D01*
X102433Y-73104D01*
X102414Y-73066D01*
X102395Y-72990D01*
X102395Y-72933D01*
X102414Y-72857D01*
X102433Y-72819D01*
X102471Y-72780D01*
X102528Y-72761D01*
X102566Y-72761D01*
X102623Y-72780D01*
X102642Y-72800D01*
X96195Y-76261D02*
X96195Y-76585D01*
X96214Y-76623D01*
X96233Y-76642D01*
X96271Y-76661D01*
X96347Y-76661D01*
X96385Y-76642D01*
X96404Y-76623D01*
X96423Y-76585D01*
X96423Y-76261D01*
X96671Y-76433D02*
X96633Y-76414D01*
X96614Y-76395D01*
X96595Y-76357D01*
X96595Y-76338D01*
X96614Y-76300D01*
X96633Y-76280D01*
X96671Y-76261D01*
X96747Y-76261D01*
X96785Y-76280D01*
X96804Y-76300D01*
X96823Y-76338D01*
X96823Y-76357D01*
X96804Y-76395D01*
X96785Y-76414D01*
X96747Y-76433D01*
X96671Y-76433D01*
X96633Y-76452D01*
X96614Y-76471D01*
X96595Y-76509D01*
X96595Y-76585D01*
X96614Y-76623D01*
X96633Y-76642D01*
X96671Y-76661D01*
X96747Y-76661D01*
X96785Y-76642D01*
X96804Y-76623D01*
X96823Y-76585D01*
X96823Y-76509D01*
X96804Y-76471D01*
X96785Y-76452D01*
X96747Y-76433D01*
X96619Y-72761D02*
X96847Y-72761D01*
X96733Y-73161D02*
X96733Y-72761D01*
X97209Y-73161D02*
X97076Y-72971D01*
X96980Y-73161D02*
X96980Y-72761D01*
X97133Y-72761D01*
X97171Y-72780D01*
X97190Y-72800D01*
X97209Y-72838D01*
X97209Y-72895D01*
X97190Y-72933D01*
X97171Y-72952D01*
X97133Y-72971D01*
X96980Y-72971D01*
X97380Y-73161D02*
X97380Y-72761D01*
X97552Y-73047D02*
X97742Y-73047D01*
X97514Y-73161D02*
X97647Y-72761D01*
X97780Y-73161D01*
X98142Y-73123D02*
X98123Y-73142D01*
X98066Y-73161D01*
X98028Y-73161D01*
X97971Y-73142D01*
X97933Y-73104D01*
X97914Y-73066D01*
X97895Y-72990D01*
X97895Y-72933D01*
X97914Y-72857D01*
X97933Y-72819D01*
X97971Y-72780D01*
X98028Y-72761D01*
X98066Y-72761D01*
X98123Y-72780D01*
X98142Y-72800D01*
X91695Y-76261D02*
X91695Y-76585D01*
X91714Y-76623D01*
X91733Y-76642D01*
X91771Y-76661D01*
X91847Y-76661D01*
X91885Y-76642D01*
X91904Y-76623D01*
X91923Y-76585D01*
X91923Y-76261D01*
X92076Y-76261D02*
X92342Y-76261D01*
X92171Y-76661D01*
X92219Y-72761D02*
X92447Y-72761D01*
X92333Y-73161D02*
X92333Y-72761D01*
X92809Y-73161D02*
X92676Y-72971D01*
X92580Y-73161D02*
X92580Y-72761D01*
X92733Y-72761D01*
X92771Y-72780D01*
X92790Y-72800D01*
X92809Y-72838D01*
X92809Y-72895D01*
X92790Y-72933D01*
X92771Y-72952D01*
X92733Y-72971D01*
X92580Y-72971D01*
X92980Y-73161D02*
X92980Y-72761D01*
X93152Y-73047D02*
X93342Y-73047D01*
X93114Y-73161D02*
X93247Y-72761D01*
X93380Y-73161D01*
X93742Y-73123D02*
X93723Y-73142D01*
X93666Y-73161D01*
X93628Y-73161D01*
X93571Y-73142D01*
X93533Y-73104D01*
X93514Y-73066D01*
X93495Y-72990D01*
X93495Y-72933D01*
X93514Y-72857D01*
X93533Y-72819D01*
X93571Y-72780D01*
X93628Y-72761D01*
X93666Y-72761D01*
X93723Y-72780D01*
X93742Y-72800D01*
X82695Y-76261D02*
X82695Y-76585D01*
X82714Y-76623D01*
X82733Y-76642D01*
X82771Y-76661D01*
X82847Y-76661D01*
X82885Y-76642D01*
X82904Y-76623D01*
X82923Y-76585D01*
X82923Y-76261D01*
X83285Y-76261D02*
X83209Y-76261D01*
X83171Y-76280D01*
X83152Y-76300D01*
X83114Y-76357D01*
X83095Y-76433D01*
X83095Y-76585D01*
X83114Y-76623D01*
X83133Y-76642D01*
X83171Y-76661D01*
X83247Y-76661D01*
X83285Y-76642D01*
X83304Y-76623D01*
X83323Y-76585D01*
X83323Y-76490D01*
X83304Y-76452D01*
X83285Y-76433D01*
X83247Y-76414D01*
X83171Y-76414D01*
X83133Y-76433D01*
X83114Y-76452D01*
X83095Y-76490D01*
X83219Y-72761D02*
X83447Y-72761D01*
X83333Y-73161D02*
X83333Y-72761D01*
X83809Y-73161D02*
X83676Y-72971D01*
X83580Y-73161D02*
X83580Y-72761D01*
X83733Y-72761D01*
X83771Y-72780D01*
X83790Y-72800D01*
X83809Y-72838D01*
X83809Y-72895D01*
X83790Y-72933D01*
X83771Y-72952D01*
X83733Y-72971D01*
X83580Y-72971D01*
X83980Y-73161D02*
X83980Y-72761D01*
X84152Y-73047D02*
X84342Y-73047D01*
X84114Y-73161D02*
X84247Y-72761D01*
X84380Y-73161D01*
X84742Y-73123D02*
X84723Y-73142D01*
X84666Y-73161D01*
X84628Y-73161D01*
X84571Y-73142D01*
X84533Y-73104D01*
X84514Y-73066D01*
X84495Y-72990D01*
X84495Y-72933D01*
X84514Y-72857D01*
X84533Y-72819D01*
X84571Y-72780D01*
X84628Y-72761D01*
X84666Y-72761D01*
X84723Y-72780D01*
X84742Y-72800D01*
X73695Y-76261D02*
X73695Y-76585D01*
X73714Y-76623D01*
X73733Y-76642D01*
X73771Y-76661D01*
X73847Y-76661D01*
X73885Y-76642D01*
X73904Y-76623D01*
X73923Y-76585D01*
X73923Y-76261D01*
X74285Y-76395D02*
X74285Y-76661D01*
X74190Y-76242D02*
X74095Y-76528D01*
X74342Y-76528D01*
X74219Y-72761D02*
X74447Y-72761D01*
X74333Y-73161D02*
X74333Y-72761D01*
X74809Y-73161D02*
X74676Y-72971D01*
X74580Y-73161D02*
X74580Y-72761D01*
X74733Y-72761D01*
X74771Y-72780D01*
X74790Y-72800D01*
X74809Y-72838D01*
X74809Y-72895D01*
X74790Y-72933D01*
X74771Y-72952D01*
X74733Y-72971D01*
X74580Y-72971D01*
X74980Y-73161D02*
X74980Y-72761D01*
X75152Y-73047D02*
X75342Y-73047D01*
X75114Y-73161D02*
X75247Y-72761D01*
X75380Y-73161D01*
X75742Y-73123D02*
X75723Y-73142D01*
X75666Y-73161D01*
X75628Y-73161D01*
X75571Y-73142D01*
X75533Y-73104D01*
X75514Y-73066D01*
X75495Y-72990D01*
X75495Y-72933D01*
X75514Y-72857D01*
X75533Y-72819D01*
X75571Y-72780D01*
X75628Y-72761D01*
X75666Y-72761D01*
X75723Y-72780D01*
X75742Y-72800D01*
X69195Y-76261D02*
X69195Y-76585D01*
X69214Y-76623D01*
X69233Y-76642D01*
X69271Y-76661D01*
X69347Y-76661D01*
X69385Y-76642D01*
X69404Y-76623D01*
X69423Y-76585D01*
X69423Y-76261D01*
X69576Y-76261D02*
X69823Y-76261D01*
X69690Y-76414D01*
X69747Y-76414D01*
X69785Y-76433D01*
X69804Y-76452D01*
X69823Y-76490D01*
X69823Y-76585D01*
X69804Y-76623D01*
X69785Y-76642D01*
X69747Y-76661D01*
X69633Y-76661D01*
X69595Y-76642D01*
X69576Y-76623D01*
X69719Y-72761D02*
X69947Y-72761D01*
X69833Y-73161D02*
X69833Y-72761D01*
X70309Y-73161D02*
X70176Y-72971D01*
X70080Y-73161D02*
X70080Y-72761D01*
X70233Y-72761D01*
X70271Y-72780D01*
X70290Y-72800D01*
X70309Y-72838D01*
X70309Y-72895D01*
X70290Y-72933D01*
X70271Y-72952D01*
X70233Y-72971D01*
X70080Y-72971D01*
X70480Y-73161D02*
X70480Y-72761D01*
X70652Y-73047D02*
X70842Y-73047D01*
X70614Y-73161D02*
X70747Y-72761D01*
X70880Y-73161D01*
X71242Y-73123D02*
X71223Y-73142D01*
X71166Y-73161D01*
X71128Y-73161D01*
X71071Y-73142D01*
X71033Y-73104D01*
X71014Y-73066D01*
X70995Y-72990D01*
X70995Y-72933D01*
X71014Y-72857D01*
X71033Y-72819D01*
X71071Y-72780D01*
X71128Y-72761D01*
X71166Y-72761D01*
X71223Y-72780D01*
X71242Y-72800D01*
X94722Y-74821D02*
X94460Y-74988D01*
X94722Y-75107D02*
X94172Y-75107D01*
X94172Y-74916D01*
X94198Y-74869D01*
X94225Y-74845D01*
X94277Y-74821D01*
X94355Y-74821D01*
X94408Y-74845D01*
X94434Y-74869D01*
X94460Y-74916D01*
X94460Y-75107D01*
X94722Y-74345D02*
X94722Y-74630D01*
X94722Y-74488D02*
X94172Y-74488D01*
X94251Y-74535D01*
X94303Y-74583D01*
X94329Y-74630D01*
X94722Y-73869D02*
X94722Y-74154D01*
X94722Y-74011D02*
X94172Y-74011D01*
X94251Y-74059D01*
X94303Y-74107D01*
X94329Y-74154D01*
X72822Y-65583D02*
X72560Y-65750D01*
X72822Y-65869D02*
X72272Y-65869D01*
X72272Y-65678D01*
X72298Y-65630D01*
X72325Y-65607D01*
X72377Y-65583D01*
X72455Y-65583D01*
X72508Y-65607D01*
X72534Y-65630D01*
X72560Y-65678D01*
X72560Y-65869D01*
X72822Y-65107D02*
X72822Y-65392D01*
X72822Y-65250D02*
X72272Y-65250D01*
X72351Y-65297D01*
X72403Y-65345D01*
X72429Y-65392D01*
X87222Y-71321D02*
X86960Y-71488D01*
X87222Y-71607D02*
X86672Y-71607D01*
X86672Y-71416D01*
X86698Y-71369D01*
X86725Y-71345D01*
X86777Y-71321D01*
X86855Y-71321D01*
X86908Y-71345D01*
X86934Y-71369D01*
X86960Y-71416D01*
X86960Y-71607D01*
X87222Y-70845D02*
X87222Y-71130D01*
X87222Y-70988D02*
X86672Y-70988D01*
X86751Y-71035D01*
X86803Y-71083D01*
X86829Y-71130D01*
X86908Y-70559D02*
X86882Y-70607D01*
X86855Y-70630D01*
X86803Y-70654D01*
X86777Y-70654D01*
X86725Y-70630D01*
X86698Y-70607D01*
X86672Y-70559D01*
X86672Y-70464D01*
X86698Y-70416D01*
X86725Y-70392D01*
X86777Y-70369D01*
X86803Y-70369D01*
X86855Y-70392D01*
X86882Y-70416D01*
X86908Y-70464D01*
X86908Y-70559D01*
X86934Y-70607D01*
X86960Y-70630D01*
X87013Y-70654D01*
X87117Y-70654D01*
X87170Y-70630D01*
X87196Y-70607D01*
X87222Y-70559D01*
X87222Y-70464D01*
X87196Y-70416D01*
X87170Y-70392D01*
X87117Y-70369D01*
X87013Y-70369D01*
X86960Y-70392D01*
X86934Y-70416D01*
X86908Y-70464D01*
X90222Y-74821D02*
X89960Y-74988D01*
X90222Y-75107D02*
X89672Y-75107D01*
X89672Y-74916D01*
X89698Y-74869D01*
X89725Y-74845D01*
X89777Y-74821D01*
X89855Y-74821D01*
X89908Y-74845D01*
X89934Y-74869D01*
X89960Y-74916D01*
X89960Y-75107D01*
X90222Y-74345D02*
X90222Y-74630D01*
X90222Y-74488D02*
X89672Y-74488D01*
X89751Y-74535D01*
X89803Y-74583D01*
X89829Y-74630D01*
X89672Y-74178D02*
X89672Y-73845D01*
X90222Y-74059D01*
X100722Y-71321D02*
X100460Y-71488D01*
X100722Y-71607D02*
X100172Y-71607D01*
X100172Y-71416D01*
X100198Y-71369D01*
X100225Y-71345D01*
X100277Y-71321D01*
X100355Y-71321D01*
X100408Y-71345D01*
X100434Y-71369D01*
X100460Y-71416D01*
X100460Y-71607D01*
X100722Y-70845D02*
X100722Y-71130D01*
X100722Y-70988D02*
X100172Y-70988D01*
X100251Y-71035D01*
X100303Y-71083D01*
X100329Y-71130D01*
X100172Y-70416D02*
X100172Y-70511D01*
X100198Y-70559D01*
X100225Y-70583D01*
X100303Y-70630D01*
X100408Y-70654D01*
X100617Y-70654D01*
X100670Y-70630D01*
X100696Y-70607D01*
X100722Y-70559D01*
X100722Y-70464D01*
X100696Y-70416D01*
X100670Y-70392D01*
X100617Y-70369D01*
X100486Y-70369D01*
X100434Y-70392D01*
X100408Y-70416D01*
X100382Y-70464D01*
X100382Y-70559D01*
X100408Y-70607D01*
X100434Y-70630D01*
X100486Y-70654D01*
X103622Y-74821D02*
X103360Y-74988D01*
X103622Y-75107D02*
X103072Y-75107D01*
X103072Y-74916D01*
X103098Y-74869D01*
X103125Y-74845D01*
X103177Y-74821D01*
X103255Y-74821D01*
X103308Y-74845D01*
X103334Y-74869D01*
X103360Y-74916D01*
X103360Y-75107D01*
X103622Y-74345D02*
X103622Y-74630D01*
X103622Y-74488D02*
X103072Y-74488D01*
X103151Y-74535D01*
X103203Y-74583D01*
X103229Y-74630D01*
X103072Y-73892D02*
X103072Y-74130D01*
X103334Y-74154D01*
X103308Y-74130D01*
X103282Y-74083D01*
X103282Y-73964D01*
X103308Y-73916D01*
X103334Y-73892D01*
X103386Y-73869D01*
X103517Y-73869D01*
X103570Y-73892D01*
X103596Y-73916D01*
X103622Y-73964D01*
X103622Y-74083D01*
X103596Y-74130D01*
X103570Y-74154D01*
X96222Y-71321D02*
X95960Y-71488D01*
X96222Y-71607D02*
X95672Y-71607D01*
X95672Y-71416D01*
X95698Y-71369D01*
X95725Y-71345D01*
X95777Y-71321D01*
X95855Y-71321D01*
X95908Y-71345D01*
X95934Y-71369D01*
X95960Y-71416D01*
X95960Y-71607D01*
X96222Y-70845D02*
X96222Y-71130D01*
X96222Y-70988D02*
X95672Y-70988D01*
X95751Y-71035D01*
X95803Y-71083D01*
X95829Y-71130D01*
X95855Y-70416D02*
X96222Y-70416D01*
X95646Y-70535D02*
X96039Y-70654D01*
X96039Y-70345D01*
X99222Y-74821D02*
X98960Y-74988D01*
X99222Y-75107D02*
X98672Y-75107D01*
X98672Y-74916D01*
X98698Y-74869D01*
X98725Y-74845D01*
X98777Y-74821D01*
X98855Y-74821D01*
X98908Y-74845D01*
X98934Y-74869D01*
X98960Y-74916D01*
X98960Y-75107D01*
X99222Y-74345D02*
X99222Y-74630D01*
X99222Y-74488D02*
X98672Y-74488D01*
X98751Y-74535D01*
X98803Y-74583D01*
X98829Y-74630D01*
X98672Y-74178D02*
X98672Y-73869D01*
X98882Y-74035D01*
X98882Y-73964D01*
X98908Y-73916D01*
X98934Y-73892D01*
X98986Y-73869D01*
X99117Y-73869D01*
X99170Y-73892D01*
X99196Y-73916D01*
X99222Y-73964D01*
X99222Y-74107D01*
X99196Y-74154D01*
X99170Y-74178D01*
X91722Y-71321D02*
X91460Y-71488D01*
X91722Y-71607D02*
X91172Y-71607D01*
X91172Y-71416D01*
X91198Y-71369D01*
X91225Y-71345D01*
X91277Y-71321D01*
X91355Y-71321D01*
X91408Y-71345D01*
X91434Y-71369D01*
X91460Y-71416D01*
X91460Y-71607D01*
X91722Y-70845D02*
X91722Y-71130D01*
X91722Y-70988D02*
X91172Y-70988D01*
X91251Y-71035D01*
X91303Y-71083D01*
X91329Y-71130D01*
X91225Y-70654D02*
X91198Y-70630D01*
X91172Y-70583D01*
X91172Y-70464D01*
X91198Y-70416D01*
X91225Y-70392D01*
X91277Y-70369D01*
X91329Y-70369D01*
X91408Y-70392D01*
X91722Y-70678D01*
X91722Y-70369D01*
X69222Y-71083D02*
X68960Y-71250D01*
X69222Y-71369D02*
X68672Y-71369D01*
X68672Y-71178D01*
X68698Y-71130D01*
X68725Y-71107D01*
X68777Y-71083D01*
X68855Y-71083D01*
X68908Y-71107D01*
X68934Y-71130D01*
X68960Y-71178D01*
X68960Y-71369D01*
X68855Y-70654D02*
X69222Y-70654D01*
X68646Y-70773D02*
X69039Y-70892D01*
X69039Y-70583D01*
X82722Y-71321D02*
X82460Y-71488D01*
X82722Y-71607D02*
X82172Y-71607D01*
X82172Y-71416D01*
X82198Y-71369D01*
X82225Y-71345D01*
X82277Y-71321D01*
X82355Y-71321D01*
X82408Y-71345D01*
X82434Y-71369D01*
X82460Y-71416D01*
X82460Y-71607D01*
X82722Y-70845D02*
X82722Y-71130D01*
X82722Y-70988D02*
X82172Y-70988D01*
X82251Y-71035D01*
X82303Y-71083D01*
X82329Y-71130D01*
X82172Y-70535D02*
X82172Y-70488D01*
X82198Y-70440D01*
X82225Y-70416D01*
X82277Y-70392D01*
X82382Y-70369D01*
X82513Y-70369D01*
X82617Y-70392D01*
X82670Y-70416D01*
X82696Y-70440D01*
X82722Y-70488D01*
X82722Y-70535D01*
X82696Y-70583D01*
X82670Y-70607D01*
X82617Y-70630D01*
X82513Y-70654D01*
X82382Y-70654D01*
X82277Y-70630D01*
X82225Y-70607D01*
X82198Y-70583D01*
X82172Y-70535D01*
X85722Y-74583D02*
X85460Y-74750D01*
X85722Y-74869D02*
X85172Y-74869D01*
X85172Y-74678D01*
X85198Y-74630D01*
X85225Y-74607D01*
X85277Y-74583D01*
X85355Y-74583D01*
X85408Y-74607D01*
X85434Y-74630D01*
X85460Y-74678D01*
X85460Y-74869D01*
X85722Y-74345D02*
X85722Y-74250D01*
X85696Y-74202D01*
X85670Y-74178D01*
X85591Y-74130D01*
X85486Y-74107D01*
X85277Y-74107D01*
X85225Y-74130D01*
X85198Y-74154D01*
X85172Y-74202D01*
X85172Y-74297D01*
X85198Y-74345D01*
X85225Y-74369D01*
X85277Y-74392D01*
X85408Y-74392D01*
X85460Y-74369D01*
X85486Y-74345D01*
X85513Y-74297D01*
X85513Y-74202D01*
X85486Y-74154D01*
X85460Y-74130D01*
X85408Y-74107D01*
X71722Y-64583D02*
X71460Y-64750D01*
X71722Y-64869D02*
X71172Y-64869D01*
X71172Y-64678D01*
X71198Y-64630D01*
X71225Y-64607D01*
X71277Y-64583D01*
X71355Y-64583D01*
X71408Y-64607D01*
X71434Y-64630D01*
X71460Y-64678D01*
X71460Y-64869D01*
X71225Y-64392D02*
X71198Y-64369D01*
X71172Y-64321D01*
X71172Y-64202D01*
X71198Y-64154D01*
X71225Y-64130D01*
X71277Y-64107D01*
X71329Y-64107D01*
X71408Y-64130D01*
X71722Y-64416D01*
X71722Y-64107D01*
X72222Y-74583D02*
X71960Y-74750D01*
X72222Y-74869D02*
X71672Y-74869D01*
X71672Y-74678D01*
X71698Y-74630D01*
X71725Y-74607D01*
X71777Y-74583D01*
X71855Y-74583D01*
X71908Y-74607D01*
X71934Y-74630D01*
X71960Y-74678D01*
X71960Y-74869D01*
X71672Y-74416D02*
X71672Y-74107D01*
X71882Y-74273D01*
X71882Y-74202D01*
X71908Y-74154D01*
X71934Y-74130D01*
X71986Y-74107D01*
X72117Y-74107D01*
X72170Y-74130D01*
X72196Y-74154D01*
X72222Y-74202D01*
X72222Y-74345D01*
X72196Y-74392D01*
X72170Y-74416D01*
X76722Y-74583D02*
X76460Y-74750D01*
X76722Y-74869D02*
X76172Y-74869D01*
X76172Y-74678D01*
X76198Y-74630D01*
X76225Y-74607D01*
X76277Y-74583D01*
X76355Y-74583D01*
X76408Y-74607D01*
X76434Y-74630D01*
X76460Y-74678D01*
X76460Y-74869D01*
X76172Y-74130D02*
X76172Y-74369D01*
X76434Y-74392D01*
X76408Y-74369D01*
X76382Y-74321D01*
X76382Y-74202D01*
X76408Y-74154D01*
X76434Y-74130D01*
X76486Y-74107D01*
X76617Y-74107D01*
X76670Y-74130D01*
X76696Y-74154D01*
X76722Y-74202D01*
X76722Y-74321D01*
X76696Y-74369D01*
X76670Y-74392D01*
X73722Y-71083D02*
X73460Y-71250D01*
X73722Y-71369D02*
X73172Y-71369D01*
X73172Y-71178D01*
X73198Y-71130D01*
X73225Y-71107D01*
X73277Y-71083D01*
X73355Y-71083D01*
X73408Y-71107D01*
X73434Y-71130D01*
X73460Y-71178D01*
X73460Y-71369D01*
X73172Y-70654D02*
X73172Y-70750D01*
X73198Y-70797D01*
X73225Y-70821D01*
X73303Y-70869D01*
X73408Y-70892D01*
X73617Y-70892D01*
X73670Y-70869D01*
X73696Y-70845D01*
X73722Y-70797D01*
X73722Y-70702D01*
X73696Y-70654D01*
X73670Y-70630D01*
X73617Y-70607D01*
X73486Y-70607D01*
X73434Y-70630D01*
X73408Y-70654D01*
X73382Y-70702D01*
X73382Y-70797D01*
X73408Y-70845D01*
X73434Y-70869D01*
X73486Y-70892D01*
X81222Y-74583D02*
X80960Y-74750D01*
X81222Y-74869D02*
X80672Y-74869D01*
X80672Y-74678D01*
X80698Y-74630D01*
X80725Y-74607D01*
X80777Y-74583D01*
X80855Y-74583D01*
X80908Y-74607D01*
X80934Y-74630D01*
X80960Y-74678D01*
X80960Y-74869D01*
X80672Y-74416D02*
X80672Y-74083D01*
X81222Y-74297D01*
X78222Y-71083D02*
X77960Y-71250D01*
X78222Y-71369D02*
X77672Y-71369D01*
X77672Y-71178D01*
X77698Y-71130D01*
X77725Y-71107D01*
X77777Y-71083D01*
X77855Y-71083D01*
X77908Y-71107D01*
X77934Y-71130D01*
X77960Y-71178D01*
X77960Y-71369D01*
X77908Y-70797D02*
X77882Y-70845D01*
X77855Y-70869D01*
X77803Y-70892D01*
X77777Y-70892D01*
X77725Y-70869D01*
X77698Y-70845D01*
X77672Y-70797D01*
X77672Y-70702D01*
X77698Y-70654D01*
X77725Y-70630D01*
X77777Y-70607D01*
X77803Y-70607D01*
X77855Y-70630D01*
X77882Y-70654D01*
X77908Y-70702D01*
X77908Y-70797D01*
X77934Y-70845D01*
X77960Y-70869D01*
X78013Y-70892D01*
X78117Y-70892D01*
X78170Y-70869D01*
X78196Y-70845D01*
X78222Y-70797D01*
X78222Y-70702D01*
X78196Y-70654D01*
X78170Y-70630D01*
X78117Y-70607D01*
X78013Y-70607D01*
X77960Y-70630D01*
X77934Y-70654D01*
X77908Y-70702D01*
X70904Y-58361D02*
X70904Y-57961D01*
X71057Y-57961D01*
X71095Y-57980D01*
X71114Y-58000D01*
X71133Y-58038D01*
X71133Y-58095D01*
X71114Y-58133D01*
X71095Y-58152D01*
X71057Y-58171D01*
X70904Y-58171D01*
X71285Y-58000D02*
X71304Y-57980D01*
X71342Y-57961D01*
X71438Y-57961D01*
X71476Y-57980D01*
X71495Y-58000D01*
X71514Y-58038D01*
X71514Y-58076D01*
X71495Y-58133D01*
X71266Y-58361D01*
X71514Y-58361D01*
G54D14*
X70778Y-63021D02*
X70778Y-62721D01*
X70892Y-62721D01*
X70921Y-62735D01*
X70935Y-62750D01*
X70950Y-62778D01*
X70950Y-62821D01*
X70935Y-62850D01*
X70921Y-62864D01*
X70892Y-62878D01*
X70778Y-62878D01*
X71050Y-62721D02*
X71235Y-62721D01*
X71135Y-62835D01*
X71178Y-62835D01*
X71207Y-62850D01*
X71221Y-62864D01*
X71235Y-62892D01*
X71235Y-62964D01*
X71221Y-62992D01*
X71207Y-63007D01*
X71178Y-63021D01*
X71092Y-63021D01*
X71064Y-63007D01*
X71050Y-62992D01*
G54D19*
X92371Y-70721D02*
X92071Y-70721D01*
X92071Y-70650D01*
X92085Y-70607D01*
X92114Y-70578D01*
X92142Y-70564D01*
X92200Y-70550D01*
X92242Y-70550D01*
X92300Y-70564D01*
X92328Y-70578D01*
X92357Y-70607D01*
X92371Y-70650D01*
X92371Y-70721D01*
X92071Y-70278D02*
X92071Y-70421D01*
X92214Y-70435D01*
X92200Y-70421D01*
X92185Y-70392D01*
X92185Y-70321D01*
X92200Y-70292D01*
X92214Y-70278D01*
X92242Y-70264D01*
X92314Y-70264D01*
X92342Y-70278D01*
X92357Y-70292D01*
X92371Y-70321D01*
X92371Y-70392D01*
X92357Y-70421D01*
X92342Y-70435D01*
X95371Y-70692D02*
X95371Y-70835D01*
X95071Y-70835D01*
X95214Y-70592D02*
X95214Y-70492D01*
X95371Y-70450D02*
X95371Y-70592D01*
X95071Y-70592D01*
X95071Y-70450D01*
X95371Y-70321D02*
X95071Y-70321D01*
X95071Y-70250D01*
X95085Y-70207D01*
X95114Y-70178D01*
X95142Y-70164D01*
X95200Y-70150D01*
X95242Y-70150D01*
X95300Y-70164D01*
X95328Y-70178D01*
X95357Y-70207D01*
X95371Y-70250D01*
X95371Y-70321D01*
X74371Y-70721D02*
X74071Y-70721D01*
X74071Y-70650D01*
X74085Y-70607D01*
X74114Y-70578D01*
X74142Y-70564D01*
X74200Y-70550D01*
X74242Y-70550D01*
X74300Y-70564D01*
X74328Y-70578D01*
X74357Y-70607D01*
X74371Y-70650D01*
X74371Y-70721D01*
X74100Y-70435D02*
X74085Y-70421D01*
X74071Y-70392D01*
X74071Y-70321D01*
X74085Y-70292D01*
X74100Y-70278D01*
X74128Y-70264D01*
X74157Y-70264D01*
X74200Y-70278D01*
X74371Y-70450D01*
X74371Y-70264D01*
X77371Y-70692D02*
X77371Y-70835D01*
X77071Y-70835D01*
X77214Y-70592D02*
X77214Y-70492D01*
X77371Y-70450D02*
X77371Y-70592D01*
X77071Y-70592D01*
X77071Y-70450D01*
X77371Y-70321D02*
X77071Y-70321D01*
X77071Y-70250D01*
X77085Y-70207D01*
X77114Y-70178D01*
X77142Y-70164D01*
X77200Y-70150D01*
X77242Y-70150D01*
X77300Y-70164D01*
X77328Y-70178D01*
X77357Y-70207D01*
X77371Y-70250D01*
X77371Y-70321D01*
X87871Y-70721D02*
X87571Y-70721D01*
X87571Y-70650D01*
X87585Y-70607D01*
X87614Y-70578D01*
X87642Y-70564D01*
X87700Y-70550D01*
X87742Y-70550D01*
X87800Y-70564D01*
X87828Y-70578D01*
X87857Y-70607D01*
X87871Y-70650D01*
X87871Y-70721D01*
X87700Y-70378D02*
X87685Y-70407D01*
X87671Y-70421D01*
X87642Y-70435D01*
X87628Y-70435D01*
X87600Y-70421D01*
X87585Y-70407D01*
X87571Y-70378D01*
X87571Y-70321D01*
X87585Y-70292D01*
X87600Y-70278D01*
X87628Y-70264D01*
X87642Y-70264D01*
X87671Y-70278D01*
X87685Y-70292D01*
X87700Y-70321D01*
X87700Y-70378D01*
X87714Y-70407D01*
X87728Y-70421D01*
X87757Y-70435D01*
X87814Y-70435D01*
X87842Y-70421D01*
X87857Y-70407D01*
X87871Y-70378D01*
X87871Y-70321D01*
X87857Y-70292D01*
X87842Y-70278D01*
X87814Y-70264D01*
X87757Y-70264D01*
X87728Y-70278D01*
X87714Y-70292D01*
X87700Y-70321D01*
X90871Y-70692D02*
X90871Y-70835D01*
X90571Y-70835D01*
X90714Y-70592D02*
X90714Y-70492D01*
X90871Y-70450D02*
X90871Y-70592D01*
X90571Y-70592D01*
X90571Y-70450D01*
X90871Y-70321D02*
X90571Y-70321D01*
X90571Y-70250D01*
X90585Y-70207D01*
X90614Y-70178D01*
X90642Y-70164D01*
X90700Y-70150D01*
X90742Y-70150D01*
X90800Y-70164D01*
X90828Y-70178D01*
X90857Y-70207D01*
X90871Y-70250D01*
X90871Y-70321D01*
X69871Y-70721D02*
X69571Y-70721D01*
X69571Y-70650D01*
X69585Y-70607D01*
X69614Y-70578D01*
X69642Y-70564D01*
X69700Y-70550D01*
X69742Y-70550D01*
X69800Y-70564D01*
X69828Y-70578D01*
X69857Y-70607D01*
X69871Y-70650D01*
X69871Y-70721D01*
X69871Y-70264D02*
X69871Y-70435D01*
X69871Y-70350D02*
X69571Y-70350D01*
X69614Y-70378D01*
X69642Y-70407D01*
X69657Y-70435D01*
X72871Y-70692D02*
X72871Y-70835D01*
X72571Y-70835D01*
X72714Y-70592D02*
X72714Y-70492D01*
X72871Y-70450D02*
X72871Y-70592D01*
X72571Y-70592D01*
X72571Y-70450D01*
X72871Y-70321D02*
X72571Y-70321D01*
X72571Y-70250D01*
X72585Y-70207D01*
X72614Y-70178D01*
X72642Y-70164D01*
X72700Y-70150D01*
X72742Y-70150D01*
X72800Y-70164D01*
X72828Y-70178D01*
X72857Y-70207D01*
X72871Y-70250D01*
X72871Y-70321D01*
X101371Y-70721D02*
X101071Y-70721D01*
X101071Y-70650D01*
X101085Y-70607D01*
X101114Y-70578D01*
X101142Y-70564D01*
X101200Y-70550D01*
X101242Y-70550D01*
X101300Y-70564D01*
X101328Y-70578D01*
X101357Y-70607D01*
X101371Y-70650D01*
X101371Y-70721D01*
X101071Y-70450D02*
X101071Y-70250D01*
X101371Y-70378D01*
X104371Y-70692D02*
X104371Y-70835D01*
X104071Y-70835D01*
X104214Y-70592D02*
X104214Y-70492D01*
X104371Y-70450D02*
X104371Y-70592D01*
X104071Y-70592D01*
X104071Y-70450D01*
X104371Y-70321D02*
X104071Y-70321D01*
X104071Y-70250D01*
X104085Y-70207D01*
X104114Y-70178D01*
X104142Y-70164D01*
X104200Y-70150D01*
X104242Y-70150D01*
X104300Y-70164D01*
X104328Y-70178D01*
X104357Y-70207D01*
X104371Y-70250D01*
X104371Y-70321D01*
X83371Y-70721D02*
X83071Y-70721D01*
X83071Y-70650D01*
X83085Y-70607D01*
X83114Y-70578D01*
X83142Y-70564D01*
X83200Y-70550D01*
X83242Y-70550D01*
X83300Y-70564D01*
X83328Y-70578D01*
X83357Y-70607D01*
X83371Y-70650D01*
X83371Y-70721D01*
X83171Y-70292D02*
X83371Y-70292D01*
X83057Y-70364D02*
X83271Y-70435D01*
X83271Y-70250D01*
X86371Y-70692D02*
X86371Y-70835D01*
X86071Y-70835D01*
X86214Y-70592D02*
X86214Y-70492D01*
X86371Y-70450D02*
X86371Y-70592D01*
X86071Y-70592D01*
X86071Y-70450D01*
X86371Y-70321D02*
X86071Y-70321D01*
X86071Y-70250D01*
X86085Y-70207D01*
X86114Y-70178D01*
X86142Y-70164D01*
X86200Y-70150D01*
X86242Y-70150D01*
X86300Y-70164D01*
X86328Y-70178D01*
X86357Y-70207D01*
X86371Y-70250D01*
X86371Y-70321D01*
X78871Y-70721D02*
X78571Y-70721D01*
X78571Y-70650D01*
X78585Y-70607D01*
X78614Y-70578D01*
X78642Y-70564D01*
X78700Y-70550D01*
X78742Y-70550D01*
X78800Y-70564D01*
X78828Y-70578D01*
X78857Y-70607D01*
X78871Y-70650D01*
X78871Y-70721D01*
X78571Y-70450D02*
X78571Y-70264D01*
X78685Y-70364D01*
X78685Y-70321D01*
X78700Y-70292D01*
X78714Y-70278D01*
X78742Y-70264D01*
X78814Y-70264D01*
X78842Y-70278D01*
X78857Y-70292D01*
X78871Y-70321D01*
X78871Y-70407D01*
X78857Y-70435D01*
X78842Y-70450D01*
X81871Y-70692D02*
X81871Y-70835D01*
X81571Y-70835D01*
X81714Y-70592D02*
X81714Y-70492D01*
X81871Y-70450D02*
X81871Y-70592D01*
X81571Y-70592D01*
X81571Y-70450D01*
X81871Y-70321D02*
X81571Y-70321D01*
X81571Y-70250D01*
X81585Y-70207D01*
X81614Y-70178D01*
X81642Y-70164D01*
X81700Y-70150D01*
X81742Y-70150D01*
X81800Y-70164D01*
X81828Y-70178D01*
X81857Y-70207D01*
X81871Y-70250D01*
X81871Y-70321D01*
X96871Y-70721D02*
X96571Y-70721D01*
X96571Y-70650D01*
X96585Y-70607D01*
X96614Y-70578D01*
X96642Y-70564D01*
X96700Y-70550D01*
X96742Y-70550D01*
X96800Y-70564D01*
X96828Y-70578D01*
X96857Y-70607D01*
X96871Y-70650D01*
X96871Y-70721D01*
X96571Y-70292D02*
X96571Y-70350D01*
X96585Y-70378D01*
X96600Y-70392D01*
X96642Y-70421D01*
X96700Y-70435D01*
X96814Y-70435D01*
X96842Y-70421D01*
X96857Y-70407D01*
X96871Y-70378D01*
X96871Y-70321D01*
X96857Y-70292D01*
X96842Y-70278D01*
X96814Y-70264D01*
X96742Y-70264D01*
X96714Y-70278D01*
X96700Y-70292D01*
X96685Y-70321D01*
X96685Y-70378D01*
X96700Y-70407D01*
X96714Y-70421D01*
X96742Y-70435D01*
X99871Y-70692D02*
X99871Y-70835D01*
X99571Y-70835D01*
X99714Y-70592D02*
X99714Y-70492D01*
X99871Y-70450D02*
X99871Y-70592D01*
X99571Y-70592D01*
X99571Y-70450D01*
X99871Y-70321D02*
X99571Y-70321D01*
X99571Y-70250D01*
X99585Y-70207D01*
X99614Y-70178D01*
X99642Y-70164D01*
X99700Y-70150D01*
X99742Y-70150D01*
X99800Y-70164D01*
X99828Y-70178D01*
X99857Y-70207D01*
X99871Y-70250D01*
X99871Y-70321D01*
G54D20*
X90457Y-58542D02*
X90457Y-59028D01*
X90478Y-59085D01*
X90500Y-59114D01*
X90542Y-59142D01*
X90628Y-59142D01*
X90671Y-59114D01*
X90692Y-59085D01*
X90714Y-59028D01*
X90714Y-58542D01*
X91164Y-59142D02*
X90907Y-59142D01*
X91035Y-59142D02*
X91035Y-58542D01*
X90992Y-58628D01*
X90950Y-58685D01*
X90907Y-58714D01*
G54D12*
G54D20*
X85232Y-59042D02*
X85532Y-59042D01*
X85339Y-59642D01*
X85896Y-59242D02*
X85896Y-59642D01*
X85789Y-59014D02*
X85682Y-59442D01*
X85960Y-59442D01*
X86132Y-59642D02*
X86132Y-59042D01*
X86132Y-59328D02*
X86389Y-59328D01*
X86389Y-59642D02*
X86389Y-59042D01*
X86860Y-59585D02*
X86839Y-59614D01*
X86775Y-59642D01*
X86732Y-59642D01*
X86667Y-59614D01*
X86625Y-59557D01*
X86603Y-59500D01*
X86582Y-59385D01*
X86582Y-59300D01*
X86603Y-59185D01*
X86625Y-59128D01*
X86667Y-59071D01*
X86732Y-59042D01*
X86775Y-59042D01*
X86839Y-59071D01*
X86860Y-59100D01*
X87289Y-59642D02*
X87032Y-59642D01*
X87160Y-59642D02*
X87160Y-59042D01*
X87117Y-59128D01*
X87075Y-59185D01*
X87032Y-59214D01*
X87503Y-59642D02*
X87589Y-59642D01*
X87632Y-59614D01*
X87653Y-59585D01*
X87696Y-59500D01*
X87717Y-59385D01*
X87717Y-59157D01*
X87696Y-59100D01*
X87675Y-59071D01*
X87632Y-59042D01*
X87546Y-59042D01*
X87503Y-59071D01*
X87482Y-59100D01*
X87460Y-59157D01*
X87460Y-59300D01*
X87482Y-59357D01*
X87503Y-59385D01*
X87546Y-59414D01*
X87632Y-59414D01*
X87675Y-59385D01*
X87696Y-59357D01*
X87717Y-59300D01*
X88103Y-59242D02*
X88103Y-59642D01*
X87996Y-59014D02*
X87889Y-59442D01*
X88167Y-59442D01*
G54D12*
G54D20*
X101557Y-58642D02*
X101557Y-59128D01*
X101578Y-59185D01*
X101600Y-59214D01*
X101642Y-59242D01*
X101728Y-59242D01*
X101771Y-59214D01*
X101792Y-59185D01*
X101814Y-59128D01*
X101814Y-58642D01*
X102007Y-58700D02*
X102028Y-58671D01*
X102071Y-58642D01*
X102178Y-58642D01*
X102221Y-58671D01*
X102242Y-58700D01*
X102264Y-58757D01*
X102264Y-58814D01*
X102242Y-58900D01*
X101985Y-59242D01*
X102264Y-59242D01*
G54D12*
G54D20*
X96682Y-58942D02*
X96982Y-58942D01*
X96789Y-59542D01*
X97346Y-59142D02*
X97346Y-59542D01*
X97239Y-58914D02*
X97132Y-59342D01*
X97410Y-59342D01*
X97582Y-59542D02*
X97582Y-58942D01*
X97582Y-59228D02*
X97839Y-59228D01*
X97839Y-59542D02*
X97839Y-58942D01*
X98310Y-59485D02*
X98289Y-59514D01*
X98225Y-59542D01*
X98182Y-59542D01*
X98117Y-59514D01*
X98075Y-59457D01*
X98053Y-59400D01*
X98032Y-59285D01*
X98032Y-59200D01*
X98053Y-59085D01*
X98075Y-59028D01*
X98117Y-58971D01*
X98182Y-58942D01*
X98225Y-58942D01*
X98289Y-58971D01*
X98310Y-59000D01*
X98482Y-59000D02*
X98503Y-58971D01*
X98546Y-58942D01*
X98653Y-58942D01*
X98696Y-58971D01*
X98717Y-59000D01*
X98739Y-59057D01*
X98739Y-59114D01*
X98717Y-59200D01*
X98460Y-59542D01*
X98739Y-59542D01*
X98889Y-58942D02*
X99167Y-58942D01*
X99017Y-59171D01*
X99082Y-59171D01*
X99125Y-59200D01*
X99146Y-59228D01*
X99167Y-59285D01*
X99167Y-59428D01*
X99146Y-59485D01*
X99125Y-59514D01*
X99082Y-59542D01*
X98953Y-59542D01*
X98910Y-59514D01*
X98889Y-59485D01*
X99425Y-59200D02*
X99382Y-59171D01*
X99360Y-59142D01*
X99339Y-59085D01*
X99339Y-59057D01*
X99360Y-59000D01*
X99382Y-58971D01*
X99425Y-58942D01*
X99510Y-58942D01*
X99553Y-58971D01*
X99575Y-59000D01*
X99596Y-59057D01*
X99596Y-59085D01*
X99575Y-59142D01*
X99553Y-59171D01*
X99510Y-59200D01*
X99425Y-59200D01*
X99382Y-59228D01*
X99360Y-59257D01*
X99339Y-59314D01*
X99339Y-59428D01*
X99360Y-59485D01*
X99382Y-59514D01*
X99425Y-59542D01*
X99510Y-59542D01*
X99553Y-59514D01*
X99575Y-59485D01*
X99596Y-59428D01*
X99596Y-59314D01*
X99575Y-59257D01*
X99553Y-59228D01*
X99510Y-59200D01*
G54D12*
G54D18*
X74749Y-66992D02*
X74734Y-67007D01*
X74691Y-67021D01*
X74663Y-67021D01*
X74620Y-67007D01*
X74591Y-66978D01*
X74577Y-66950D01*
X74563Y-66892D01*
X74563Y-66850D01*
X74577Y-66792D01*
X74591Y-66764D01*
X74620Y-66735D01*
X74663Y-66721D01*
X74691Y-66721D01*
X74734Y-66735D01*
X74749Y-66750D01*
X75034Y-67021D02*
X74863Y-67021D01*
X74949Y-67021D02*
X74949Y-66721D01*
X74920Y-66764D01*
X74891Y-66792D01*
X74863Y-66807D01*
G54D21*
X74307Y-66114D02*
X74307Y-65885D01*
X74421Y-66000D02*
X74192Y-66000D01*
G54D15*
X81861Y-66995D02*
X81461Y-66995D01*
X81461Y-66899D01*
X81480Y-66842D01*
X81519Y-66804D01*
X81557Y-66785D01*
X81633Y-66766D01*
X81690Y-66766D01*
X81766Y-66785D01*
X81804Y-66804D01*
X81842Y-66842D01*
X81861Y-66899D01*
X81861Y-66995D01*
X81861Y-66576D02*
X81861Y-66499D01*
X81842Y-66461D01*
X81823Y-66442D01*
X81766Y-66404D01*
X81690Y-66385D01*
X81538Y-66385D01*
X81500Y-66404D01*
X81480Y-66423D01*
X81461Y-66461D01*
X81461Y-66538D01*
X81480Y-66576D01*
X81500Y-66595D01*
X81538Y-66614D01*
X81633Y-66614D01*
X81671Y-66595D01*
X81690Y-66576D01*
X81709Y-66538D01*
X81709Y-66461D01*
X81690Y-66423D01*
X81671Y-66404D01*
X81633Y-66385D01*
X84961Y-67185D02*
X84561Y-67185D01*
X84561Y-67090D01*
X84580Y-67033D01*
X84619Y-66995D01*
X84657Y-66976D01*
X84733Y-66957D01*
X84790Y-66957D01*
X84866Y-66976D01*
X84904Y-66995D01*
X84942Y-67033D01*
X84961Y-67090D01*
X84961Y-67185D01*
X84961Y-66576D02*
X84961Y-66804D01*
X84961Y-66690D02*
X84561Y-66690D01*
X84619Y-66728D01*
X84657Y-66766D01*
X84676Y-66804D01*
X84561Y-66328D02*
X84561Y-66290D01*
X84580Y-66252D01*
X84600Y-66233D01*
X84638Y-66214D01*
X84714Y-66195D01*
X84809Y-66195D01*
X84885Y-66214D01*
X84923Y-66233D01*
X84942Y-66252D01*
X84961Y-66290D01*
X84961Y-66328D01*
X84942Y-66366D01*
X84923Y-66385D01*
X84885Y-66404D01*
X84809Y-66423D01*
X84714Y-66423D01*
X84638Y-66404D01*
X84600Y-66385D01*
X84580Y-66366D01*
X84561Y-66328D01*
X87961Y-67185D02*
X87561Y-67185D01*
X87561Y-67090D01*
X87580Y-67033D01*
X87619Y-66995D01*
X87657Y-66976D01*
X87733Y-66957D01*
X87790Y-66957D01*
X87866Y-66976D01*
X87904Y-66995D01*
X87942Y-67033D01*
X87961Y-67090D01*
X87961Y-67185D01*
X87961Y-66576D02*
X87961Y-66804D01*
X87961Y-66690D02*
X87561Y-66690D01*
X87619Y-66728D01*
X87657Y-66766D01*
X87676Y-66804D01*
X87961Y-66195D02*
X87961Y-66423D01*
X87961Y-66309D02*
X87561Y-66309D01*
X87619Y-66347D01*
X87657Y-66385D01*
X87676Y-66423D01*
X90961Y-67185D02*
X90561Y-67185D01*
X90561Y-67090D01*
X90580Y-67033D01*
X90619Y-66995D01*
X90657Y-66976D01*
X90733Y-66957D01*
X90790Y-66957D01*
X90866Y-66976D01*
X90904Y-66995D01*
X90942Y-67033D01*
X90961Y-67090D01*
X90961Y-67185D01*
X90961Y-66576D02*
X90961Y-66804D01*
X90961Y-66690D02*
X90561Y-66690D01*
X90619Y-66728D01*
X90657Y-66766D01*
X90676Y-66804D01*
X90600Y-66423D02*
X90580Y-66404D01*
X90561Y-66366D01*
X90561Y-66271D01*
X90580Y-66233D01*
X90600Y-66214D01*
X90638Y-66195D01*
X90676Y-66195D01*
X90733Y-66214D01*
X90961Y-66442D01*
X90961Y-66195D01*
X96961Y-67185D02*
X96561Y-67185D01*
X96561Y-67090D01*
X96580Y-67033D01*
X96619Y-66995D01*
X96657Y-66976D01*
X96733Y-66957D01*
X96790Y-66957D01*
X96866Y-66976D01*
X96904Y-66995D01*
X96942Y-67033D01*
X96961Y-67090D01*
X96961Y-67185D01*
X96961Y-66576D02*
X96961Y-66804D01*
X96961Y-66690D02*
X96561Y-66690D01*
X96619Y-66728D01*
X96657Y-66766D01*
X96676Y-66804D01*
X96561Y-66442D02*
X96561Y-66195D01*
X96714Y-66328D01*
X96714Y-66271D01*
X96733Y-66233D01*
X96752Y-66214D01*
X96790Y-66195D01*
X96885Y-66195D01*
X96923Y-66214D01*
X96942Y-66233D01*
X96961Y-66271D01*
X96961Y-66385D01*
X96942Y-66423D01*
X96923Y-66442D01*
X99961Y-67185D02*
X99561Y-67185D01*
X99561Y-67090D01*
X99580Y-67033D01*
X99619Y-66995D01*
X99657Y-66976D01*
X99733Y-66957D01*
X99790Y-66957D01*
X99866Y-66976D01*
X99904Y-66995D01*
X99942Y-67033D01*
X99961Y-67090D01*
X99961Y-67185D01*
X99961Y-66576D02*
X99961Y-66804D01*
X99961Y-66690D02*
X99561Y-66690D01*
X99619Y-66728D01*
X99657Y-66766D01*
X99676Y-66804D01*
X99695Y-66233D02*
X99961Y-66233D01*
X99542Y-66328D02*
X99828Y-66423D01*
X99828Y-66176D01*
X102961Y-67185D02*
X102561Y-67185D01*
X102561Y-67090D01*
X102580Y-67033D01*
X102619Y-66995D01*
X102657Y-66976D01*
X102733Y-66957D01*
X102790Y-66957D01*
X102866Y-66976D01*
X102904Y-66995D01*
X102942Y-67033D01*
X102961Y-67090D01*
X102961Y-67185D01*
X102961Y-66576D02*
X102961Y-66804D01*
X102961Y-66690D02*
X102561Y-66690D01*
X102619Y-66728D01*
X102657Y-66766D01*
X102676Y-66804D01*
X102561Y-66214D02*
X102561Y-66404D01*
X102752Y-66423D01*
X102733Y-66404D01*
X102714Y-66366D01*
X102714Y-66271D01*
X102733Y-66233D01*
X102752Y-66214D01*
X102790Y-66195D01*
X102885Y-66195D01*
X102923Y-66214D01*
X102942Y-66233D01*
X102961Y-66271D01*
X102961Y-66366D01*
X102942Y-66404D01*
X102923Y-66423D01*
X93961Y-67185D02*
X93561Y-67185D01*
X93561Y-67090D01*
X93580Y-67033D01*
X93619Y-66995D01*
X93657Y-66976D01*
X93733Y-66957D01*
X93790Y-66957D01*
X93866Y-66976D01*
X93904Y-66995D01*
X93942Y-67033D01*
X93961Y-67090D01*
X93961Y-67185D01*
X93961Y-66576D02*
X93961Y-66804D01*
X93961Y-66690D02*
X93561Y-66690D01*
X93619Y-66728D01*
X93657Y-66766D01*
X93676Y-66804D01*
X93561Y-66233D02*
X93561Y-66309D01*
X93580Y-66347D01*
X93600Y-66366D01*
X93657Y-66404D01*
X93733Y-66423D01*
X93885Y-66423D01*
X93923Y-66404D01*
X93942Y-66385D01*
X93961Y-66347D01*
X93961Y-66271D01*
X93942Y-66233D01*
X93923Y-66214D01*
X93885Y-66195D01*
X93790Y-66195D01*
X93752Y-66214D01*
X93733Y-66233D01*
X93714Y-66271D01*
X93714Y-66347D01*
X93733Y-66385D01*
X93752Y-66404D01*
X93790Y-66423D01*
M02*
