M48
;DRILL file {Pcbnew (2013-jul-07)-stable} date Sun 02 Mar 2014 10:40:22 AM PST
;FORMAT={2:4/ absolute / inch / suppress leading zeros}
FMAT,2
INCH,TZ
T1C0.032
T2C0.032
T3C0.040
T4C0.042
T5C0.045
T6C0.047
T7C0.060
T8C0.096
T9C0.120
%
G90
G05
M72
T1
X75500Y-33750
X77500Y-33750
T2
X62000Y-43750
X62000Y-47750
X67750Y-26750
X67750Y-30750
X67750Y-35750
X67750Y-39750
X69250Y-27750
X69750Y-30750
X69750Y-31750
X69750Y-32750
X69750Y-33750
X71750Y-44750
X72750Y-30750
X72750Y-31750
X72750Y-32750
X72750Y-33750
X73250Y-27750
X74750Y-48000
X75500Y-29000
X76750Y-44750
X76750Y-48000
X77500Y-29000
T3
X52750Y-25500
X52750Y-26500
X53750Y-25500
X53750Y-26500
X54750Y-25500
X54750Y-26500
X68750Y-50750
X68750Y-51750
X69750Y-50750
X69750Y-51750
X70750Y-50750
X70750Y-51750
X71750Y-50750
X71750Y-51750
T4
X74000Y-37550
X74000Y-42050
T5
X62000Y-26750
X62000Y-31750
X62000Y-34750
X62000Y-39750
X65000Y-26750
X65000Y-31750
X65000Y-34750
X65000Y-39750
X69250Y-25250
X74250Y-25250
T6
X66500Y-44500
X66500Y-47500
T7
X43750Y-29750
X43750Y-45750
X46000Y-50750
X46750Y-29750
X48000Y-50750
X50000Y-50750
X50750Y-29750
X53750Y-29750
X53750Y-45750
T8
X40250Y-26000
X42240Y-26000
X43910Y-26000
X45910Y-26000
T9
X35750Y-25250
X35750Y-51750
X60250Y-25250
X60250Y-51750
X77750Y-25250
X77750Y-51750
T0
M30
