G04 (created by PCBNEW (2013-jul-07)-stable) date Sun 02 Mar 2014 11:15:46 AM PST*
%MOIN*%
G04 Gerber Fmt 3.4, Leading zero omitted, Abs format*
%FSLAX34Y34*%
G01*
G70*
G90*
G04 APERTURE LIST*
%ADD10C,0.00590551*%
%ADD11C,0.011811*%
%ADD12C,0.012*%
%ADD13C,0.008*%
%ADD14C,0.015*%
%ADD15C,0.01*%
G04 APERTURE END LIST*
G54D10*
G54D11*
X55609Y-25570D02*
X55890Y-25570D01*
X55553Y-25739D02*
X55750Y-25148D01*
X55946Y-25739D01*
X55792Y-26374D02*
X55876Y-26402D01*
X55904Y-26430D01*
X55932Y-26487D01*
X55932Y-26571D01*
X55904Y-26627D01*
X55876Y-26655D01*
X55820Y-26683D01*
X55595Y-26683D01*
X55595Y-26093D01*
X55792Y-26093D01*
X55848Y-26121D01*
X55876Y-26149D01*
X55904Y-26205D01*
X55904Y-26262D01*
X55876Y-26318D01*
X55848Y-26346D01*
X55792Y-26374D01*
X55595Y-26374D01*
X52273Y-24144D02*
X52301Y-24116D01*
X52357Y-24088D01*
X52498Y-24088D01*
X52554Y-24116D01*
X52582Y-24144D01*
X52611Y-24200D01*
X52611Y-24257D01*
X52582Y-24341D01*
X52245Y-24679D01*
X52611Y-24679D01*
X53117Y-24285D02*
X53117Y-24679D01*
X52976Y-24060D02*
X52836Y-24482D01*
X53201Y-24482D01*
X53342Y-24088D02*
X53539Y-24679D01*
X53735Y-24088D01*
X54354Y-24510D02*
X54635Y-24510D01*
X54298Y-24679D02*
X54495Y-24088D01*
X54692Y-24679D01*
X55226Y-24622D02*
X55198Y-24650D01*
X55113Y-24679D01*
X55057Y-24679D01*
X54973Y-24650D01*
X54917Y-24594D01*
X54888Y-24538D01*
X54860Y-24425D01*
X54860Y-24341D01*
X54888Y-24229D01*
X54917Y-24172D01*
X54973Y-24116D01*
X55057Y-24088D01*
X55113Y-24088D01*
X55198Y-24116D01*
X55226Y-24144D01*
X41762Y-24739D02*
X41425Y-24739D01*
X41593Y-24739D02*
X41593Y-24148D01*
X41537Y-24232D01*
X41481Y-24289D01*
X41425Y-24317D01*
X41987Y-24570D02*
X42268Y-24570D01*
X41931Y-24739D02*
X42128Y-24148D01*
X42325Y-24739D01*
X42887Y-24345D02*
X43112Y-24345D01*
X42971Y-24739D02*
X42971Y-24232D01*
X42999Y-24176D01*
X43056Y-24148D01*
X43112Y-24148D01*
X43562Y-24345D02*
X43562Y-24739D01*
X43309Y-24345D02*
X43309Y-24654D01*
X43337Y-24710D01*
X43393Y-24739D01*
X43478Y-24739D01*
X43534Y-24710D01*
X43562Y-24682D01*
X43815Y-24710D02*
X43871Y-24739D01*
X43984Y-24739D01*
X44040Y-24710D01*
X44068Y-24654D01*
X44068Y-24626D01*
X44040Y-24570D01*
X43984Y-24542D01*
X43899Y-24542D01*
X43843Y-24514D01*
X43815Y-24457D01*
X43815Y-24429D01*
X43843Y-24373D01*
X43899Y-24345D01*
X43984Y-24345D01*
X44040Y-24373D01*
X44546Y-24710D02*
X44490Y-24739D01*
X44377Y-24739D01*
X44321Y-24710D01*
X44293Y-24654D01*
X44293Y-24429D01*
X44321Y-24373D01*
X44377Y-24345D01*
X44490Y-24345D01*
X44546Y-24373D01*
X44574Y-24429D01*
X44574Y-24485D01*
X44293Y-24542D01*
X52130Y-50516D02*
X52073Y-50488D01*
X51989Y-50488D01*
X51905Y-50516D01*
X51848Y-50572D01*
X51820Y-50629D01*
X51792Y-50741D01*
X51792Y-50825D01*
X51820Y-50938D01*
X51848Y-50994D01*
X51905Y-51050D01*
X51989Y-51079D01*
X52045Y-51079D01*
X52130Y-51050D01*
X52158Y-51022D01*
X52158Y-50825D01*
X52045Y-50825D01*
X52411Y-51079D02*
X52411Y-50488D01*
X52748Y-51079D01*
X52748Y-50488D01*
X53029Y-51079D02*
X53029Y-50488D01*
X53170Y-50488D01*
X53254Y-50516D01*
X53311Y-50572D01*
X53339Y-50629D01*
X53367Y-50741D01*
X53367Y-50825D01*
X53339Y-50938D01*
X53311Y-50994D01*
X53254Y-51050D01*
X53170Y-51079D01*
X53029Y-51079D01*
X41329Y-50989D02*
X40992Y-50989D01*
X41161Y-50989D02*
X41161Y-50398D01*
X41104Y-50482D01*
X41048Y-50539D01*
X40992Y-50567D01*
X41892Y-50989D02*
X41554Y-50989D01*
X41723Y-50989D02*
X41723Y-50398D01*
X41667Y-50482D01*
X41611Y-50539D01*
X41554Y-50567D01*
X42257Y-50398D02*
X42314Y-50398D01*
X42370Y-50426D01*
X42398Y-50454D01*
X42426Y-50510D01*
X42454Y-50623D01*
X42454Y-50764D01*
X42426Y-50876D01*
X42398Y-50932D01*
X42370Y-50960D01*
X42314Y-50989D01*
X42257Y-50989D01*
X42201Y-50960D01*
X42173Y-50932D01*
X42145Y-50876D01*
X42117Y-50764D01*
X42117Y-50623D01*
X42145Y-50510D01*
X42173Y-50454D01*
X42201Y-50426D01*
X42257Y-50398D01*
X42623Y-50398D02*
X42820Y-50989D01*
X43017Y-50398D01*
X43635Y-50820D02*
X43917Y-50820D01*
X43579Y-50989D02*
X43776Y-50398D01*
X43973Y-50989D01*
X44507Y-50932D02*
X44479Y-50960D01*
X44395Y-50989D01*
X44338Y-50989D01*
X44254Y-50960D01*
X44198Y-50904D01*
X44170Y-50848D01*
X44142Y-50735D01*
X44142Y-50651D01*
X44170Y-50539D01*
X44198Y-50482D01*
X44254Y-50426D01*
X44338Y-50398D01*
X44395Y-50398D01*
X44479Y-50426D01*
X44507Y-50454D01*
X72951Y-49468D02*
X72670Y-49468D01*
X72642Y-49749D01*
X72670Y-49721D01*
X72726Y-49693D01*
X72867Y-49693D01*
X72923Y-49721D01*
X72951Y-49749D01*
X72979Y-49805D01*
X72979Y-49946D01*
X72951Y-50002D01*
X72923Y-50030D01*
X72867Y-50059D01*
X72726Y-50059D01*
X72670Y-50030D01*
X72642Y-50002D01*
X73148Y-49468D02*
X73345Y-50059D01*
X73542Y-49468D01*
X72670Y-50778D02*
X73120Y-50778D01*
X72895Y-51003D02*
X72895Y-50553D01*
X72670Y-51723D02*
X73120Y-51723D01*
X36851Y-29723D02*
X36429Y-29723D01*
X36345Y-29694D01*
X36289Y-29638D01*
X36260Y-29554D01*
X36260Y-29498D01*
X36289Y-30229D02*
X36260Y-30172D01*
X36260Y-30060D01*
X36289Y-30004D01*
X36345Y-29976D01*
X36570Y-29976D01*
X36626Y-30004D01*
X36654Y-30060D01*
X36654Y-30172D01*
X36626Y-30229D01*
X36570Y-30257D01*
X36514Y-30257D01*
X36457Y-29976D01*
X36260Y-30510D02*
X36654Y-30510D01*
X36542Y-30510D02*
X36598Y-30538D01*
X36626Y-30566D01*
X36654Y-30622D01*
X36654Y-30679D01*
X36289Y-31100D02*
X36260Y-31044D01*
X36260Y-30932D01*
X36289Y-30875D01*
X36345Y-30847D01*
X36570Y-30847D01*
X36626Y-30875D01*
X36654Y-30932D01*
X36654Y-31044D01*
X36626Y-31100D01*
X36570Y-31129D01*
X36514Y-31129D01*
X36457Y-30847D01*
X36260Y-31382D02*
X36654Y-31382D01*
X36598Y-31382D02*
X36626Y-31410D01*
X36654Y-31466D01*
X36654Y-31550D01*
X36626Y-31607D01*
X36570Y-31635D01*
X36260Y-31635D01*
X36570Y-31635D02*
X36626Y-31663D01*
X36654Y-31719D01*
X36654Y-31803D01*
X36626Y-31860D01*
X36570Y-31888D01*
X36260Y-31888D01*
X36260Y-32169D02*
X36654Y-32169D01*
X36851Y-32169D02*
X36823Y-32141D01*
X36795Y-32169D01*
X36823Y-32197D01*
X36851Y-32169D01*
X36795Y-32169D01*
X36260Y-32703D02*
X36570Y-32703D01*
X36626Y-32675D01*
X36654Y-32619D01*
X36654Y-32507D01*
X36626Y-32450D01*
X36289Y-32703D02*
X36260Y-32647D01*
X36260Y-32507D01*
X36289Y-32450D01*
X36345Y-32422D01*
X36401Y-32422D01*
X36457Y-32450D01*
X36485Y-32507D01*
X36485Y-32647D01*
X36514Y-32703D01*
X36260Y-32985D02*
X36851Y-32985D01*
X36260Y-33238D02*
X36570Y-33238D01*
X36626Y-33210D01*
X36654Y-33153D01*
X36654Y-33069D01*
X36626Y-33013D01*
X36598Y-32985D01*
X36260Y-33969D02*
X36851Y-33969D01*
X36429Y-34166D01*
X36851Y-34363D01*
X36260Y-34363D01*
X36260Y-34897D02*
X36570Y-34897D01*
X36626Y-34869D01*
X36654Y-34812D01*
X36654Y-34700D01*
X36626Y-34644D01*
X36289Y-34897D02*
X36260Y-34841D01*
X36260Y-34700D01*
X36289Y-34644D01*
X36345Y-34616D01*
X36401Y-34616D01*
X36457Y-34644D01*
X36485Y-34700D01*
X36485Y-34841D01*
X36514Y-34897D01*
X36260Y-35178D02*
X36851Y-35178D01*
X36260Y-35431D02*
X36570Y-35431D01*
X36626Y-35403D01*
X36654Y-35347D01*
X36654Y-35262D01*
X36626Y-35206D01*
X36598Y-35178D01*
X36260Y-35797D02*
X36289Y-35741D01*
X36345Y-35712D01*
X36851Y-35712D01*
X36289Y-36247D02*
X36260Y-36190D01*
X36260Y-36078D01*
X36289Y-36022D01*
X36345Y-35994D01*
X36570Y-35994D01*
X36626Y-36022D01*
X36654Y-36078D01*
X36654Y-36190D01*
X36626Y-36247D01*
X36570Y-36275D01*
X36514Y-36275D01*
X36457Y-35994D01*
X36260Y-36528D02*
X36654Y-36528D01*
X36542Y-36528D02*
X36598Y-36556D01*
X36626Y-36584D01*
X36654Y-36640D01*
X36654Y-36697D01*
X36654Y-37793D02*
X36485Y-37343D01*
X36317Y-37793D01*
X36654Y-38075D02*
X36148Y-38075D01*
X36092Y-38046D01*
X36064Y-37990D01*
X36064Y-37962D01*
X36851Y-38075D02*
X36823Y-38046D01*
X36795Y-38075D01*
X36823Y-38103D01*
X36851Y-38075D01*
X36795Y-38075D01*
X36260Y-38356D02*
X36654Y-38356D01*
X36598Y-38356D02*
X36626Y-38384D01*
X36654Y-38440D01*
X36654Y-38525D01*
X36626Y-38581D01*
X36570Y-38609D01*
X36260Y-38609D01*
X36570Y-38609D02*
X36626Y-38637D01*
X36654Y-38693D01*
X36654Y-38778D01*
X36626Y-38834D01*
X36570Y-38862D01*
X36260Y-38862D01*
X36260Y-39143D02*
X36654Y-39143D01*
X36598Y-39143D02*
X36626Y-39171D01*
X36654Y-39228D01*
X36654Y-39312D01*
X36626Y-39368D01*
X36570Y-39396D01*
X36260Y-39396D01*
X36570Y-39396D02*
X36626Y-39424D01*
X36654Y-39481D01*
X36654Y-39565D01*
X36626Y-39621D01*
X36570Y-39649D01*
X36260Y-39649D01*
X36260Y-40184D02*
X36570Y-40184D01*
X36626Y-40156D01*
X36654Y-40099D01*
X36654Y-39987D01*
X36626Y-39931D01*
X36289Y-40184D02*
X36260Y-40127D01*
X36260Y-39987D01*
X36289Y-39931D01*
X36345Y-39902D01*
X36401Y-39902D01*
X36457Y-39931D01*
X36485Y-39987D01*
X36485Y-40127D01*
X36514Y-40184D01*
X36260Y-40465D02*
X36851Y-40465D01*
X36260Y-40718D02*
X36570Y-40718D01*
X36626Y-40690D01*
X36654Y-40634D01*
X36654Y-40549D01*
X36626Y-40493D01*
X36598Y-40465D01*
X36260Y-41084D02*
X36289Y-41027D01*
X36345Y-40999D01*
X36851Y-40999D01*
X36289Y-41534D02*
X36260Y-41477D01*
X36260Y-41365D01*
X36289Y-41309D01*
X36345Y-41280D01*
X36570Y-41280D01*
X36626Y-41309D01*
X36654Y-41365D01*
X36654Y-41477D01*
X36626Y-41534D01*
X36570Y-41562D01*
X36514Y-41562D01*
X36457Y-41280D01*
X36260Y-41815D02*
X36654Y-41815D01*
X36542Y-41815D02*
X36598Y-41843D01*
X36626Y-41871D01*
X36654Y-41927D01*
X36654Y-41983D01*
X36542Y-42546D02*
X36570Y-42518D01*
X36598Y-42462D01*
X36598Y-42405D01*
X36570Y-42349D01*
X36542Y-42321D01*
X36485Y-42293D01*
X36429Y-42293D01*
X36373Y-42321D01*
X36345Y-42349D01*
X36317Y-42405D01*
X36317Y-42462D01*
X36345Y-42518D01*
X36373Y-42546D01*
X36598Y-42546D02*
X36373Y-42546D01*
X36345Y-42574D01*
X36345Y-42602D01*
X36373Y-42658D01*
X36429Y-42687D01*
X36570Y-42687D01*
X36654Y-42630D01*
X36710Y-42546D01*
X36739Y-42433D01*
X36710Y-42321D01*
X36654Y-42237D01*
X36570Y-42180D01*
X36457Y-42152D01*
X36345Y-42180D01*
X36260Y-42237D01*
X36204Y-42321D01*
X36176Y-42433D01*
X36204Y-42546D01*
X36260Y-42630D01*
X36654Y-43193D02*
X36176Y-43193D01*
X36120Y-43165D01*
X36092Y-43136D01*
X36064Y-43080D01*
X36064Y-42996D01*
X36092Y-42940D01*
X36289Y-43193D02*
X36260Y-43136D01*
X36260Y-43024D01*
X36289Y-42968D01*
X36317Y-42940D01*
X36373Y-42911D01*
X36542Y-42911D01*
X36598Y-42940D01*
X36626Y-42968D01*
X36654Y-43024D01*
X36654Y-43136D01*
X36626Y-43193D01*
X36260Y-43474D02*
X36654Y-43474D01*
X36598Y-43474D02*
X36626Y-43502D01*
X36654Y-43558D01*
X36654Y-43643D01*
X36626Y-43699D01*
X36570Y-43727D01*
X36260Y-43727D01*
X36570Y-43727D02*
X36626Y-43755D01*
X36654Y-43811D01*
X36654Y-43896D01*
X36626Y-43952D01*
X36570Y-43980D01*
X36260Y-43980D01*
X36260Y-44514D02*
X36570Y-44514D01*
X36626Y-44486D01*
X36654Y-44430D01*
X36654Y-44318D01*
X36626Y-44261D01*
X36289Y-44514D02*
X36260Y-44458D01*
X36260Y-44318D01*
X36289Y-44261D01*
X36345Y-44233D01*
X36401Y-44233D01*
X36457Y-44261D01*
X36485Y-44318D01*
X36485Y-44458D01*
X36514Y-44514D01*
X36260Y-44796D02*
X36654Y-44796D01*
X36851Y-44796D02*
X36823Y-44767D01*
X36795Y-44796D01*
X36823Y-44824D01*
X36851Y-44796D01*
X36795Y-44796D01*
X36260Y-45161D02*
X36289Y-45105D01*
X36345Y-45077D01*
X36851Y-45077D01*
X36317Y-45386D02*
X36289Y-45414D01*
X36260Y-45386D01*
X36289Y-45358D01*
X36317Y-45386D01*
X36260Y-45386D01*
X36289Y-45920D02*
X36260Y-45864D01*
X36260Y-45752D01*
X36289Y-45696D01*
X36317Y-45667D01*
X36373Y-45639D01*
X36542Y-45639D01*
X36598Y-45667D01*
X36626Y-45696D01*
X36654Y-45752D01*
X36654Y-45864D01*
X36626Y-45920D01*
X36260Y-46258D02*
X36289Y-46202D01*
X36317Y-46174D01*
X36373Y-46145D01*
X36542Y-46145D01*
X36598Y-46174D01*
X36626Y-46202D01*
X36654Y-46258D01*
X36654Y-46342D01*
X36626Y-46399D01*
X36598Y-46427D01*
X36542Y-46455D01*
X36373Y-46455D01*
X36317Y-46427D01*
X36289Y-46399D01*
X36260Y-46342D01*
X36260Y-46258D01*
X36260Y-46708D02*
X36654Y-46708D01*
X36598Y-46708D02*
X36626Y-46736D01*
X36654Y-46792D01*
X36654Y-46877D01*
X36626Y-46933D01*
X36570Y-46961D01*
X36260Y-46961D01*
X36570Y-46961D02*
X36626Y-46989D01*
X36654Y-47045D01*
X36654Y-47130D01*
X36626Y-47186D01*
X36570Y-47214D01*
X36260Y-47214D01*
X36654Y-47495D02*
X36485Y-47945D01*
X36317Y-47495D01*
X35709Y-29005D02*
X35231Y-29005D01*
X35175Y-28977D01*
X35147Y-28949D01*
X35119Y-28893D01*
X35119Y-28809D01*
X35147Y-28752D01*
X35344Y-29005D02*
X35316Y-28949D01*
X35316Y-28837D01*
X35344Y-28780D01*
X35372Y-28752D01*
X35428Y-28724D01*
X35597Y-28724D01*
X35653Y-28752D01*
X35681Y-28780D01*
X35709Y-28837D01*
X35709Y-28949D01*
X35681Y-29005D01*
X35316Y-29287D02*
X35709Y-29287D01*
X35906Y-29287D02*
X35878Y-29258D01*
X35850Y-29287D01*
X35878Y-29315D01*
X35906Y-29287D01*
X35850Y-29287D01*
X35709Y-29483D02*
X35709Y-29708D01*
X35906Y-29568D02*
X35400Y-29568D01*
X35344Y-29596D01*
X35316Y-29652D01*
X35316Y-29708D01*
X35316Y-29905D02*
X35906Y-29905D01*
X35316Y-30158D02*
X35625Y-30158D01*
X35681Y-30130D01*
X35709Y-30074D01*
X35709Y-29990D01*
X35681Y-29933D01*
X35653Y-29905D01*
X35709Y-30693D02*
X35316Y-30693D01*
X35709Y-30440D02*
X35400Y-30440D01*
X35344Y-30468D01*
X35316Y-30524D01*
X35316Y-30608D01*
X35344Y-30665D01*
X35372Y-30693D01*
X35316Y-30974D02*
X35906Y-30974D01*
X35681Y-30974D02*
X35709Y-31030D01*
X35709Y-31143D01*
X35681Y-31199D01*
X35653Y-31227D01*
X35597Y-31255D01*
X35428Y-31255D01*
X35372Y-31227D01*
X35344Y-31199D01*
X35316Y-31143D01*
X35316Y-31030D01*
X35344Y-30974D01*
X35372Y-31508D02*
X35344Y-31536D01*
X35316Y-31508D01*
X35344Y-31480D01*
X35372Y-31508D01*
X35316Y-31508D01*
X35344Y-32043D02*
X35316Y-31986D01*
X35316Y-31874D01*
X35344Y-31818D01*
X35372Y-31789D01*
X35428Y-31761D01*
X35597Y-31761D01*
X35653Y-31789D01*
X35681Y-31818D01*
X35709Y-31874D01*
X35709Y-31986D01*
X35681Y-32043D01*
X35316Y-32380D02*
X35344Y-32324D01*
X35372Y-32296D01*
X35428Y-32267D01*
X35597Y-32267D01*
X35653Y-32296D01*
X35681Y-32324D01*
X35709Y-32380D01*
X35709Y-32464D01*
X35681Y-32521D01*
X35653Y-32549D01*
X35597Y-32577D01*
X35428Y-32577D01*
X35372Y-32549D01*
X35344Y-32521D01*
X35316Y-32464D01*
X35316Y-32380D01*
X35316Y-32830D02*
X35709Y-32830D01*
X35653Y-32830D02*
X35681Y-32858D01*
X35709Y-32914D01*
X35709Y-32999D01*
X35681Y-33055D01*
X35625Y-33083D01*
X35316Y-33083D01*
X35625Y-33083D02*
X35681Y-33111D01*
X35709Y-33167D01*
X35709Y-33252D01*
X35681Y-33308D01*
X35625Y-33336D01*
X35316Y-33336D01*
X35934Y-34039D02*
X35175Y-33533D01*
X35709Y-34236D02*
X35203Y-34236D01*
X35147Y-34208D01*
X35119Y-34152D01*
X35119Y-34124D01*
X35906Y-34236D02*
X35878Y-34208D01*
X35850Y-34236D01*
X35878Y-34264D01*
X35906Y-34236D01*
X35850Y-34236D01*
X35316Y-34517D02*
X35709Y-34517D01*
X35653Y-34517D02*
X35681Y-34545D01*
X35709Y-34602D01*
X35709Y-34686D01*
X35681Y-34742D01*
X35625Y-34770D01*
X35316Y-34770D01*
X35625Y-34770D02*
X35681Y-34798D01*
X35709Y-34855D01*
X35709Y-34939D01*
X35681Y-34995D01*
X35625Y-35023D01*
X35316Y-35023D01*
X35316Y-35558D02*
X35625Y-35558D01*
X35681Y-35530D01*
X35709Y-35473D01*
X35709Y-35361D01*
X35681Y-35305D01*
X35344Y-35558D02*
X35316Y-35501D01*
X35316Y-35361D01*
X35344Y-35305D01*
X35400Y-35276D01*
X35456Y-35276D01*
X35512Y-35305D01*
X35541Y-35361D01*
X35541Y-35501D01*
X35569Y-35558D01*
X35316Y-35839D02*
X35906Y-35839D01*
X35316Y-36092D02*
X35625Y-36092D01*
X35681Y-36064D01*
X35709Y-36008D01*
X35709Y-35923D01*
X35681Y-35867D01*
X35653Y-35839D01*
X35316Y-36458D02*
X35344Y-36401D01*
X35400Y-36373D01*
X35906Y-36373D01*
X35344Y-36908D02*
X35316Y-36851D01*
X35316Y-36739D01*
X35344Y-36683D01*
X35400Y-36654D01*
X35625Y-36654D01*
X35681Y-36683D01*
X35709Y-36739D01*
X35709Y-36851D01*
X35681Y-36908D01*
X35625Y-36936D01*
X35569Y-36936D01*
X35512Y-36654D01*
X35316Y-37189D02*
X35709Y-37189D01*
X35597Y-37189D02*
X35653Y-37217D01*
X35681Y-37245D01*
X35709Y-37301D01*
X35709Y-37357D01*
X35934Y-37976D02*
X35175Y-37470D01*
X35344Y-38145D02*
X35316Y-38201D01*
X35316Y-38314D01*
X35344Y-38370D01*
X35400Y-38398D01*
X35428Y-38398D01*
X35484Y-38370D01*
X35512Y-38314D01*
X35512Y-38229D01*
X35541Y-38173D01*
X35597Y-38145D01*
X35625Y-38145D01*
X35681Y-38173D01*
X35709Y-38229D01*
X35709Y-38314D01*
X35681Y-38370D01*
X35709Y-38651D02*
X35119Y-38651D01*
X35681Y-38651D02*
X35709Y-38707D01*
X35709Y-38820D01*
X35681Y-38876D01*
X35653Y-38904D01*
X35597Y-38932D01*
X35428Y-38932D01*
X35372Y-38904D01*
X35344Y-38876D01*
X35316Y-38820D01*
X35316Y-38707D01*
X35344Y-38651D01*
X35316Y-39185D02*
X35709Y-39185D01*
X35597Y-39185D02*
X35653Y-39214D01*
X35681Y-39242D01*
X35709Y-39298D01*
X35709Y-39354D01*
X35316Y-39551D02*
X35709Y-39551D01*
X35906Y-39551D02*
X35878Y-39523D01*
X35850Y-39551D01*
X35878Y-39579D01*
X35906Y-39551D01*
X35850Y-39551D01*
X35709Y-39832D02*
X35316Y-39832D01*
X35653Y-39832D02*
X35681Y-39860D01*
X35709Y-39917D01*
X35709Y-40001D01*
X35681Y-40057D01*
X35625Y-40085D01*
X35316Y-40085D01*
X35316Y-40366D02*
X35906Y-40366D01*
X35541Y-40423D02*
X35316Y-40591D01*
X35709Y-40591D02*
X35484Y-40366D01*
X35316Y-40929D02*
X35344Y-40873D01*
X35400Y-40845D01*
X35906Y-40845D01*
X35344Y-41379D02*
X35316Y-41323D01*
X35316Y-41210D01*
X35344Y-41154D01*
X35400Y-41126D01*
X35625Y-41126D01*
X35681Y-41154D01*
X35709Y-41210D01*
X35709Y-41323D01*
X35681Y-41379D01*
X35625Y-41407D01*
X35569Y-41407D01*
X35512Y-41126D01*
X35316Y-41660D02*
X35709Y-41660D01*
X35597Y-41660D02*
X35653Y-41688D01*
X35681Y-41716D01*
X35709Y-41773D01*
X35709Y-41829D01*
X35709Y-42026D02*
X35119Y-42026D01*
X35681Y-42026D02*
X35709Y-42082D01*
X35709Y-42194D01*
X35681Y-42251D01*
X35653Y-42279D01*
X35597Y-42307D01*
X35428Y-42307D01*
X35372Y-42279D01*
X35344Y-42251D01*
X35316Y-42194D01*
X35316Y-42082D01*
X35344Y-42026D01*
X35316Y-42560D02*
X35709Y-42560D01*
X35906Y-42560D02*
X35878Y-42532D01*
X35850Y-42560D01*
X35878Y-42588D01*
X35906Y-42560D01*
X35850Y-42560D01*
X35091Y-43910D02*
X35119Y-43882D01*
X35203Y-43825D01*
X35259Y-43797D01*
X35344Y-43769D01*
X35484Y-43741D01*
X35597Y-43741D01*
X35737Y-43769D01*
X35822Y-43797D01*
X35878Y-43825D01*
X35962Y-43882D01*
X35991Y-43910D01*
X35850Y-44107D02*
X35878Y-44135D01*
X35906Y-44191D01*
X35906Y-44332D01*
X35878Y-44388D01*
X35850Y-44416D01*
X35794Y-44444D01*
X35737Y-44444D01*
X35653Y-44416D01*
X35316Y-44079D01*
X35316Y-44444D01*
X35906Y-44810D02*
X35906Y-44866D01*
X35878Y-44922D01*
X35850Y-44950D01*
X35794Y-44978D01*
X35681Y-45007D01*
X35541Y-45007D01*
X35428Y-44978D01*
X35372Y-44950D01*
X35344Y-44922D01*
X35316Y-44866D01*
X35316Y-44810D01*
X35344Y-44753D01*
X35372Y-44725D01*
X35428Y-44697D01*
X35541Y-44669D01*
X35681Y-44669D01*
X35794Y-44697D01*
X35850Y-44725D01*
X35878Y-44753D01*
X35906Y-44810D01*
X35316Y-45569D02*
X35316Y-45232D01*
X35316Y-45400D02*
X35906Y-45400D01*
X35822Y-45344D01*
X35766Y-45288D01*
X35737Y-45232D01*
X35709Y-46075D02*
X35316Y-46075D01*
X35934Y-45935D02*
X35512Y-45794D01*
X35512Y-46160D01*
X35906Y-46497D02*
X35906Y-46553D01*
X35878Y-46609D01*
X35850Y-46638D01*
X35794Y-46666D01*
X35681Y-46694D01*
X35541Y-46694D01*
X35428Y-46666D01*
X35372Y-46638D01*
X35344Y-46609D01*
X35316Y-46553D01*
X35316Y-46497D01*
X35344Y-46441D01*
X35372Y-46413D01*
X35428Y-46384D01*
X35541Y-46356D01*
X35681Y-46356D01*
X35794Y-46384D01*
X35850Y-46413D01*
X35878Y-46441D01*
X35906Y-46497D01*
X35906Y-46891D02*
X35906Y-47256D01*
X35681Y-47059D01*
X35681Y-47144D01*
X35653Y-47200D01*
X35625Y-47228D01*
X35569Y-47256D01*
X35428Y-47256D01*
X35372Y-47228D01*
X35344Y-47200D01*
X35316Y-47144D01*
X35316Y-46975D01*
X35344Y-46919D01*
X35372Y-46891D01*
X35906Y-47622D02*
X35906Y-47678D01*
X35878Y-47734D01*
X35850Y-47762D01*
X35794Y-47791D01*
X35681Y-47819D01*
X35541Y-47819D01*
X35428Y-47791D01*
X35372Y-47762D01*
X35344Y-47734D01*
X35316Y-47678D01*
X35316Y-47622D01*
X35344Y-47566D01*
X35372Y-47537D01*
X35428Y-47509D01*
X35541Y-47481D01*
X35681Y-47481D01*
X35794Y-47509D01*
X35850Y-47537D01*
X35878Y-47566D01*
X35906Y-47622D01*
X35850Y-48044D02*
X35878Y-48072D01*
X35906Y-48128D01*
X35906Y-48269D01*
X35878Y-48325D01*
X35850Y-48353D01*
X35794Y-48381D01*
X35737Y-48381D01*
X35653Y-48353D01*
X35316Y-48016D01*
X35316Y-48381D01*
X35091Y-48578D02*
X35119Y-48606D01*
X35203Y-48662D01*
X35259Y-48690D01*
X35344Y-48719D01*
X35484Y-48747D01*
X35597Y-48747D01*
X35737Y-48719D01*
X35822Y-48690D01*
X35878Y-48662D01*
X35962Y-48606D01*
X35991Y-48578D01*
G54D10*
X74000Y-36650D02*
X78500Y-36650D01*
X78500Y-36650D02*
X78500Y-42950D01*
X78500Y-42950D02*
X69500Y-42950D01*
X69500Y-42950D02*
X69500Y-36650D01*
X69500Y-36650D02*
X74000Y-36650D01*
X37500Y-28370D02*
X60000Y-28370D01*
X60000Y-28370D02*
X60000Y-47100D01*
X60000Y-47100D02*
X37500Y-47100D01*
X37500Y-47100D02*
X37500Y-28370D01*
G54D12*
X67750Y-35750D02*
X67750Y-36150D01*
X67750Y-36150D02*
X68150Y-36150D01*
X68150Y-36150D02*
X68150Y-39350D01*
X68150Y-39350D02*
X67350Y-39350D01*
X67350Y-39350D02*
X67350Y-36150D01*
X67350Y-36150D02*
X67750Y-36150D01*
X67950Y-36150D02*
X68150Y-36350D01*
X67750Y-39750D02*
X67750Y-39350D01*
G54D13*
X55250Y-27000D02*
X52250Y-27000D01*
X52250Y-25000D02*
X55250Y-25000D01*
X55250Y-25000D02*
X55250Y-27000D01*
X52250Y-27000D02*
X52250Y-25000D01*
G54D14*
X75500Y-32550D02*
X75500Y-32950D01*
X75300Y-32750D02*
X75700Y-32750D01*
X78500Y-33750D02*
G75*
G03X78500Y-33750I-2000J0D01*
G74*
G01*
G54D15*
X70750Y-34250D02*
X70750Y-33750D01*
X70750Y-33750D02*
X71750Y-33750D01*
X71750Y-33750D02*
X71750Y-34250D01*
X70250Y-34250D02*
X70250Y-30250D01*
X70250Y-30250D02*
X72250Y-30250D01*
X72250Y-30250D02*
X72250Y-34250D01*
X72250Y-34250D02*
X70250Y-34250D01*
G54D12*
X74250Y-25250D02*
X73750Y-25250D01*
X73750Y-25250D02*
X73750Y-24750D01*
X73750Y-24750D02*
X69750Y-24750D01*
X69750Y-24750D02*
X69750Y-25250D01*
X69750Y-25250D02*
X69250Y-25250D01*
X69750Y-25250D02*
X69750Y-25750D01*
X69750Y-25750D02*
X73750Y-25750D01*
X73750Y-25750D02*
X73750Y-25250D01*
X73250Y-24750D02*
X73250Y-25750D01*
X73350Y-24750D02*
X73350Y-25750D01*
X62000Y-39750D02*
X62000Y-39250D01*
X62000Y-39250D02*
X62500Y-39250D01*
X62500Y-39250D02*
X62500Y-35250D01*
X62500Y-35250D02*
X62000Y-35250D01*
X62000Y-35250D02*
X62000Y-34750D01*
X62000Y-35250D02*
X61500Y-35250D01*
X61500Y-35250D02*
X61500Y-39250D01*
X61500Y-39250D02*
X62000Y-39250D01*
X62500Y-38750D02*
X61500Y-38750D01*
X62500Y-38850D02*
X61500Y-38850D01*
X65000Y-31750D02*
X65000Y-31250D01*
X65000Y-31250D02*
X65500Y-31250D01*
X65500Y-31250D02*
X65500Y-27250D01*
X65500Y-27250D02*
X65000Y-27250D01*
X65000Y-27250D02*
X65000Y-26750D01*
X65000Y-27250D02*
X64500Y-27250D01*
X64500Y-27250D02*
X64500Y-31250D01*
X64500Y-31250D02*
X65000Y-31250D01*
X65500Y-30750D02*
X64500Y-30750D01*
X65500Y-30850D02*
X64500Y-30850D01*
X62000Y-26750D02*
X62000Y-27250D01*
X62000Y-27250D02*
X61500Y-27250D01*
X61500Y-27250D02*
X61500Y-31250D01*
X61500Y-31250D02*
X62000Y-31250D01*
X62000Y-31250D02*
X62000Y-31750D01*
X62000Y-31250D02*
X62500Y-31250D01*
X62500Y-31250D02*
X62500Y-27250D01*
X62500Y-27250D02*
X62000Y-27250D01*
X61500Y-27750D02*
X62500Y-27750D01*
X61500Y-27650D02*
X62500Y-27650D01*
X65000Y-34750D02*
X65000Y-35250D01*
X65000Y-35250D02*
X64500Y-35250D01*
X64500Y-35250D02*
X64500Y-39250D01*
X64500Y-39250D02*
X65000Y-39250D01*
X65000Y-39250D02*
X65000Y-39750D01*
X65000Y-39250D02*
X65500Y-39250D01*
X65500Y-39250D02*
X65500Y-35250D01*
X65500Y-35250D02*
X65000Y-35250D01*
X64500Y-35750D02*
X65500Y-35750D01*
X64500Y-35650D02*
X65500Y-35650D01*
G54D14*
X67900Y-43800D02*
X67900Y-44600D01*
X68300Y-44200D02*
X67500Y-44200D01*
X69650Y-46000D02*
G75*
G03X69650Y-46000I-3150J0D01*
G74*
G01*
X61150Y-25250D02*
G75*
G03X61150Y-25250I-900J0D01*
G74*
G01*
X36650Y-25250D02*
G75*
G03X36650Y-25250I-900J0D01*
G74*
G01*
X36650Y-51750D02*
G75*
G03X36650Y-51750I-900J0D01*
G74*
G01*
X61150Y-51750D02*
G75*
G03X61150Y-51750I-900J0D01*
G74*
G01*
X78650Y-25250D02*
G75*
G03X78650Y-25250I-900J0D01*
G74*
G01*
X78650Y-51750D02*
G75*
G03X78650Y-51750I-900J0D01*
G74*
G01*
G54D12*
X67750Y-30750D02*
X67750Y-30350D01*
X67750Y-30350D02*
X67350Y-30350D01*
X67350Y-30350D02*
X67350Y-27150D01*
X67350Y-27150D02*
X68150Y-27150D01*
X68150Y-27150D02*
X68150Y-30350D01*
X68150Y-30350D02*
X67750Y-30350D01*
X67550Y-30350D02*
X67350Y-30150D01*
X67750Y-26750D02*
X67750Y-27150D01*
X69250Y-27750D02*
X69650Y-27750D01*
X69650Y-27750D02*
X69650Y-27350D01*
X69650Y-27350D02*
X72850Y-27350D01*
X72850Y-27350D02*
X72850Y-28150D01*
X72850Y-28150D02*
X69650Y-28150D01*
X69650Y-28150D02*
X69650Y-27750D01*
X69650Y-27550D02*
X69850Y-27350D01*
X73250Y-27750D02*
X72850Y-27750D01*
X62000Y-47750D02*
X62000Y-47350D01*
X62000Y-47350D02*
X61600Y-47350D01*
X61600Y-47350D02*
X61600Y-44150D01*
X61600Y-44150D02*
X62400Y-44150D01*
X62400Y-44150D02*
X62400Y-47350D01*
X62400Y-47350D02*
X62000Y-47350D01*
X61800Y-47350D02*
X61600Y-47150D01*
X62000Y-43750D02*
X62000Y-44150D01*
X76750Y-44750D02*
X76350Y-44750D01*
X71750Y-44750D02*
X72150Y-44750D01*
X72150Y-45250D02*
X72150Y-44250D01*
X72150Y-44250D02*
X76350Y-44250D01*
X76350Y-44250D02*
X76350Y-45250D01*
X76350Y-45250D02*
X72150Y-45250D01*
X76350Y-45050D02*
X76150Y-45250D01*
G54D10*
X46750Y-25200D02*
X46750Y-26800D01*
X46750Y-26800D02*
X39450Y-26800D01*
X39450Y-26800D02*
X39450Y-25200D01*
X39450Y-25200D02*
X46750Y-25200D01*
G54D12*
X45000Y-52250D02*
X45000Y-49250D01*
X51000Y-52250D02*
X51000Y-49250D01*
X45000Y-51750D02*
X51000Y-51750D01*
X45000Y-49250D02*
X51000Y-49250D01*
X45000Y-52250D02*
X51000Y-52250D01*
X75100Y-28600D02*
X77900Y-28600D01*
X77900Y-28600D02*
X77900Y-29400D01*
X77900Y-29400D02*
X75100Y-29400D01*
X75100Y-29400D02*
X75100Y-28600D01*
X75100Y-28800D02*
X75300Y-28600D01*
X74350Y-47600D02*
X77150Y-47600D01*
X77150Y-47600D02*
X77150Y-48400D01*
X77150Y-48400D02*
X74350Y-48400D01*
X74350Y-48400D02*
X74350Y-47600D01*
X74350Y-47800D02*
X74550Y-47600D01*
X68250Y-50250D02*
X72250Y-50250D01*
X72250Y-50250D02*
X72250Y-52250D01*
X72250Y-52250D02*
X68250Y-52250D01*
X68250Y-52250D02*
X68250Y-50250D01*
G54D10*
X73934Y-39009D02*
X73746Y-39009D01*
X73746Y-38615D01*
X74271Y-39009D02*
X74046Y-39009D01*
X74159Y-39009D02*
X74159Y-38615D01*
X74121Y-38671D01*
X74084Y-38709D01*
X74046Y-38728D01*
X73128Y-40153D02*
X73146Y-40134D01*
X73184Y-40115D01*
X73278Y-40115D01*
X73315Y-40134D01*
X73334Y-40153D01*
X73353Y-40190D01*
X73353Y-40228D01*
X73334Y-40284D01*
X73109Y-40509D01*
X73353Y-40509D01*
X73503Y-40153D02*
X73521Y-40134D01*
X73559Y-40115D01*
X73653Y-40115D01*
X73690Y-40134D01*
X73709Y-40153D01*
X73728Y-40190D01*
X73728Y-40228D01*
X73709Y-40284D01*
X73484Y-40509D01*
X73728Y-40509D01*
X73971Y-40115D02*
X74009Y-40115D01*
X74046Y-40134D01*
X74065Y-40153D01*
X74084Y-40190D01*
X74103Y-40265D01*
X74103Y-40359D01*
X74084Y-40434D01*
X74065Y-40471D01*
X74046Y-40490D01*
X74009Y-40509D01*
X73971Y-40509D01*
X73934Y-40490D01*
X73915Y-40471D01*
X73896Y-40434D01*
X73878Y-40359D01*
X73878Y-40265D01*
X73896Y-40190D01*
X73915Y-40153D01*
X73934Y-40134D01*
X73971Y-40115D01*
X74440Y-40246D02*
X74440Y-40509D01*
X74271Y-40246D02*
X74271Y-40453D01*
X74290Y-40490D01*
X74328Y-40509D01*
X74384Y-40509D01*
X74421Y-40490D01*
X74440Y-40471D01*
X74628Y-40509D02*
X74628Y-40115D01*
X74628Y-40303D02*
X74853Y-40303D01*
X74853Y-40509D02*
X74853Y-40115D01*
X48460Y-37745D02*
X48685Y-37745D01*
X48572Y-38139D02*
X48572Y-37745D01*
X49022Y-38139D02*
X48797Y-38139D01*
X48909Y-38139D02*
X48909Y-37745D01*
X48872Y-37801D01*
X48834Y-37839D01*
X48797Y-37858D01*
X44588Y-38545D02*
X44813Y-38545D01*
X44701Y-38939D02*
X44701Y-38545D01*
X45169Y-38939D02*
X45038Y-38751D01*
X44944Y-38939D02*
X44944Y-38545D01*
X45094Y-38545D01*
X45132Y-38564D01*
X45151Y-38583D01*
X45169Y-38620D01*
X45169Y-38676D01*
X45151Y-38714D01*
X45132Y-38733D01*
X45094Y-38751D01*
X44944Y-38751D01*
X45319Y-38826D02*
X45507Y-38826D01*
X45282Y-38939D02*
X45413Y-38545D01*
X45544Y-38939D01*
X45676Y-38939D02*
X45676Y-38545D01*
X45900Y-38939D01*
X45900Y-38545D01*
X46069Y-38920D02*
X46125Y-38939D01*
X46219Y-38939D01*
X46257Y-38920D01*
X46275Y-38901D01*
X46294Y-38864D01*
X46294Y-38826D01*
X46275Y-38789D01*
X46257Y-38770D01*
X46219Y-38751D01*
X46144Y-38733D01*
X46107Y-38714D01*
X46088Y-38695D01*
X46069Y-38658D01*
X46069Y-38620D01*
X46088Y-38583D01*
X46107Y-38564D01*
X46144Y-38545D01*
X46238Y-38545D01*
X46294Y-38564D01*
X46594Y-38733D02*
X46463Y-38733D01*
X46463Y-38939D02*
X46463Y-38545D01*
X46650Y-38545D01*
X46875Y-38545D02*
X46950Y-38545D01*
X46988Y-38564D01*
X47025Y-38601D01*
X47044Y-38676D01*
X47044Y-38808D01*
X47025Y-38883D01*
X46988Y-38920D01*
X46950Y-38939D01*
X46875Y-38939D01*
X46838Y-38920D01*
X46800Y-38883D01*
X46782Y-38808D01*
X46782Y-38676D01*
X46800Y-38601D01*
X46838Y-38564D01*
X46875Y-38545D01*
X47438Y-38939D02*
X47307Y-38751D01*
X47213Y-38939D02*
X47213Y-38545D01*
X47363Y-38545D01*
X47400Y-38564D01*
X47419Y-38583D01*
X47438Y-38620D01*
X47438Y-38676D01*
X47419Y-38714D01*
X47400Y-38733D01*
X47363Y-38751D01*
X47213Y-38751D01*
X47607Y-38939D02*
X47607Y-38545D01*
X47738Y-38826D01*
X47869Y-38545D01*
X47869Y-38939D01*
X48056Y-38733D02*
X48188Y-38733D01*
X48244Y-38939D02*
X48056Y-38939D01*
X48056Y-38545D01*
X48244Y-38545D01*
X48638Y-38939D02*
X48506Y-38751D01*
X48413Y-38939D02*
X48413Y-38545D01*
X48563Y-38545D01*
X48600Y-38564D01*
X48619Y-38583D01*
X48638Y-38620D01*
X48638Y-38676D01*
X48619Y-38714D01*
X48600Y-38733D01*
X48563Y-38751D01*
X48413Y-38751D01*
X48713Y-38976D02*
X49013Y-38976D01*
X49238Y-38733D02*
X49106Y-38733D01*
X49106Y-38939D02*
X49106Y-38545D01*
X49294Y-38545D01*
X49425Y-38583D02*
X49444Y-38564D01*
X49481Y-38545D01*
X49575Y-38545D01*
X49613Y-38564D01*
X49631Y-38583D01*
X49650Y-38620D01*
X49650Y-38658D01*
X49631Y-38714D01*
X49406Y-38939D01*
X49650Y-38939D01*
X49987Y-38676D02*
X49987Y-38939D01*
X49894Y-38526D02*
X49800Y-38808D01*
X50044Y-38808D01*
X50194Y-38789D02*
X50494Y-38789D01*
X50737Y-38714D02*
X50700Y-38695D01*
X50681Y-38676D01*
X50662Y-38639D01*
X50662Y-38620D01*
X50681Y-38583D01*
X50700Y-38564D01*
X50737Y-38545D01*
X50812Y-38545D01*
X50850Y-38564D01*
X50869Y-38583D01*
X50887Y-38620D01*
X50887Y-38639D01*
X50869Y-38676D01*
X50850Y-38695D01*
X50812Y-38714D01*
X50737Y-38714D01*
X50700Y-38733D01*
X50681Y-38751D01*
X50662Y-38789D01*
X50662Y-38864D01*
X50681Y-38901D01*
X50700Y-38920D01*
X50737Y-38939D01*
X50812Y-38939D01*
X50850Y-38920D01*
X50869Y-38901D01*
X50887Y-38864D01*
X50887Y-38789D01*
X50869Y-38751D01*
X50850Y-38733D01*
X50812Y-38714D01*
X51131Y-38545D02*
X51169Y-38545D01*
X51206Y-38564D01*
X51225Y-38583D01*
X51244Y-38620D01*
X51262Y-38695D01*
X51262Y-38789D01*
X51244Y-38864D01*
X51225Y-38901D01*
X51206Y-38920D01*
X51169Y-38939D01*
X51131Y-38939D01*
X51094Y-38920D01*
X51075Y-38901D01*
X51056Y-38864D01*
X51037Y-38789D01*
X51037Y-38695D01*
X51056Y-38620D01*
X51075Y-38583D01*
X51094Y-38564D01*
X51131Y-38545D01*
X51506Y-38545D02*
X51544Y-38545D01*
X51581Y-38564D01*
X51600Y-38583D01*
X51619Y-38620D01*
X51637Y-38695D01*
X51637Y-38789D01*
X51619Y-38864D01*
X51600Y-38901D01*
X51581Y-38920D01*
X51544Y-38939D01*
X51506Y-38939D01*
X51469Y-38920D01*
X51450Y-38901D01*
X51431Y-38864D01*
X51412Y-38789D01*
X51412Y-38695D01*
X51431Y-38620D01*
X51450Y-38583D01*
X51469Y-38564D01*
X51506Y-38545D01*
X51806Y-38789D02*
X52106Y-38789D01*
X52518Y-38901D02*
X52500Y-38920D01*
X52443Y-38939D01*
X52406Y-38939D01*
X52350Y-38920D01*
X52312Y-38883D01*
X52293Y-38845D01*
X52275Y-38770D01*
X52275Y-38714D01*
X52293Y-38639D01*
X52312Y-38601D01*
X52350Y-38564D01*
X52406Y-38545D01*
X52443Y-38545D01*
X52500Y-38564D01*
X52518Y-38583D01*
X52668Y-38583D02*
X52687Y-38564D01*
X52725Y-38545D01*
X52818Y-38545D01*
X52856Y-38564D01*
X52875Y-38583D01*
X52893Y-38620D01*
X52893Y-38658D01*
X52875Y-38714D01*
X52650Y-38939D01*
X52893Y-38939D01*
G54D13*
X67972Y-37833D02*
X67710Y-38000D01*
X67972Y-38119D02*
X67422Y-38119D01*
X67422Y-37928D01*
X67448Y-37880D01*
X67475Y-37857D01*
X67527Y-37833D01*
X67605Y-37833D01*
X67658Y-37857D01*
X67684Y-37880D01*
X67710Y-37928D01*
X67710Y-38119D01*
X67475Y-37642D02*
X67448Y-37619D01*
X67422Y-37571D01*
X67422Y-37452D01*
X67448Y-37404D01*
X67475Y-37380D01*
X67527Y-37357D01*
X67579Y-37357D01*
X67658Y-37380D01*
X67972Y-37666D01*
X67972Y-37357D01*
X51354Y-27001D02*
X51354Y-26601D01*
X51507Y-26601D01*
X51545Y-26620D01*
X51564Y-26640D01*
X51583Y-26678D01*
X51583Y-26735D01*
X51564Y-26773D01*
X51545Y-26792D01*
X51507Y-26811D01*
X51354Y-26811D01*
X51964Y-27001D02*
X51735Y-27001D01*
X51850Y-27001D02*
X51850Y-26601D01*
X51811Y-26659D01*
X51773Y-26697D01*
X51735Y-26716D01*
G54D12*
X74650Y-31935D02*
X74621Y-31964D01*
X74535Y-31992D01*
X74478Y-31992D01*
X74392Y-31964D01*
X74335Y-31907D01*
X74307Y-31850D01*
X74278Y-31735D01*
X74278Y-31650D01*
X74307Y-31535D01*
X74335Y-31478D01*
X74392Y-31421D01*
X74478Y-31392D01*
X74535Y-31392D01*
X74621Y-31421D01*
X74650Y-31450D01*
X74850Y-31392D02*
X75221Y-31392D01*
X75021Y-31621D01*
X75107Y-31621D01*
X75164Y-31650D01*
X75192Y-31678D01*
X75221Y-31735D01*
X75221Y-31878D01*
X75192Y-31935D01*
X75164Y-31964D01*
X75107Y-31992D01*
X74935Y-31992D01*
X74878Y-31964D01*
X74850Y-31935D01*
G54D13*
X70907Y-34452D02*
X70907Y-34857D01*
X70928Y-34904D01*
X70950Y-34928D01*
X70992Y-34952D01*
X71078Y-34952D01*
X71121Y-34928D01*
X71142Y-34904D01*
X71164Y-34857D01*
X71164Y-34452D01*
X71614Y-34952D02*
X71357Y-34952D01*
X71485Y-34952D02*
X71485Y-34452D01*
X71442Y-34523D01*
X71400Y-34571D01*
X71357Y-34595D01*
X71452Y-33535D02*
X70952Y-33535D01*
X71309Y-33402D01*
X70952Y-33269D01*
X71452Y-33269D01*
X71404Y-32850D02*
X71428Y-32869D01*
X71452Y-32926D01*
X71452Y-32964D01*
X71428Y-33021D01*
X71380Y-33059D01*
X71333Y-33078D01*
X71238Y-33097D01*
X71166Y-33097D01*
X71071Y-33078D01*
X71023Y-33059D01*
X70976Y-33021D01*
X70952Y-32964D01*
X70952Y-32926D01*
X70976Y-32869D01*
X71000Y-32850D01*
X70952Y-32716D02*
X70952Y-32469D01*
X71142Y-32602D01*
X71142Y-32545D01*
X71166Y-32507D01*
X71190Y-32488D01*
X71238Y-32469D01*
X71357Y-32469D01*
X71404Y-32488D01*
X71428Y-32507D01*
X71452Y-32545D01*
X71452Y-32659D01*
X71428Y-32697D01*
X71404Y-32716D01*
X71119Y-32126D02*
X71452Y-32126D01*
X70928Y-32221D02*
X71285Y-32316D01*
X71285Y-32069D01*
X70952Y-31840D02*
X70952Y-31802D01*
X70976Y-31764D01*
X71000Y-31745D01*
X71047Y-31726D01*
X71142Y-31707D01*
X71261Y-31707D01*
X71357Y-31726D01*
X71404Y-31745D01*
X71428Y-31764D01*
X71452Y-31802D01*
X71452Y-31840D01*
X71428Y-31878D01*
X71404Y-31897D01*
X71357Y-31916D01*
X71261Y-31935D01*
X71142Y-31935D01*
X71047Y-31916D01*
X71000Y-31897D01*
X70976Y-31878D01*
X70952Y-31840D01*
X70952Y-31364D02*
X70952Y-31440D01*
X70976Y-31478D01*
X71000Y-31497D01*
X71071Y-31535D01*
X71166Y-31554D01*
X71357Y-31554D01*
X71404Y-31535D01*
X71428Y-31516D01*
X71452Y-31478D01*
X71452Y-31402D01*
X71428Y-31364D01*
X71404Y-31345D01*
X71357Y-31326D01*
X71238Y-31326D01*
X71190Y-31345D01*
X71166Y-31364D01*
X71142Y-31402D01*
X71142Y-31478D01*
X71166Y-31516D01*
X71190Y-31535D01*
X71238Y-31554D01*
X70952Y-31192D02*
X70952Y-30945D01*
X71142Y-31078D01*
X71142Y-31021D01*
X71166Y-30983D01*
X71190Y-30964D01*
X71238Y-30945D01*
X71357Y-30945D01*
X71404Y-30964D01*
X71428Y-30983D01*
X71452Y-31021D01*
X71452Y-31135D01*
X71428Y-31173D01*
X71404Y-31192D01*
G54D15*
X71454Y-25492D02*
X71454Y-24892D01*
X71550Y-24892D01*
X71607Y-24921D01*
X71645Y-24978D01*
X71664Y-25035D01*
X71683Y-25150D01*
X71683Y-25235D01*
X71664Y-25350D01*
X71645Y-25407D01*
X71607Y-25464D01*
X71550Y-25492D01*
X71454Y-25492D01*
X72045Y-24892D02*
X71854Y-24892D01*
X71835Y-25178D01*
X71854Y-25150D01*
X71892Y-25121D01*
X71988Y-25121D01*
X72026Y-25150D01*
X72045Y-25178D01*
X72064Y-25235D01*
X72064Y-25378D01*
X72045Y-25435D01*
X72026Y-25464D01*
X71988Y-25492D01*
X71892Y-25492D01*
X71854Y-25464D01*
X71835Y-25435D01*
G54D12*
G54D15*
X62242Y-37545D02*
X61642Y-37545D01*
X61642Y-37449D01*
X61671Y-37392D01*
X61728Y-37354D01*
X61785Y-37335D01*
X61900Y-37316D01*
X61985Y-37316D01*
X62100Y-37335D01*
X62157Y-37354D01*
X62214Y-37392D01*
X62242Y-37449D01*
X62242Y-37545D01*
X62242Y-36935D02*
X62242Y-37164D01*
X62242Y-37049D02*
X61642Y-37049D01*
X61728Y-37088D01*
X61785Y-37126D01*
X61814Y-37164D01*
G54D12*
G54D15*
X65242Y-29545D02*
X64642Y-29545D01*
X64642Y-29449D01*
X64671Y-29392D01*
X64728Y-29354D01*
X64785Y-29335D01*
X64900Y-29316D01*
X64985Y-29316D01*
X65100Y-29335D01*
X65157Y-29354D01*
X65214Y-29392D01*
X65242Y-29449D01*
X65242Y-29545D01*
X64842Y-28973D02*
X65242Y-28973D01*
X64614Y-29069D02*
X65042Y-29164D01*
X65042Y-28916D01*
G54D12*
G54D15*
X62242Y-29545D02*
X61642Y-29545D01*
X61642Y-29449D01*
X61671Y-29392D01*
X61728Y-29354D01*
X61785Y-29335D01*
X61900Y-29316D01*
X61985Y-29316D01*
X62100Y-29335D01*
X62157Y-29354D01*
X62214Y-29392D01*
X62242Y-29449D01*
X62242Y-29545D01*
X61642Y-29183D02*
X61642Y-28935D01*
X61871Y-29069D01*
X61871Y-29011D01*
X61900Y-28973D01*
X61928Y-28954D01*
X61985Y-28935D01*
X62128Y-28935D01*
X62185Y-28954D01*
X62214Y-28973D01*
X62242Y-29011D01*
X62242Y-29126D01*
X62214Y-29164D01*
X62185Y-29183D01*
G54D12*
G54D15*
X65242Y-37545D02*
X64642Y-37545D01*
X64642Y-37449D01*
X64671Y-37392D01*
X64728Y-37354D01*
X64785Y-37335D01*
X64900Y-37316D01*
X64985Y-37316D01*
X65100Y-37335D01*
X65157Y-37354D01*
X65214Y-37392D01*
X65242Y-37449D01*
X65242Y-37545D01*
X64700Y-37164D02*
X64671Y-37145D01*
X64642Y-37107D01*
X64642Y-37011D01*
X64671Y-36973D01*
X64700Y-36954D01*
X64757Y-36935D01*
X64814Y-36935D01*
X64900Y-36954D01*
X65242Y-37183D01*
X65242Y-36935D01*
G54D12*
X70685Y-46100D02*
X70714Y-46128D01*
X70742Y-46214D01*
X70742Y-46271D01*
X70714Y-46357D01*
X70657Y-46414D01*
X70600Y-46442D01*
X70485Y-46471D01*
X70400Y-46471D01*
X70285Y-46442D01*
X70228Y-46414D01*
X70171Y-46357D01*
X70142Y-46271D01*
X70142Y-46214D01*
X70171Y-46128D01*
X70200Y-46100D01*
X70742Y-45528D02*
X70742Y-45871D01*
X70742Y-45700D02*
X70142Y-45700D01*
X70228Y-45757D01*
X70285Y-45814D01*
X70314Y-45871D01*
G54D15*
X61549Y-24841D02*
X61320Y-24841D01*
X61435Y-24841D02*
X61435Y-24441D01*
X61397Y-24499D01*
X61359Y-24537D01*
X61320Y-24556D01*
X61720Y-24841D02*
X61720Y-24441D01*
X61873Y-24441D01*
X61911Y-24460D01*
X61930Y-24480D01*
X61949Y-24518D01*
X61949Y-24575D01*
X61930Y-24613D01*
X61911Y-24632D01*
X61873Y-24651D01*
X61720Y-24651D01*
X62120Y-24841D02*
X62120Y-24441D01*
X62311Y-24841D02*
X62311Y-24441D01*
X62540Y-24841D01*
X62540Y-24441D01*
X35379Y-27091D02*
X35150Y-27091D01*
X35265Y-27091D02*
X35265Y-26691D01*
X35227Y-26749D01*
X35189Y-26787D01*
X35150Y-26806D01*
X35550Y-27091D02*
X35550Y-26691D01*
X35703Y-26691D01*
X35741Y-26710D01*
X35760Y-26730D01*
X35779Y-26768D01*
X35779Y-26825D01*
X35760Y-26863D01*
X35741Y-26882D01*
X35703Y-26901D01*
X35550Y-26901D01*
X35950Y-27091D02*
X35950Y-26691D01*
X36141Y-27091D02*
X36141Y-26691D01*
X36370Y-27091D01*
X36370Y-26691D01*
X35359Y-50711D02*
X35130Y-50711D01*
X35245Y-50711D02*
X35245Y-50311D01*
X35207Y-50369D01*
X35169Y-50407D01*
X35130Y-50426D01*
X35530Y-50711D02*
X35530Y-50311D01*
X35683Y-50311D01*
X35721Y-50330D01*
X35740Y-50350D01*
X35759Y-50388D01*
X35759Y-50445D01*
X35740Y-50483D01*
X35721Y-50502D01*
X35683Y-50521D01*
X35530Y-50521D01*
X35930Y-50711D02*
X35930Y-50311D01*
X36121Y-50711D02*
X36121Y-50311D01*
X36350Y-50711D01*
X36350Y-50311D01*
X59859Y-50711D02*
X59630Y-50711D01*
X59745Y-50711D02*
X59745Y-50311D01*
X59707Y-50369D01*
X59669Y-50407D01*
X59630Y-50426D01*
X60030Y-50711D02*
X60030Y-50311D01*
X60183Y-50311D01*
X60221Y-50330D01*
X60240Y-50350D01*
X60259Y-50388D01*
X60259Y-50445D01*
X60240Y-50483D01*
X60221Y-50502D01*
X60183Y-50521D01*
X60030Y-50521D01*
X60430Y-50711D02*
X60430Y-50311D01*
X60621Y-50711D02*
X60621Y-50311D01*
X60850Y-50711D01*
X60850Y-50311D01*
X75859Y-24661D02*
X75630Y-24661D01*
X75745Y-24661D02*
X75745Y-24261D01*
X75707Y-24319D01*
X75669Y-24357D01*
X75630Y-24376D01*
X76030Y-24661D02*
X76030Y-24261D01*
X76183Y-24261D01*
X76221Y-24280D01*
X76240Y-24300D01*
X76259Y-24338D01*
X76259Y-24395D01*
X76240Y-24433D01*
X76221Y-24452D01*
X76183Y-24471D01*
X76030Y-24471D01*
X76430Y-24661D02*
X76430Y-24261D01*
X76621Y-24661D02*
X76621Y-24261D01*
X76850Y-24661D01*
X76850Y-24261D01*
X77359Y-50711D02*
X77130Y-50711D01*
X77245Y-50711D02*
X77245Y-50311D01*
X77207Y-50369D01*
X77169Y-50407D01*
X77130Y-50426D01*
X77530Y-50711D02*
X77530Y-50311D01*
X77683Y-50311D01*
X77721Y-50330D01*
X77740Y-50350D01*
X77759Y-50388D01*
X77759Y-50445D01*
X77740Y-50483D01*
X77721Y-50502D01*
X77683Y-50521D01*
X77530Y-50521D01*
X77930Y-50711D02*
X77930Y-50311D01*
X78121Y-50711D02*
X78121Y-50311D01*
X78350Y-50711D01*
X78350Y-50311D01*
G54D13*
X67972Y-28833D02*
X67710Y-29000D01*
X67972Y-29119D02*
X67422Y-29119D01*
X67422Y-28928D01*
X67448Y-28880D01*
X67475Y-28857D01*
X67527Y-28833D01*
X67605Y-28833D01*
X67658Y-28857D01*
X67684Y-28880D01*
X67710Y-28928D01*
X67710Y-29119D01*
X67422Y-28666D02*
X67422Y-28357D01*
X67632Y-28523D01*
X67632Y-28452D01*
X67658Y-28404D01*
X67684Y-28380D01*
X67736Y-28357D01*
X67867Y-28357D01*
X67920Y-28380D01*
X67946Y-28404D01*
X67972Y-28452D01*
X67972Y-28595D01*
X67946Y-28642D01*
X67920Y-28666D01*
X71166Y-27972D02*
X71000Y-27710D01*
X70880Y-27972D02*
X70880Y-27422D01*
X71071Y-27422D01*
X71119Y-27448D01*
X71142Y-27475D01*
X71166Y-27527D01*
X71166Y-27605D01*
X71142Y-27658D01*
X71119Y-27684D01*
X71071Y-27710D01*
X70880Y-27710D01*
X71595Y-27605D02*
X71595Y-27972D01*
X71476Y-27396D02*
X71357Y-27789D01*
X71666Y-27789D01*
X62222Y-45833D02*
X61960Y-46000D01*
X62222Y-46119D02*
X61672Y-46119D01*
X61672Y-45928D01*
X61698Y-45880D01*
X61725Y-45857D01*
X61777Y-45833D01*
X61855Y-45833D01*
X61908Y-45857D01*
X61934Y-45880D01*
X61960Y-45928D01*
X61960Y-46119D01*
X62222Y-45357D02*
X62222Y-45642D01*
X62222Y-45500D02*
X61672Y-45500D01*
X61751Y-45547D01*
X61803Y-45595D01*
X61829Y-45642D01*
X74166Y-44972D02*
X73928Y-44972D01*
X73928Y-44422D01*
X74309Y-44475D02*
X74333Y-44448D01*
X74380Y-44422D01*
X74500Y-44422D01*
X74547Y-44448D01*
X74571Y-44475D01*
X74595Y-44527D01*
X74595Y-44579D01*
X74571Y-44658D01*
X74285Y-44972D01*
X74595Y-44972D01*
G54D10*
X38868Y-27453D02*
X38737Y-27453D01*
X38737Y-27659D02*
X38737Y-27265D01*
X38925Y-27265D01*
X39281Y-27659D02*
X39056Y-27659D01*
X39168Y-27659D02*
X39168Y-27265D01*
X39131Y-27321D01*
X39093Y-27359D01*
X39056Y-27378D01*
X39943Y-27659D02*
X39718Y-27659D01*
X39831Y-27659D02*
X39831Y-27265D01*
X39793Y-27321D01*
X39756Y-27359D01*
X39718Y-27378D01*
X40093Y-27546D02*
X40281Y-27546D01*
X40056Y-27659D02*
X40187Y-27265D01*
X40318Y-27659D01*
G54D12*
X45557Y-48992D02*
X45557Y-48392D01*
X45900Y-48992D02*
X45642Y-48650D01*
X45900Y-48392D02*
X45557Y-48735D01*
X46471Y-48992D02*
X46128Y-48992D01*
X46300Y-48992D02*
X46300Y-48392D01*
X46242Y-48478D01*
X46185Y-48535D01*
X46128Y-48564D01*
X47728Y-48935D02*
X47700Y-48964D01*
X47614Y-48992D01*
X47557Y-48992D01*
X47471Y-48964D01*
X47414Y-48907D01*
X47385Y-48850D01*
X47357Y-48735D01*
X47357Y-48650D01*
X47385Y-48535D01*
X47414Y-48478D01*
X47471Y-48421D01*
X47557Y-48392D01*
X47614Y-48392D01*
X47700Y-48421D01*
X47728Y-48450D01*
X48100Y-48392D02*
X48214Y-48392D01*
X48271Y-48421D01*
X48328Y-48478D01*
X48357Y-48592D01*
X48357Y-48792D01*
X48328Y-48907D01*
X48271Y-48964D01*
X48214Y-48992D01*
X48100Y-48992D01*
X48042Y-48964D01*
X47985Y-48907D01*
X47957Y-48792D01*
X47957Y-48592D01*
X47985Y-48478D01*
X48042Y-48421D01*
X48100Y-48392D01*
X48614Y-48992D02*
X48614Y-48392D01*
X48957Y-48992D01*
X48957Y-48392D01*
X49242Y-48992D02*
X49242Y-48392D01*
X49585Y-48992D01*
X49585Y-48392D01*
X49728Y-49050D02*
X50185Y-49050D01*
X50271Y-48392D02*
X50642Y-48392D01*
X50442Y-48621D01*
X50528Y-48621D01*
X50585Y-48650D01*
X50614Y-48678D01*
X50642Y-48735D01*
X50642Y-48878D01*
X50614Y-48935D01*
X50585Y-48964D01*
X50528Y-48992D01*
X50357Y-48992D01*
X50300Y-48964D01*
X50271Y-48935D01*
G54D13*
X76433Y-29123D02*
X76414Y-29142D01*
X76357Y-29161D01*
X76319Y-29161D01*
X76261Y-29142D01*
X76223Y-29104D01*
X76204Y-29066D01*
X76185Y-28990D01*
X76185Y-28933D01*
X76204Y-28857D01*
X76223Y-28819D01*
X76261Y-28780D01*
X76319Y-28761D01*
X76357Y-28761D01*
X76414Y-28780D01*
X76433Y-28800D01*
X76585Y-28800D02*
X76604Y-28780D01*
X76642Y-28761D01*
X76738Y-28761D01*
X76776Y-28780D01*
X76795Y-28800D01*
X76814Y-28838D01*
X76814Y-28876D01*
X76795Y-28933D01*
X76566Y-29161D01*
X76814Y-29161D01*
X75683Y-48123D02*
X75664Y-48142D01*
X75607Y-48161D01*
X75569Y-48161D01*
X75511Y-48142D01*
X75473Y-48104D01*
X75454Y-48066D01*
X75435Y-47990D01*
X75435Y-47933D01*
X75454Y-47857D01*
X75473Y-47819D01*
X75511Y-47780D01*
X75569Y-47761D01*
X75607Y-47761D01*
X75664Y-47780D01*
X75683Y-47800D01*
X76026Y-47895D02*
X76026Y-48161D01*
X75930Y-47742D02*
X75835Y-48028D01*
X76083Y-48028D01*
X69954Y-49911D02*
X69954Y-49511D01*
X70107Y-49511D01*
X70145Y-49530D01*
X70164Y-49550D01*
X70183Y-49588D01*
X70183Y-49645D01*
X70164Y-49683D01*
X70145Y-49702D01*
X70107Y-49721D01*
X69954Y-49721D01*
X70335Y-49550D02*
X70354Y-49530D01*
X70392Y-49511D01*
X70488Y-49511D01*
X70526Y-49530D01*
X70545Y-49550D01*
X70564Y-49588D01*
X70564Y-49626D01*
X70545Y-49683D01*
X70316Y-49911D01*
X70564Y-49911D01*
M02*
