G04 (created by PCBNEW (2013-jul-07)-stable) date Sun 02 Mar 2014 11:15:46 AM PST*
%MOIN*%
G04 Gerber Fmt 3.4, Leading zero omitted, Abs format*
%FSLAX34Y34*%
G01*
G70*
G90*
G04 APERTURE LIST*
%ADD10C,0.00590551*%
%ADD11C,0.08*%
%ADD12C,0.1*%
%ADD13C,0.06*%
%ADD14R,0.06X0.06*%
%ADD15C,0.0591*%
%ADD16R,0.055X0.055*%
%ADD17C,0.055*%
%ADD18C,0.07*%
%ADD19R,0.07X0.07*%
%ADD20C,0.1181*%
%ADD21C,0.16*%
%ADD22C,0.129921*%
%ADD23R,0.1X0.1*%
%ADD24C,0.035*%
G04 APERTURE END LIST*
G54D10*
G54D11*
X74000Y-37550D03*
X74000Y-42050D03*
G54D12*
X43750Y-45750D03*
X43750Y-29750D03*
X46750Y-29750D03*
X50750Y-29750D03*
X53750Y-29750D03*
X53750Y-45750D03*
G54D13*
X67750Y-35750D03*
X67750Y-39750D03*
G54D14*
X52750Y-26500D03*
G54D13*
X52750Y-25500D03*
X53750Y-26500D03*
X53750Y-25500D03*
X54750Y-26500D03*
X54750Y-25500D03*
G54D15*
X77500Y-33750D03*
X75500Y-33750D03*
G54D16*
X72750Y-33750D03*
G54D17*
X72750Y-32750D03*
X72750Y-31750D03*
X72750Y-30750D03*
X69750Y-30750D03*
X69750Y-31750D03*
X69750Y-32750D03*
X69750Y-33750D03*
G54D18*
X69250Y-25250D03*
G54D19*
X74250Y-25250D03*
G54D18*
X62000Y-34750D03*
G54D19*
X62000Y-39750D03*
G54D18*
X65000Y-26750D03*
G54D19*
X65000Y-31750D03*
G54D18*
X62000Y-31750D03*
G54D19*
X62000Y-26750D03*
G54D18*
X65000Y-39750D03*
G54D19*
X65000Y-34750D03*
G54D20*
X66500Y-47500D03*
X66500Y-44500D03*
G54D21*
X60250Y-25250D03*
X35750Y-25250D03*
X35750Y-51750D03*
X60250Y-51750D03*
X77750Y-25250D03*
X77750Y-51750D03*
G54D13*
X67750Y-30750D03*
X67750Y-26750D03*
X69250Y-27750D03*
X73250Y-27750D03*
X62000Y-47750D03*
X62000Y-43750D03*
X76750Y-44750D03*
X71750Y-44750D03*
G54D22*
X40250Y-26000D03*
X42240Y-26000D03*
X43910Y-26000D03*
X45910Y-26000D03*
G54D23*
X46000Y-50750D03*
G54D12*
X48000Y-50750D03*
X50000Y-50750D03*
G54D17*
X75500Y-29000D03*
X77500Y-29000D03*
X74750Y-48000D03*
X76750Y-48000D03*
G54D14*
X68750Y-51750D03*
G54D13*
X68750Y-50750D03*
X69750Y-51750D03*
X69750Y-50750D03*
X70750Y-51750D03*
X70750Y-50750D03*
X71750Y-51750D03*
X71750Y-50750D03*
G54D24*
X77500Y-33750D02*
X77500Y-37750D01*
X77500Y-37750D02*
X78250Y-38500D01*
X78250Y-38500D02*
X78250Y-46500D01*
X78250Y-46500D02*
X76750Y-48000D01*
X40250Y-26000D02*
X42240Y-26000D01*
X42240Y-26000D02*
X42250Y-26010D01*
X42250Y-26010D02*
X42250Y-28250D01*
X42250Y-28250D02*
X43750Y-29750D01*
X67750Y-35750D02*
X69750Y-33750D01*
X69750Y-33750D02*
X69750Y-32750D01*
X72750Y-33750D02*
X69750Y-33750D01*
X66500Y-44500D02*
X65000Y-44500D01*
X64250Y-43750D02*
X62000Y-43750D01*
X65000Y-44500D02*
X64250Y-43750D01*
X67750Y-39750D02*
X67750Y-41750D01*
X66500Y-43000D02*
X66500Y-44500D01*
X67750Y-41750D02*
X66500Y-43000D01*
X65000Y-34750D02*
X66250Y-36000D01*
X66250Y-38250D02*
X67750Y-39750D01*
X66250Y-36000D02*
X66250Y-38250D01*
X65000Y-31750D02*
X69750Y-31750D01*
X65000Y-31750D02*
X65000Y-34750D01*
X69750Y-30750D02*
X69750Y-29750D01*
X69250Y-29250D02*
X69250Y-27750D01*
X69750Y-29750D02*
X69250Y-29250D01*
X67750Y-30750D02*
X69750Y-30750D01*
X72750Y-32750D02*
X73750Y-32750D01*
X74000Y-33000D02*
X74000Y-37550D01*
X73750Y-32750D02*
X74000Y-33000D01*
X74250Y-25250D02*
X72750Y-25250D01*
X71750Y-32750D02*
X72750Y-32750D01*
X71250Y-32250D02*
X71750Y-32750D01*
X71250Y-26750D02*
X71250Y-32250D01*
X72750Y-25250D02*
X71250Y-26750D01*
X74000Y-42050D02*
X74050Y-42050D01*
X74050Y-42050D02*
X76750Y-44750D01*
X75500Y-33750D02*
X75500Y-40550D01*
X75500Y-40550D02*
X74000Y-42050D01*
X73250Y-27750D02*
X76500Y-27750D01*
X75500Y-33500D02*
X75500Y-33750D01*
X76500Y-32500D02*
X75500Y-33500D01*
X76500Y-27750D02*
X76500Y-32500D01*
X43910Y-26000D02*
X45910Y-26000D01*
X45910Y-26000D02*
X48250Y-26000D01*
X48250Y-26000D02*
X48750Y-25500D01*
X48750Y-25500D02*
X52750Y-25500D01*
X53750Y-25500D02*
X54750Y-25500D01*
X52750Y-25500D02*
X53750Y-25500D01*
X48000Y-50750D02*
X48000Y-49250D01*
X51250Y-48250D02*
X53750Y-45750D01*
X49000Y-48250D02*
X51250Y-48250D01*
X48000Y-49250D02*
X49000Y-48250D01*
X69750Y-50750D02*
X68750Y-50750D01*
X70750Y-50750D02*
X69750Y-50750D01*
X71750Y-50750D02*
X70750Y-50750D01*
X74750Y-48000D02*
X74750Y-49500D01*
X73500Y-50750D02*
X71750Y-50750D01*
X74750Y-49500D02*
X73500Y-50750D01*
X71750Y-44750D02*
X71750Y-48000D01*
X74750Y-48000D02*
X71750Y-48000D01*
X50750Y-29750D02*
X60750Y-39750D01*
X60750Y-39750D02*
X62000Y-39750D01*
X62000Y-39750D02*
X65000Y-39750D01*
X46750Y-29750D02*
X50750Y-29750D01*
X46000Y-50750D02*
X43750Y-48500D01*
X43750Y-48500D02*
X43750Y-45750D01*
X62000Y-26750D02*
X65000Y-26750D01*
X54750Y-26500D02*
X55500Y-27250D01*
X61750Y-26750D02*
X62000Y-26750D01*
X61250Y-27250D02*
X61750Y-26750D01*
X61000Y-27250D02*
X61250Y-27250D01*
X60750Y-27250D02*
X61000Y-27250D01*
X55500Y-27250D02*
X60750Y-27250D01*
X53750Y-29750D02*
X53750Y-26500D01*
X53750Y-26500D02*
X54750Y-26500D01*
X52750Y-26500D02*
X53750Y-26500D01*
X72750Y-31750D02*
X75500Y-29000D01*
M02*
