G04 (created by PCBNEW (2013-jul-07)-stable) date Mon 03 Mar 2014 01:33:23 AM PST*
%MOIN*%
G04 Gerber Fmt 3.4, Leading zero omitted, Abs format*
%FSLAX34Y34*%
G01*
G70*
G90*
G04 APERTURE LIST*
%ADD10C,0.00590551*%
%ADD11C,0.011811*%
%ADD12C,0.012*%
%ADD13C,0.008*%
%ADD14C,0.015*%
%ADD15C,0.01*%
G04 APERTURE END LIST*
G54D10*
G54D11*
X61064Y-39334D02*
X61035Y-39362D01*
X60951Y-39418D01*
X60895Y-39446D01*
X60810Y-39474D01*
X60670Y-39502D01*
X60557Y-39502D01*
X60417Y-39474D01*
X60332Y-39446D01*
X60276Y-39418D01*
X60192Y-39362D01*
X60164Y-39334D01*
X60304Y-39137D02*
X60276Y-39109D01*
X60248Y-39052D01*
X60248Y-38912D01*
X60276Y-38856D01*
X60304Y-38827D01*
X60360Y-38799D01*
X60417Y-38799D01*
X60501Y-38827D01*
X60839Y-39165D01*
X60839Y-38799D01*
X60248Y-38434D02*
X60248Y-38377D01*
X60276Y-38321D01*
X60304Y-38293D01*
X60360Y-38265D01*
X60473Y-38237D01*
X60614Y-38237D01*
X60726Y-38265D01*
X60782Y-38293D01*
X60810Y-38321D01*
X60839Y-38377D01*
X60839Y-38434D01*
X60810Y-38490D01*
X60782Y-38518D01*
X60726Y-38546D01*
X60614Y-38574D01*
X60473Y-38574D01*
X60360Y-38546D01*
X60304Y-38518D01*
X60276Y-38490D01*
X60248Y-38434D01*
X60839Y-37674D02*
X60839Y-38012D01*
X60839Y-37843D02*
X60248Y-37843D01*
X60332Y-37899D01*
X60389Y-37956D01*
X60417Y-38012D01*
X60248Y-37478D02*
X60248Y-37112D01*
X60473Y-37309D01*
X60473Y-37224D01*
X60501Y-37168D01*
X60529Y-37140D01*
X60585Y-37112D01*
X60726Y-37112D01*
X60782Y-37140D01*
X60810Y-37168D01*
X60839Y-37224D01*
X60839Y-37393D01*
X60810Y-37449D01*
X60782Y-37478D01*
X60248Y-36746D02*
X60248Y-36690D01*
X60276Y-36634D01*
X60304Y-36606D01*
X60360Y-36578D01*
X60473Y-36550D01*
X60614Y-36550D01*
X60726Y-36578D01*
X60782Y-36606D01*
X60810Y-36634D01*
X60839Y-36690D01*
X60839Y-36746D01*
X60810Y-36803D01*
X60782Y-36831D01*
X60726Y-36859D01*
X60614Y-36887D01*
X60473Y-36887D01*
X60360Y-36859D01*
X60304Y-36831D01*
X60276Y-36803D01*
X60248Y-36746D01*
X60248Y-36353D02*
X60248Y-35987D01*
X60473Y-36184D01*
X60473Y-36100D01*
X60501Y-36043D01*
X60529Y-36015D01*
X60585Y-35987D01*
X60726Y-35987D01*
X60782Y-36015D01*
X60810Y-36043D01*
X60839Y-36100D01*
X60839Y-36268D01*
X60810Y-36325D01*
X60782Y-36353D01*
X60248Y-35622D02*
X60248Y-35565D01*
X60276Y-35509D01*
X60304Y-35481D01*
X60360Y-35453D01*
X60473Y-35425D01*
X60614Y-35425D01*
X60726Y-35453D01*
X60782Y-35481D01*
X60810Y-35509D01*
X60839Y-35565D01*
X60839Y-35622D01*
X60810Y-35678D01*
X60782Y-35706D01*
X60726Y-35734D01*
X60614Y-35762D01*
X60473Y-35762D01*
X60360Y-35734D01*
X60304Y-35706D01*
X60276Y-35678D01*
X60248Y-35622D01*
X60304Y-35200D02*
X60276Y-35172D01*
X60248Y-35115D01*
X60248Y-34975D01*
X60276Y-34919D01*
X60304Y-34890D01*
X60360Y-34862D01*
X60417Y-34862D01*
X60501Y-34890D01*
X60839Y-35228D01*
X60839Y-34862D01*
X61064Y-34665D02*
X61035Y-34637D01*
X60951Y-34581D01*
X60895Y-34553D01*
X60810Y-34525D01*
X60670Y-34497D01*
X60557Y-34497D01*
X60417Y-34525D01*
X60332Y-34553D01*
X60276Y-34581D01*
X60192Y-34637D01*
X60164Y-34665D01*
X74848Y-26178D02*
X74848Y-26459D01*
X75129Y-26487D01*
X75101Y-26459D01*
X75073Y-26403D01*
X75073Y-26262D01*
X75101Y-26206D01*
X75129Y-26178D01*
X75185Y-26150D01*
X75326Y-26150D01*
X75382Y-26178D01*
X75410Y-26206D01*
X75439Y-26262D01*
X75439Y-26403D01*
X75410Y-26459D01*
X75382Y-26487D01*
X74848Y-25981D02*
X75439Y-25784D01*
X74848Y-25587D01*
X73070Y-32740D02*
X73070Y-32459D01*
X73239Y-32796D02*
X72648Y-32600D01*
X73239Y-32403D01*
X73874Y-32557D02*
X73902Y-32473D01*
X73930Y-32445D01*
X73987Y-32417D01*
X74071Y-32417D01*
X74127Y-32445D01*
X74155Y-32473D01*
X74183Y-32529D01*
X74183Y-32754D01*
X73593Y-32754D01*
X73593Y-32557D01*
X73621Y-32501D01*
X73649Y-32473D01*
X73705Y-32445D01*
X73762Y-32445D01*
X73818Y-32473D01*
X73846Y-32501D01*
X73874Y-32557D01*
X73874Y-32754D01*
X74904Y-32076D02*
X74876Y-32048D01*
X74848Y-31992D01*
X74848Y-31851D01*
X74876Y-31795D01*
X74904Y-31767D01*
X74960Y-31738D01*
X75017Y-31738D01*
X75101Y-31767D01*
X75439Y-32104D01*
X75439Y-31738D01*
X75045Y-31232D02*
X75439Y-31232D01*
X74820Y-31373D02*
X75242Y-31513D01*
X75242Y-31148D01*
X74848Y-30557D02*
X75439Y-30360D01*
X74848Y-30164D01*
X75270Y-29995D02*
X75270Y-29714D01*
X75439Y-30051D02*
X74848Y-29854D01*
X75439Y-29657D01*
X75382Y-29123D02*
X75410Y-29151D01*
X75439Y-29236D01*
X75439Y-29292D01*
X75410Y-29376D01*
X75354Y-29432D01*
X75298Y-29461D01*
X75185Y-29489D01*
X75101Y-29489D01*
X74989Y-29461D01*
X74932Y-29432D01*
X74876Y-29376D01*
X74848Y-29292D01*
X74848Y-29236D01*
X74876Y-29151D01*
X74904Y-29123D01*
X75639Y-39220D02*
X75639Y-39557D01*
X75639Y-39388D02*
X75048Y-39388D01*
X75132Y-39445D01*
X75189Y-39501D01*
X75217Y-39557D01*
X75470Y-38995D02*
X75470Y-38713D01*
X75639Y-39051D02*
X75048Y-38854D01*
X75639Y-38657D01*
X75329Y-37814D02*
X75329Y-38010D01*
X75639Y-38010D02*
X75048Y-38010D01*
X75048Y-37729D01*
X75048Y-37504D02*
X75526Y-37504D01*
X75582Y-37476D01*
X75610Y-37448D01*
X75639Y-37392D01*
X75639Y-37279D01*
X75610Y-37223D01*
X75582Y-37195D01*
X75526Y-37167D01*
X75048Y-37167D01*
X75610Y-36914D02*
X75639Y-36829D01*
X75639Y-36689D01*
X75610Y-36632D01*
X75582Y-36604D01*
X75526Y-36576D01*
X75470Y-36576D01*
X75414Y-36604D01*
X75385Y-36632D01*
X75357Y-36689D01*
X75329Y-36801D01*
X75301Y-36857D01*
X75273Y-36886D01*
X75217Y-36914D01*
X75160Y-36914D01*
X75104Y-36886D01*
X75076Y-36857D01*
X75048Y-36801D01*
X75048Y-36661D01*
X75076Y-36576D01*
X75329Y-36323D02*
X75329Y-36126D01*
X75639Y-36042D02*
X75639Y-36323D01*
X75048Y-36323D01*
X75048Y-36042D01*
X60048Y-44504D02*
X60076Y-44476D01*
X60133Y-44448D01*
X60273Y-44448D01*
X60329Y-44476D01*
X60358Y-44504D01*
X60386Y-44560D01*
X60386Y-44617D01*
X60358Y-44701D01*
X60020Y-45039D01*
X60386Y-45039D01*
X60892Y-44645D02*
X60892Y-45039D01*
X60751Y-44420D02*
X60611Y-44842D01*
X60976Y-44842D01*
X61567Y-44448D02*
X61764Y-45039D01*
X61960Y-44448D01*
X62129Y-44870D02*
X62410Y-44870D01*
X62073Y-45039D02*
X62270Y-44448D01*
X62467Y-45039D01*
X63001Y-44982D02*
X62973Y-45010D01*
X62888Y-45039D01*
X62832Y-45039D01*
X62748Y-45010D01*
X62692Y-44954D01*
X62664Y-44898D01*
X62635Y-44785D01*
X62635Y-44701D01*
X62664Y-44589D01*
X62692Y-44532D01*
X62748Y-44476D01*
X62832Y-44448D01*
X62888Y-44448D01*
X62973Y-44476D01*
X63001Y-44504D01*
X63704Y-45039D02*
X63704Y-44448D01*
X63985Y-45039D02*
X63985Y-44448D01*
X64323Y-45039D01*
X64323Y-44448D01*
X73014Y-23659D02*
X73014Y-23209D01*
X73239Y-23434D02*
X72789Y-23434D01*
X73958Y-23659D02*
X73958Y-23209D01*
X58048Y-42426D02*
X58470Y-42426D01*
X58554Y-42455D01*
X58610Y-42511D01*
X58639Y-42595D01*
X58639Y-42651D01*
X58610Y-41920D02*
X58639Y-41977D01*
X58639Y-42089D01*
X58610Y-42145D01*
X58554Y-42173D01*
X58329Y-42173D01*
X58273Y-42145D01*
X58245Y-42089D01*
X58245Y-41977D01*
X58273Y-41920D01*
X58329Y-41892D01*
X58385Y-41892D01*
X58442Y-42173D01*
X58639Y-41639D02*
X58245Y-41639D01*
X58357Y-41639D02*
X58301Y-41611D01*
X58273Y-41583D01*
X58245Y-41527D01*
X58245Y-41470D01*
X58610Y-41049D02*
X58639Y-41105D01*
X58639Y-41217D01*
X58610Y-41274D01*
X58554Y-41302D01*
X58329Y-41302D01*
X58273Y-41274D01*
X58245Y-41217D01*
X58245Y-41105D01*
X58273Y-41049D01*
X58329Y-41020D01*
X58385Y-41020D01*
X58442Y-41302D01*
X58639Y-40767D02*
X58245Y-40767D01*
X58301Y-40767D02*
X58273Y-40739D01*
X58245Y-40683D01*
X58245Y-40599D01*
X58273Y-40542D01*
X58329Y-40514D01*
X58639Y-40514D01*
X58329Y-40514D02*
X58273Y-40486D01*
X58245Y-40430D01*
X58245Y-40346D01*
X58273Y-40289D01*
X58329Y-40261D01*
X58639Y-40261D01*
X58639Y-39980D02*
X58245Y-39980D01*
X58048Y-39980D02*
X58076Y-40008D01*
X58104Y-39980D01*
X58076Y-39952D01*
X58048Y-39980D01*
X58104Y-39980D01*
X58639Y-39446D02*
X58329Y-39446D01*
X58273Y-39474D01*
X58245Y-39530D01*
X58245Y-39642D01*
X58273Y-39699D01*
X58610Y-39446D02*
X58639Y-39502D01*
X58639Y-39642D01*
X58610Y-39699D01*
X58554Y-39727D01*
X58498Y-39727D01*
X58442Y-39699D01*
X58414Y-39642D01*
X58414Y-39502D01*
X58385Y-39446D01*
X58639Y-39164D02*
X58048Y-39164D01*
X58639Y-38911D02*
X58329Y-38911D01*
X58273Y-38939D01*
X58245Y-38996D01*
X58245Y-39080D01*
X58273Y-39136D01*
X58301Y-39164D01*
X58639Y-38180D02*
X58048Y-38180D01*
X58470Y-37983D01*
X58048Y-37786D01*
X58639Y-37786D01*
X58639Y-37252D02*
X58329Y-37252D01*
X58273Y-37280D01*
X58245Y-37337D01*
X58245Y-37449D01*
X58273Y-37505D01*
X58610Y-37252D02*
X58639Y-37308D01*
X58639Y-37449D01*
X58610Y-37505D01*
X58554Y-37533D01*
X58498Y-37533D01*
X58442Y-37505D01*
X58414Y-37449D01*
X58414Y-37308D01*
X58385Y-37252D01*
X58639Y-36971D02*
X58048Y-36971D01*
X58639Y-36718D02*
X58329Y-36718D01*
X58273Y-36746D01*
X58245Y-36802D01*
X58245Y-36887D01*
X58273Y-36943D01*
X58301Y-36971D01*
X58639Y-36352D02*
X58610Y-36408D01*
X58554Y-36437D01*
X58048Y-36437D01*
X58610Y-35902D02*
X58639Y-35959D01*
X58639Y-36071D01*
X58610Y-36127D01*
X58554Y-36155D01*
X58329Y-36155D01*
X58273Y-36127D01*
X58245Y-36071D01*
X58245Y-35959D01*
X58273Y-35902D01*
X58329Y-35874D01*
X58385Y-35874D01*
X58442Y-36155D01*
X58639Y-35621D02*
X58245Y-35621D01*
X58357Y-35621D02*
X58301Y-35593D01*
X58273Y-35565D01*
X58245Y-35509D01*
X58245Y-35452D01*
X58245Y-34356D02*
X58414Y-34806D01*
X58582Y-34356D01*
X58245Y-34074D02*
X58751Y-34074D01*
X58807Y-34103D01*
X58835Y-34159D01*
X58835Y-34187D01*
X58048Y-34074D02*
X58076Y-34103D01*
X58104Y-34074D01*
X58076Y-34046D01*
X58048Y-34074D01*
X58104Y-34074D01*
X58639Y-33793D02*
X58245Y-33793D01*
X58301Y-33793D02*
X58273Y-33765D01*
X58245Y-33709D01*
X58245Y-33624D01*
X58273Y-33568D01*
X58329Y-33540D01*
X58639Y-33540D01*
X58329Y-33540D02*
X58273Y-33512D01*
X58245Y-33456D01*
X58245Y-33371D01*
X58273Y-33315D01*
X58329Y-33287D01*
X58639Y-33287D01*
X58639Y-33006D02*
X58245Y-33006D01*
X58301Y-33006D02*
X58273Y-32978D01*
X58245Y-32921D01*
X58245Y-32837D01*
X58273Y-32781D01*
X58329Y-32753D01*
X58639Y-32753D01*
X58329Y-32753D02*
X58273Y-32725D01*
X58245Y-32668D01*
X58245Y-32584D01*
X58273Y-32528D01*
X58329Y-32500D01*
X58639Y-32500D01*
X58639Y-31965D02*
X58329Y-31965D01*
X58273Y-31993D01*
X58245Y-32050D01*
X58245Y-32162D01*
X58273Y-32218D01*
X58610Y-31965D02*
X58639Y-32022D01*
X58639Y-32162D01*
X58610Y-32218D01*
X58554Y-32247D01*
X58498Y-32247D01*
X58442Y-32218D01*
X58414Y-32162D01*
X58414Y-32022D01*
X58385Y-31965D01*
X58639Y-31684D02*
X58048Y-31684D01*
X58639Y-31431D02*
X58329Y-31431D01*
X58273Y-31459D01*
X58245Y-31515D01*
X58245Y-31600D01*
X58273Y-31656D01*
X58301Y-31684D01*
X58639Y-31065D02*
X58610Y-31122D01*
X58554Y-31150D01*
X58048Y-31150D01*
X58610Y-30615D02*
X58639Y-30672D01*
X58639Y-30784D01*
X58610Y-30840D01*
X58554Y-30869D01*
X58329Y-30869D01*
X58273Y-30840D01*
X58245Y-30784D01*
X58245Y-30672D01*
X58273Y-30615D01*
X58329Y-30587D01*
X58385Y-30587D01*
X58442Y-30869D01*
X58639Y-30334D02*
X58245Y-30334D01*
X58357Y-30334D02*
X58301Y-30306D01*
X58273Y-30278D01*
X58245Y-30222D01*
X58245Y-30166D01*
X58357Y-29603D02*
X58329Y-29631D01*
X58301Y-29687D01*
X58301Y-29744D01*
X58329Y-29800D01*
X58357Y-29828D01*
X58414Y-29856D01*
X58470Y-29856D01*
X58526Y-29828D01*
X58554Y-29800D01*
X58582Y-29744D01*
X58582Y-29687D01*
X58554Y-29631D01*
X58526Y-29603D01*
X58301Y-29603D02*
X58526Y-29603D01*
X58554Y-29575D01*
X58554Y-29547D01*
X58526Y-29491D01*
X58470Y-29462D01*
X58329Y-29462D01*
X58245Y-29519D01*
X58189Y-29603D01*
X58160Y-29716D01*
X58189Y-29828D01*
X58245Y-29912D01*
X58329Y-29969D01*
X58442Y-29997D01*
X58554Y-29969D01*
X58639Y-29912D01*
X58695Y-29828D01*
X58723Y-29716D01*
X58695Y-29603D01*
X58639Y-29519D01*
X58245Y-28956D02*
X58723Y-28956D01*
X58779Y-28984D01*
X58807Y-29013D01*
X58835Y-29069D01*
X58835Y-29153D01*
X58807Y-29209D01*
X58610Y-28956D02*
X58639Y-29013D01*
X58639Y-29125D01*
X58610Y-29181D01*
X58582Y-29209D01*
X58526Y-29238D01*
X58357Y-29238D01*
X58301Y-29209D01*
X58273Y-29181D01*
X58245Y-29125D01*
X58245Y-29013D01*
X58273Y-28956D01*
X58639Y-28675D02*
X58245Y-28675D01*
X58301Y-28675D02*
X58273Y-28647D01*
X58245Y-28591D01*
X58245Y-28506D01*
X58273Y-28450D01*
X58329Y-28422D01*
X58639Y-28422D01*
X58329Y-28422D02*
X58273Y-28394D01*
X58245Y-28338D01*
X58245Y-28253D01*
X58273Y-28197D01*
X58329Y-28169D01*
X58639Y-28169D01*
X58639Y-27635D02*
X58329Y-27635D01*
X58273Y-27663D01*
X58245Y-27719D01*
X58245Y-27831D01*
X58273Y-27888D01*
X58610Y-27635D02*
X58639Y-27691D01*
X58639Y-27831D01*
X58610Y-27888D01*
X58554Y-27916D01*
X58498Y-27916D01*
X58442Y-27888D01*
X58414Y-27831D01*
X58414Y-27691D01*
X58385Y-27635D01*
X58639Y-27353D02*
X58245Y-27353D01*
X58048Y-27353D02*
X58076Y-27382D01*
X58104Y-27353D01*
X58076Y-27325D01*
X58048Y-27353D01*
X58104Y-27353D01*
X58639Y-26988D02*
X58610Y-27044D01*
X58554Y-27072D01*
X58048Y-27072D01*
X58582Y-26763D02*
X58610Y-26735D01*
X58639Y-26763D01*
X58610Y-26791D01*
X58582Y-26763D01*
X58639Y-26763D01*
X58610Y-26229D02*
X58639Y-26285D01*
X58639Y-26397D01*
X58610Y-26453D01*
X58582Y-26482D01*
X58526Y-26510D01*
X58357Y-26510D01*
X58301Y-26482D01*
X58273Y-26453D01*
X58245Y-26397D01*
X58245Y-26285D01*
X58273Y-26229D01*
X58639Y-25891D02*
X58610Y-25947D01*
X58582Y-25975D01*
X58526Y-26004D01*
X58357Y-26004D01*
X58301Y-25975D01*
X58273Y-25947D01*
X58245Y-25891D01*
X58245Y-25807D01*
X58273Y-25750D01*
X58301Y-25722D01*
X58357Y-25694D01*
X58526Y-25694D01*
X58582Y-25722D01*
X58610Y-25750D01*
X58639Y-25807D01*
X58639Y-25891D01*
X58639Y-25441D02*
X58245Y-25441D01*
X58301Y-25441D02*
X58273Y-25413D01*
X58245Y-25357D01*
X58245Y-25272D01*
X58273Y-25216D01*
X58329Y-25188D01*
X58639Y-25188D01*
X58329Y-25188D02*
X58273Y-25160D01*
X58245Y-25104D01*
X58245Y-25019D01*
X58273Y-24963D01*
X58329Y-24935D01*
X58639Y-24935D01*
X58245Y-24654D02*
X58414Y-24204D01*
X58582Y-24654D01*
X59190Y-40050D02*
X59668Y-40050D01*
X59724Y-40078D01*
X59752Y-40106D01*
X59780Y-40163D01*
X59780Y-40247D01*
X59752Y-40303D01*
X59555Y-40050D02*
X59583Y-40106D01*
X59583Y-40219D01*
X59555Y-40275D01*
X59527Y-40303D01*
X59471Y-40331D01*
X59302Y-40331D01*
X59246Y-40303D01*
X59218Y-40275D01*
X59190Y-40219D01*
X59190Y-40106D01*
X59218Y-40050D01*
X59583Y-39769D02*
X59190Y-39769D01*
X58993Y-39769D02*
X59021Y-39797D01*
X59049Y-39769D01*
X59021Y-39741D01*
X58993Y-39769D01*
X59049Y-39769D01*
X59190Y-39572D02*
X59190Y-39347D01*
X58993Y-39488D02*
X59499Y-39488D01*
X59555Y-39460D01*
X59583Y-39403D01*
X59583Y-39347D01*
X59583Y-39150D02*
X58993Y-39150D01*
X59583Y-38897D02*
X59274Y-38897D01*
X59218Y-38925D01*
X59190Y-38982D01*
X59190Y-39066D01*
X59218Y-39122D01*
X59246Y-39150D01*
X59190Y-38363D02*
X59583Y-38363D01*
X59190Y-38616D02*
X59499Y-38616D01*
X59555Y-38588D01*
X59583Y-38532D01*
X59583Y-38447D01*
X59555Y-38391D01*
X59527Y-38363D01*
X59583Y-38082D02*
X58993Y-38082D01*
X59218Y-38082D02*
X59190Y-38025D01*
X59190Y-37913D01*
X59218Y-37857D01*
X59246Y-37829D01*
X59302Y-37801D01*
X59471Y-37801D01*
X59527Y-37829D01*
X59555Y-37857D01*
X59583Y-37913D01*
X59583Y-38025D01*
X59555Y-38082D01*
X59527Y-37547D02*
X59555Y-37519D01*
X59583Y-37547D01*
X59555Y-37576D01*
X59527Y-37547D01*
X59583Y-37547D01*
X59555Y-37013D02*
X59583Y-37069D01*
X59583Y-37182D01*
X59555Y-37238D01*
X59527Y-37266D01*
X59471Y-37294D01*
X59302Y-37294D01*
X59246Y-37266D01*
X59218Y-37238D01*
X59190Y-37182D01*
X59190Y-37069D01*
X59218Y-37013D01*
X59583Y-36676D02*
X59555Y-36732D01*
X59527Y-36760D01*
X59471Y-36788D01*
X59302Y-36788D01*
X59246Y-36760D01*
X59218Y-36732D01*
X59190Y-36676D01*
X59190Y-36591D01*
X59218Y-36535D01*
X59246Y-36507D01*
X59302Y-36479D01*
X59471Y-36479D01*
X59527Y-36507D01*
X59555Y-36535D01*
X59583Y-36591D01*
X59583Y-36676D01*
X59583Y-36226D02*
X59190Y-36226D01*
X59246Y-36226D02*
X59218Y-36198D01*
X59190Y-36141D01*
X59190Y-36057D01*
X59218Y-36001D01*
X59274Y-35973D01*
X59583Y-35973D01*
X59274Y-35973D02*
X59218Y-35944D01*
X59190Y-35888D01*
X59190Y-35804D01*
X59218Y-35748D01*
X59274Y-35720D01*
X59583Y-35720D01*
X58965Y-35016D02*
X59724Y-35523D01*
X59190Y-34820D02*
X59696Y-34820D01*
X59752Y-34848D01*
X59780Y-34904D01*
X59780Y-34932D01*
X58993Y-34820D02*
X59021Y-34848D01*
X59049Y-34820D01*
X59021Y-34792D01*
X58993Y-34820D01*
X59049Y-34820D01*
X59583Y-34538D02*
X59190Y-34538D01*
X59246Y-34538D02*
X59218Y-34510D01*
X59190Y-34454D01*
X59190Y-34370D01*
X59218Y-34313D01*
X59274Y-34285D01*
X59583Y-34285D01*
X59274Y-34285D02*
X59218Y-34257D01*
X59190Y-34201D01*
X59190Y-34117D01*
X59218Y-34060D01*
X59274Y-34032D01*
X59583Y-34032D01*
X59583Y-33498D02*
X59274Y-33498D01*
X59218Y-33526D01*
X59190Y-33582D01*
X59190Y-33695D01*
X59218Y-33751D01*
X59555Y-33498D02*
X59583Y-33554D01*
X59583Y-33695D01*
X59555Y-33751D01*
X59499Y-33779D01*
X59443Y-33779D01*
X59387Y-33751D01*
X59358Y-33695D01*
X59358Y-33554D01*
X59330Y-33498D01*
X59583Y-33217D02*
X58993Y-33217D01*
X59583Y-32964D02*
X59274Y-32964D01*
X59218Y-32992D01*
X59190Y-33048D01*
X59190Y-33132D01*
X59218Y-33189D01*
X59246Y-33217D01*
X59583Y-32598D02*
X59555Y-32654D01*
X59499Y-32682D01*
X58993Y-32682D01*
X59555Y-32148D02*
X59583Y-32204D01*
X59583Y-32317D01*
X59555Y-32373D01*
X59499Y-32401D01*
X59274Y-32401D01*
X59218Y-32373D01*
X59190Y-32317D01*
X59190Y-32204D01*
X59218Y-32148D01*
X59274Y-32120D01*
X59330Y-32120D01*
X59387Y-32401D01*
X59583Y-31867D02*
X59190Y-31867D01*
X59302Y-31867D02*
X59246Y-31839D01*
X59218Y-31811D01*
X59190Y-31754D01*
X59190Y-31698D01*
X58965Y-31079D02*
X59724Y-31586D01*
X59555Y-30911D02*
X59583Y-30855D01*
X59583Y-30742D01*
X59555Y-30686D01*
X59499Y-30658D01*
X59471Y-30658D01*
X59415Y-30686D01*
X59387Y-30742D01*
X59387Y-30826D01*
X59358Y-30883D01*
X59302Y-30911D01*
X59274Y-30911D01*
X59218Y-30883D01*
X59190Y-30826D01*
X59190Y-30742D01*
X59218Y-30686D01*
X59190Y-30405D02*
X59780Y-30405D01*
X59218Y-30405D02*
X59190Y-30348D01*
X59190Y-30236D01*
X59218Y-30180D01*
X59246Y-30151D01*
X59302Y-30123D01*
X59471Y-30123D01*
X59527Y-30151D01*
X59555Y-30180D01*
X59583Y-30236D01*
X59583Y-30348D01*
X59555Y-30405D01*
X59583Y-29870D02*
X59190Y-29870D01*
X59302Y-29870D02*
X59246Y-29842D01*
X59218Y-29814D01*
X59190Y-29758D01*
X59190Y-29702D01*
X59583Y-29505D02*
X59190Y-29505D01*
X58993Y-29505D02*
X59021Y-29533D01*
X59049Y-29505D01*
X59021Y-29477D01*
X58993Y-29505D01*
X59049Y-29505D01*
X59190Y-29223D02*
X59583Y-29223D01*
X59246Y-29223D02*
X59218Y-29195D01*
X59190Y-29139D01*
X59190Y-29055D01*
X59218Y-28998D01*
X59274Y-28970D01*
X59583Y-28970D01*
X59583Y-28689D02*
X58993Y-28689D01*
X59358Y-28633D02*
X59583Y-28464D01*
X59190Y-28464D02*
X59415Y-28689D01*
X59583Y-28127D02*
X59555Y-28183D01*
X59499Y-28211D01*
X58993Y-28211D01*
X59555Y-27677D02*
X59583Y-27733D01*
X59583Y-27846D01*
X59555Y-27902D01*
X59499Y-27930D01*
X59274Y-27930D01*
X59218Y-27902D01*
X59190Y-27846D01*
X59190Y-27733D01*
X59218Y-27677D01*
X59274Y-27649D01*
X59330Y-27649D01*
X59387Y-27930D01*
X59583Y-27396D02*
X59190Y-27396D01*
X59302Y-27396D02*
X59246Y-27367D01*
X59218Y-27339D01*
X59190Y-27283D01*
X59190Y-27227D01*
X59190Y-27030D02*
X59780Y-27030D01*
X59218Y-27030D02*
X59190Y-26974D01*
X59190Y-26861D01*
X59218Y-26805D01*
X59246Y-26777D01*
X59302Y-26749D01*
X59471Y-26749D01*
X59527Y-26777D01*
X59555Y-26805D01*
X59583Y-26861D01*
X59583Y-26974D01*
X59555Y-27030D01*
X59583Y-26496D02*
X59190Y-26496D01*
X58993Y-26496D02*
X59021Y-26524D01*
X59049Y-26496D01*
X59021Y-26468D01*
X58993Y-26496D01*
X59049Y-26496D01*
G54D10*
X66300Y-38000D02*
X66300Y-33500D01*
X66300Y-33500D02*
X72600Y-33500D01*
X72600Y-33500D02*
X72600Y-42500D01*
X72600Y-42500D02*
X66300Y-42500D01*
X66300Y-42500D02*
X66300Y-38000D01*
G54D12*
X65300Y-32200D02*
X65300Y-32600D01*
X65300Y-32600D02*
X65700Y-32600D01*
X65700Y-32600D02*
X65700Y-35800D01*
X65700Y-35800D02*
X64900Y-35800D01*
X64900Y-35800D02*
X64900Y-32600D01*
X64900Y-32600D02*
X65300Y-32600D01*
X65500Y-32600D02*
X65700Y-32800D01*
X65300Y-36200D02*
X65300Y-35800D01*
G54D13*
X74400Y-29100D02*
X74400Y-32100D01*
X72400Y-32100D02*
X72400Y-29100D01*
X72400Y-29100D02*
X74400Y-29100D01*
X74400Y-32100D02*
X72400Y-32100D01*
G54D14*
X70400Y-24000D02*
X70400Y-23600D01*
X70600Y-23800D02*
X70200Y-23800D01*
X71400Y-22800D02*
G75*
G03X71400Y-22800I-2000J0D01*
G74*
G01*
G54D15*
X68500Y-32450D02*
X68500Y-31950D01*
X68500Y-31950D02*
X69500Y-31950D01*
X69500Y-31950D02*
X69500Y-32450D01*
X68000Y-32450D02*
X68000Y-28450D01*
X68000Y-28450D02*
X70000Y-28450D01*
X70000Y-28450D02*
X70000Y-32450D01*
X70000Y-32450D02*
X68000Y-32450D01*
G54D12*
X71200Y-25700D02*
X70700Y-25700D01*
X70700Y-25700D02*
X70700Y-25200D01*
X70700Y-25200D02*
X66700Y-25200D01*
X66700Y-25200D02*
X66700Y-25700D01*
X66700Y-25700D02*
X66200Y-25700D01*
X66700Y-25700D02*
X66700Y-26200D01*
X66700Y-26200D02*
X70700Y-26200D01*
X70700Y-26200D02*
X70700Y-25700D01*
X70200Y-25200D02*
X70200Y-26200D01*
X70300Y-25200D02*
X70300Y-26200D01*
X62000Y-39750D02*
X62000Y-39250D01*
X62000Y-39250D02*
X62500Y-39250D01*
X62500Y-39250D02*
X62500Y-35250D01*
X62500Y-35250D02*
X62000Y-35250D01*
X62000Y-35250D02*
X62000Y-34750D01*
X62000Y-35250D02*
X61500Y-35250D01*
X61500Y-35250D02*
X61500Y-39250D01*
X61500Y-39250D02*
X62000Y-39250D01*
X62500Y-38750D02*
X61500Y-38750D01*
X62500Y-38850D02*
X61500Y-38850D01*
X63750Y-33250D02*
X63750Y-32750D01*
X63750Y-32750D02*
X64250Y-32750D01*
X64250Y-32750D02*
X64250Y-28750D01*
X64250Y-28750D02*
X63750Y-28750D01*
X63750Y-28750D02*
X63750Y-28250D01*
X63750Y-28750D02*
X63250Y-28750D01*
X63250Y-28750D02*
X63250Y-32750D01*
X63250Y-32750D02*
X63750Y-32750D01*
X64250Y-32250D02*
X63250Y-32250D01*
X64250Y-32350D02*
X63250Y-32350D01*
X62000Y-28250D02*
X62000Y-28750D01*
X62000Y-28750D02*
X61500Y-28750D01*
X61500Y-28750D02*
X61500Y-32750D01*
X61500Y-32750D02*
X62000Y-32750D01*
X62000Y-32750D02*
X62000Y-33250D01*
X62000Y-32750D02*
X62500Y-32750D01*
X62500Y-32750D02*
X62500Y-28750D01*
X62500Y-28750D02*
X62000Y-28750D01*
X61500Y-29250D02*
X62500Y-29250D01*
X61500Y-29150D02*
X62500Y-29150D01*
X63750Y-34750D02*
X63750Y-35250D01*
X63750Y-35250D02*
X63250Y-35250D01*
X63250Y-35250D02*
X63250Y-39250D01*
X63250Y-39250D02*
X63750Y-39250D01*
X63750Y-39250D02*
X63750Y-39750D01*
X63750Y-39250D02*
X64250Y-39250D01*
X64250Y-39250D02*
X64250Y-35250D01*
X64250Y-35250D02*
X63750Y-35250D01*
X63250Y-35750D02*
X64250Y-35750D01*
X63250Y-35650D02*
X64250Y-35650D01*
G54D14*
X60400Y-22400D02*
X61200Y-22400D01*
X60800Y-22000D02*
X60800Y-22800D01*
X65750Y-23800D02*
G75*
G03X65750Y-23800I-3150J0D01*
G74*
G01*
X59500Y-21600D02*
G75*
G03X59500Y-21600I-900J0D01*
G74*
G01*
X59500Y-44000D02*
G75*
G03X59500Y-44000I-900J0D01*
G74*
G01*
X74300Y-21600D02*
G75*
G03X74300Y-21600I-900J0D01*
G74*
G01*
X74300Y-44000D02*
G75*
G03X74300Y-44000I-900J0D01*
G74*
G01*
G54D12*
X65500Y-30500D02*
X65500Y-30100D01*
X65500Y-30100D02*
X65100Y-30100D01*
X65100Y-30100D02*
X65100Y-26900D01*
X65100Y-26900D02*
X65900Y-26900D01*
X65900Y-26900D02*
X65900Y-30100D01*
X65900Y-30100D02*
X65500Y-30100D01*
X65300Y-30100D02*
X65100Y-29900D01*
X65500Y-26500D02*
X65500Y-26900D01*
X67000Y-27400D02*
X67400Y-27400D01*
X67400Y-27400D02*
X67400Y-27000D01*
X67400Y-27000D02*
X70600Y-27000D01*
X70600Y-27000D02*
X70600Y-27800D01*
X70600Y-27800D02*
X67400Y-27800D01*
X67400Y-27800D02*
X67400Y-27400D01*
X67400Y-27200D02*
X67600Y-27000D01*
X71000Y-27400D02*
X70600Y-27400D01*
X60600Y-31600D02*
X60600Y-31200D01*
X60600Y-31200D02*
X60200Y-31200D01*
X60200Y-31200D02*
X60200Y-28000D01*
X60200Y-28000D02*
X61000Y-28000D01*
X61000Y-28000D02*
X61000Y-31200D01*
X61000Y-31200D02*
X60600Y-31200D01*
X60400Y-31200D02*
X60200Y-31000D01*
X60600Y-27600D02*
X60600Y-28000D01*
X65300Y-37500D02*
X65300Y-37900D01*
X65300Y-42500D02*
X65300Y-42100D01*
X65800Y-42100D02*
X64800Y-42100D01*
X64800Y-42100D02*
X64800Y-37900D01*
X64800Y-37900D02*
X65800Y-37900D01*
X65800Y-37900D02*
X65800Y-42100D01*
X65600Y-37900D02*
X65800Y-38100D01*
G54D10*
X73000Y-34500D02*
X74600Y-34500D01*
X74600Y-34500D02*
X74600Y-41800D01*
X74600Y-41800D02*
X73000Y-41800D01*
X73000Y-41800D02*
X73000Y-34500D01*
G54D12*
X65200Y-43600D02*
X68000Y-43600D01*
X68000Y-43600D02*
X68000Y-44400D01*
X68000Y-44400D02*
X65200Y-44400D01*
X65200Y-44400D02*
X65200Y-43600D01*
X65200Y-43800D02*
X65400Y-43600D01*
X71600Y-44400D02*
X68800Y-44400D01*
X68800Y-44400D02*
X68800Y-43600D01*
X68800Y-43600D02*
X71600Y-43600D01*
X71600Y-43600D02*
X71600Y-44400D01*
X71600Y-44200D02*
X71400Y-44400D01*
X72400Y-28000D02*
X72400Y-24000D01*
X72400Y-24000D02*
X74400Y-24000D01*
X74400Y-24000D02*
X74400Y-28000D01*
X74400Y-28000D02*
X72400Y-28000D01*
X64200Y-43600D02*
X60200Y-43600D01*
X64200Y-44100D02*
X64200Y-41100D01*
X64200Y-41100D02*
X60200Y-41100D01*
X60200Y-41100D02*
X60200Y-44100D01*
X60200Y-44100D02*
X64200Y-44100D01*
G54D10*
X68659Y-38065D02*
X68659Y-38253D01*
X68265Y-38253D01*
X68659Y-37728D02*
X68659Y-37953D01*
X68659Y-37840D02*
X68265Y-37840D01*
X68321Y-37878D01*
X68359Y-37915D01*
X68378Y-37953D01*
X69803Y-38871D02*
X69784Y-38853D01*
X69765Y-38815D01*
X69765Y-38721D01*
X69784Y-38684D01*
X69803Y-38665D01*
X69840Y-38646D01*
X69878Y-38646D01*
X69934Y-38665D01*
X70159Y-38890D01*
X70159Y-38646D01*
X69803Y-38496D02*
X69784Y-38478D01*
X69765Y-38440D01*
X69765Y-38346D01*
X69784Y-38309D01*
X69803Y-38290D01*
X69840Y-38271D01*
X69878Y-38271D01*
X69934Y-38290D01*
X70159Y-38515D01*
X70159Y-38271D01*
X69765Y-38028D02*
X69765Y-37990D01*
X69784Y-37953D01*
X69803Y-37934D01*
X69840Y-37915D01*
X69915Y-37896D01*
X70009Y-37896D01*
X70084Y-37915D01*
X70121Y-37934D01*
X70140Y-37953D01*
X70159Y-37990D01*
X70159Y-38028D01*
X70140Y-38065D01*
X70121Y-38084D01*
X70084Y-38103D01*
X70009Y-38121D01*
X69915Y-38121D01*
X69840Y-38103D01*
X69803Y-38084D01*
X69784Y-38065D01*
X69765Y-38028D01*
X69896Y-37559D02*
X70159Y-37559D01*
X69896Y-37728D02*
X70103Y-37728D01*
X70140Y-37709D01*
X70159Y-37671D01*
X70159Y-37615D01*
X70140Y-37578D01*
X70121Y-37559D01*
X70159Y-37371D02*
X69765Y-37371D01*
X69953Y-37371D02*
X69953Y-37146D01*
X70159Y-37146D02*
X69765Y-37146D01*
G54D13*
X65522Y-34283D02*
X65260Y-34450D01*
X65522Y-34569D02*
X64972Y-34569D01*
X64972Y-34378D01*
X64998Y-34330D01*
X65025Y-34307D01*
X65077Y-34283D01*
X65155Y-34283D01*
X65208Y-34307D01*
X65234Y-34330D01*
X65260Y-34378D01*
X65260Y-34569D01*
X65025Y-34092D02*
X64998Y-34069D01*
X64972Y-34021D01*
X64972Y-33902D01*
X64998Y-33854D01*
X65025Y-33830D01*
X65077Y-33807D01*
X65129Y-33807D01*
X65208Y-33830D01*
X65522Y-34116D01*
X65522Y-33807D01*
X72161Y-29695D02*
X71761Y-29695D01*
X71761Y-29542D01*
X71780Y-29504D01*
X71800Y-29485D01*
X71838Y-29466D01*
X71895Y-29466D01*
X71933Y-29485D01*
X71952Y-29504D01*
X71971Y-29542D01*
X71971Y-29695D01*
X72161Y-29085D02*
X72161Y-29314D01*
X72161Y-29199D02*
X71761Y-29199D01*
X71819Y-29238D01*
X71857Y-29276D01*
X71876Y-29314D01*
G54D12*
X69585Y-23650D02*
X69614Y-23678D01*
X69642Y-23764D01*
X69642Y-23821D01*
X69614Y-23907D01*
X69557Y-23964D01*
X69500Y-23992D01*
X69385Y-24021D01*
X69300Y-24021D01*
X69185Y-23992D01*
X69128Y-23964D01*
X69071Y-23907D01*
X69042Y-23821D01*
X69042Y-23764D01*
X69071Y-23678D01*
X69100Y-23650D01*
X69042Y-23450D02*
X69042Y-23078D01*
X69271Y-23278D01*
X69271Y-23192D01*
X69300Y-23135D01*
X69328Y-23107D01*
X69385Y-23078D01*
X69528Y-23078D01*
X69585Y-23107D01*
X69614Y-23135D01*
X69642Y-23192D01*
X69642Y-23364D01*
X69614Y-23421D01*
X69585Y-23450D01*
G54D13*
X67902Y-28942D02*
X68307Y-28942D01*
X68354Y-28921D01*
X68378Y-28900D01*
X68402Y-28857D01*
X68402Y-28771D01*
X68378Y-28728D01*
X68354Y-28707D01*
X68307Y-28685D01*
X67902Y-28685D01*
X68402Y-28235D02*
X68402Y-28492D01*
X68402Y-28364D02*
X67902Y-28364D01*
X67973Y-28407D01*
X68021Y-28450D01*
X68045Y-28492D01*
X69202Y-31735D02*
X68702Y-31735D01*
X69059Y-31602D01*
X68702Y-31469D01*
X69202Y-31469D01*
X69154Y-31050D02*
X69178Y-31069D01*
X69202Y-31126D01*
X69202Y-31164D01*
X69178Y-31221D01*
X69130Y-31259D01*
X69083Y-31278D01*
X68988Y-31297D01*
X68916Y-31297D01*
X68821Y-31278D01*
X68773Y-31259D01*
X68726Y-31221D01*
X68702Y-31164D01*
X68702Y-31126D01*
X68726Y-31069D01*
X68750Y-31050D01*
X68702Y-30916D02*
X68702Y-30669D01*
X68892Y-30802D01*
X68892Y-30745D01*
X68916Y-30707D01*
X68940Y-30688D01*
X68988Y-30669D01*
X69107Y-30669D01*
X69154Y-30688D01*
X69178Y-30707D01*
X69202Y-30745D01*
X69202Y-30859D01*
X69178Y-30897D01*
X69154Y-30916D01*
X68869Y-30326D02*
X69202Y-30326D01*
X68678Y-30421D02*
X69035Y-30516D01*
X69035Y-30269D01*
X68702Y-30040D02*
X68702Y-30002D01*
X68726Y-29964D01*
X68750Y-29945D01*
X68797Y-29926D01*
X68892Y-29907D01*
X69011Y-29907D01*
X69107Y-29926D01*
X69154Y-29945D01*
X69178Y-29964D01*
X69202Y-30002D01*
X69202Y-30040D01*
X69178Y-30078D01*
X69154Y-30097D01*
X69107Y-30116D01*
X69011Y-30135D01*
X68892Y-30135D01*
X68797Y-30116D01*
X68750Y-30097D01*
X68726Y-30078D01*
X68702Y-30040D01*
X68702Y-29564D02*
X68702Y-29640D01*
X68726Y-29678D01*
X68750Y-29697D01*
X68821Y-29735D01*
X68916Y-29754D01*
X69107Y-29754D01*
X69154Y-29735D01*
X69178Y-29716D01*
X69202Y-29678D01*
X69202Y-29602D01*
X69178Y-29564D01*
X69154Y-29545D01*
X69107Y-29526D01*
X68988Y-29526D01*
X68940Y-29545D01*
X68916Y-29564D01*
X68892Y-29602D01*
X68892Y-29678D01*
X68916Y-29716D01*
X68940Y-29735D01*
X68988Y-29754D01*
X68702Y-29392D02*
X68702Y-29145D01*
X68892Y-29278D01*
X68892Y-29221D01*
X68916Y-29183D01*
X68940Y-29164D01*
X68988Y-29145D01*
X69107Y-29145D01*
X69154Y-29164D01*
X69178Y-29183D01*
X69202Y-29221D01*
X69202Y-29335D01*
X69178Y-29373D01*
X69154Y-29392D01*
G54D15*
X68404Y-25942D02*
X68404Y-25342D01*
X68500Y-25342D01*
X68557Y-25371D01*
X68595Y-25428D01*
X68614Y-25485D01*
X68633Y-25600D01*
X68633Y-25685D01*
X68614Y-25800D01*
X68595Y-25857D01*
X68557Y-25914D01*
X68500Y-25942D01*
X68404Y-25942D01*
X68995Y-25342D02*
X68804Y-25342D01*
X68785Y-25628D01*
X68804Y-25600D01*
X68842Y-25571D01*
X68938Y-25571D01*
X68976Y-25600D01*
X68995Y-25628D01*
X69014Y-25685D01*
X69014Y-25828D01*
X68995Y-25885D01*
X68976Y-25914D01*
X68938Y-25942D01*
X68842Y-25942D01*
X68804Y-25914D01*
X68785Y-25885D01*
G54D12*
G54D15*
X62242Y-37545D02*
X61642Y-37545D01*
X61642Y-37449D01*
X61671Y-37392D01*
X61728Y-37354D01*
X61785Y-37335D01*
X61900Y-37316D01*
X61985Y-37316D01*
X62100Y-37335D01*
X62157Y-37354D01*
X62214Y-37392D01*
X62242Y-37449D01*
X62242Y-37545D01*
X62242Y-36935D02*
X62242Y-37164D01*
X62242Y-37049D02*
X61642Y-37049D01*
X61728Y-37088D01*
X61785Y-37126D01*
X61814Y-37164D01*
G54D12*
G54D15*
X63992Y-31045D02*
X63392Y-31045D01*
X63392Y-30949D01*
X63421Y-30892D01*
X63478Y-30854D01*
X63535Y-30835D01*
X63650Y-30816D01*
X63735Y-30816D01*
X63850Y-30835D01*
X63907Y-30854D01*
X63964Y-30892D01*
X63992Y-30949D01*
X63992Y-31045D01*
X63592Y-30473D02*
X63992Y-30473D01*
X63364Y-30569D02*
X63792Y-30664D01*
X63792Y-30416D01*
G54D12*
G54D15*
X62242Y-31045D02*
X61642Y-31045D01*
X61642Y-30949D01*
X61671Y-30892D01*
X61728Y-30854D01*
X61785Y-30835D01*
X61900Y-30816D01*
X61985Y-30816D01*
X62100Y-30835D01*
X62157Y-30854D01*
X62214Y-30892D01*
X62242Y-30949D01*
X62242Y-31045D01*
X61642Y-30683D02*
X61642Y-30435D01*
X61871Y-30569D01*
X61871Y-30511D01*
X61900Y-30473D01*
X61928Y-30454D01*
X61985Y-30435D01*
X62128Y-30435D01*
X62185Y-30454D01*
X62214Y-30473D01*
X62242Y-30511D01*
X62242Y-30626D01*
X62214Y-30664D01*
X62185Y-30683D01*
G54D12*
G54D15*
X63992Y-37545D02*
X63392Y-37545D01*
X63392Y-37449D01*
X63421Y-37392D01*
X63478Y-37354D01*
X63535Y-37335D01*
X63650Y-37316D01*
X63735Y-37316D01*
X63850Y-37335D01*
X63907Y-37354D01*
X63964Y-37392D01*
X63992Y-37449D01*
X63992Y-37545D01*
X63450Y-37164D02*
X63421Y-37145D01*
X63392Y-37107D01*
X63392Y-37011D01*
X63421Y-36973D01*
X63450Y-36954D01*
X63507Y-36935D01*
X63564Y-36935D01*
X63650Y-36954D01*
X63992Y-37183D01*
X63992Y-36935D01*
G54D12*
X62785Y-22400D02*
X62814Y-22428D01*
X62842Y-22514D01*
X62842Y-22571D01*
X62814Y-22657D01*
X62757Y-22714D01*
X62700Y-22742D01*
X62585Y-22771D01*
X62500Y-22771D01*
X62385Y-22742D01*
X62328Y-22714D01*
X62271Y-22657D01*
X62242Y-22571D01*
X62242Y-22514D01*
X62271Y-22428D01*
X62300Y-22400D01*
X62842Y-21828D02*
X62842Y-22171D01*
X62842Y-22000D02*
X62242Y-22000D01*
X62328Y-22057D01*
X62385Y-22114D01*
X62414Y-22171D01*
G54D13*
X65722Y-28583D02*
X65460Y-28750D01*
X65722Y-28869D02*
X65172Y-28869D01*
X65172Y-28678D01*
X65198Y-28630D01*
X65225Y-28607D01*
X65277Y-28583D01*
X65355Y-28583D01*
X65408Y-28607D01*
X65434Y-28630D01*
X65460Y-28678D01*
X65460Y-28869D01*
X65172Y-28416D02*
X65172Y-28107D01*
X65382Y-28273D01*
X65382Y-28202D01*
X65408Y-28154D01*
X65434Y-28130D01*
X65486Y-28107D01*
X65617Y-28107D01*
X65670Y-28130D01*
X65696Y-28154D01*
X65722Y-28202D01*
X65722Y-28345D01*
X65696Y-28392D01*
X65670Y-28416D01*
X68916Y-27622D02*
X68750Y-27360D01*
X68630Y-27622D02*
X68630Y-27072D01*
X68821Y-27072D01*
X68869Y-27098D01*
X68892Y-27125D01*
X68916Y-27177D01*
X68916Y-27255D01*
X68892Y-27308D01*
X68869Y-27334D01*
X68821Y-27360D01*
X68630Y-27360D01*
X69345Y-27255D02*
X69345Y-27622D01*
X69226Y-27046D02*
X69107Y-27439D01*
X69416Y-27439D01*
X60822Y-29683D02*
X60560Y-29850D01*
X60822Y-29969D02*
X60272Y-29969D01*
X60272Y-29778D01*
X60298Y-29730D01*
X60325Y-29707D01*
X60377Y-29683D01*
X60455Y-29683D01*
X60508Y-29707D01*
X60534Y-29730D01*
X60560Y-29778D01*
X60560Y-29969D01*
X60822Y-29207D02*
X60822Y-29492D01*
X60822Y-29350D02*
X60272Y-29350D01*
X60351Y-29397D01*
X60403Y-29445D01*
X60429Y-29492D01*
X65522Y-40083D02*
X65522Y-40321D01*
X64972Y-40321D01*
X65025Y-39940D02*
X64998Y-39916D01*
X64972Y-39869D01*
X64972Y-39750D01*
X64998Y-39702D01*
X65025Y-39678D01*
X65077Y-39654D01*
X65129Y-39654D01*
X65208Y-39678D01*
X65522Y-39964D01*
X65522Y-39654D01*
G54D10*
X73553Y-34131D02*
X73553Y-34262D01*
X73759Y-34262D02*
X73365Y-34262D01*
X73365Y-34074D01*
X73759Y-33718D02*
X73759Y-33943D01*
X73759Y-33831D02*
X73365Y-33831D01*
X73421Y-33868D01*
X73459Y-33906D01*
X73478Y-33943D01*
G54D13*
X66533Y-44123D02*
X66514Y-44142D01*
X66457Y-44161D01*
X66419Y-44161D01*
X66361Y-44142D01*
X66323Y-44104D01*
X66304Y-44066D01*
X66285Y-43990D01*
X66285Y-43933D01*
X66304Y-43857D01*
X66323Y-43819D01*
X66361Y-43780D01*
X66419Y-43761D01*
X66457Y-43761D01*
X66514Y-43780D01*
X66533Y-43800D01*
X66685Y-43800D02*
X66704Y-43780D01*
X66742Y-43761D01*
X66838Y-43761D01*
X66876Y-43780D01*
X66895Y-43800D01*
X66914Y-43838D01*
X66914Y-43876D01*
X66895Y-43933D01*
X66666Y-44161D01*
X66914Y-44161D01*
X70133Y-44123D02*
X70114Y-44142D01*
X70057Y-44161D01*
X70019Y-44161D01*
X69961Y-44142D01*
X69923Y-44104D01*
X69904Y-44066D01*
X69885Y-43990D01*
X69885Y-43933D01*
X69904Y-43857D01*
X69923Y-43819D01*
X69961Y-43780D01*
X70019Y-43761D01*
X70057Y-43761D01*
X70114Y-43780D01*
X70133Y-43800D01*
X70476Y-43895D02*
X70476Y-44161D01*
X70380Y-43742D02*
X70285Y-44028D01*
X70533Y-44028D01*
X72161Y-24695D02*
X71761Y-24695D01*
X71761Y-24542D01*
X71780Y-24504D01*
X71800Y-24485D01*
X71838Y-24466D01*
X71895Y-24466D01*
X71933Y-24485D01*
X71952Y-24504D01*
X71971Y-24542D01*
X71971Y-24695D01*
X71800Y-24314D02*
X71780Y-24295D01*
X71761Y-24257D01*
X71761Y-24161D01*
X71780Y-24123D01*
X71800Y-24104D01*
X71838Y-24085D01*
X71876Y-24085D01*
X71933Y-24104D01*
X72161Y-24333D01*
X72161Y-24085D01*
M02*
