M48
;DRILL file {Pcbnew (2013-jul-07)-stable} date Tue 04 Mar 2014 11:11:31 PM PST
;FORMAT={2:4/ absolute / inch / suppress leading zeros}
FMAT,2
INCH,TZ
T1C0.032
T2C0.032
T3C0.040
T4C0.042
T5C0.045
T6C0.047
T7C0.060
T8C0.096
T9C0.120
%
G90
G05
M72
T1
X67100Y-22700
X69100Y-22700
T2
X60600Y-27600
X60600Y-31600
X65300Y-32300
X65300Y-36300
X65300Y-37800
X65300Y-42800
X65500Y-26500
X65500Y-30500
X65600Y-44000
X66700Y-28000
X67500Y-29750
X67500Y-30750
X67500Y-31750
X67500Y-32750
X67600Y-44000
X69200Y-44000
X70500Y-29750
X70500Y-30750
X70500Y-31750
X70500Y-32750
X70700Y-28000
X71000Y-21200
X71000Y-25200
X71200Y-44000
X73400Y-23700
X73400Y-24700
T3
X72900Y-26800
X72900Y-27800
X72900Y-28800
X72900Y-29800
X72900Y-31400
X72900Y-32400
X72900Y-33400
X73900Y-26800
X73900Y-27800
X73900Y-28800
X73900Y-29800
X73900Y-31400
X73900Y-32400
X73900Y-33400
T4
X67200Y-38600
X71700Y-38600
T5
X62000Y-28250
X62000Y-33250
X62000Y-34750
X62000Y-39750
X63750Y-28250
X63750Y-33250
X63750Y-34750
X63750Y-39750
X66700Y-26600
X71700Y-26600
T6
X61100Y-23800
X64100Y-23800
T7
X61200Y-42600
X63200Y-42600
T8
X73800Y-36140
X73800Y-38140
X73800Y-39810
X73800Y-41800
T9
X58600Y-21600
X58600Y-44000
X73400Y-21600
X73400Y-44000
T0
M30
