G04 (created by PCBNEW (2013-jul-07)-stable) date Mon 03 Mar 2014 02:16:45 PM PST*
%MOIN*%
G04 Gerber Fmt 3.4, Leading zero omitted, Abs format*
%FSLAX34Y34*%
G01*
G70*
G90*
G04 APERTURE LIST*
%ADD10C,0.00590551*%
%ADD11C,0.08*%
%ADD12C,0.06*%
%ADD13R,0.06X0.06*%
%ADD14C,0.0591*%
%ADD15R,0.055X0.055*%
%ADD16C,0.055*%
%ADD17C,0.07*%
%ADD18R,0.07X0.07*%
%ADD19C,0.1181*%
%ADD20C,0.16*%
%ADD21C,0.129921*%
%ADD22R,0.1X0.1*%
%ADD23C,0.1*%
%ADD24C,0.035*%
%ADD25C,0.035*%
G04 APERTURE END LIST*
G54D10*
G54D11*
X67200Y-38000D03*
X71700Y-38000D03*
G54D12*
X65300Y-32300D03*
X65300Y-36300D03*
G54D13*
X73900Y-31600D03*
G54D12*
X72900Y-31600D03*
X73900Y-30600D03*
X72900Y-30600D03*
X73900Y-29600D03*
X72900Y-29600D03*
G54D14*
X68400Y-22800D03*
X70400Y-22800D03*
G54D15*
X70500Y-31950D03*
G54D16*
X70500Y-30950D03*
X70500Y-29950D03*
X70500Y-28950D03*
X67500Y-28950D03*
X67500Y-29950D03*
X67500Y-30950D03*
X67500Y-31950D03*
G54D17*
X66200Y-25700D03*
G54D18*
X71200Y-25700D03*
G54D17*
X62000Y-34750D03*
G54D18*
X62000Y-39750D03*
G54D17*
X63750Y-28250D03*
G54D18*
X63750Y-33250D03*
G54D17*
X62000Y-33250D03*
G54D18*
X62000Y-28250D03*
G54D17*
X63750Y-39750D03*
G54D18*
X63750Y-34750D03*
G54D19*
X64100Y-23800D03*
X61100Y-23800D03*
G54D20*
X58600Y-21600D03*
X58600Y-44000D03*
X73400Y-21600D03*
X73400Y-44000D03*
G54D12*
X65500Y-30500D03*
X65500Y-26500D03*
X67000Y-27400D03*
X71000Y-27400D03*
X60600Y-31600D03*
X60600Y-27600D03*
X65300Y-37500D03*
X65300Y-42500D03*
G54D21*
X73800Y-41000D03*
X73800Y-39010D03*
X73800Y-37340D03*
X73800Y-35340D03*
G54D16*
X65600Y-44000D03*
X67600Y-44000D03*
X71200Y-44000D03*
X69200Y-44000D03*
G54D13*
X73900Y-27500D03*
G54D12*
X72900Y-27500D03*
X73900Y-26500D03*
X72900Y-26500D03*
X73900Y-25500D03*
X72900Y-25500D03*
X73900Y-24500D03*
X72900Y-24500D03*
G54D22*
X61200Y-42600D03*
G54D23*
X63200Y-42600D03*
G54D24*
X69100Y-40500D03*
G54D25*
X71000Y-27400D02*
X72000Y-27400D01*
X70400Y-22800D02*
X70500Y-22800D01*
X71700Y-36500D02*
X71700Y-38000D01*
X72000Y-36200D02*
X71700Y-36500D01*
X72000Y-24300D02*
X72000Y-27400D01*
X72000Y-27400D02*
X72000Y-36200D01*
X70500Y-22800D02*
X72000Y-24300D01*
X72900Y-25500D02*
X72900Y-24500D01*
X72900Y-26500D02*
X72900Y-25500D01*
X72900Y-27500D02*
X72900Y-26500D01*
X71200Y-44000D02*
X71200Y-43600D01*
X70100Y-42500D02*
X65300Y-42500D01*
X71200Y-43600D02*
X70100Y-42500D01*
X72900Y-27500D02*
X72900Y-28300D01*
X72700Y-42500D02*
X71200Y-44000D01*
X74700Y-42500D02*
X72700Y-42500D01*
X75100Y-42100D02*
X74700Y-42500D01*
X75100Y-29000D02*
X75100Y-42100D01*
X74700Y-28600D02*
X75100Y-29000D01*
X73200Y-28600D02*
X74700Y-28600D01*
X72900Y-28300D02*
X73200Y-28600D01*
X70500Y-31950D02*
X67500Y-31950D01*
X73900Y-30600D02*
X73900Y-29600D01*
X73900Y-31600D02*
X73900Y-30600D01*
X63750Y-28250D02*
X62000Y-28250D01*
X73900Y-31600D02*
X73900Y-32800D01*
X64500Y-41300D02*
X63200Y-42600D01*
X69800Y-41300D02*
X64500Y-41300D01*
X72700Y-38400D02*
X69800Y-41300D01*
X72700Y-34000D02*
X72700Y-38400D01*
X73900Y-32800D02*
X72700Y-34000D01*
X63750Y-28250D02*
X63750Y-29950D01*
X63750Y-29950D02*
X60800Y-32900D01*
X60800Y-32900D02*
X60800Y-40200D01*
X60800Y-40200D02*
X63200Y-42600D01*
X71300Y-30750D02*
X70500Y-29950D01*
X71300Y-35300D02*
X71300Y-30750D01*
X69100Y-37500D02*
X71300Y-35300D01*
X69100Y-40500D02*
X69100Y-37500D01*
M02*
