M48
;DRILL file {Pcbnew (2013-jul-07)-stable} date Mon 03 Mar 2014 02:16:48 PM PST
;FORMAT={2:4/ absolute / inch / suppress leading zeros}
FMAT,2
INCH,TZ
T1C0.025
T2C0.032
T3C0.032
T4C0.040
T5C0.042
T6C0.045
T7C0.047
T8C0.060
T9C0.096
T10C0.120
%
G90
G05
M72
T1
X69100Y-40500
T2
X68400Y-22800
X70400Y-22800
T3
X60600Y-27600
X60600Y-31600
X65300Y-32300
X65300Y-36300
X65300Y-37500
X65300Y-42500
X65500Y-26500
X65500Y-30500
X65600Y-44000
X67000Y-27400
X67500Y-28950
X67500Y-29950
X67500Y-30950
X67500Y-31950
X67600Y-44000
X69200Y-44000
X70500Y-28950
X70500Y-29950
X70500Y-30950
X70500Y-31950
X71000Y-27400
X71200Y-44000
T4
X72900Y-24500
X72900Y-25500
X72900Y-26500
X72900Y-27500
X72900Y-29600
X72900Y-30600
X72900Y-31600
X73900Y-24500
X73900Y-25500
X73900Y-26500
X73900Y-27500
X73900Y-29600
X73900Y-30600
X73900Y-31600
T5
X67200Y-38000
X71700Y-38000
T6
X62000Y-28250
X62000Y-33250
X62000Y-34750
X62000Y-39750
X63750Y-28250
X63750Y-33250
X63750Y-34750
X63750Y-39750
X66200Y-25700
X71200Y-25700
T7
X61100Y-23800
X64100Y-23800
T8
X61200Y-42600
X63200Y-42600
T9
X73800Y-35340
X73800Y-37340
X73800Y-39010
X73800Y-41000
T10
X58600Y-21600
X58600Y-44000
X73400Y-21600
X73400Y-44000
T0
M30
