G04 (created by PCBNEW (2013-jul-07)-stable) date Tue 04 Mar 2014 11:11:28 PM PST*
%MOIN*%
G04 Gerber Fmt 3.4, Leading zero omitted, Abs format*
%FSLAX34Y34*%
G01*
G70*
G90*
G04 APERTURE LIST*
%ADD10C,0.00590551*%
%ADD11C,0.08*%
%ADD12C,0.06*%
%ADD13R,0.06X0.06*%
%ADD14C,0.0591*%
%ADD15R,0.055X0.055*%
%ADD16C,0.055*%
%ADD17C,0.07*%
%ADD18R,0.07X0.07*%
%ADD19C,0.1181*%
%ADD20C,0.16*%
%ADD21C,0.129921*%
%ADD22R,0.1X0.1*%
%ADD23C,0.1*%
%ADD24C,0.066*%
%ADD25C,0.035*%
G04 APERTURE END LIST*
G54D10*
G54D11*
X67200Y-38600D03*
X71700Y-38600D03*
G54D12*
X65300Y-32300D03*
X65300Y-36300D03*
G54D13*
X73900Y-33400D03*
G54D12*
X72900Y-33400D03*
X73900Y-32400D03*
X72900Y-32400D03*
X73900Y-31400D03*
X72900Y-31400D03*
G54D14*
X67100Y-22700D03*
X69100Y-22700D03*
G54D15*
X70500Y-32750D03*
G54D16*
X70500Y-31750D03*
X70500Y-30750D03*
X70500Y-29750D03*
X67500Y-29750D03*
X67500Y-30750D03*
X67500Y-31750D03*
X67500Y-32750D03*
G54D17*
X66700Y-26600D03*
G54D18*
X71700Y-26600D03*
G54D17*
X62000Y-34750D03*
G54D18*
X62000Y-39750D03*
G54D17*
X63750Y-28250D03*
G54D18*
X63750Y-33250D03*
G54D17*
X62000Y-33250D03*
G54D18*
X62000Y-28250D03*
G54D17*
X63750Y-39750D03*
G54D18*
X63750Y-34750D03*
G54D19*
X64100Y-23800D03*
X61100Y-23800D03*
G54D20*
X58600Y-21600D03*
X58600Y-44000D03*
X73400Y-21600D03*
X73400Y-44000D03*
G54D12*
X65500Y-30500D03*
X65500Y-26500D03*
X66700Y-28000D03*
X70700Y-28000D03*
X60600Y-31600D03*
X60600Y-27600D03*
X65300Y-37800D03*
X65300Y-42800D03*
G54D21*
X73800Y-41800D03*
X73800Y-39810D03*
X73800Y-38140D03*
X73800Y-36140D03*
G54D16*
X65600Y-44000D03*
X67600Y-44000D03*
X71200Y-44000D03*
X69200Y-44000D03*
G54D13*
X73900Y-29800D03*
G54D12*
X72900Y-29800D03*
X73900Y-28800D03*
X72900Y-28800D03*
X73900Y-27800D03*
X72900Y-27800D03*
X73900Y-26800D03*
X72900Y-26800D03*
G54D22*
X61200Y-42600D03*
G54D23*
X63200Y-42600D03*
G54D12*
X71000Y-25200D03*
X71000Y-21200D03*
G54D24*
X73400Y-24700D03*
X73400Y-23700D03*
G54D25*
X70500Y-29750D02*
X70500Y-29700D01*
X68200Y-26600D02*
X67450Y-25850D01*
X68200Y-27400D02*
X68200Y-26600D01*
X70500Y-29700D02*
X68200Y-27400D01*
X73900Y-26800D02*
X73900Y-26100D01*
X71400Y-25600D02*
X71000Y-25200D01*
X73400Y-25600D02*
X71400Y-25600D01*
X73900Y-26100D02*
X73400Y-25600D01*
X66700Y-26600D02*
X67450Y-25850D01*
X67450Y-25850D02*
X68100Y-25200D01*
X68100Y-25200D02*
X71000Y-25200D01*
X66700Y-26600D02*
X65600Y-26600D01*
X65600Y-26600D02*
X65500Y-26500D01*
X64100Y-23800D02*
X64100Y-23700D01*
X65100Y-22700D02*
X67100Y-22700D01*
X64100Y-23700D02*
X65100Y-22700D01*
X60600Y-31600D02*
X60400Y-31600D01*
X62300Y-22000D02*
X64100Y-23800D01*
X60600Y-22000D02*
X62300Y-22000D01*
X59000Y-23600D02*
X60600Y-22000D01*
X59000Y-30200D02*
X59000Y-23600D01*
X60400Y-31600D02*
X59000Y-30200D01*
X67600Y-44000D02*
X67600Y-44200D01*
X59800Y-36950D02*
X62000Y-34750D01*
X59800Y-43200D02*
X59800Y-36950D01*
X61400Y-44800D02*
X59800Y-43200D01*
X67000Y-44800D02*
X61400Y-44800D01*
X67600Y-44200D02*
X67000Y-44800D01*
X73900Y-28800D02*
X73900Y-29800D01*
X73900Y-27800D02*
X73900Y-28800D01*
X73900Y-26800D02*
X73900Y-27800D01*
X67600Y-44000D02*
X69200Y-44000D01*
X64100Y-23800D02*
X64100Y-25100D01*
X64100Y-25100D02*
X65500Y-26500D01*
X62000Y-34750D02*
X62000Y-33250D01*
X62000Y-33250D02*
X60600Y-31850D01*
X60600Y-31850D02*
X60600Y-31600D01*
X73800Y-36140D02*
X73800Y-35700D01*
X72900Y-34800D02*
X72900Y-33400D01*
X73800Y-35700D02*
X72900Y-34800D01*
X72900Y-33400D02*
X72900Y-32400D01*
X72900Y-32400D02*
X72900Y-31400D01*
X73800Y-38140D02*
X73800Y-36140D01*
X65600Y-44000D02*
X65600Y-43900D01*
X69750Y-30750D02*
X70500Y-30750D01*
X68900Y-31600D02*
X69750Y-30750D01*
X68900Y-33400D02*
X68900Y-31600D01*
X66400Y-35900D02*
X68900Y-33400D01*
X66400Y-43100D02*
X66400Y-35900D01*
X65600Y-43900D02*
X66400Y-43100D01*
X67500Y-29750D02*
X67500Y-29700D01*
X66700Y-28900D02*
X66700Y-28000D01*
X67500Y-29700D02*
X66700Y-28900D01*
X65500Y-30500D02*
X66300Y-29700D01*
X67450Y-29700D02*
X67500Y-29750D01*
X66300Y-29700D02*
X67450Y-29700D01*
X70500Y-31750D02*
X71050Y-31750D01*
X71700Y-28500D02*
X71700Y-26600D01*
X71400Y-28800D02*
X71700Y-28500D01*
X71400Y-31400D02*
X71400Y-28800D01*
X71050Y-31750D02*
X71400Y-31400D01*
X67200Y-38600D02*
X67200Y-36100D01*
X70050Y-31750D02*
X70500Y-31750D01*
X69500Y-32300D02*
X70050Y-31750D01*
X69500Y-33800D02*
X69500Y-32300D01*
X67200Y-36100D02*
X69500Y-33800D01*
X71000Y-21200D02*
X71000Y-22800D01*
X71900Y-23700D02*
X73400Y-23700D01*
X71000Y-22800D02*
X71900Y-23700D01*
X71200Y-44000D02*
X71200Y-39900D01*
X72200Y-30500D02*
X72900Y-29800D01*
X72200Y-36200D02*
X72200Y-30500D01*
X70600Y-37800D02*
X72200Y-36200D01*
X70600Y-39300D02*
X70600Y-37800D01*
X71200Y-39900D02*
X70600Y-39300D01*
X73800Y-39810D02*
X73800Y-41800D01*
X62000Y-39750D02*
X63750Y-39750D01*
X61200Y-42600D02*
X61200Y-40550D01*
X61200Y-40550D02*
X62000Y-39750D01*
X65300Y-32300D02*
X65500Y-32300D01*
X65950Y-32750D02*
X67500Y-32750D01*
X65500Y-32300D02*
X65950Y-32750D01*
X67500Y-32750D02*
X67500Y-31750D01*
X63750Y-33250D02*
X63750Y-32250D01*
X66750Y-30750D02*
X67500Y-30750D01*
X66100Y-31400D02*
X66750Y-30750D01*
X64600Y-31400D02*
X66100Y-31400D01*
X63750Y-32250D02*
X64600Y-31400D01*
X60600Y-27600D02*
X60600Y-25900D01*
X61100Y-25400D02*
X61100Y-23800D01*
X60600Y-25900D02*
X61100Y-25400D01*
X63750Y-34750D02*
X65300Y-36300D01*
X63750Y-33250D02*
X63750Y-34750D01*
X63750Y-33250D02*
X63750Y-33150D01*
X60600Y-30000D02*
X60600Y-27600D01*
X63750Y-33150D02*
X60600Y-30000D01*
M02*
