G04 (created by PCBNEW (2013-jul-07)-stable) date Mon 03 Mar 2014 01:33:23 AM PST*
%MOIN*%
G04 Gerber Fmt 3.4, Leading zero omitted, Abs format*
%FSLAX34Y34*%
G01*
G70*
G90*
G04 APERTURE LIST*
%ADD10C,0.00590551*%
%ADD11C,0.08*%
%ADD12C,0.06*%
%ADD13R,0.06X0.06*%
%ADD14C,0.0591*%
%ADD15R,0.055X0.055*%
%ADD16C,0.055*%
%ADD17C,0.07*%
%ADD18R,0.07X0.07*%
%ADD19C,0.1181*%
%ADD20C,0.16*%
%ADD21C,0.129921*%
%ADD22R,0.1X0.1*%
%ADD23C,0.1*%
G04 APERTURE END LIST*
G54D10*
G54D11*
X67200Y-38000D03*
X71700Y-38000D03*
G54D12*
X65300Y-32200D03*
X65300Y-36200D03*
G54D13*
X73900Y-31600D03*
G54D12*
X72900Y-31600D03*
X73900Y-30600D03*
X72900Y-30600D03*
X73900Y-29600D03*
X72900Y-29600D03*
G54D14*
X68400Y-22800D03*
X70400Y-22800D03*
G54D15*
X70500Y-31950D03*
G54D16*
X70500Y-30950D03*
X70500Y-29950D03*
X70500Y-28950D03*
X67500Y-28950D03*
X67500Y-29950D03*
X67500Y-30950D03*
X67500Y-31950D03*
G54D17*
X66200Y-25700D03*
G54D18*
X71200Y-25700D03*
G54D17*
X62000Y-34750D03*
G54D18*
X62000Y-39750D03*
G54D17*
X63750Y-28250D03*
G54D18*
X63750Y-33250D03*
G54D17*
X62000Y-33250D03*
G54D18*
X62000Y-28250D03*
G54D17*
X63750Y-39750D03*
G54D18*
X63750Y-34750D03*
G54D19*
X64100Y-23800D03*
X61100Y-23800D03*
G54D20*
X58600Y-21600D03*
X58600Y-44000D03*
X73400Y-21600D03*
X73400Y-44000D03*
G54D12*
X65500Y-30500D03*
X65500Y-26500D03*
X67000Y-27400D03*
X71000Y-27400D03*
X60600Y-31600D03*
X60600Y-27600D03*
X65300Y-37500D03*
X65300Y-42500D03*
G54D21*
X73800Y-41000D03*
X73800Y-39010D03*
X73800Y-37340D03*
X73800Y-35340D03*
G54D16*
X65600Y-44000D03*
X67600Y-44000D03*
X71200Y-44000D03*
X69200Y-44000D03*
G54D13*
X73900Y-27500D03*
G54D12*
X72900Y-27500D03*
X73900Y-26500D03*
X72900Y-26500D03*
X73900Y-25500D03*
X72900Y-25500D03*
X73900Y-24500D03*
X72900Y-24500D03*
G54D22*
X61200Y-42600D03*
G54D23*
X63200Y-42600D03*
M02*
