G04 (created by PCBNEW (2013-jul-07)-stable) date Tue 04 Mar 2014 11:11:28 PM PST*
%MOIN*%
G04 Gerber Fmt 3.4, Leading zero omitted, Abs format*
%FSLAX34Y34*%
G01*
G70*
G90*
G04 APERTURE LIST*
%ADD10C,0.00590551*%
%ADD11C,0.011811*%
%ADD12C,0.012*%
%ADD13C,0.008*%
%ADD14C,0.015*%
%ADD15C,0.01*%
%ADD16C,0.003*%
%ADD17C,0.006*%
%ADD18C,0.0035*%
G04 APERTURE END LIST*
G54D10*
G54D11*
X61064Y-39334D02*
X61035Y-39362D01*
X60951Y-39418D01*
X60895Y-39446D01*
X60810Y-39474D01*
X60670Y-39502D01*
X60557Y-39502D01*
X60417Y-39474D01*
X60332Y-39446D01*
X60276Y-39418D01*
X60192Y-39362D01*
X60164Y-39334D01*
X60304Y-39137D02*
X60276Y-39109D01*
X60248Y-39052D01*
X60248Y-38912D01*
X60276Y-38856D01*
X60304Y-38827D01*
X60360Y-38799D01*
X60417Y-38799D01*
X60501Y-38827D01*
X60839Y-39165D01*
X60839Y-38799D01*
X60248Y-38434D02*
X60248Y-38377D01*
X60276Y-38321D01*
X60304Y-38293D01*
X60360Y-38265D01*
X60473Y-38237D01*
X60614Y-38237D01*
X60726Y-38265D01*
X60782Y-38293D01*
X60810Y-38321D01*
X60839Y-38377D01*
X60839Y-38434D01*
X60810Y-38490D01*
X60782Y-38518D01*
X60726Y-38546D01*
X60614Y-38574D01*
X60473Y-38574D01*
X60360Y-38546D01*
X60304Y-38518D01*
X60276Y-38490D01*
X60248Y-38434D01*
X60839Y-37674D02*
X60839Y-38012D01*
X60839Y-37843D02*
X60248Y-37843D01*
X60332Y-37899D01*
X60389Y-37956D01*
X60417Y-38012D01*
X60445Y-37168D02*
X60839Y-37168D01*
X60220Y-37309D02*
X60642Y-37449D01*
X60642Y-37084D01*
X60248Y-36746D02*
X60248Y-36690D01*
X60276Y-36634D01*
X60304Y-36606D01*
X60360Y-36578D01*
X60473Y-36550D01*
X60614Y-36550D01*
X60726Y-36578D01*
X60782Y-36606D01*
X60810Y-36634D01*
X60839Y-36690D01*
X60839Y-36746D01*
X60810Y-36803D01*
X60782Y-36831D01*
X60726Y-36859D01*
X60614Y-36887D01*
X60473Y-36887D01*
X60360Y-36859D01*
X60304Y-36831D01*
X60276Y-36803D01*
X60248Y-36746D01*
X60248Y-36353D02*
X60248Y-35987D01*
X60473Y-36184D01*
X60473Y-36100D01*
X60501Y-36043D01*
X60529Y-36015D01*
X60585Y-35987D01*
X60726Y-35987D01*
X60782Y-36015D01*
X60810Y-36043D01*
X60839Y-36100D01*
X60839Y-36268D01*
X60810Y-36325D01*
X60782Y-36353D01*
X60248Y-35622D02*
X60248Y-35565D01*
X60276Y-35509D01*
X60304Y-35481D01*
X60360Y-35453D01*
X60473Y-35425D01*
X60614Y-35425D01*
X60726Y-35453D01*
X60782Y-35481D01*
X60810Y-35509D01*
X60839Y-35565D01*
X60839Y-35622D01*
X60810Y-35678D01*
X60782Y-35706D01*
X60726Y-35734D01*
X60614Y-35762D01*
X60473Y-35762D01*
X60360Y-35734D01*
X60304Y-35706D01*
X60276Y-35678D01*
X60248Y-35622D01*
X60445Y-34919D02*
X60839Y-34919D01*
X60220Y-35059D02*
X60642Y-35200D01*
X60642Y-34834D01*
X61064Y-34665D02*
X61035Y-34637D01*
X60951Y-34581D01*
X60895Y-34553D01*
X60810Y-34525D01*
X60670Y-34497D01*
X60557Y-34497D01*
X60417Y-34525D01*
X60332Y-34553D01*
X60276Y-34581D01*
X60192Y-34637D01*
X60164Y-34665D01*
X74848Y-28478D02*
X74848Y-28759D01*
X75129Y-28787D01*
X75101Y-28759D01*
X75073Y-28703D01*
X75073Y-28562D01*
X75101Y-28506D01*
X75129Y-28478D01*
X75185Y-28450D01*
X75326Y-28450D01*
X75382Y-28478D01*
X75410Y-28506D01*
X75439Y-28562D01*
X75439Y-28703D01*
X75410Y-28759D01*
X75382Y-28787D01*
X74848Y-28281D02*
X75439Y-28084D01*
X74848Y-27887D01*
X73070Y-34640D02*
X73070Y-34359D01*
X73239Y-34696D02*
X72648Y-34500D01*
X73239Y-34303D01*
X73874Y-34457D02*
X73902Y-34373D01*
X73930Y-34345D01*
X73987Y-34317D01*
X74071Y-34317D01*
X74127Y-34345D01*
X74155Y-34373D01*
X74183Y-34429D01*
X74183Y-34654D01*
X73593Y-34654D01*
X73593Y-34457D01*
X73621Y-34401D01*
X73649Y-34373D01*
X73705Y-34345D01*
X73762Y-34345D01*
X73818Y-34373D01*
X73846Y-34401D01*
X73874Y-34457D01*
X73874Y-34654D01*
X74904Y-33876D02*
X74876Y-33848D01*
X74848Y-33792D01*
X74848Y-33651D01*
X74876Y-33595D01*
X74904Y-33567D01*
X74960Y-33538D01*
X75017Y-33538D01*
X75101Y-33567D01*
X75439Y-33904D01*
X75439Y-33538D01*
X75045Y-33032D02*
X75439Y-33032D01*
X74820Y-33173D02*
X75242Y-33313D01*
X75242Y-32948D01*
X74848Y-32357D02*
X75439Y-32160D01*
X74848Y-31964D01*
X75270Y-31795D02*
X75270Y-31514D01*
X75439Y-31851D02*
X74848Y-31654D01*
X75439Y-31457D01*
X75382Y-30923D02*
X75410Y-30951D01*
X75439Y-31036D01*
X75439Y-31092D01*
X75410Y-31176D01*
X75354Y-31232D01*
X75298Y-31261D01*
X75185Y-31289D01*
X75101Y-31289D01*
X74989Y-31261D01*
X74932Y-31232D01*
X74876Y-31176D01*
X74848Y-31092D01*
X74848Y-31036D01*
X74876Y-30951D01*
X74904Y-30923D01*
X75639Y-40020D02*
X75639Y-40357D01*
X75639Y-40188D02*
X75048Y-40188D01*
X75132Y-40245D01*
X75189Y-40301D01*
X75217Y-40357D01*
X75470Y-39795D02*
X75470Y-39513D01*
X75639Y-39851D02*
X75048Y-39654D01*
X75639Y-39457D01*
X75329Y-38614D02*
X75329Y-38810D01*
X75639Y-38810D02*
X75048Y-38810D01*
X75048Y-38529D01*
X75048Y-38304D02*
X75526Y-38304D01*
X75582Y-38276D01*
X75610Y-38248D01*
X75639Y-38192D01*
X75639Y-38079D01*
X75610Y-38023D01*
X75582Y-37995D01*
X75526Y-37967D01*
X75048Y-37967D01*
X75610Y-37714D02*
X75639Y-37629D01*
X75639Y-37489D01*
X75610Y-37432D01*
X75582Y-37404D01*
X75526Y-37376D01*
X75470Y-37376D01*
X75414Y-37404D01*
X75385Y-37432D01*
X75357Y-37489D01*
X75329Y-37601D01*
X75301Y-37657D01*
X75273Y-37686D01*
X75217Y-37714D01*
X75160Y-37714D01*
X75104Y-37686D01*
X75076Y-37657D01*
X75048Y-37601D01*
X75048Y-37461D01*
X75076Y-37376D01*
X75329Y-37123D02*
X75329Y-36926D01*
X75639Y-36842D02*
X75639Y-37123D01*
X75048Y-37123D01*
X75048Y-36842D01*
X60048Y-44504D02*
X60076Y-44476D01*
X60133Y-44448D01*
X60273Y-44448D01*
X60329Y-44476D01*
X60358Y-44504D01*
X60386Y-44560D01*
X60386Y-44617D01*
X60358Y-44701D01*
X60020Y-45039D01*
X60386Y-45039D01*
X60892Y-44645D02*
X60892Y-45039D01*
X60751Y-44420D02*
X60611Y-44842D01*
X60976Y-44842D01*
X61567Y-44448D02*
X61764Y-45039D01*
X61960Y-44448D01*
X62129Y-44870D02*
X62410Y-44870D01*
X62073Y-45039D02*
X62270Y-44448D01*
X62467Y-45039D01*
X63001Y-44982D02*
X62973Y-45010D01*
X62888Y-45039D01*
X62832Y-45039D01*
X62748Y-45010D01*
X62692Y-44954D01*
X62664Y-44898D01*
X62635Y-44785D01*
X62635Y-44701D01*
X62664Y-44589D01*
X62692Y-44532D01*
X62748Y-44476D01*
X62832Y-44448D01*
X62888Y-44448D01*
X62973Y-44476D01*
X63001Y-44504D01*
X63704Y-45039D02*
X63704Y-44448D01*
X63985Y-45039D02*
X63985Y-44448D01*
X64323Y-45039D01*
X64323Y-44448D01*
X73014Y-25959D02*
X73014Y-25509D01*
X73239Y-25734D02*
X72789Y-25734D01*
X73958Y-25959D02*
X73958Y-25509D01*
X58048Y-41626D02*
X58470Y-41626D01*
X58554Y-41655D01*
X58610Y-41711D01*
X58639Y-41795D01*
X58639Y-41851D01*
X58610Y-41120D02*
X58639Y-41177D01*
X58639Y-41289D01*
X58610Y-41345D01*
X58554Y-41373D01*
X58329Y-41373D01*
X58273Y-41345D01*
X58245Y-41289D01*
X58245Y-41177D01*
X58273Y-41120D01*
X58329Y-41092D01*
X58385Y-41092D01*
X58442Y-41373D01*
X58639Y-40839D02*
X58245Y-40839D01*
X58357Y-40839D02*
X58301Y-40811D01*
X58273Y-40783D01*
X58245Y-40727D01*
X58245Y-40670D01*
X58610Y-40249D02*
X58639Y-40305D01*
X58639Y-40417D01*
X58610Y-40474D01*
X58554Y-40502D01*
X58329Y-40502D01*
X58273Y-40474D01*
X58245Y-40417D01*
X58245Y-40305D01*
X58273Y-40249D01*
X58329Y-40220D01*
X58385Y-40220D01*
X58442Y-40502D01*
X58639Y-39967D02*
X58245Y-39967D01*
X58301Y-39967D02*
X58273Y-39939D01*
X58245Y-39883D01*
X58245Y-39799D01*
X58273Y-39742D01*
X58329Y-39714D01*
X58639Y-39714D01*
X58329Y-39714D02*
X58273Y-39686D01*
X58245Y-39630D01*
X58245Y-39546D01*
X58273Y-39489D01*
X58329Y-39461D01*
X58639Y-39461D01*
X58639Y-39180D02*
X58245Y-39180D01*
X58048Y-39180D02*
X58076Y-39208D01*
X58104Y-39180D01*
X58076Y-39152D01*
X58048Y-39180D01*
X58104Y-39180D01*
X58639Y-38646D02*
X58329Y-38646D01*
X58273Y-38674D01*
X58245Y-38730D01*
X58245Y-38842D01*
X58273Y-38899D01*
X58610Y-38646D02*
X58639Y-38702D01*
X58639Y-38842D01*
X58610Y-38899D01*
X58554Y-38927D01*
X58498Y-38927D01*
X58442Y-38899D01*
X58414Y-38842D01*
X58414Y-38702D01*
X58385Y-38646D01*
X58639Y-38364D02*
X58048Y-38364D01*
X58639Y-38111D02*
X58329Y-38111D01*
X58273Y-38139D01*
X58245Y-38196D01*
X58245Y-38280D01*
X58273Y-38336D01*
X58301Y-38364D01*
X58639Y-37380D02*
X58048Y-37380D01*
X58470Y-37183D01*
X58048Y-36986D01*
X58639Y-36986D01*
X58639Y-36452D02*
X58329Y-36452D01*
X58273Y-36480D01*
X58245Y-36537D01*
X58245Y-36649D01*
X58273Y-36705D01*
X58610Y-36452D02*
X58639Y-36508D01*
X58639Y-36649D01*
X58610Y-36705D01*
X58554Y-36733D01*
X58498Y-36733D01*
X58442Y-36705D01*
X58414Y-36649D01*
X58414Y-36508D01*
X58385Y-36452D01*
X58639Y-36171D02*
X58048Y-36171D01*
X58639Y-35918D02*
X58329Y-35918D01*
X58273Y-35946D01*
X58245Y-36002D01*
X58245Y-36087D01*
X58273Y-36143D01*
X58301Y-36171D01*
X58639Y-35552D02*
X58610Y-35608D01*
X58554Y-35637D01*
X58048Y-35637D01*
X58610Y-35102D02*
X58639Y-35159D01*
X58639Y-35271D01*
X58610Y-35327D01*
X58554Y-35355D01*
X58329Y-35355D01*
X58273Y-35327D01*
X58245Y-35271D01*
X58245Y-35159D01*
X58273Y-35102D01*
X58329Y-35074D01*
X58385Y-35074D01*
X58442Y-35355D01*
X58639Y-34821D02*
X58245Y-34821D01*
X58357Y-34821D02*
X58301Y-34793D01*
X58273Y-34765D01*
X58245Y-34709D01*
X58245Y-34652D01*
X58245Y-33556D02*
X58414Y-34006D01*
X58582Y-33556D01*
X58245Y-33274D02*
X58751Y-33274D01*
X58807Y-33303D01*
X58835Y-33359D01*
X58835Y-33387D01*
X58048Y-33274D02*
X58076Y-33303D01*
X58104Y-33274D01*
X58076Y-33246D01*
X58048Y-33274D01*
X58104Y-33274D01*
X58639Y-32993D02*
X58245Y-32993D01*
X58301Y-32993D02*
X58273Y-32965D01*
X58245Y-32909D01*
X58245Y-32824D01*
X58273Y-32768D01*
X58329Y-32740D01*
X58639Y-32740D01*
X58329Y-32740D02*
X58273Y-32712D01*
X58245Y-32656D01*
X58245Y-32571D01*
X58273Y-32515D01*
X58329Y-32487D01*
X58639Y-32487D01*
X58639Y-32206D02*
X58245Y-32206D01*
X58301Y-32206D02*
X58273Y-32178D01*
X58245Y-32121D01*
X58245Y-32037D01*
X58273Y-31981D01*
X58329Y-31953D01*
X58639Y-31953D01*
X58329Y-31953D02*
X58273Y-31925D01*
X58245Y-31868D01*
X58245Y-31784D01*
X58273Y-31728D01*
X58329Y-31700D01*
X58639Y-31700D01*
X58639Y-31165D02*
X58329Y-31165D01*
X58273Y-31193D01*
X58245Y-31250D01*
X58245Y-31362D01*
X58273Y-31418D01*
X58610Y-31165D02*
X58639Y-31222D01*
X58639Y-31362D01*
X58610Y-31418D01*
X58554Y-31447D01*
X58498Y-31447D01*
X58442Y-31418D01*
X58414Y-31362D01*
X58414Y-31222D01*
X58385Y-31165D01*
X58639Y-30884D02*
X58048Y-30884D01*
X58639Y-30631D02*
X58329Y-30631D01*
X58273Y-30659D01*
X58245Y-30715D01*
X58245Y-30800D01*
X58273Y-30856D01*
X58301Y-30884D01*
X58639Y-30265D02*
X58610Y-30322D01*
X58554Y-30350D01*
X58048Y-30350D01*
X58610Y-29815D02*
X58639Y-29872D01*
X58639Y-29984D01*
X58610Y-30040D01*
X58554Y-30069D01*
X58329Y-30069D01*
X58273Y-30040D01*
X58245Y-29984D01*
X58245Y-29872D01*
X58273Y-29815D01*
X58329Y-29787D01*
X58385Y-29787D01*
X58442Y-30069D01*
X58639Y-29534D02*
X58245Y-29534D01*
X58357Y-29534D02*
X58301Y-29506D01*
X58273Y-29478D01*
X58245Y-29422D01*
X58245Y-29366D01*
X58357Y-28803D02*
X58329Y-28831D01*
X58301Y-28887D01*
X58301Y-28944D01*
X58329Y-29000D01*
X58357Y-29028D01*
X58414Y-29056D01*
X58470Y-29056D01*
X58526Y-29028D01*
X58554Y-29000D01*
X58582Y-28944D01*
X58582Y-28887D01*
X58554Y-28831D01*
X58526Y-28803D01*
X58301Y-28803D02*
X58526Y-28803D01*
X58554Y-28775D01*
X58554Y-28747D01*
X58526Y-28691D01*
X58470Y-28662D01*
X58329Y-28662D01*
X58245Y-28719D01*
X58189Y-28803D01*
X58160Y-28916D01*
X58189Y-29028D01*
X58245Y-29112D01*
X58329Y-29169D01*
X58442Y-29197D01*
X58554Y-29169D01*
X58639Y-29112D01*
X58695Y-29028D01*
X58723Y-28916D01*
X58695Y-28803D01*
X58639Y-28719D01*
X58245Y-28156D02*
X58723Y-28156D01*
X58779Y-28184D01*
X58807Y-28213D01*
X58835Y-28269D01*
X58835Y-28353D01*
X58807Y-28409D01*
X58610Y-28156D02*
X58639Y-28213D01*
X58639Y-28325D01*
X58610Y-28381D01*
X58582Y-28409D01*
X58526Y-28438D01*
X58357Y-28438D01*
X58301Y-28409D01*
X58273Y-28381D01*
X58245Y-28325D01*
X58245Y-28213D01*
X58273Y-28156D01*
X58639Y-27875D02*
X58245Y-27875D01*
X58301Y-27875D02*
X58273Y-27847D01*
X58245Y-27791D01*
X58245Y-27706D01*
X58273Y-27650D01*
X58329Y-27622D01*
X58639Y-27622D01*
X58329Y-27622D02*
X58273Y-27594D01*
X58245Y-27538D01*
X58245Y-27453D01*
X58273Y-27397D01*
X58329Y-27369D01*
X58639Y-27369D01*
X58639Y-26835D02*
X58329Y-26835D01*
X58273Y-26863D01*
X58245Y-26919D01*
X58245Y-27031D01*
X58273Y-27088D01*
X58610Y-26835D02*
X58639Y-26891D01*
X58639Y-27031D01*
X58610Y-27088D01*
X58554Y-27116D01*
X58498Y-27116D01*
X58442Y-27088D01*
X58414Y-27031D01*
X58414Y-26891D01*
X58385Y-26835D01*
X58639Y-26553D02*
X58245Y-26553D01*
X58048Y-26553D02*
X58076Y-26582D01*
X58104Y-26553D01*
X58076Y-26525D01*
X58048Y-26553D01*
X58104Y-26553D01*
X58639Y-26188D02*
X58610Y-26244D01*
X58554Y-26272D01*
X58048Y-26272D01*
X58582Y-25963D02*
X58610Y-25935D01*
X58639Y-25963D01*
X58610Y-25991D01*
X58582Y-25963D01*
X58639Y-25963D01*
X58610Y-25429D02*
X58639Y-25485D01*
X58639Y-25597D01*
X58610Y-25653D01*
X58582Y-25682D01*
X58526Y-25710D01*
X58357Y-25710D01*
X58301Y-25682D01*
X58273Y-25653D01*
X58245Y-25597D01*
X58245Y-25485D01*
X58273Y-25429D01*
X58639Y-25091D02*
X58610Y-25147D01*
X58582Y-25175D01*
X58526Y-25204D01*
X58357Y-25204D01*
X58301Y-25175D01*
X58273Y-25147D01*
X58245Y-25091D01*
X58245Y-25007D01*
X58273Y-24950D01*
X58301Y-24922D01*
X58357Y-24894D01*
X58526Y-24894D01*
X58582Y-24922D01*
X58610Y-24950D01*
X58639Y-25007D01*
X58639Y-25091D01*
X58639Y-24641D02*
X58245Y-24641D01*
X58301Y-24641D02*
X58273Y-24613D01*
X58245Y-24557D01*
X58245Y-24472D01*
X58273Y-24416D01*
X58329Y-24388D01*
X58639Y-24388D01*
X58329Y-24388D02*
X58273Y-24360D01*
X58245Y-24304D01*
X58245Y-24219D01*
X58273Y-24163D01*
X58329Y-24135D01*
X58639Y-24135D01*
X58245Y-23854D02*
X58414Y-23404D01*
X58582Y-23854D01*
X59190Y-39250D02*
X59668Y-39250D01*
X59724Y-39278D01*
X59752Y-39306D01*
X59780Y-39363D01*
X59780Y-39447D01*
X59752Y-39503D01*
X59555Y-39250D02*
X59583Y-39306D01*
X59583Y-39419D01*
X59555Y-39475D01*
X59527Y-39503D01*
X59471Y-39531D01*
X59302Y-39531D01*
X59246Y-39503D01*
X59218Y-39475D01*
X59190Y-39419D01*
X59190Y-39306D01*
X59218Y-39250D01*
X59583Y-38969D02*
X59190Y-38969D01*
X58993Y-38969D02*
X59021Y-38997D01*
X59049Y-38969D01*
X59021Y-38941D01*
X58993Y-38969D01*
X59049Y-38969D01*
X59190Y-38772D02*
X59190Y-38547D01*
X58993Y-38688D02*
X59499Y-38688D01*
X59555Y-38660D01*
X59583Y-38603D01*
X59583Y-38547D01*
X59583Y-38350D02*
X58993Y-38350D01*
X59583Y-38097D02*
X59274Y-38097D01*
X59218Y-38125D01*
X59190Y-38182D01*
X59190Y-38266D01*
X59218Y-38322D01*
X59246Y-38350D01*
X59190Y-37563D02*
X59583Y-37563D01*
X59190Y-37816D02*
X59499Y-37816D01*
X59555Y-37788D01*
X59583Y-37732D01*
X59583Y-37647D01*
X59555Y-37591D01*
X59527Y-37563D01*
X59583Y-37282D02*
X58993Y-37282D01*
X59218Y-37282D02*
X59190Y-37225D01*
X59190Y-37113D01*
X59218Y-37057D01*
X59246Y-37029D01*
X59302Y-37001D01*
X59471Y-37001D01*
X59527Y-37029D01*
X59555Y-37057D01*
X59583Y-37113D01*
X59583Y-37225D01*
X59555Y-37282D01*
X59527Y-36747D02*
X59555Y-36719D01*
X59583Y-36747D01*
X59555Y-36776D01*
X59527Y-36747D01*
X59583Y-36747D01*
X59555Y-36213D02*
X59583Y-36269D01*
X59583Y-36382D01*
X59555Y-36438D01*
X59527Y-36466D01*
X59471Y-36494D01*
X59302Y-36494D01*
X59246Y-36466D01*
X59218Y-36438D01*
X59190Y-36382D01*
X59190Y-36269D01*
X59218Y-36213D01*
X59583Y-35876D02*
X59555Y-35932D01*
X59527Y-35960D01*
X59471Y-35988D01*
X59302Y-35988D01*
X59246Y-35960D01*
X59218Y-35932D01*
X59190Y-35876D01*
X59190Y-35791D01*
X59218Y-35735D01*
X59246Y-35707D01*
X59302Y-35679D01*
X59471Y-35679D01*
X59527Y-35707D01*
X59555Y-35735D01*
X59583Y-35791D01*
X59583Y-35876D01*
X59583Y-35426D02*
X59190Y-35426D01*
X59246Y-35426D02*
X59218Y-35398D01*
X59190Y-35341D01*
X59190Y-35257D01*
X59218Y-35201D01*
X59274Y-35173D01*
X59583Y-35173D01*
X59274Y-35173D02*
X59218Y-35144D01*
X59190Y-35088D01*
X59190Y-35004D01*
X59218Y-34948D01*
X59274Y-34920D01*
X59583Y-34920D01*
X58965Y-34216D02*
X59724Y-34723D01*
X59190Y-34020D02*
X59696Y-34020D01*
X59752Y-34048D01*
X59780Y-34104D01*
X59780Y-34132D01*
X58993Y-34020D02*
X59021Y-34048D01*
X59049Y-34020D01*
X59021Y-33992D01*
X58993Y-34020D01*
X59049Y-34020D01*
X59583Y-33738D02*
X59190Y-33738D01*
X59246Y-33738D02*
X59218Y-33710D01*
X59190Y-33654D01*
X59190Y-33570D01*
X59218Y-33513D01*
X59274Y-33485D01*
X59583Y-33485D01*
X59274Y-33485D02*
X59218Y-33457D01*
X59190Y-33401D01*
X59190Y-33317D01*
X59218Y-33260D01*
X59274Y-33232D01*
X59583Y-33232D01*
X59583Y-32698D02*
X59274Y-32698D01*
X59218Y-32726D01*
X59190Y-32782D01*
X59190Y-32895D01*
X59218Y-32951D01*
X59555Y-32698D02*
X59583Y-32754D01*
X59583Y-32895D01*
X59555Y-32951D01*
X59499Y-32979D01*
X59443Y-32979D01*
X59387Y-32951D01*
X59358Y-32895D01*
X59358Y-32754D01*
X59330Y-32698D01*
X59583Y-32417D02*
X58993Y-32417D01*
X59583Y-32164D02*
X59274Y-32164D01*
X59218Y-32192D01*
X59190Y-32248D01*
X59190Y-32332D01*
X59218Y-32389D01*
X59246Y-32417D01*
X59583Y-31798D02*
X59555Y-31854D01*
X59499Y-31882D01*
X58993Y-31882D01*
X59555Y-31348D02*
X59583Y-31404D01*
X59583Y-31517D01*
X59555Y-31573D01*
X59499Y-31601D01*
X59274Y-31601D01*
X59218Y-31573D01*
X59190Y-31517D01*
X59190Y-31404D01*
X59218Y-31348D01*
X59274Y-31320D01*
X59330Y-31320D01*
X59387Y-31601D01*
X59583Y-31067D02*
X59190Y-31067D01*
X59302Y-31067D02*
X59246Y-31039D01*
X59218Y-31011D01*
X59190Y-30954D01*
X59190Y-30898D01*
X58965Y-30279D02*
X59724Y-30786D01*
X59555Y-30111D02*
X59583Y-30055D01*
X59583Y-29942D01*
X59555Y-29886D01*
X59499Y-29858D01*
X59471Y-29858D01*
X59415Y-29886D01*
X59387Y-29942D01*
X59387Y-30026D01*
X59358Y-30083D01*
X59302Y-30111D01*
X59274Y-30111D01*
X59218Y-30083D01*
X59190Y-30026D01*
X59190Y-29942D01*
X59218Y-29886D01*
X59190Y-29605D02*
X59780Y-29605D01*
X59218Y-29605D02*
X59190Y-29548D01*
X59190Y-29436D01*
X59218Y-29380D01*
X59246Y-29351D01*
X59302Y-29323D01*
X59471Y-29323D01*
X59527Y-29351D01*
X59555Y-29380D01*
X59583Y-29436D01*
X59583Y-29548D01*
X59555Y-29605D01*
X59583Y-29070D02*
X59190Y-29070D01*
X59302Y-29070D02*
X59246Y-29042D01*
X59218Y-29014D01*
X59190Y-28958D01*
X59190Y-28902D01*
X59583Y-28705D02*
X59190Y-28705D01*
X58993Y-28705D02*
X59021Y-28733D01*
X59049Y-28705D01*
X59021Y-28677D01*
X58993Y-28705D01*
X59049Y-28705D01*
X59190Y-28423D02*
X59583Y-28423D01*
X59246Y-28423D02*
X59218Y-28395D01*
X59190Y-28339D01*
X59190Y-28255D01*
X59218Y-28198D01*
X59274Y-28170D01*
X59583Y-28170D01*
X59583Y-27889D02*
X58993Y-27889D01*
X59358Y-27833D02*
X59583Y-27664D01*
X59190Y-27664D02*
X59415Y-27889D01*
X59583Y-27327D02*
X59555Y-27383D01*
X59499Y-27411D01*
X58993Y-27411D01*
X59555Y-26877D02*
X59583Y-26933D01*
X59583Y-27046D01*
X59555Y-27102D01*
X59499Y-27130D01*
X59274Y-27130D01*
X59218Y-27102D01*
X59190Y-27046D01*
X59190Y-26933D01*
X59218Y-26877D01*
X59274Y-26849D01*
X59330Y-26849D01*
X59387Y-27130D01*
X59583Y-26596D02*
X59190Y-26596D01*
X59302Y-26596D02*
X59246Y-26567D01*
X59218Y-26539D01*
X59190Y-26483D01*
X59190Y-26427D01*
X59190Y-26230D02*
X59780Y-26230D01*
X59218Y-26230D02*
X59190Y-26174D01*
X59190Y-26061D01*
X59218Y-26005D01*
X59246Y-25977D01*
X59302Y-25949D01*
X59471Y-25949D01*
X59527Y-25977D01*
X59555Y-26005D01*
X59583Y-26061D01*
X59583Y-26174D01*
X59555Y-26230D01*
X59583Y-25696D02*
X59190Y-25696D01*
X58993Y-25696D02*
X59021Y-25724D01*
X59049Y-25696D01*
X59021Y-25668D01*
X58993Y-25696D01*
X59049Y-25696D01*
G54D10*
X66300Y-38600D02*
X66300Y-34100D01*
X66300Y-34100D02*
X72600Y-34100D01*
X72600Y-34100D02*
X72600Y-43100D01*
X72600Y-43100D02*
X66300Y-43100D01*
X66300Y-43100D02*
X66300Y-38600D01*
G54D12*
X65300Y-32300D02*
X65300Y-32700D01*
X65300Y-32700D02*
X65700Y-32700D01*
X65700Y-32700D02*
X65700Y-35900D01*
X65700Y-35900D02*
X64900Y-35900D01*
X64900Y-35900D02*
X64900Y-32700D01*
X64900Y-32700D02*
X65300Y-32700D01*
X65500Y-32700D02*
X65700Y-32900D01*
X65300Y-36300D02*
X65300Y-35900D01*
G54D13*
X74400Y-30900D02*
X74400Y-33900D01*
X72400Y-33900D02*
X72400Y-30900D01*
X72400Y-30900D02*
X74400Y-30900D01*
X74400Y-33900D02*
X72400Y-33900D01*
G54D14*
X69100Y-23900D02*
X69100Y-23500D01*
X69300Y-23700D02*
X68900Y-23700D01*
X70100Y-22700D02*
G75*
G03X70100Y-22700I-2000J0D01*
G74*
G01*
G54D15*
X68500Y-33250D02*
X68500Y-32750D01*
X68500Y-32750D02*
X69500Y-32750D01*
X69500Y-32750D02*
X69500Y-33250D01*
X68000Y-33250D02*
X68000Y-29250D01*
X68000Y-29250D02*
X70000Y-29250D01*
X70000Y-29250D02*
X70000Y-33250D01*
X70000Y-33250D02*
X68000Y-33250D01*
G54D12*
X71700Y-26600D02*
X71200Y-26600D01*
X71200Y-26600D02*
X71200Y-26100D01*
X71200Y-26100D02*
X67200Y-26100D01*
X67200Y-26100D02*
X67200Y-26600D01*
X67200Y-26600D02*
X66700Y-26600D01*
X67200Y-26600D02*
X67200Y-27100D01*
X67200Y-27100D02*
X71200Y-27100D01*
X71200Y-27100D02*
X71200Y-26600D01*
X70700Y-26100D02*
X70700Y-27100D01*
X70800Y-26100D02*
X70800Y-27100D01*
X62000Y-39750D02*
X62000Y-39250D01*
X62000Y-39250D02*
X62500Y-39250D01*
X62500Y-39250D02*
X62500Y-35250D01*
X62500Y-35250D02*
X62000Y-35250D01*
X62000Y-35250D02*
X62000Y-34750D01*
X62000Y-35250D02*
X61500Y-35250D01*
X61500Y-35250D02*
X61500Y-39250D01*
X61500Y-39250D02*
X62000Y-39250D01*
X62500Y-38750D02*
X61500Y-38750D01*
X62500Y-38850D02*
X61500Y-38850D01*
X63750Y-33250D02*
X63750Y-32750D01*
X63750Y-32750D02*
X64250Y-32750D01*
X64250Y-32750D02*
X64250Y-28750D01*
X64250Y-28750D02*
X63750Y-28750D01*
X63750Y-28750D02*
X63750Y-28250D01*
X63750Y-28750D02*
X63250Y-28750D01*
X63250Y-28750D02*
X63250Y-32750D01*
X63250Y-32750D02*
X63750Y-32750D01*
X64250Y-32250D02*
X63250Y-32250D01*
X64250Y-32350D02*
X63250Y-32350D01*
X62000Y-28250D02*
X62000Y-28750D01*
X62000Y-28750D02*
X61500Y-28750D01*
X61500Y-28750D02*
X61500Y-32750D01*
X61500Y-32750D02*
X62000Y-32750D01*
X62000Y-32750D02*
X62000Y-33250D01*
X62000Y-32750D02*
X62500Y-32750D01*
X62500Y-32750D02*
X62500Y-28750D01*
X62500Y-28750D02*
X62000Y-28750D01*
X61500Y-29250D02*
X62500Y-29250D01*
X61500Y-29150D02*
X62500Y-29150D01*
X63750Y-34750D02*
X63750Y-35250D01*
X63750Y-35250D02*
X63250Y-35250D01*
X63250Y-35250D02*
X63250Y-39250D01*
X63250Y-39250D02*
X63750Y-39250D01*
X63750Y-39250D02*
X63750Y-39750D01*
X63750Y-39250D02*
X64250Y-39250D01*
X64250Y-39250D02*
X64250Y-35250D01*
X64250Y-35250D02*
X63750Y-35250D01*
X63250Y-35750D02*
X64250Y-35750D01*
X63250Y-35650D02*
X64250Y-35650D01*
G54D14*
X60400Y-22400D02*
X61200Y-22400D01*
X60800Y-22000D02*
X60800Y-22800D01*
X65750Y-23800D02*
G75*
G03X65750Y-23800I-3150J0D01*
G74*
G01*
X59500Y-21600D02*
G75*
G03X59500Y-21600I-900J0D01*
G74*
G01*
X59500Y-44000D02*
G75*
G03X59500Y-44000I-900J0D01*
G74*
G01*
X74300Y-21600D02*
G75*
G03X74300Y-21600I-900J0D01*
G74*
G01*
X74300Y-44000D02*
G75*
G03X74300Y-44000I-900J0D01*
G74*
G01*
G54D12*
X65500Y-30500D02*
X65500Y-30100D01*
X65500Y-30100D02*
X65100Y-30100D01*
X65100Y-30100D02*
X65100Y-26900D01*
X65100Y-26900D02*
X65900Y-26900D01*
X65900Y-26900D02*
X65900Y-30100D01*
X65900Y-30100D02*
X65500Y-30100D01*
X65300Y-30100D02*
X65100Y-29900D01*
X65500Y-26500D02*
X65500Y-26900D01*
X66700Y-28000D02*
X67100Y-28000D01*
X67100Y-28000D02*
X67100Y-27600D01*
X67100Y-27600D02*
X70300Y-27600D01*
X70300Y-27600D02*
X70300Y-28400D01*
X70300Y-28400D02*
X67100Y-28400D01*
X67100Y-28400D02*
X67100Y-28000D01*
X67100Y-27800D02*
X67300Y-27600D01*
X70700Y-28000D02*
X70300Y-28000D01*
X60600Y-31600D02*
X60600Y-31200D01*
X60600Y-31200D02*
X60200Y-31200D01*
X60200Y-31200D02*
X60200Y-28000D01*
X60200Y-28000D02*
X61000Y-28000D01*
X61000Y-28000D02*
X61000Y-31200D01*
X61000Y-31200D02*
X60600Y-31200D01*
X60400Y-31200D02*
X60200Y-31000D01*
X60600Y-27600D02*
X60600Y-28000D01*
X65300Y-37800D02*
X65300Y-38200D01*
X65300Y-42800D02*
X65300Y-42400D01*
X65800Y-42400D02*
X64800Y-42400D01*
X64800Y-42400D02*
X64800Y-38200D01*
X64800Y-38200D02*
X65800Y-38200D01*
X65800Y-38200D02*
X65800Y-42400D01*
X65600Y-38200D02*
X65800Y-38400D01*
G54D10*
X73000Y-35300D02*
X74600Y-35300D01*
X74600Y-35300D02*
X74600Y-42600D01*
X74600Y-42600D02*
X73000Y-42600D01*
X73000Y-42600D02*
X73000Y-35300D01*
G54D12*
X65200Y-43600D02*
X68000Y-43600D01*
X68000Y-43600D02*
X68000Y-44400D01*
X68000Y-44400D02*
X65200Y-44400D01*
X65200Y-44400D02*
X65200Y-43600D01*
X65200Y-43800D02*
X65400Y-43600D01*
X71600Y-44400D02*
X68800Y-44400D01*
X68800Y-44400D02*
X68800Y-43600D01*
X68800Y-43600D02*
X71600Y-43600D01*
X71600Y-43600D02*
X71600Y-44400D01*
X71600Y-44200D02*
X71400Y-44400D01*
X72400Y-30300D02*
X72400Y-26300D01*
X72400Y-26300D02*
X74400Y-26300D01*
X74400Y-26300D02*
X74400Y-30300D01*
X74400Y-30300D02*
X72400Y-30300D01*
X64200Y-43600D02*
X60200Y-43600D01*
X64200Y-44100D02*
X64200Y-41100D01*
X64200Y-41100D02*
X60200Y-41100D01*
X60200Y-41100D02*
X60200Y-44100D01*
X60200Y-44100D02*
X64200Y-44100D01*
X71000Y-25200D02*
X71000Y-24800D01*
X71000Y-24800D02*
X70600Y-24800D01*
X70600Y-24800D02*
X70600Y-21600D01*
X70600Y-21600D02*
X71400Y-21600D01*
X71400Y-21600D02*
X71400Y-24800D01*
X71400Y-24800D02*
X71000Y-24800D01*
X70800Y-24800D02*
X70600Y-24600D01*
X71000Y-21200D02*
X71000Y-21600D01*
G54D13*
X74150Y-23080D02*
X72650Y-23080D01*
G54D16*
X74107Y-24100D02*
G75*
G03X74107Y-24100I-707J0D01*
G74*
G01*
G54D15*
X72649Y-23100D02*
G75*
G03X74150Y-23100I750J-999D01*
G74*
G01*
G54D17*
X72950Y-24100D02*
G75*
G03X73400Y-24550I450J0D01*
G74*
G01*
X73850Y-24100D02*
G75*
G03X73400Y-23650I-450J0D01*
G74*
G01*
X72750Y-24100D02*
G75*
G03X73400Y-24750I650J0D01*
G74*
G01*
X74050Y-24100D02*
G75*
G03X73400Y-23450I-650J0D01*
G74*
G01*
X72550Y-24100D02*
G75*
G03X73400Y-24950I850J0D01*
G74*
G01*
X74250Y-24100D02*
G75*
G03X73400Y-23250I-850J0D01*
G74*
G01*
G54D10*
X68659Y-38665D02*
X68659Y-38853D01*
X68265Y-38853D01*
X68659Y-38328D02*
X68659Y-38553D01*
X68659Y-38440D02*
X68265Y-38440D01*
X68321Y-38478D01*
X68359Y-38515D01*
X68378Y-38553D01*
X69803Y-39471D02*
X69784Y-39453D01*
X69765Y-39415D01*
X69765Y-39321D01*
X69784Y-39284D01*
X69803Y-39265D01*
X69840Y-39246D01*
X69878Y-39246D01*
X69934Y-39265D01*
X70159Y-39490D01*
X70159Y-39246D01*
X69803Y-39096D02*
X69784Y-39078D01*
X69765Y-39040D01*
X69765Y-38946D01*
X69784Y-38909D01*
X69803Y-38890D01*
X69840Y-38871D01*
X69878Y-38871D01*
X69934Y-38890D01*
X70159Y-39115D01*
X70159Y-38871D01*
X69765Y-38628D02*
X69765Y-38590D01*
X69784Y-38553D01*
X69803Y-38534D01*
X69840Y-38515D01*
X69915Y-38496D01*
X70009Y-38496D01*
X70084Y-38515D01*
X70121Y-38534D01*
X70140Y-38553D01*
X70159Y-38590D01*
X70159Y-38628D01*
X70140Y-38665D01*
X70121Y-38684D01*
X70084Y-38703D01*
X70009Y-38721D01*
X69915Y-38721D01*
X69840Y-38703D01*
X69803Y-38684D01*
X69784Y-38665D01*
X69765Y-38628D01*
X69896Y-38159D02*
X70159Y-38159D01*
X69896Y-38328D02*
X70103Y-38328D01*
X70140Y-38309D01*
X70159Y-38271D01*
X70159Y-38215D01*
X70140Y-38178D01*
X70121Y-38159D01*
X70159Y-37971D02*
X69765Y-37971D01*
X69953Y-37971D02*
X69953Y-37746D01*
X70159Y-37746D02*
X69765Y-37746D01*
G54D13*
X65522Y-34383D02*
X65260Y-34550D01*
X65522Y-34669D02*
X64972Y-34669D01*
X64972Y-34478D01*
X64998Y-34430D01*
X65025Y-34407D01*
X65077Y-34383D01*
X65155Y-34383D01*
X65208Y-34407D01*
X65234Y-34430D01*
X65260Y-34478D01*
X65260Y-34669D01*
X65025Y-34192D02*
X64998Y-34169D01*
X64972Y-34121D01*
X64972Y-34002D01*
X64998Y-33954D01*
X65025Y-33930D01*
X65077Y-33907D01*
X65129Y-33907D01*
X65208Y-33930D01*
X65522Y-34216D01*
X65522Y-33907D01*
X72161Y-31495D02*
X71761Y-31495D01*
X71761Y-31342D01*
X71780Y-31304D01*
X71800Y-31285D01*
X71838Y-31266D01*
X71895Y-31266D01*
X71933Y-31285D01*
X71952Y-31304D01*
X71971Y-31342D01*
X71971Y-31495D01*
X72161Y-30885D02*
X72161Y-31114D01*
X72161Y-30999D02*
X71761Y-30999D01*
X71819Y-31038D01*
X71857Y-31076D01*
X71876Y-31114D01*
G54D12*
X68000Y-23635D02*
X67971Y-23664D01*
X67885Y-23692D01*
X67828Y-23692D01*
X67742Y-23664D01*
X67685Y-23607D01*
X67657Y-23550D01*
X67628Y-23435D01*
X67628Y-23350D01*
X67657Y-23235D01*
X67685Y-23178D01*
X67742Y-23121D01*
X67828Y-23092D01*
X67885Y-23092D01*
X67971Y-23121D01*
X68000Y-23150D01*
X68200Y-23092D02*
X68571Y-23092D01*
X68371Y-23321D01*
X68457Y-23321D01*
X68514Y-23350D01*
X68542Y-23378D01*
X68571Y-23435D01*
X68571Y-23578D01*
X68542Y-23635D01*
X68514Y-23664D01*
X68457Y-23692D01*
X68285Y-23692D01*
X68228Y-23664D01*
X68200Y-23635D01*
G54D13*
X68102Y-29942D02*
X68507Y-29942D01*
X68554Y-29921D01*
X68578Y-29900D01*
X68602Y-29857D01*
X68602Y-29771D01*
X68578Y-29728D01*
X68554Y-29707D01*
X68507Y-29685D01*
X68102Y-29685D01*
X68602Y-29235D02*
X68602Y-29492D01*
X68602Y-29364D02*
X68102Y-29364D01*
X68173Y-29407D01*
X68221Y-29450D01*
X68245Y-29492D01*
X69202Y-32535D02*
X68702Y-32535D01*
X69059Y-32402D01*
X68702Y-32269D01*
X69202Y-32269D01*
X69154Y-31850D02*
X69178Y-31869D01*
X69202Y-31926D01*
X69202Y-31964D01*
X69178Y-32021D01*
X69130Y-32059D01*
X69083Y-32078D01*
X68988Y-32097D01*
X68916Y-32097D01*
X68821Y-32078D01*
X68773Y-32059D01*
X68726Y-32021D01*
X68702Y-31964D01*
X68702Y-31926D01*
X68726Y-31869D01*
X68750Y-31850D01*
X68702Y-31716D02*
X68702Y-31469D01*
X68892Y-31602D01*
X68892Y-31545D01*
X68916Y-31507D01*
X68940Y-31488D01*
X68988Y-31469D01*
X69107Y-31469D01*
X69154Y-31488D01*
X69178Y-31507D01*
X69202Y-31545D01*
X69202Y-31659D01*
X69178Y-31697D01*
X69154Y-31716D01*
X68869Y-31126D02*
X69202Y-31126D01*
X68678Y-31221D02*
X69035Y-31316D01*
X69035Y-31069D01*
X68702Y-30840D02*
X68702Y-30802D01*
X68726Y-30764D01*
X68750Y-30745D01*
X68797Y-30726D01*
X68892Y-30707D01*
X69011Y-30707D01*
X69107Y-30726D01*
X69154Y-30745D01*
X69178Y-30764D01*
X69202Y-30802D01*
X69202Y-30840D01*
X69178Y-30878D01*
X69154Y-30897D01*
X69107Y-30916D01*
X69011Y-30935D01*
X68892Y-30935D01*
X68797Y-30916D01*
X68750Y-30897D01*
X68726Y-30878D01*
X68702Y-30840D01*
X68702Y-30364D02*
X68702Y-30440D01*
X68726Y-30478D01*
X68750Y-30497D01*
X68821Y-30535D01*
X68916Y-30554D01*
X69107Y-30554D01*
X69154Y-30535D01*
X69178Y-30516D01*
X69202Y-30478D01*
X69202Y-30402D01*
X69178Y-30364D01*
X69154Y-30345D01*
X69107Y-30326D01*
X68988Y-30326D01*
X68940Y-30345D01*
X68916Y-30364D01*
X68892Y-30402D01*
X68892Y-30478D01*
X68916Y-30516D01*
X68940Y-30535D01*
X68988Y-30554D01*
X68702Y-30192D02*
X68702Y-29945D01*
X68892Y-30078D01*
X68892Y-30021D01*
X68916Y-29983D01*
X68940Y-29964D01*
X68988Y-29945D01*
X69107Y-29945D01*
X69154Y-29964D01*
X69178Y-29983D01*
X69202Y-30021D01*
X69202Y-30135D01*
X69178Y-30173D01*
X69154Y-30192D01*
G54D15*
X68904Y-26842D02*
X68904Y-26242D01*
X69000Y-26242D01*
X69057Y-26271D01*
X69095Y-26328D01*
X69114Y-26385D01*
X69133Y-26500D01*
X69133Y-26585D01*
X69114Y-26700D01*
X69095Y-26757D01*
X69057Y-26814D01*
X69000Y-26842D01*
X68904Y-26842D01*
X69495Y-26242D02*
X69304Y-26242D01*
X69285Y-26528D01*
X69304Y-26500D01*
X69342Y-26471D01*
X69438Y-26471D01*
X69476Y-26500D01*
X69495Y-26528D01*
X69514Y-26585D01*
X69514Y-26728D01*
X69495Y-26785D01*
X69476Y-26814D01*
X69438Y-26842D01*
X69342Y-26842D01*
X69304Y-26814D01*
X69285Y-26785D01*
G54D12*
G54D15*
X62242Y-37545D02*
X61642Y-37545D01*
X61642Y-37449D01*
X61671Y-37392D01*
X61728Y-37354D01*
X61785Y-37335D01*
X61900Y-37316D01*
X61985Y-37316D01*
X62100Y-37335D01*
X62157Y-37354D01*
X62214Y-37392D01*
X62242Y-37449D01*
X62242Y-37545D01*
X62242Y-36935D02*
X62242Y-37164D01*
X62242Y-37049D02*
X61642Y-37049D01*
X61728Y-37088D01*
X61785Y-37126D01*
X61814Y-37164D01*
G54D12*
G54D15*
X63992Y-31045D02*
X63392Y-31045D01*
X63392Y-30949D01*
X63421Y-30892D01*
X63478Y-30854D01*
X63535Y-30835D01*
X63650Y-30816D01*
X63735Y-30816D01*
X63850Y-30835D01*
X63907Y-30854D01*
X63964Y-30892D01*
X63992Y-30949D01*
X63992Y-31045D01*
X63592Y-30473D02*
X63992Y-30473D01*
X63364Y-30569D02*
X63792Y-30664D01*
X63792Y-30416D01*
G54D12*
G54D15*
X62242Y-31045D02*
X61642Y-31045D01*
X61642Y-30949D01*
X61671Y-30892D01*
X61728Y-30854D01*
X61785Y-30835D01*
X61900Y-30816D01*
X61985Y-30816D01*
X62100Y-30835D01*
X62157Y-30854D01*
X62214Y-30892D01*
X62242Y-30949D01*
X62242Y-31045D01*
X61642Y-30683D02*
X61642Y-30435D01*
X61871Y-30569D01*
X61871Y-30511D01*
X61900Y-30473D01*
X61928Y-30454D01*
X61985Y-30435D01*
X62128Y-30435D01*
X62185Y-30454D01*
X62214Y-30473D01*
X62242Y-30511D01*
X62242Y-30626D01*
X62214Y-30664D01*
X62185Y-30683D01*
G54D12*
G54D15*
X63992Y-37545D02*
X63392Y-37545D01*
X63392Y-37449D01*
X63421Y-37392D01*
X63478Y-37354D01*
X63535Y-37335D01*
X63650Y-37316D01*
X63735Y-37316D01*
X63850Y-37335D01*
X63907Y-37354D01*
X63964Y-37392D01*
X63992Y-37449D01*
X63992Y-37545D01*
X63450Y-37164D02*
X63421Y-37145D01*
X63392Y-37107D01*
X63392Y-37011D01*
X63421Y-36973D01*
X63450Y-36954D01*
X63507Y-36935D01*
X63564Y-36935D01*
X63650Y-36954D01*
X63992Y-37183D01*
X63992Y-36935D01*
G54D12*
X62500Y-22485D02*
X62471Y-22514D01*
X62385Y-22542D01*
X62328Y-22542D01*
X62242Y-22514D01*
X62185Y-22457D01*
X62157Y-22400D01*
X62128Y-22285D01*
X62128Y-22200D01*
X62157Y-22085D01*
X62185Y-22028D01*
X62242Y-21971D01*
X62328Y-21942D01*
X62385Y-21942D01*
X62471Y-21971D01*
X62500Y-22000D01*
X63071Y-22542D02*
X62728Y-22542D01*
X62900Y-22542D02*
X62900Y-21942D01*
X62842Y-22028D01*
X62785Y-22085D01*
X62728Y-22114D01*
G54D13*
X65722Y-28583D02*
X65460Y-28750D01*
X65722Y-28869D02*
X65172Y-28869D01*
X65172Y-28678D01*
X65198Y-28630D01*
X65225Y-28607D01*
X65277Y-28583D01*
X65355Y-28583D01*
X65408Y-28607D01*
X65434Y-28630D01*
X65460Y-28678D01*
X65460Y-28869D01*
X65172Y-28416D02*
X65172Y-28107D01*
X65382Y-28273D01*
X65382Y-28202D01*
X65408Y-28154D01*
X65434Y-28130D01*
X65486Y-28107D01*
X65617Y-28107D01*
X65670Y-28130D01*
X65696Y-28154D01*
X65722Y-28202D01*
X65722Y-28345D01*
X65696Y-28392D01*
X65670Y-28416D01*
X68616Y-28222D02*
X68450Y-27960D01*
X68330Y-28222D02*
X68330Y-27672D01*
X68521Y-27672D01*
X68569Y-27698D01*
X68592Y-27725D01*
X68616Y-27777D01*
X68616Y-27855D01*
X68592Y-27908D01*
X68569Y-27934D01*
X68521Y-27960D01*
X68330Y-27960D01*
X69045Y-27855D02*
X69045Y-28222D01*
X68926Y-27646D02*
X68807Y-28039D01*
X69116Y-28039D01*
X60822Y-29683D02*
X60560Y-29850D01*
X60822Y-29969D02*
X60272Y-29969D01*
X60272Y-29778D01*
X60298Y-29730D01*
X60325Y-29707D01*
X60377Y-29683D01*
X60455Y-29683D01*
X60508Y-29707D01*
X60534Y-29730D01*
X60560Y-29778D01*
X60560Y-29969D01*
X60822Y-29207D02*
X60822Y-29492D01*
X60822Y-29350D02*
X60272Y-29350D01*
X60351Y-29397D01*
X60403Y-29445D01*
X60429Y-29492D01*
X65522Y-40383D02*
X65522Y-40621D01*
X64972Y-40621D01*
X65025Y-40240D02*
X64998Y-40216D01*
X64972Y-40169D01*
X64972Y-40050D01*
X64998Y-40002D01*
X65025Y-39978D01*
X65077Y-39954D01*
X65129Y-39954D01*
X65208Y-39978D01*
X65522Y-40264D01*
X65522Y-39954D01*
G54D10*
X73553Y-34931D02*
X73553Y-35062D01*
X73759Y-35062D02*
X73365Y-35062D01*
X73365Y-34874D01*
X73759Y-34518D02*
X73759Y-34743D01*
X73759Y-34631D02*
X73365Y-34631D01*
X73421Y-34668D01*
X73459Y-34706D01*
X73478Y-34743D01*
G54D13*
X66533Y-44123D02*
X66514Y-44142D01*
X66457Y-44161D01*
X66419Y-44161D01*
X66361Y-44142D01*
X66323Y-44104D01*
X66304Y-44066D01*
X66285Y-43990D01*
X66285Y-43933D01*
X66304Y-43857D01*
X66323Y-43819D01*
X66361Y-43780D01*
X66419Y-43761D01*
X66457Y-43761D01*
X66514Y-43780D01*
X66533Y-43800D01*
X66685Y-43800D02*
X66704Y-43780D01*
X66742Y-43761D01*
X66838Y-43761D01*
X66876Y-43780D01*
X66895Y-43800D01*
X66914Y-43838D01*
X66914Y-43876D01*
X66895Y-43933D01*
X66666Y-44161D01*
X66914Y-44161D01*
X70133Y-44123D02*
X70114Y-44142D01*
X70057Y-44161D01*
X70019Y-44161D01*
X69961Y-44142D01*
X69923Y-44104D01*
X69904Y-44066D01*
X69885Y-43990D01*
X69885Y-43933D01*
X69904Y-43857D01*
X69923Y-43819D01*
X69961Y-43780D01*
X70019Y-43761D01*
X70057Y-43761D01*
X70114Y-43780D01*
X70133Y-43800D01*
X70476Y-43895D02*
X70476Y-44161D01*
X70380Y-43742D02*
X70285Y-44028D01*
X70533Y-44028D01*
X72161Y-26995D02*
X71761Y-26995D01*
X71761Y-26842D01*
X71780Y-26804D01*
X71800Y-26785D01*
X71838Y-26766D01*
X71895Y-26766D01*
X71933Y-26785D01*
X71952Y-26804D01*
X71971Y-26842D01*
X71971Y-26995D01*
X71800Y-26614D02*
X71780Y-26595D01*
X71761Y-26557D01*
X71761Y-26461D01*
X71780Y-26423D01*
X71800Y-26404D01*
X71838Y-26385D01*
X71876Y-26385D01*
X71933Y-26404D01*
X72161Y-26633D01*
X72161Y-26385D01*
X71222Y-23283D02*
X70960Y-23450D01*
X71222Y-23569D02*
X70672Y-23569D01*
X70672Y-23378D01*
X70698Y-23330D01*
X70725Y-23307D01*
X70777Y-23283D01*
X70855Y-23283D01*
X70908Y-23307D01*
X70934Y-23330D01*
X70960Y-23378D01*
X70960Y-23569D01*
X70672Y-22830D02*
X70672Y-23069D01*
X70934Y-23092D01*
X70908Y-23069D01*
X70882Y-23021D01*
X70882Y-22902D01*
X70908Y-22854D01*
X70934Y-22830D01*
X70986Y-22807D01*
X71117Y-22807D01*
X71170Y-22830D01*
X71196Y-22854D01*
X71222Y-22902D01*
X71222Y-23021D01*
X71196Y-23069D01*
X71170Y-23092D01*
G54D18*
X72021Y-24421D02*
X71721Y-24421D01*
X71721Y-24350D01*
X71735Y-24307D01*
X71764Y-24278D01*
X71792Y-24264D01*
X71850Y-24250D01*
X71892Y-24250D01*
X71950Y-24264D01*
X71978Y-24278D01*
X72007Y-24307D01*
X72021Y-24350D01*
X72021Y-24421D01*
X71721Y-23992D02*
X71721Y-24050D01*
X71735Y-24078D01*
X71750Y-24092D01*
X71792Y-24121D01*
X71850Y-24135D01*
X71964Y-24135D01*
X71992Y-24121D01*
X72007Y-24107D01*
X72021Y-24078D01*
X72021Y-24021D01*
X72007Y-23992D01*
X71992Y-23978D01*
X71964Y-23964D01*
X71892Y-23964D01*
X71864Y-23978D01*
X71850Y-23992D01*
X71835Y-24021D01*
X71835Y-24078D01*
X71850Y-24107D01*
X71864Y-24121D01*
X71892Y-24135D01*
X75021Y-24392D02*
X75021Y-24535D01*
X74721Y-24535D01*
X74864Y-24292D02*
X74864Y-24192D01*
X75021Y-24150D02*
X75021Y-24292D01*
X74721Y-24292D01*
X74721Y-24150D01*
X75021Y-24021D02*
X74721Y-24021D01*
X74721Y-23950D01*
X74735Y-23907D01*
X74764Y-23878D01*
X74792Y-23864D01*
X74850Y-23850D01*
X74892Y-23850D01*
X74950Y-23864D01*
X74978Y-23878D01*
X75007Y-23907D01*
X75021Y-23950D01*
X75021Y-24021D01*
M02*
